M48
; DRILL file {KiCad 8.0.6} date 2024-11-27T23:10:40-0800
; FORMAT={-:-/ absolute / inch / decimal}
; #@! TF.CreationDate,2024-11-27T23:10:40-08:00
; #@! TF.GenerationSoftware,Kicad,Pcbnew,8.0.6
; #@! TF.FileFunction,Plated,1,3,Blind
FMAT,2
INCH
; #@! TA.AperFunction,Plated,Buried,ViaDrill
T1C0.0118
%
G90
G05
T1
X4.43Y-2.25
X4.5Y-2.95
X4.62Y-3.25
X4.65Y-2.76
X4.77Y-3.33
X4.79Y-2.37
X4.9Y-2.34
X4.9Y-2.99
X4.91Y-3.49
X5.1Y-2.6
X5.22Y-2.31
X5.44Y-1.8891
X5.45Y-2.96
X5.45Y-3.0
X5.46Y-2.2391
X5.52Y-1.7991
X5.6274Y-1.8211
X5.71Y-2.97
X5.71Y-3.81
X5.8067Y-3.2233
X5.8526Y-2.1989
X5.9Y-3.6061
X5.9689Y-1.8874
X5.99Y-3.81
X6.01Y-2.46
X6.05Y-2.4
X6.12Y-2.19
X6.18Y-3.87
X6.28Y-3.25
X6.46Y-4.1
X6.4909Y-2.32
X6.71Y-2.6491
X6.8891Y-2.32
X6.94Y-4.72
X6.96Y-3.42
X6.98Y-3.31
X7.05Y-3.74
X7.2Y-2.93
X7.29Y-2.91
X7.54Y-2.73
X7.61Y-3.17
X7.75Y-2.86
M30
