%TF.GenerationSoftware,KiCad,Pcbnew,8.0.6*%
%TF.CreationDate,2024-11-27T03:53:43-08:00*%
%TF.ProjectId,eecsc206a,65656373-6332-4303-9661-2e6b69636164,rev?*%
%TF.SameCoordinates,Original*%
%TF.FileFunction,Copper,L1,Top*%
%TF.FilePolarity,Positive*%
%FSLAX46Y46*%
G04 Gerber Fmt 4.6, Leading zero omitted, Abs format (unit mm)*
G04 Created by KiCad (PCBNEW 8.0.6) date 2024-11-27 03:53:43*
%MOMM*%
%LPD*%
G01*
G04 APERTURE LIST*
G04 Aperture macros list*
%AMRoundRect*
0 Rectangle with rounded corners*
0 $1 Rounding radius*
0 $2 $3 $4 $5 $6 $7 $8 $9 X,Y pos of 4 corners*
0 Add a 4 corners polygon primitive as box body*
4,1,4,$2,$3,$4,$5,$6,$7,$8,$9,$2,$3,0*
0 Add four circle primitives for the rounded corners*
1,1,$1+$1,$2,$3*
1,1,$1+$1,$4,$5*
1,1,$1+$1,$6,$7*
1,1,$1+$1,$8,$9*
0 Add four rect primitives between the rounded corners*
20,1,$1+$1,$2,$3,$4,$5,0*
20,1,$1+$1,$4,$5,$6,$7,0*
20,1,$1+$1,$6,$7,$8,$9,0*
20,1,$1+$1,$8,$9,$2,$3,0*%
G04 Aperture macros list end*
%TA.AperFunction,SMDPad,CuDef*%
%ADD10R,2.180000X1.600000*%
%TD*%
%TA.AperFunction,ComponentPad*%
%ADD11C,0.800000*%
%TD*%
%TA.AperFunction,ComponentPad*%
%ADD12C,6.000000*%
%TD*%
%TA.AperFunction,SMDPad,CuDef*%
%ADD13C,1.000000*%
%TD*%
%TA.AperFunction,SMDPad,CuDef*%
%ADD14RoundRect,0.150000X-0.512500X-0.150000X0.512500X-0.150000X0.512500X0.150000X-0.512500X0.150000X0*%
%TD*%
%TA.AperFunction,SMDPad,CuDef*%
%ADD15RoundRect,0.150000X-0.150000X0.512500X-0.150000X-0.512500X0.150000X-0.512500X0.150000X0.512500X0*%
%TD*%
%TA.AperFunction,SMDPad,CuDef*%
%ADD16RoundRect,0.150000X0.512500X0.150000X-0.512500X0.150000X-0.512500X-0.150000X0.512500X-0.150000X0*%
%TD*%
%TA.AperFunction,SMDPad,CuDef*%
%ADD17C,2.000000*%
%TD*%
%TA.AperFunction,SMDPad,CuDef*%
%ADD18RoundRect,0.160000X-0.197500X-0.160000X0.197500X-0.160000X0.197500X0.160000X-0.197500X0.160000X0*%
%TD*%
%TA.AperFunction,SMDPad,CuDef*%
%ADD19RoundRect,0.160000X0.197500X0.160000X-0.197500X0.160000X-0.197500X-0.160000X0.197500X-0.160000X0*%
%TD*%
%TA.AperFunction,SMDPad,CuDef*%
%ADD20RoundRect,0.160000X-0.160000X0.197500X-0.160000X-0.197500X0.160000X-0.197500X0.160000X0.197500X0*%
%TD*%
%TA.AperFunction,SMDPad,CuDef*%
%ADD21RoundRect,0.160000X0.160000X-0.197500X0.160000X0.197500X-0.160000X0.197500X-0.160000X-0.197500X0*%
%TD*%
%TA.AperFunction,ComponentPad*%
%ADD22C,1.600000*%
%TD*%
%TA.AperFunction,ComponentPad*%
%ADD23RoundRect,0.250000X0.550000X-0.550000X0.550000X0.550000X-0.550000X0.550000X-0.550000X-0.550000X0*%
%TD*%
%TA.AperFunction,ComponentPad*%
%ADD24RoundRect,0.250000X0.550000X0.550000X-0.550000X0.550000X-0.550000X-0.550000X0.550000X-0.550000X0*%
%TD*%
%TA.AperFunction,ComponentPad*%
%ADD25RoundRect,0.250000X-0.550000X-0.550000X0.550000X-0.550000X0.550000X0.550000X-0.550000X0.550000X0*%
%TD*%
%TA.AperFunction,ComponentPad*%
%ADD26RoundRect,0.250000X-0.550000X0.550000X-0.550000X-0.550000X0.550000X-0.550000X0.550000X0.550000X0*%
%TD*%
%TA.AperFunction,SMDPad,CuDef*%
%ADD27RoundRect,0.125000X-0.125000X0.125000X-0.125000X-0.125000X0.125000X-0.125000X0.125000X0.125000X0*%
%TD*%
%TA.AperFunction,SMDPad,CuDef*%
%ADD28RoundRect,0.140000X0.170000X-0.140000X0.170000X0.140000X-0.170000X0.140000X-0.170000X-0.140000X0*%
%TD*%
%TA.AperFunction,SMDPad,CuDef*%
%ADD29RoundRect,0.140000X0.140000X0.170000X-0.140000X0.170000X-0.140000X-0.170000X0.140000X-0.170000X0*%
%TD*%
%TA.AperFunction,SMDPad,CuDef*%
%ADD30RoundRect,0.140000X-0.140000X-0.170000X0.140000X-0.170000X0.140000X0.170000X-0.140000X0.170000X0*%
%TD*%
%TA.AperFunction,SMDPad,CuDef*%
%ADD31RoundRect,0.140000X-0.170000X0.140000X-0.170000X-0.140000X0.170000X-0.140000X0.170000X0.140000X0*%
%TD*%
%TA.AperFunction,SMDPad,CuDef*%
%ADD32RoundRect,0.250000X-0.412500X-0.925000X0.412500X-0.925000X0.412500X0.925000X-0.412500X0.925000X0*%
%TD*%
%TA.AperFunction,HeatsinkPad*%
%ADD33R,3.250000X3.250000*%
%TD*%
%TA.AperFunction,SMDPad,CuDef*%
%ADD34RoundRect,0.062500X-0.425000X0.062500X-0.425000X-0.062500X0.425000X-0.062500X0.425000X0.062500X0*%
%TD*%
%TA.AperFunction,SMDPad,CuDef*%
%ADD35RoundRect,0.062500X-0.062500X0.425000X-0.062500X-0.425000X0.062500X-0.425000X0.062500X0.425000X0*%
%TD*%
%TA.AperFunction,SMDPad,CuDef*%
%ADD36R,1.100000X1.400000*%
%TD*%
%TA.AperFunction,ComponentPad*%
%ADD37R,1.700000X1.700000*%
%TD*%
%TA.AperFunction,ComponentPad*%
%ADD38O,1.700000X1.700000*%
%TD*%
%TA.AperFunction,SMDPad,CuDef*%
%ADD39RoundRect,0.150000X-0.650000X-0.150000X0.650000X-0.150000X0.650000X0.150000X-0.650000X0.150000X0*%
%TD*%
%TA.AperFunction,SMDPad,CuDef*%
%ADD40RoundRect,0.250000X0.750000X-0.750000X0.750000X0.750000X-0.750000X0.750000X-0.750000X-0.750000X0*%
%TD*%
%TA.AperFunction,SMDPad,CuDef*%
%ADD41R,2.000000X0.600000*%
%TD*%
%TA.AperFunction,HeatsinkPad*%
%ADD42R,3.200000X3.200000*%
%TD*%
%TA.AperFunction,SMDPad,CuDef*%
%ADD43RoundRect,0.050000X-0.387500X0.050000X-0.387500X-0.050000X0.387500X-0.050000X0.387500X0.050000X0*%
%TD*%
%TA.AperFunction,SMDPad,CuDef*%
%ADD44RoundRect,0.050000X-0.050000X0.387500X-0.050000X-0.387500X0.050000X-0.387500X0.050000X0.387500X0*%
%TD*%
%TA.AperFunction,SMDPad,CuDef*%
%ADD45RoundRect,0.125000X-0.125000X-0.125000X0.125000X-0.125000X0.125000X0.125000X-0.125000X0.125000X0*%
%TD*%
%TA.AperFunction,SMDPad,CuDef*%
%ADD46R,3.505200X1.397000*%
%TD*%
%TA.AperFunction,SMDPad,CuDef*%
%ADD47R,8.458200X6.553200*%
%TD*%
%TA.AperFunction,SMDPad,CuDef*%
%ADD48R,0.250000X0.475000*%
%TD*%
%TA.AperFunction,SMDPad,CuDef*%
%ADD49R,0.475000X0.250000*%
%TD*%
%TA.AperFunction,SMDPad,CuDef*%
%ADD50RoundRect,0.250000X0.925000X-0.412500X0.925000X0.412500X-0.925000X0.412500X-0.925000X-0.412500X0*%
%TD*%
%TA.AperFunction,SMDPad,CuDef*%
%ADD51R,0.600000X2.000000*%
%TD*%
%TA.AperFunction,ComponentPad*%
%ADD52O,2.600000X1.100000*%
%TD*%
%TA.AperFunction,ComponentPad*%
%ADD53O,2.100000X1.100000*%
%TD*%
%TA.AperFunction,SMDPad,CuDef*%
%ADD54R,0.700000X1.000000*%
%TD*%
%TA.AperFunction,SMDPad,CuDef*%
%ADD55R,0.700000X0.300000*%
%TD*%
%TA.AperFunction,ViaPad*%
%ADD56C,0.600000*%
%TD*%
%TA.AperFunction,Conductor*%
%ADD57C,0.900000*%
%TD*%
%TA.AperFunction,Conductor*%
%ADD58C,0.200000*%
%TD*%
%TA.AperFunction,Conductor*%
%ADD59C,0.600000*%
%TD*%
%TA.AperFunction,Conductor*%
%ADD60C,0.500000*%
%TD*%
G04 APERTURE END LIST*
D10*
%TO.P,SW2,2,A*%
%TO.N,GND*%
X133332000Y-95123000D03*
%TO.P,SW2,1,A*%
%TO.N,/RUN*%
X142512000Y-95123000D03*
%TD*%
%TO.P,SW1,1,A*%
%TO.N,/~{USB_BOOT}*%
X163558000Y-83820000D03*
%TO.P,SW1,2,A*%
%TO.N,GND*%
X172738000Y-83820000D03*
%TD*%
D11*
%TO.P,H4,1*%
%TO.N,N/C*%
X117130000Y-103378000D03*
X117789010Y-101787010D03*
X117789010Y-104968990D03*
X119380000Y-101128000D03*
D12*
X119380000Y-103378000D03*
D11*
X119380000Y-105628000D03*
X120970990Y-101787010D03*
X120970990Y-104968990D03*
X121630000Y-103378000D03*
%TD*%
%TO.P,H3,1*%
%TO.N,N/C*%
X147102000Y-63754000D03*
X147761010Y-62163010D03*
X147761010Y-65344990D03*
X149352000Y-61504000D03*
D12*
X149352000Y-63754000D03*
D11*
X149352000Y-66004000D03*
X150942990Y-62163010D03*
X150942990Y-65344990D03*
X151602000Y-63754000D03*
%TD*%
%TO.P,H2,1*%
%TO.N,N/C*%
X151166000Y-138684000D03*
X151825010Y-137093010D03*
X151825010Y-140274990D03*
X153416000Y-136434000D03*
D12*
X153416000Y-138684000D03*
D11*
X153416000Y-140934000D03*
X155006990Y-137093010D03*
X155006990Y-140274990D03*
X155666000Y-138684000D03*
%TD*%
%TO.P,H1,1*%
%TO.N,N/C*%
X182154000Y-107442000D03*
X182813010Y-105851010D03*
X182813010Y-109032990D03*
X184404000Y-105192000D03*
D12*
X184404000Y-107442000D03*
D11*
X184404000Y-109692000D03*
X185994990Y-105851010D03*
X185994990Y-109032990D03*
X186654000Y-107442000D03*
%TD*%
D13*
%TO.P,TP5,1*%
%TO.N,GND*%
X191770000Y-90170000D03*
%TD*%
D14*
%TO.P,U17,1,+*%
%TO.N,Net-(U17-+)*%
X120020500Y-76520000D03*
%TO.P,U17,2,V-*%
%TO.N,GND*%
X120020500Y-77470000D03*
%TO.P,U17,3,-*%
%TO.N,Net-(U17--)*%
X120020500Y-78420000D03*
%TO.P,U17,4*%
%TO.N,/Strain Gauges and Pressure Sensors/G5*%
X122295500Y-78420000D03*
%TO.P,U17,5,V+*%
%TO.N,+3V3*%
X122295500Y-76520000D03*
%TD*%
D15*
%TO.P,U16,1,+*%
%TO.N,Net-(U16-+)*%
X193228000Y-76661500D03*
%TO.P,U16,2,V-*%
%TO.N,GND*%
X192278000Y-76661500D03*
%TO.P,U16,3,-*%
%TO.N,Net-(U16--)*%
X191328000Y-76661500D03*
%TO.P,U16,4*%
%TO.N,/Strain Gauges and Pressure Sensors/G1*%
X191328000Y-78936500D03*
%TO.P,U16,5,V+*%
%TO.N,+3V3*%
X193228000Y-78936500D03*
%TD*%
%TO.P,U15,1,+*%
%TO.N,Net-(U15-+)*%
X129474000Y-62108500D03*
%TO.P,U15,2,V-*%
%TO.N,GND*%
X128524000Y-62108500D03*
%TO.P,U15,3,-*%
%TO.N,Net-(U15--)*%
X127574000Y-62108500D03*
%TO.P,U15,4*%
%TO.N,/Strain Gauges and Pressure Sensors/G4*%
X127574000Y-64383500D03*
%TO.P,U15,5,V+*%
%TO.N,+3V3*%
X129474000Y-64383500D03*
%TD*%
%TO.P,U14,1,+*%
%TO.N,Net-(U14-+)*%
X138618000Y-53196500D03*
%TO.P,U14,2,V-*%
%TO.N,GND*%
X137668000Y-53196500D03*
%TO.P,U14,3,-*%
%TO.N,Net-(U14--)*%
X136718000Y-53196500D03*
%TO.P,U14,4*%
%TO.N,/Strain Gauges and Pressure Sensors/P3*%
X136718000Y-55471500D03*
%TO.P,U14,5,V+*%
%TO.N,+3V3*%
X138618000Y-55471500D03*
%TD*%
%TO.P,U13,1,+*%
%TO.N,Net-(U13-+)*%
X118044000Y-66008000D03*
%TO.P,U13,2,V-*%
%TO.N,GND*%
X117094000Y-66008000D03*
%TO.P,U13,3,-*%
%TO.N,Net-(U13--)*%
X116144000Y-66008000D03*
%TO.P,U13,4*%
%TO.N,/Strain Gauges and Pressure Sensors/P4*%
X116144000Y-68283000D03*
%TO.P,U13,5,V+*%
%TO.N,+3V3*%
X118044000Y-68283000D03*
%TD*%
D16*
%TO.P,U12,1,+*%
%TO.N,Net-(U12-+)*%
X157977000Y-61082000D03*
%TO.P,U12,2,V-*%
%TO.N,GND*%
X157977000Y-60132000D03*
%TO.P,U12,3,-*%
%TO.N,Net-(U12--)*%
X157977000Y-59182000D03*
%TO.P,U12,4*%
%TO.N,/Strain Gauges and Pressure Sensors/P2*%
X155702000Y-59182000D03*
%TO.P,U12,5,V+*%
%TO.N,+3V3*%
X155702000Y-61082000D03*
%TD*%
D14*
%TO.P,U11,5,V+*%
%TO.N,+3V3*%
X122428000Y-89916000D03*
%TO.P,U11,4*%
%TO.N,/Strain Gauges and Pressure Sensors/P5*%
X122428000Y-91816000D03*
%TO.P,U11,3,-*%
%TO.N,Net-(U11--)*%
X120153000Y-91816000D03*
%TO.P,U11,2,V-*%
%TO.N,GND*%
X120153000Y-90866000D03*
%TO.P,U11,1,+*%
%TO.N,Net-(U11-+)*%
X120153000Y-89916000D03*
%TD*%
D15*
%TO.P,U10,1,+*%
%TO.N,Net-(U10-+)*%
X182748000Y-70623000D03*
%TO.P,U10,2,V-*%
%TO.N,GND*%
X181798000Y-70623000D03*
%TO.P,U10,3,-*%
%TO.N,Net-(U10--)*%
X180848000Y-70623000D03*
%TO.P,U10,4*%
%TO.N,/Strain Gauges and Pressure Sensors/P1*%
X180848000Y-72898000D03*
%TO.P,U10,5,V+*%
%TO.N,+3V3*%
X182748000Y-72898000D03*
%TD*%
%TO.P,U9,1,+*%
%TO.N,Net-(U9-+)*%
X148524000Y-52292000D03*
%TO.P,U9,2,V-*%
%TO.N,GND*%
X147574000Y-52292000D03*
%TO.P,U9,3,-*%
%TO.N,Net-(U9--)*%
X146624000Y-52292000D03*
%TO.P,U9,4*%
%TO.N,/Strain Gauges and Pressure Sensors/G3*%
X146624000Y-54567000D03*
%TO.P,U9,5,V+*%
%TO.N,+3V3*%
X148524000Y-54567000D03*
%TD*%
%TO.P,U8,5,V+*%
%TO.N,+3V3*%
X170344000Y-65342000D03*
%TO.P,U8,4*%
%TO.N,/Strain Gauges and Pressure Sensors/G2*%
X168444000Y-65342000D03*
%TO.P,U8,3,-*%
%TO.N,Net-(U8--)*%
X168444000Y-63067000D03*
%TO.P,U8,2,V-*%
%TO.N,GND*%
X169394000Y-63067000D03*
%TO.P,U8,1,+*%
%TO.N,Net-(U8-+)*%
X170344000Y-63067000D03*
%TD*%
D17*
%TO.P,TP5,1,1*%
%TO.N,+1V1*%
X163322000Y-99314000D03*
%TD*%
%TO.P,TP4,1,1*%
%TO.N,+3V3*%
X177800000Y-81534000D03*
%TD*%
%TO.P,TP3,1,1*%
%TO.N,+1V8*%
X173990000Y-80137000D03*
%TD*%
%TO.P,TP2,1,1*%
%TO.N,Net-(D2-A)*%
X180340000Y-124714000D03*
%TD*%
%TO.P,TP1,1,1*%
%TO.N,Net-(D1-A)*%
X171704000Y-106934000D03*
%TD*%
D18*
%TO.P,R81,2*%
%TO.N,/Strain Gauges and Pressure Sensors/P5*%
X122771500Y-93980000D03*
%TO.P,R81,1*%
%TO.N,Net-(U11--)*%
X121576500Y-93980000D03*
%TD*%
D19*
%TO.P,R80,2*%
%TO.N,GND*%
X118782500Y-88138000D03*
%TO.P,R80,1*%
%TO.N,Net-(U11-+)*%
X119977500Y-88138000D03*
%TD*%
D18*
%TO.P,R79,2*%
%TO.N,Net-(U11--)*%
X120142000Y-93980000D03*
%TO.P,R79,1*%
%TO.N,Net-(J17-Pin_2)*%
X118947000Y-93980000D03*
%TD*%
D19*
%TO.P,R78,2*%
%TO.N,Net-(U11-+)*%
X120052500Y-86868000D03*
%TO.P,R78,1*%
%TO.N,Net-(R75-Pad1)*%
X121247500Y-86868000D03*
%TD*%
%TO.P,R77,2*%
%TO.N,GND*%
X116332000Y-93980000D03*
%TO.P,R77,1*%
%TO.N,Net-(J17-Pin_2)*%
X117527000Y-93980000D03*
%TD*%
D20*
%TO.P,R76,1*%
%TO.N,Net-(R75-Pad1)*%
X122428000Y-87032500D03*
%TO.P,R76,2*%
%TO.N,GND*%
X122428000Y-88227500D03*
%TD*%
D21*
%TO.P,R75,2*%
%TO.N,+3V3*%
X122428000Y-84746500D03*
%TO.P,R75,1*%
%TO.N,Net-(R75-Pad1)*%
X122428000Y-85941500D03*
%TD*%
D20*
%TO.P,R74,1*%
%TO.N,Net-(U14--)*%
X134620000Y-54520500D03*
%TO.P,R74,2*%
%TO.N,/Strain Gauges and Pressure Sensors/P3*%
X134620000Y-55715500D03*
%TD*%
%TO.P,R73,1*%
%TO.N,Net-(U13--)*%
X113538000Y-67564000D03*
%TO.P,R73,2*%
%TO.N,/Strain Gauges and Pressure Sensors/P4*%
X113538000Y-68759000D03*
%TD*%
%TO.P,R72,1*%
%TO.N,Net-(U14-+)*%
X140208000Y-54244500D03*
%TO.P,R72,2*%
%TO.N,GND*%
X140208000Y-55439500D03*
%TD*%
%TO.P,R71,1*%
%TO.N,Net-(J16-Pin_2)*%
X134620000Y-51958500D03*
%TO.P,R71,2*%
%TO.N,Net-(U14--)*%
X134620000Y-53153500D03*
%TD*%
%TO.P,R70,1*%
%TO.N,Net-(U13-+)*%
X120142000Y-67399500D03*
%TO.P,R70,2*%
%TO.N,GND*%
X120142000Y-68594500D03*
%TD*%
%TO.P,R69,1*%
%TO.N,Net-(J15-Pin_2)*%
X113538000Y-64770000D03*
%TO.P,R69,2*%
%TO.N,Net-(U13--)*%
X113538000Y-65965000D03*
%TD*%
%TO.P,R68,1*%
%TO.N,Net-(R63-Pad1)*%
X140208000Y-51958500D03*
%TO.P,R68,2*%
%TO.N,Net-(U14-+)*%
X140208000Y-53153500D03*
%TD*%
%TO.P,R67,1*%
%TO.N,Net-(R41-Pad1)*%
X120052500Y-64859500D03*
%TO.P,R67,2*%
%TO.N,Net-(U13-+)*%
X120052500Y-66054500D03*
%TD*%
D21*
%TO.P,R66,1*%
%TO.N,Net-(J16-Pin_2)*%
X134620000Y-50613500D03*
%TO.P,R66,2*%
%TO.N,GND*%
X134620000Y-49418500D03*
%TD*%
%TO.P,R65,1*%
%TO.N,Net-(J15-Pin_2)*%
X113538000Y-62917000D03*
%TO.P,R65,2*%
%TO.N,GND*%
X113538000Y-61722000D03*
%TD*%
%TO.P,R64,1*%
%TO.N,Net-(R63-Pad1)*%
X140208000Y-50359500D03*
%TO.P,R64,2*%
%TO.N,GND*%
X140208000Y-49164500D03*
%TD*%
%TO.P,R63,1*%
%TO.N,Net-(R63-Pad1)*%
X138218000Y-50359500D03*
%TO.P,R63,2*%
%TO.N,+3V3*%
X138218000Y-49164500D03*
%TD*%
%TO.P,R62,1*%
%TO.N,Net-(R41-Pad1)*%
X120142000Y-62917000D03*
%TO.P,R62,2*%
%TO.N,GND*%
X120142000Y-61722000D03*
%TD*%
D20*
%TO.P,R61,1*%
%TO.N,Net-(U8--)*%
X166920000Y-64247500D03*
%TO.P,R61,2*%
%TO.N,/Strain Gauges and Pressure Sensors/G2*%
X166920000Y-65442500D03*
%TD*%
%TO.P,R60,1*%
%TO.N,Net-(U9--)*%
X145034000Y-53340000D03*
%TO.P,R60,2*%
%TO.N,/Strain Gauges and Pressure Sensors/G3*%
X145034000Y-54535000D03*
%TD*%
D18*
%TO.P,R59,1*%
%TO.N,Net-(U17--)*%
X121487000Y-80264000D03*
%TO.P,R59,2*%
%TO.N,/Strain Gauges and Pressure Sensors/G5*%
X122682000Y-80264000D03*
%TD*%
%TO.P,R58,2*%
%TO.N,GND*%
X122936000Y-74930000D03*
%TO.P,R58,1*%
%TO.N,Net-(U17-+)*%
X121741000Y-74930000D03*
%TD*%
%TO.P,R57,1*%
%TO.N,Net-(R53-Pad1)*%
X118857500Y-80264000D03*
%TO.P,R57,2*%
%TO.N,Net-(U17--)*%
X120052500Y-80264000D03*
%TD*%
%TO.P,R56,1*%
%TO.N,Net-(J12-Pin_1)*%
X118782500Y-74930000D03*
%TO.P,R56,2*%
%TO.N,Net-(U17-+)*%
X119977500Y-74930000D03*
%TD*%
D19*
%TO.P,R55,1*%
%TO.N,Net-(J12-Pin_1)*%
X116840000Y-74930000D03*
%TO.P,R55,2*%
%TO.N,+3V3*%
X115645000Y-74930000D03*
%TD*%
D18*
%TO.P,R54,1*%
%TO.N,Net-(R53-Pad1)*%
X121830500Y-82550000D03*
%TO.P,R54,2*%
%TO.N,GND*%
X123025500Y-82550000D03*
%TD*%
D19*
%TO.P,R53,1*%
%TO.N,Net-(R53-Pad1)*%
X120067000Y-82550000D03*
%TO.P,R53,2*%
%TO.N,+3V3*%
X118872000Y-82550000D03*
%TD*%
D20*
%TO.P,R52,1*%
%TO.N,Net-(U15--)*%
X125984000Y-63156500D03*
%TO.P,R52,2*%
%TO.N,/Strain Gauges and Pressure Sensors/G4*%
X125984000Y-64351500D03*
%TD*%
%TO.P,R51,1*%
%TO.N,Net-(U15-+)*%
X131064000Y-64008000D03*
%TO.P,R51,2*%
%TO.N,GND*%
X131064000Y-65203000D03*
%TD*%
D21*
%TO.P,R50,1*%
%TO.N,Net-(R46-Pad1)*%
X125984000Y-62065500D03*
%TO.P,R50,2*%
%TO.N,Net-(U15--)*%
X125984000Y-60870500D03*
%TD*%
D20*
%TO.P,R49,1*%
%TO.N,Net-(J11-Pin_1)*%
X131064000Y-61124500D03*
%TO.P,R49,2*%
%TO.N,Net-(U15-+)*%
X131064000Y-62319500D03*
%TD*%
D21*
%TO.P,R48,2*%
%TO.N,+3V3*%
X131064000Y-58584500D03*
%TO.P,R48,1*%
%TO.N,Net-(J11-Pin_1)*%
X131064000Y-59779500D03*
%TD*%
D20*
%TO.P,R47,2*%
%TO.N,GND*%
X124460000Y-64351500D03*
%TO.P,R47,1*%
%TO.N,Net-(R46-Pad1)*%
X124460000Y-63156500D03*
%TD*%
D21*
%TO.P,R46,1*%
%TO.N,Net-(R46-Pad1)*%
X124460000Y-62065500D03*
%TO.P,R46,2*%
%TO.N,+3V3*%
X124460000Y-60870500D03*
%TD*%
D20*
%TO.P,R45,1*%
%TO.N,Net-(U9-+)*%
X150114000Y-53340000D03*
%TO.P,R45,2*%
%TO.N,GND*%
X150114000Y-54535000D03*
%TD*%
%TO.P,R44,1*%
%TO.N,Net-(R25-Pad1)*%
X145034000Y-50800000D03*
%TO.P,R44,2*%
%TO.N,Net-(U9--)*%
X145034000Y-51995000D03*
%TD*%
%TO.P,R43,1*%
%TO.N,Net-(J10-Pin_1)*%
X150114000Y-50546000D03*
%TO.P,R43,2*%
%TO.N,Net-(U9-+)*%
X150114000Y-51741000D03*
%TD*%
D21*
%TO.P,R42,1*%
%TO.N,Net-(J10-Pin_1)*%
X150114000Y-49201000D03*
%TO.P,R42,2*%
%TO.N,+3V3*%
X150114000Y-48006000D03*
%TD*%
%TO.P,R41,1*%
%TO.N,Net-(R41-Pad1)*%
X121666000Y-62917000D03*
%TO.P,R41,2*%
%TO.N,+3V3*%
X121666000Y-61722000D03*
%TD*%
D20*
%TO.P,R40,1*%
%TO.N,Net-(U10--)*%
X179324000Y-71792500D03*
%TO.P,R40,2*%
%TO.N,/Strain Gauges and Pressure Sensors/P1*%
X179324000Y-72987500D03*
%TD*%
D19*
%TO.P,R39,1*%
%TO.N,Net-(U12--)*%
X155448000Y-57526000D03*
%TO.P,R39,2*%
%TO.N,/Strain Gauges and Pressure Sensors/P2*%
X154253000Y-57526000D03*
%TD*%
D21*
%TO.P,R38,1*%
%TO.N,Net-(U10-+)*%
X184150000Y-70447500D03*
%TO.P,R38,2*%
%TO.N,GND*%
X184150000Y-69252500D03*
%TD*%
D20*
%TO.P,R37,1*%
%TO.N,Net-(J14-Pin_2)*%
X179324000Y-69252500D03*
%TO.P,R37,2*%
%TO.N,Net-(U10--)*%
X179324000Y-70447500D03*
%TD*%
D18*
%TO.P,R36,1*%
%TO.N,Net-(U12-+)*%
X159676500Y-61214000D03*
%TO.P,R36,2*%
%TO.N,GND*%
X160871500Y-61214000D03*
%TD*%
D19*
%TO.P,R35,1*%
%TO.N,Net-(J13-Pin_2)*%
X157988000Y-57526000D03*
%TO.P,R35,2*%
%TO.N,Net-(U12--)*%
X156793000Y-57526000D03*
%TD*%
D21*
%TO.P,R34,1*%
%TO.N,Net-(R29-Pad1)*%
X184150000Y-72733500D03*
%TO.P,R34,2*%
%TO.N,Net-(U10-+)*%
X184150000Y-71538500D03*
%TD*%
D18*
%TO.P,R33,1*%
%TO.N,Net-(R27-Pad1)*%
X156882500Y-62738000D03*
%TO.P,R33,2*%
%TO.N,Net-(U12-+)*%
X158077500Y-62738000D03*
%TD*%
D19*
%TO.P,R32,1*%
%TO.N,Net-(J14-Pin_2)*%
X179324000Y-67818000D03*
%TO.P,R32,2*%
%TO.N,GND*%
X178129000Y-67818000D03*
%TD*%
D18*
%TO.P,R31,1*%
%TO.N,Net-(J13-Pin_2)*%
X159333000Y-57658000D03*
%TO.P,R31,2*%
%TO.N,GND*%
X160528000Y-57658000D03*
%TD*%
D21*
%TO.P,R30,1*%
%TO.N,Net-(R29-Pad1)*%
X185166000Y-70283000D03*
%TO.P,R30,2*%
%TO.N,GND*%
X185166000Y-69088000D03*
%TD*%
D20*
%TO.P,R29,1*%
%TO.N,Net-(R29-Pad1)*%
X185166000Y-71538500D03*
%TO.P,R29,2*%
%TO.N,+3V3*%
X185166000Y-72733500D03*
%TD*%
D19*
%TO.P,R28,1*%
%TO.N,Net-(R27-Pad1)*%
X155283500Y-64008000D03*
%TO.P,R28,2*%
%TO.N,GND*%
X154088500Y-64008000D03*
%TD*%
%TO.P,R27,1*%
%TO.N,Net-(R27-Pad1)*%
X155283500Y-62738000D03*
%TO.P,R27,2*%
%TO.N,+3V3*%
X154088500Y-62738000D03*
%TD*%
D21*
%TO.P,R26,1*%
%TO.N,Net-(R25-Pad1)*%
X145034000Y-48857500D03*
%TO.P,R26,2*%
%TO.N,GND*%
X145034000Y-47662500D03*
%TD*%
%TO.P,R25,1*%
%TO.N,Net-(R25-Pad1)*%
X143044000Y-48857500D03*
%TO.P,R25,2*%
%TO.N,+3V3*%
X143044000Y-47662500D03*
%TD*%
D20*
%TO.P,R24,2*%
%TO.N,GND*%
X171958000Y-64934500D03*
%TO.P,R24,1*%
%TO.N,Net-(U8-+)*%
X171958000Y-63739500D03*
%TD*%
%TO.P,R23,1*%
%TO.N,Net-(R19-Pad1)*%
X166862000Y-61707500D03*
%TO.P,R23,2*%
%TO.N,Net-(U8--)*%
X166862000Y-62902500D03*
%TD*%
%TO.P,R22,1*%
%TO.N,Net-(J9-Pin_1)*%
X171958000Y-61453500D03*
%TO.P,R22,2*%
%TO.N,Net-(U8-+)*%
X171958000Y-62648500D03*
%TD*%
D18*
%TO.P,R21,1*%
%TO.N,Net-(J9-Pin_1)*%
X171868500Y-59003000D03*
%TO.P,R21,2*%
%TO.N,+3V3*%
X173063500Y-59003000D03*
%TD*%
D21*
%TO.P,R20,2*%
%TO.N,GND*%
X168910000Y-59003000D03*
%TO.P,R20,1*%
%TO.N,Net-(R19-Pad1)*%
X168910000Y-60198000D03*
%TD*%
%TO.P,R19,1*%
%TO.N,Net-(R19-Pad1)*%
X166920000Y-60198000D03*
%TO.P,R19,2*%
%TO.N,+3V3*%
X166920000Y-59003000D03*
%TD*%
D20*
%TO.P,R18,2*%
%TO.N,/Strain Gauges and Pressure Sensors/G1*%
X189484000Y-79158500D03*
%TO.P,R18,1*%
%TO.N,Net-(U16--)*%
X189484000Y-77963500D03*
%TD*%
%TO.P,R17,2*%
%TO.N,Net-(U16--)*%
X189484000Y-76618500D03*
%TO.P,R17,1*%
%TO.N,Net-(R12-Pad1)*%
X189484000Y-75423500D03*
%TD*%
%TO.P,R16,2*%
%TO.N,Net-(U16-+)*%
X194818000Y-76618500D03*
%TO.P,R16,1*%
%TO.N,Net-(J8-Pin_1)*%
X194818000Y-75423500D03*
%TD*%
%TO.P,R15,1*%
%TO.N,Net-(U16-+)*%
X194818000Y-77799000D03*
%TO.P,R15,2*%
%TO.N,GND*%
X194818000Y-78994000D03*
%TD*%
D21*
%TO.P,R14,2*%
%TO.N,+3V3*%
X197104000Y-74243000D03*
%TO.P,R14,1*%
%TO.N,Net-(J8-Pin_1)*%
X197104000Y-75438000D03*
%TD*%
%TO.P,R13,1*%
%TO.N,Net-(R12-Pad1)*%
X191516000Y-72225500D03*
%TO.P,R13,2*%
%TO.N,+3V3*%
X191516000Y-71030500D03*
%TD*%
%TO.P,R12,1*%
%TO.N,Net-(R12-Pad1)*%
X189526000Y-72225500D03*
%TO.P,R12,2*%
%TO.N,GND*%
X189526000Y-71030500D03*
%TD*%
D22*
%TO.P,J17,2,Pin_2*%
%TO.N,Net-(J17-Pin_2)*%
X109198000Y-93428000D03*
D23*
%TO.P,J17,1,Pin_1*%
%TO.N,+3V3*%
X109198000Y-97028000D03*
%TD*%
D22*
%TO.P,J16,2,Pin_2*%
%TO.N,Net-(J16-Pin_2)*%
X134830000Y-45698000D03*
D24*
%TO.P,J16,1,Pin_1*%
%TO.N,+3V3*%
X138430000Y-45698000D03*
%TD*%
D22*
%TO.P,J15,2,Pin_2*%
%TO.N,Net-(J15-Pin_2)*%
X118872000Y-55880000D03*
D25*
%TO.P,J15,1,Pin_1*%
%TO.N,+3V3*%
X115272000Y-55880000D03*
%TD*%
%TO.P,J14,1,Pin_1*%
%TO.N,+3V3*%
X179788000Y-65786000D03*
D22*
%TO.P,J14,2,Pin_2*%
%TO.N,Net-(J14-Pin_2)*%
X183388000Y-65786000D03*
%TD*%
D25*
%TO.P,J13,1,Pin_1*%
%TO.N,+3V3*%
X157436000Y-55626000D03*
D22*
%TO.P,J13,2,Pin_2*%
%TO.N,Net-(J13-Pin_2)*%
X161036000Y-55626000D03*
%TD*%
D26*
%TO.P,J12,1,Pin_1*%
%TO.N,Net-(J12-Pin_1)*%
X110998000Y-77216000D03*
D22*
%TO.P,J12,2,Pin_2*%
%TO.N,GND*%
X110998000Y-80816000D03*
%TD*%
%TO.P,J11,2,Pin_2*%
%TO.N,GND*%
X129540000Y-55880000D03*
D25*
%TO.P,J11,1,Pin_1*%
%TO.N,Net-(J11-Pin_1)*%
X125940000Y-55880000D03*
%TD*%
%TO.P,J10,1,Pin_1*%
%TO.N,Net-(J10-Pin_1)*%
X147276000Y-45720000D03*
D22*
%TO.P,J10,2,Pin_2*%
%TO.N,GND*%
X150876000Y-45720000D03*
%TD*%
D25*
%TO.P,J9,1,Pin_1*%
%TO.N,Net-(J9-Pin_1)*%
X168634000Y-55626000D03*
D22*
%TO.P,J9,2,Pin_2*%
%TO.N,GND*%
X172234000Y-55626000D03*
%TD*%
D25*
%TO.P,J8,1,Pin_1*%
%TO.N,Net-(J8-Pin_1)*%
X191980000Y-65786000D03*
D22*
%TO.P,J8,2,Pin_2*%
%TO.N,GND*%
X195580000Y-65786000D03*
%TD*%
D27*
%TO.P,D2,1,K*%
%TO.N,+3V3*%
X176276000Y-121752000D03*
%TO.P,D2,2,A*%
%TO.N,Net-(D2-A)*%
X176276000Y-123952000D03*
%TD*%
D28*
%TO.P,C24,1*%
%TO.N,+1V8*%
X152908000Y-84808000D03*
%TO.P,C24,2*%
%TO.N,GND*%
X152908000Y-83848000D03*
%TD*%
%TO.P,C23,1*%
%TO.N,+1V8*%
X152654000Y-82042000D03*
%TO.P,C23,2*%
%TO.N,GND*%
X152654000Y-81082000D03*
%TD*%
D29*
%TO.P,C22,1*%
%TO.N,+1V8*%
X151356000Y-80772000D03*
%TO.P,C22,2*%
%TO.N,GND*%
X150396000Y-80772000D03*
%TD*%
D30*
%TO.P,C21,1*%
%TO.N,+1V8*%
X157028000Y-81280000D03*
%TO.P,C21,2*%
%TO.N,GND*%
X157988000Y-81280000D03*
%TD*%
D31*
%TO.P,C18,1*%
%TO.N,+3V3*%
X175006000Y-86896000D03*
%TO.P,C18,2*%
%TO.N,GND*%
X175006000Y-87856000D03*
%TD*%
D30*
%TO.P,C17,2*%
%TO.N,GND*%
X161008000Y-94488000D03*
%TO.P,C17,1*%
%TO.N,+1V1*%
X160048000Y-94488000D03*
%TD*%
%TO.P,C16,1*%
%TO.N,+1V1*%
X160076000Y-95820000D03*
%TO.P,C16,2*%
%TO.N,GND*%
X161036000Y-95820000D03*
%TD*%
%TO.P,C15,2*%
%TO.N,GND*%
X161036000Y-97282000D03*
%TO.P,C15,1*%
%TO.N,+1V1*%
X160076000Y-97282000D03*
%TD*%
%TO.P,C14,1*%
%TO.N,+3V3*%
X157790000Y-96012000D03*
%TO.P,C14,2*%
%TO.N,GND*%
X158750000Y-96012000D03*
%TD*%
D28*
%TO.P,C13,1*%
%TO.N,+3V3*%
X177292000Y-94742000D03*
%TO.P,C13,2*%
%TO.N,GND*%
X177292000Y-93782000D03*
%TD*%
%TO.P,C12,1*%
%TO.N,+3V3*%
X175260000Y-94714000D03*
%TO.P,C12,2*%
%TO.N,GND*%
X175260000Y-93754000D03*
%TD*%
%TO.P,C11,1*%
%TO.N,+3V3*%
X172974000Y-94742000D03*
%TO.P,C11,2*%
%TO.N,GND*%
X172974000Y-93782000D03*
%TD*%
%TO.P,C10,1*%
%TO.N,+3V3*%
X170688000Y-94742000D03*
%TO.P,C10,2*%
%TO.N,GND*%
X170688000Y-93782000D03*
%TD*%
%TO.P,C9,1*%
%TO.N,+3V3*%
X168402000Y-94742000D03*
%TO.P,C9,2*%
%TO.N,GND*%
X168402000Y-93782000D03*
%TD*%
D30*
%TO.P,C8,1*%
%TO.N,+3V3*%
X157762000Y-98298000D03*
%TO.P,C8,2*%
%TO.N,GND*%
X158722000Y-98298000D03*
%TD*%
%TO.P,C7,2*%
%TO.N,GND*%
X158722000Y-97028000D03*
%TO.P,C7,1*%
%TO.N,+3V3*%
X157762000Y-97028000D03*
%TD*%
%TO.P,C6,1*%
%TO.N,Net-(D2-A)*%
X176304000Y-125984000D03*
%TO.P,C6,2*%
%TO.N,GND*%
X177264000Y-125984000D03*
%TD*%
D28*
%TO.P,C3,1*%
%TO.N,Net-(D1-A)*%
X169672000Y-104084000D03*
%TO.P,C3,2*%
%TO.N,GND*%
X169672000Y-103124000D03*
%TD*%
D30*
%TO.P,C2,1*%
%TO.N,+12V*%
X176304000Y-136906000D03*
%TO.P,C2,2*%
%TO.N,GND*%
X177264000Y-136906000D03*
%TD*%
D31*
%TO.P,C1,1*%
%TO.N,VBUS*%
X179578000Y-104140000D03*
%TO.P,C1,2*%
%TO.N,GND*%
X179578000Y-105100000D03*
%TD*%
D20*
%TO.P,R10,1*%
%TO.N,/M4*%
X134874000Y-98881000D03*
%TO.P,R10,2*%
%TO.N,Net-(J6-Pin_1)*%
X134874000Y-100076000D03*
%TD*%
D21*
%TO.P,R2,1*%
%TO.N,D+*%
X182118000Y-98387500D03*
%TO.P,R2,2*%
%TO.N,/USB+*%
X182118000Y-97192500D03*
%TD*%
D32*
%TO.P,C5,1*%
%TO.N,+5V*%
X144131500Y-140843000D03*
%TO.P,C5,2*%
%TO.N,GND*%
X147206500Y-140843000D03*
%TD*%
D33*
%TO.P,U6,29,EP*%
%TO.N,GND*%
X141430000Y-71422000D03*
D34*
%TO.P,U6,28,AIN2*%
%TO.N,/Strain Gauges and Pressure Sensors/G3*%
X143792500Y-69922000D03*
%TO.P,U6,27,AIN1*%
%TO.N,/Strain Gauges and Pressure Sensors/G2*%
X143792500Y-70422000D03*
%TO.P,U6,26,AIN0*%
%TO.N,/Strain Gauges and Pressure Sensors/G1*%
X143792500Y-70922000D03*
%TO.P,U6,25,~{EOC}*%
%TO.N,/EOC*%
X143792500Y-71422000D03*
%TO.P,U6,24,DOUT*%
%TO.N,/ADC_SDO*%
X143792500Y-71922000D03*
%TO.P,U6,23,OVDD*%
%TO.N,+3V3*%
X143792500Y-72422000D03*
%TO.P,U6,22,DGND*%
%TO.N,GND*%
X143792500Y-72922000D03*
D35*
%TO.P,U6,21,DIN*%
%TO.N,/ADC_SDI*%
X142930000Y-73784500D03*
%TO.P,U6,20,~{CS}*%
%TO.N,/ADC_CS*%
X142430000Y-73784500D03*
%TO.P,U6,19,SCLK*%
%TO.N,/ADC_SCLK*%
X141930000Y-73784500D03*
%TO.P,U6,18,VDD*%
%TO.N,+3V3*%
X141430000Y-73784500D03*
%TO.P,U6,17,VDD*%
X140930000Y-73784500D03*
%TO.P,U6,16,GND*%
%TO.N,GND*%
X140430000Y-73784500D03*
%TO.P,U6,15,REF+*%
%TO.N,+3V3*%
X139930000Y-73784500D03*
D34*
%TO.P,U6,14,GND*%
%TO.N,GND*%
X139067500Y-72922000D03*
%TO.P,U6,13,REF-/AIN15*%
X139067500Y-72422000D03*
%TO.P,U6,12,~{CNVST}/AIN14*%
%TO.N,unconnected-(U6-~{CNVST}{slash}AIN14-Pad12)*%
X139067500Y-71922000D03*
%TO.P,U6,11,AIN13*%
%TO.N,unconnected-(U6-AIN13-Pad11)*%
X139067500Y-71422000D03*
%TO.P,U6,10,AIN12*%
%TO.N,/Strain Gauges and Pressure Sensors/P5*%
X139067500Y-70922000D03*
%TO.P,U6,9,AIN11*%
%TO.N,/Strain Gauges and Pressure Sensors/G5*%
X139067500Y-70422000D03*
%TO.P,U6,8,AIN10*%
%TO.N,unconnected-(U6-AIN10-Pad8)*%
X139067500Y-69922000D03*
D35*
%TO.P,U6,7,AIN9*%
%TO.N,unconnected-(U6-AIN9-Pad7)*%
X139930000Y-69059500D03*
%TO.P,U6,6,AIN8*%
%TO.N,/Strain Gauges and Pressure Sensors/P4*%
X140430000Y-69059500D03*
%TO.P,U6,5,AIN7*%
%TO.N,/Strain Gauges and Pressure Sensors/P3*%
X140930000Y-69059500D03*
%TO.P,U6,4,AIN6*%
%TO.N,/Strain Gauges and Pressure Sensors/P2*%
X141430000Y-69059500D03*
%TO.P,U6,3,AIN5*%
%TO.N,/Strain Gauges and Pressure Sensors/P1*%
X141930000Y-69059500D03*
%TO.P,U6,2,AIN4*%
%TO.N,unconnected-(U6-AIN4-Pad2)*%
X142430000Y-69059500D03*
%TO.P,U6,1,AIN3*%
%TO.N,/Strain Gauges and Pressure Sensors/G4*%
X142930000Y-69059500D03*
%TD*%
D18*
%TO.P,R8,1*%
%TO.N,/M2*%
X149606000Y-70231000D03*
%TO.P,R8,2*%
%TO.N,Net-(J4-Pin_1)*%
X150801000Y-70231000D03*
%TD*%
D14*
%TO.P,U5,1,VIN*%
%TO.N,+3V3*%
X148976500Y-82108000D03*
%TO.P,U5,2,GND*%
%TO.N,GND*%
X148976500Y-83058000D03*
%TO.P,U5,3,EN*%
%TO.N,+3V3*%
X148976500Y-84008000D03*
%TO.P,U5,4,SENSE/ADJ*%
%TO.N,+1V8*%
X151251500Y-84008000D03*
%TO.P,U5,5,VOUT*%
X151251500Y-82108000D03*
%TD*%
D21*
%TO.P,R6,1*%
%TO.N,/QSPI_CS*%
X159512000Y-85179500D03*
%TO.P,R6,2*%
%TO.N,+3V3*%
X159512000Y-83984500D03*
%TD*%
D19*
%TO.P,R9,1*%
%TO.N,/M3*%
X167602500Y-80137000D03*
%TO.P,R9,2*%
%TO.N,Net-(J5-Pin_1)*%
X166407500Y-80137000D03*
%TD*%
D36*
%TO.P,X1,1,1*%
%TO.N,/XIN*%
X145034000Y-89832000D03*
%TO.P,X1,2,2*%
%TO.N,GND*%
X145034000Y-92032000D03*
%TO.P,X1,3,3*%
%TO.N,/XOUT*%
X146634002Y-92032000D03*
%TO.P,X1,4,4*%
%TO.N,GND*%
X146634002Y-89832000D03*
%TD*%
D21*
%TO.P,R7,1*%
%TO.N,/M1*%
X152273000Y-68796500D03*
%TO.P,R7,2*%
%TO.N,Net-(J3-Pin_1)*%
X152273000Y-67601500D03*
%TD*%
D19*
%TO.P,R1,1*%
%TO.N,Net-(P1-CC)*%
X183223500Y-99695000D03*
%TO.P,R1,2*%
%TO.N,GND*%
X182028500Y-99695000D03*
%TD*%
D20*
%TO.P,R4,1*%
%TO.N,/RUN*%
X145288000Y-94652500D03*
%TO.P,R4,2*%
%TO.N,+3V3*%
X145288000Y-95847500D03*
%TD*%
D25*
%TO.P,J18,1,Pin_1*%
%TO.N,Net-(J18-Pin_1)*%
X148248000Y-100838000D03*
D22*
%TO.P,J18,2,Pin_2*%
%TO.N,Net-(J18-Pin_2)*%
X151848000Y-100838000D03*
%TO.P,J18,3,Pin_3*%
%TO.N,Net-(J18-Pin_3)*%
X155448000Y-100838000D03*
%TO.P,J18,4,Pin_4*%
%TO.N,Net-(J18-Pin_4)*%
X159048000Y-100838000D03*
%TD*%
D37*
%TO.P,J5,1,Pin_1*%
%TO.N,Net-(J5-Pin_1)*%
X166370000Y-77582000D03*
D38*
%TO.P,J5,2,Pin_2*%
%TO.N,GND*%
X166370000Y-75042000D03*
%TO.P,J5,3,Pin_3*%
%TO.N,+5V*%
X166370000Y-72502000D03*
%TD*%
D39*
%TO.P,U4,1,~{CS}*%
%TO.N,/QSPI_CS*%
X165183000Y-86868000D03*
%TO.P,U4,2,DO(IO1)*%
%TO.N,/QSPI_SD1*%
X165183000Y-88138000D03*
%TO.P,U4,3,IO2*%
%TO.N,/QSPI_SD2*%
X165183000Y-89408000D03*
%TO.P,U4,4,GND*%
%TO.N,GND*%
X165183000Y-90678000D03*
%TO.P,U4,5,DI(IO0)*%
%TO.N,/QSPI_SD0*%
X172383000Y-90678000D03*
%TO.P,U4,6,CLK*%
%TO.N,/QSPI_SCLK*%
X172383000Y-89408000D03*
%TO.P,U4,7,IO3*%
%TO.N,/QSPI_SD3*%
X172383000Y-88138000D03*
%TO.P,U4,8,VCC*%
%TO.N,+3V3*%
X172383000Y-86868000D03*
%TD*%
D37*
%TO.P,J7,1,Pin_1*%
%TO.N,Net-(J7-Pin_1)*%
X154813000Y-107950000D03*
D38*
%TO.P,J7,2,Pin_2*%
%TO.N,GND*%
X154813000Y-110490000D03*
%TO.P,J7,3,Pin_3*%
%TO.N,+5V*%
X154813000Y-113030000D03*
%TD*%
D21*
%TO.P,R3,1*%
%TO.N,D-*%
X183515000Y-95974500D03*
%TO.P,R3,2*%
%TO.N,/USB-*%
X183515000Y-94779500D03*
%TD*%
D40*
%TO.P,J2,3*%
%TO.N,N/C*%
X180214000Y-139788000D03*
%TO.P,J2,2*%
%TO.N,GND*%
X186364000Y-139788000D03*
%TO.P,J2,1*%
%TO.N,+12V*%
X186364000Y-150788000D03*
X180214000Y-150788000D03*
%TD*%
D37*
%TO.P,J6,1,Pin_1*%
%TO.N,Net-(J6-Pin_1)*%
X131318000Y-99822000D03*
D38*
%TO.P,J6,2,Pin_2*%
%TO.N,GND*%
X131318000Y-102362000D03*
%TO.P,J6,3,Pin_3*%
%TO.N,+5V*%
X131318000Y-104902000D03*
%TD*%
D41*
%TO.P,U7,1,IN*%
%TO.N,VBUS*%
X177223000Y-104140000D03*
%TO.P,U7,2,GND*%
%TO.N,GND*%
X177223000Y-102870000D03*
%TO.P,U7,3,GND*%
X177223000Y-101600000D03*
%TO.P,U7,4,~{OFF}*%
%TO.N,VBUS*%
X177223000Y-100330000D03*
%TO.P,U7,5,SET*%
%TO.N,GND*%
X171773000Y-100330000D03*
%TO.P,U7,6,GND*%
X171773000Y-101600000D03*
%TO.P,U7,7,GND*%
X171773000Y-102870000D03*
%TO.P,U7,8,OUT*%
%TO.N,Net-(D1-A)*%
X171773000Y-104140000D03*
%TD*%
D42*
%TO.P,U3,57,GND*%
%TO.N,GND*%
X154886000Y-91194500D03*
D43*
%TO.P,U3,56,QSPI_SS*%
%TO.N,/QSPI_CS*%
X158323500Y-88594500D03*
%TO.P,U3,55,QSPI_SD1*%
%TO.N,/QSPI_SD1*%
X158323500Y-88994500D03*
%TO.P,U3,54,QSPI_SD2*%
%TO.N,/QSPI_SD2*%
X158323500Y-89394500D03*
%TO.P,U3,53,QSPI_SD0*%
%TO.N,/QSPI_SD0*%
X158323500Y-89794500D03*
%TO.P,U3,52,QSPI_SCLK*%
%TO.N,/QSPI_SCLK*%
X158323500Y-90194500D03*
%TO.P,U3,51,QSPI_SD3*%
%TO.N,/QSPI_SD3*%
X158323500Y-90594500D03*
%TO.P,U3,50,DVDD*%
%TO.N,+1V1*%
X158323500Y-90994500D03*
%TO.P,U3,49,IOVDD*%
%TO.N,+3V3*%
X158323500Y-91394500D03*
%TO.P,U3,48,USB_VDD*%
X158323500Y-91794500D03*
%TO.P,U3,47,USB_DP*%
%TO.N,/USB+*%
X158323500Y-92194500D03*
%TO.P,U3,46,USB_DM*%
%TO.N,/USB-*%
X158323500Y-92594500D03*
%TO.P,U3,45,VREG_VOUT*%
%TO.N,+1V1*%
X158323500Y-92994500D03*
%TO.P,U3,44,VREG_IN*%
%TO.N,+3V3*%
X158323500Y-93394500D03*
%TO.P,U3,43,ADC_AVDD*%
X158323500Y-93794500D03*
D44*
%TO.P,U3,42,IOVDD*%
X157486000Y-94632000D03*
%TO.P,U3,41,GPIO29_ADC3*%
%TO.N,Net-(J18-Pin_4)*%
X157086000Y-94632000D03*
%TO.P,U3,40,GPIO28_ADC2*%
%TO.N,Net-(J18-Pin_3)*%
X156686000Y-94632000D03*
%TO.P,U3,39,GPIO27_ADC1*%
%TO.N,Net-(J18-Pin_2)*%
X156286000Y-94632000D03*
%TO.P,U3,38,GPIO26_ADC0*%
%TO.N,Net-(J18-Pin_1)*%
X155886000Y-94632000D03*
%TO.P,U3,37,GPIO25*%
%TO.N,/IMU/INT_2*%
X155486000Y-94632000D03*
%TO.P,U3,36,GPIO24*%
%TO.N,/IMU/INT*%
X155086000Y-94632000D03*
%TO.P,U3,35,GPIO23*%
%TO.N,unconnected-(U3-GPIO23-Pad35)*%
X154686000Y-94632000D03*
%TO.P,U3,34,GPIO22*%
%TO.N,unconnected-(U3-GPIO22-Pad34)*%
X154286000Y-94632000D03*
%TO.P,U3,33,IOVDD*%
%TO.N,+3V3*%
X153886000Y-94632000D03*
%TO.P,U3,32,GPIO21*%
%TO.N,unconnected-(U3-GPIO21-Pad32)*%
X153486000Y-94632000D03*
%TO.P,U3,31,GPIO20*%
%TO.N,unconnected-(U3-GPIO20-Pad31)*%
X153086000Y-94632000D03*
%TO.P,U3,30,GPIO19*%
%TO.N,unconnected-(U3-GPIO19-Pad30)*%
X152686000Y-94632000D03*
%TO.P,U3,29,GPIO18*%
%TO.N,unconnected-(U3-GPIO18-Pad29)*%
X152286000Y-94632000D03*
D43*
%TO.P,U3,28,GPIO17*%
%TO.N,/M5*%
X151448500Y-93794500D03*
%TO.P,U3,27,GPIO16*%
%TO.N,/M4*%
X151448500Y-93394500D03*
%TO.P,U3,26,RUN*%
%TO.N,/RUN*%
X151448500Y-92994500D03*
%TO.P,U3,25,SWD*%
%TO.N,Net-(J1-Pin_1)*%
X151448500Y-92594500D03*
%TO.P,U3,24,SWCLK*%
%TO.N,Net-(J1-Pin_3)*%
X151448500Y-92194500D03*
%TO.P,U3,23,DVDD*%
%TO.N,+1V1*%
X151448500Y-91794500D03*
%TO.P,U3,22,IOVDD*%
%TO.N,+3V3*%
X151448500Y-91394500D03*
%TO.P,U3,21,XOUT*%
%TO.N,/XOUT*%
X151448500Y-90994500D03*
%TO.P,U3,20,XIN*%
%TO.N,/XIN*%
X151448500Y-90594500D03*
%TO.P,U3,19,TESTEN*%
%TO.N,GND*%
X151448500Y-90194500D03*
%TO.P,U3,18,GPIO15*%
%TO.N,/M3*%
X151448500Y-89794500D03*
%TO.P,U3,17,GPIO14*%
%TO.N,/M2*%
X151448500Y-89394500D03*
%TO.P,U3,16,GPIO13*%
%TO.N,/M1*%
X151448500Y-88994500D03*
%TO.P,U3,15,GPIO12*%
%TO.N,/EOC*%
X151448500Y-88594500D03*
D44*
%TO.P,U3,14,GPIO11*%
%TO.N,/ADC_SDI*%
X152286000Y-87757000D03*
%TO.P,U3,13,GPIO10*%
%TO.N,/ADC_SCLK*%
X152686000Y-87757000D03*
%TO.P,U3,12,GPIO9*%
%TO.N,/ADC_CS*%
X153086000Y-87757000D03*
%TO.P,U3,11,GPIO8*%
%TO.N,/ADC_SDO*%
X153486000Y-87757000D03*
%TO.P,U3,10,IOVDD*%
%TO.N,+3V3*%
X153886000Y-87757000D03*
%TO.P,U3,9,GPIO7*%
%TO.N,unconnected-(U3-GPIO7-Pad9)*%
X154286000Y-87757000D03*
%TO.P,U3,8,GPIO6*%
%TO.N,unconnected-(U3-GPIO6-Pad8)*%
X154686000Y-87757000D03*
%TO.P,U3,7,GPIO5*%
%TO.N,unconnected-(U3-GPIO5-Pad7)*%
X155086000Y-87757000D03*
%TO.P,U3,6,GPIO4*%
%TO.N,unconnected-(U3-GPIO4-Pad6)*%
X155486000Y-87757000D03*
%TO.P,U3,5,GPIO3*%
%TO.N,/IMU/SDI*%
X155886000Y-87757000D03*
%TO.P,U3,4,GPIO2*%
%TO.N,/IMU/SCL*%
X156286000Y-87757000D03*
%TO.P,U3,3,GPIO1*%
%TO.N,/IMU/CS*%
X156686000Y-87757000D03*
%TO.P,U3,2,GPIO0*%
%TO.N,/IMU/SDO*%
X157086000Y-87757000D03*
%TO.P,U3,1,IOVDD*%
%TO.N,+3V3*%
X157486000Y-87757000D03*
%TD*%
D37*
%TO.P,J1,1,Pin_1*%
%TO.N,Net-(J1-Pin_1)*%
X136667000Y-87376000D03*
D38*
%TO.P,J1,2,Pin_2*%
%TO.N,unconnected-(J1-Pin_2-Pad2)*%
X139207000Y-87376000D03*
%TO.P,J1,3,Pin_3*%
%TO.N,Net-(J1-Pin_3)*%
X141747000Y-87376000D03*
%TD*%
D20*
%TO.P,R11,1*%
%TO.N,/M5*%
X152273000Y-106755000D03*
%TO.P,R11,2*%
%TO.N,Net-(J7-Pin_1)*%
X152273000Y-107950000D03*
%TD*%
D45*
%TO.P,D1,1,K*%
%TO.N,+3V3*%
X165948000Y-104140000D03*
%TO.P,D1,2,A*%
%TO.N,Net-(D1-A)*%
X168148000Y-104140000D03*
%TD*%
D46*
%TO.P,U2,1,IN*%
%TO.N,+12V*%
X144170400Y-148717000D03*
%TO.P,U2,2,GND*%
%TO.N,GND*%
X144170400Y-146177000D03*
%TO.P,U2,3,OUT*%
%TO.N,+5V*%
X144170400Y-143637000D03*
D47*
%TO.P,U2,4,4*%
%TO.N,unconnected-(U2-Pad4)*%
X132372100Y-146177000D03*
%TD*%
D20*
%TO.P,R5,1*%
%TO.N,/~{USB_BOOT}*%
X161036000Y-83984500D03*
%TO.P,R5,2*%
%TO.N,/QSPI_CS*%
X161036000Y-85179500D03*
%TD*%
D48*
%TO.P,MT1,1,AP_SDO/AP_AD0*%
%TO.N,/IMU/SDO*%
X155944000Y-83165500D03*
%TO.P,MT1,2,RESV*%
%TO.N,GND*%
X155444000Y-83165500D03*
%TO.P,MT1,3,RESV__1*%
X154944000Y-83165500D03*
%TO.P,MT1,4,INT1/INT*%
%TO.N,/IMU/INT*%
X154444000Y-83165500D03*
D49*
%TO.P,MT1,5,VDDIO*%
%TO.N,+1V8*%
X154281500Y-83828000D03*
%TO.P,MT1,6,GND*%
%TO.N,GND*%
X154281500Y-84328000D03*
%TO.P,MT1,7,FSYNC*%
%TO.N,unconnected-(MT1-FSYNC-Pad7)*%
X154281500Y-84828000D03*
D48*
%TO.P,MT1,8,VDD*%
%TO.N,+1V8*%
X154444000Y-85490500D03*
%TO.P,MT1,9,INT2*%
%TO.N,/IMU/INT_2*%
X154944000Y-85490500D03*
%TO.P,MT1,10,RESV__2*%
%TO.N,GND*%
X155444000Y-85490500D03*
%TO.P,MT1,11,RESV__3*%
X155944000Y-85490500D03*
D49*
%TO.P,MT1,12,AP_CS*%
%TO.N,/IMU/CS*%
X156106500Y-84828000D03*
%TO.P,MT1,13,AP_SCL/AP_SCLK*%
%TO.N,/IMU/SCL*%
X156106500Y-84328000D03*
%TO.P,MT1,14,AP_SDA/AP_SDIO/AP_SDI*%
%TO.N,/IMU/SDI*%
X156106500Y-83828000D03*
%TD*%
D28*
%TO.P,C19,1*%
%TO.N,/XIN*%
X146812000Y-87983000D03*
%TO.P,C19,2*%
%TO.N,GND*%
X146812000Y-87023000D03*
%TD*%
D29*
%TO.P,C20,1*%
%TO.N,/XOUT*%
X147320000Y-93472000D03*
%TO.P,C20,2*%
%TO.N,GND*%
X146360000Y-93472000D03*
%TD*%
D50*
%TO.P,C4,1*%
%TO.N,+12V*%
X149860000Y-149111500D03*
%TO.P,C4,2*%
%TO.N,GND*%
X149860000Y-146036500D03*
%TD*%
D37*
%TO.P,J4,1,Pin_1*%
%TO.N,Net-(J4-Pin_1)*%
X150241000Y-72771000D03*
D38*
%TO.P,J4,2,Pin_2*%
%TO.N,GND*%
X150241000Y-75311000D03*
%TO.P,J4,3,Pin_3*%
%TO.N,+5V*%
X150241000Y-77851000D03*
%TD*%
D37*
%TO.P,J3,1,Pin_1*%
%TO.N,Net-(J3-Pin_1)*%
X155194000Y-67564000D03*
D38*
%TO.P,J3,2,Pin_2*%
%TO.N,GND*%
X157734000Y-67564000D03*
%TO.P,J3,3,Pin_3*%
%TO.N,+5V*%
X160274000Y-67564000D03*
%TD*%
D51*
%TO.P,U1,1,IN*%
%TO.N,+12V*%
X176276000Y-134112000D03*
%TO.P,U1,2,GND*%
%TO.N,GND*%
X177546000Y-134112000D03*
%TO.P,U1,3,GND*%
X178816000Y-134112000D03*
%TO.P,U1,4,~{OFF}*%
%TO.N,+12V*%
X180086000Y-134112000D03*
%TO.P,U1,5,SET*%
%TO.N,GND*%
X180086000Y-128662000D03*
%TO.P,U1,6,GND*%
X178816000Y-128662000D03*
%TO.P,U1,7,GND*%
X177546000Y-128662000D03*
%TO.P,U1,8,OUT*%
%TO.N,Net-(D2-A)*%
X176276000Y-128662000D03*
%TD*%
D52*
%TO.P,P1,S1,SHIELD*%
%TO.N,GND*%
X193929000Y-94361000D03*
D53*
X188569000Y-94361000D03*
D52*
X193929000Y-103001000D03*
D53*
X188569000Y-103001000D03*
D54*
%TO.P,P1,B12,GND*%
X189459000Y-101781000D03*
D55*
%TO.P,P1,B11*%
%TO.N,N/C*%
X189459000Y-100931000D03*
%TO.P,P1,B10*%
X189459000Y-100431000D03*
%TO.P,P1,B9,VBUS*%
%TO.N,VBUS*%
X189459000Y-99931000D03*
%TO.P,P1,B8*%
%TO.N,N/C*%
X189459000Y-99431000D03*
%TO.P,P1,B7*%
X189459000Y-98931000D03*
%TO.P,P1,B6*%
X189459000Y-98431000D03*
%TO.P,P1,B5,VCONN*%
%TO.N,unconnected-(P1-VCONN-PadB5)*%
X189459000Y-97931000D03*
%TO.P,P1,B4,VBUS*%
%TO.N,VBUS*%
X189459000Y-97431000D03*
%TO.P,P1,B3*%
%TO.N,N/C*%
X189459000Y-96931000D03*
%TO.P,P1,B2*%
X189459000Y-96431000D03*
D54*
%TO.P,P1,B1,GND*%
%TO.N,GND*%
X189459000Y-95581000D03*
D55*
%TO.P,P1,A12,GND*%
X188159000Y-95681000D03*
%TO.P,P1,A11*%
%TO.N,N/C*%
X188159000Y-96181000D03*
%TO.P,P1,A10*%
X188159000Y-96681000D03*
%TO.P,P1,A9,VBUS*%
%TO.N,VBUS*%
X188159000Y-97181000D03*
%TO.P,P1,A8*%
%TO.N,N/C*%
X188159000Y-97681000D03*
%TO.P,P1,A7,D-*%
%TO.N,D-*%
X188159000Y-98181000D03*
%TO.P,P1,A6,D+*%
%TO.N,D+*%
X188159000Y-99181000D03*
%TO.P,P1,A5,CC*%
%TO.N,Net-(P1-CC)*%
X188159000Y-99681000D03*
%TO.P,P1,A4,VBUS*%
%TO.N,VBUS*%
X188159000Y-100181000D03*
%TO.P,P1,A3*%
%TO.N,N/C*%
X188159000Y-100681000D03*
%TO.P,P1,A2*%
X188159000Y-101181000D03*
%TO.P,P1,A1,GND*%
%TO.N,GND*%
X188159000Y-101681000D03*
%TD*%
D56*
%TO.N,GND*%
X189738000Y-90678000D03*
X175514000Y-84455000D03*
X130048000Y-94488000D03*
X147320000Y-144272000D03*
X171958000Y-66802000D03*
X142748000Y-91186000D03*
X178634000Y-137342000D03*
X178446000Y-125846000D03*
X159004000Y-81534000D03*
X180340000Y-98806000D03*
X168148000Y-102108000D03*
%TO.N,+3V3*%
X145034000Y-75438000D03*
%TO.N,/Strain Gauges and Pressure Sensors/G1*%
X176276000Y-78994000D03*
%TO.N,/Strain Gauges and Pressure Sensors/G2*%
X146050000Y-67437000D03*
%TO.N,/Strain Gauges and Pressure Sensors/P1*%
X143764000Y-67310000D03*
%TO.N,/Strain Gauges and Pressure Sensors/P2*%
X144018000Y-57912000D03*
%TO.N,GND*%
X194818000Y-81233500D03*
X192278000Y-74422000D03*
X189484000Y-69342000D03*
%TO.N,+3V3*%
X191516000Y-69342000D03*
X196850000Y-72644000D03*
X193294000Y-80518000D03*
%TO.N,GND*%
X162052000Y-60198000D03*
X181864000Y-68497750D03*
X185166000Y-67989750D03*
X184150000Y-68072000D03*
X177038000Y-66548000D03*
%TO.N,+3V3*%
X185166000Y-73914000D03*
X182880000Y-74422000D03*
%TO.N,GND*%
X170615750Y-58928000D03*
X169418000Y-61286250D03*
%TO.N,+3V3*%
X164868000Y-58928000D03*
X174984000Y-58928000D03*
X170434000Y-67288000D03*
X145034000Y-96774000D03*
%TO.N,GND*%
X152997500Y-64008000D03*
X159930500Y-60198000D03*
X160528000Y-58584500D03*
%TO.N,+3V3*%
X152654000Y-62484000D03*
X153670000Y-60960000D03*
X155448000Y-55626000D03*
%TO.N,/Strain Gauges and Pressure Sensors/G1*%
X147574000Y-69596000D03*
%TO.N,/Strain Gauges and Pressure Sensors/G2*%
X145288000Y-70358000D03*
%TO.N,/Strain Gauges and Pressure Sensors/G3*%
X145034000Y-69342000D03*
X145034000Y-55880000D03*
%TO.N,GND*%
X145034000Y-46825500D03*
X147574000Y-50889500D03*
X150114000Y-55536500D03*
%TO.N,+3V3*%
X151610250Y-47940000D03*
X142936000Y-46255750D03*
X148656000Y-55852250D03*
%TO.N,/Strain Gauges and Pressure Sensors/P1*%
X142240000Y-67818000D03*
%TO.N,/Strain Gauges and Pressure Sensors/P2*%
X141561735Y-67148000D03*
%TO.N,/Strain Gauges and Pressure Sensors/P3*%
X140716000Y-67310000D03*
X140716000Y-65024000D03*
%TO.N,+3V3*%
X138684000Y-56874000D03*
%TO.N,GND*%
X140208000Y-56366000D03*
X137668000Y-51794000D03*
%TO.N,+3V3*%
X140208000Y-45698000D03*
X138176000Y-47984000D03*
%TO.N,GND*%
X134620000Y-48238000D03*
X140208000Y-47984000D03*
X186436000Y-136652000D03*
X129794000Y-57658000D03*
%TO.N,+3V3*%
X132588000Y-58674000D03*
X129540000Y-66040000D03*
X124460000Y-59436000D03*
%TO.N,GND*%
X124460000Y-65786000D03*
X131064000Y-66802000D03*
X128524000Y-60452000D03*
X117094000Y-64516000D03*
X120142000Y-70104000D03*
X113538000Y-60198000D03*
X120142000Y-60198000D03*
%TO.N,+3V3*%
X121666000Y-60198000D03*
X118110000Y-70104000D03*
X112522000Y-57150000D03*
%TO.N,GND*%
X137668000Y-73152000D03*
%TO.N,+3V3*%
X138430000Y-76200000D03*
X138430000Y-75184000D03*
X114300000Y-74930000D03*
X121158000Y-84582000D03*
X117348000Y-82550000D03*
X124460000Y-75946000D03*
%TO.N,GND*%
X124460000Y-74930000D03*
X118110000Y-77470000D03*
X124460000Y-82550000D03*
X115062000Y-93980000D03*
X117602000Y-88138000D03*
X118618000Y-90932000D03*
X124714000Y-86868000D03*
%TO.N,+3V3*%
X124714000Y-88646000D03*
%TO.N,GND*%
X181864000Y-128524000D03*
%TO.N,+3V3*%
X176276000Y-119888000D03*
%TO.N,GND*%
X179578000Y-106172000D03*
%TO.N,+3V3*%
X164084000Y-104140000D03*
%TO.N,GND*%
X161798000Y-97282000D03*
X161798000Y-95758000D03*
X161798000Y-94488000D03*
X160020000Y-98806000D03*
%TO.N,+3V3*%
X152146000Y-96774000D03*
%TO.N,GND*%
X175006000Y-88900000D03*
%TO.N,+3V3*%
X177292000Y-84074000D03*
%TO.N,+1V8*%
X159766000Y-81026000D03*
X160782000Y-82550000D03*
%TO.N,+3V3*%
X176784000Y-86868000D03*
%TO.N,GND*%
X178308000Y-93472000D03*
%TO.N,+3V3*%
X179070000Y-94996000D03*
X149860000Y-91594500D03*
%TO.N,GND*%
X167386000Y-89662000D03*
X157226000Y-89154000D03*
%TO.N,+3V3*%
X156972000Y-98298000D03*
%TO.N,GND*%
X169672000Y-100330000D03*
%TO.N,+3V3*%
X147490265Y-81871735D03*
%TO.N,GND*%
X149352000Y-80772000D03*
X147066000Y-83058000D03*
X145034000Y-87630000D03*
X151892000Y-80010000D03*
X155448000Y-81534000D03*
X149758400Y-141300200D03*
X152908000Y-83058000D03*
X157228025Y-85428000D03*
X149961600Y-144018000D03*
%TO.N,VBUS*%
X185369200Y-96901000D03*
X186537600Y-100330000D03*
%TO.N,Net-(J1-Pin_3)*%
X148567441Y-91818197D03*
%TO.N,Net-(J1-Pin_1)*%
X147858007Y-92505890D03*
%TO.N,+3V3*%
X159512000Y-82550000D03*
%TO.N,/IMU/INT_2*%
X154432000Y-93694500D03*
X154086000Y-86614000D03*
%TO.N,/IMU/INT*%
X154633833Y-95569500D03*
X154178000Y-82042000D03*
%TO.N,/IMU/SCL*%
X156083000Y-86487000D03*
X157471032Y-84228000D03*
%TO.N,/IMU/SDI*%
X157226000Y-83185000D03*
X155194000Y-86614000D03*
%TO.N,/M1*%
X146304000Y-69469000D03*
X148209000Y-88011000D03*
%TO.N,/M2*%
X148590000Y-88773000D03*
X142621000Y-81026000D03*
%TO.N,/M3*%
X162306000Y-81026000D03*
X149860000Y-89994500D03*
%TO.N,/M5*%
X150622000Y-103759000D03*
X149479000Y-94488000D03*
%TO.N,/ADC_SDI*%
X150495000Y-87249000D03*
X142748000Y-76327000D03*
%TO.N,/ADC_SCLK*%
X145161000Y-86233000D03*
X140335000Y-76327000D03*
%TO.N,/EOC*%
X143764000Y-81788000D03*
X148590000Y-87249000D03*
X146558000Y-71322000D03*
X146558000Y-78740000D03*
%TO.N,/ADC_SDO*%
X151511000Y-84963000D03*
X147701000Y-72644000D03*
%TO.N,/QSPI_SD3*%
X167259000Y-87503000D03*
X161290000Y-91186000D03*
%TO.N,/QSPI_SD0*%
X163703000Y-90195400D03*
X166243000Y-92684600D03*
%TO.N,/ADC_CS*%
X141605000Y-76327000D03*
X145542000Y-85090000D03*
%TO.N,/USB+*%
X162306000Y-93472000D03*
X160909000Y-92583000D03*
%TO.N,/USB-*%
X159893000Y-92794500D03*
X162052000Y-92710000D03*
%TD*%
D57*
%TO.N,+5V*%
X153009600Y-69596000D02*
X158242000Y-69596000D01*
X152146000Y-70459600D02*
X153009600Y-69596000D01*
X152146000Y-75946000D02*
X152146000Y-70459600D01*
X158242000Y-69596000D02*
X160274000Y-67564000D01*
X150241000Y-77851000D02*
X152146000Y-75946000D01*
D58*
%TO.N,GND*%
X130683000Y-95123000D02*
X133332000Y-95123000D01*
X130048000Y-94488000D02*
X130683000Y-95123000D01*
%TO.N,+1V8*%
X172501000Y-81626000D02*
X173990000Y-80137000D01*
X160782000Y-82550000D02*
X161706000Y-81626000D01*
X161706000Y-81626000D02*
X172501000Y-81626000D01*
%TO.N,/~{USB_BOOT}*%
X161200500Y-83820000D02*
X161036000Y-83984500D01*
X163924000Y-83820000D02*
X161200500Y-83820000D01*
%TO.N,GND*%
X175514000Y-84455000D02*
X174879000Y-83820000D01*
X174879000Y-83820000D02*
X172738000Y-83820000D01*
%TO.N,/Strain Gauges and Pressure Sensors/G2*%
X153588552Y-64770000D02*
X166247500Y-64770000D01*
X150921552Y-67437000D02*
X153588552Y-64770000D01*
X166247500Y-64770000D02*
X166920000Y-65442500D01*
X146050000Y-67437000D02*
X150921552Y-67437000D01*
%TO.N,/Strain Gauges and Pressure Sensors/P1*%
X150749000Y-68072000D02*
X144526000Y-68072000D01*
X153543000Y-65278000D02*
X150749000Y-68072000D01*
X163322000Y-65278000D02*
X153543000Y-65278000D01*
X144526000Y-68072000D02*
X143764000Y-67310000D01*
X179324000Y-72987500D02*
X171031500Y-72987500D01*
X171031500Y-72987500D02*
X163322000Y-65278000D01*
%TO.N,GND*%
X190246000Y-90170000D02*
X189738000Y-90678000D01*
X191770000Y-90170000D02*
X190246000Y-90170000D01*
%TO.N,/M3*%
X162306000Y-81026000D02*
X166713500Y-81026000D01*
X166713500Y-81026000D02*
X167602500Y-80137000D01*
%TO.N,GND*%
X145415000Y-146177000D02*
X147320000Y-144272000D01*
X144170400Y-146177000D02*
X145415000Y-146177000D01*
X171958000Y-64914500D02*
X171958000Y-66802000D01*
X143594000Y-92032000D02*
X142748000Y-91186000D01*
X145034000Y-92032000D02*
X143594000Y-92032000D01*
X178198000Y-136906000D02*
X178634000Y-137342000D01*
X177264000Y-136906000D02*
X178198000Y-136906000D01*
X178562000Y-137414000D02*
X178634000Y-137342000D01*
X178308000Y-125984000D02*
X178446000Y-125846000D01*
X177264000Y-125984000D02*
X178308000Y-125984000D01*
X158750000Y-81280000D02*
X159004000Y-81534000D01*
X157988000Y-81280000D02*
X158750000Y-81280000D01*
X181229000Y-99695000D02*
X180340000Y-98806000D01*
X182028500Y-99695000D02*
X181229000Y-99695000D01*
X168656000Y-102108000D02*
X168402000Y-102108000D01*
X169672000Y-103124000D02*
X168656000Y-102108000D01*
%TO.N,+3V3*%
X144294386Y-72422000D02*
X145034000Y-73161614D01*
X145034000Y-73161614D02*
X145034000Y-75438000D01*
X143792500Y-72422000D02*
X144294386Y-72422000D01*
%TO.N,/Strain Gauges and Pressure Sensors/G1*%
X176276000Y-78994000D02*
X176440500Y-79158500D01*
X176440500Y-79158500D02*
X189484000Y-79158500D01*
%TO.N,/Strain Gauges and Pressure Sensors/P2*%
X144018000Y-57912000D02*
X144526000Y-57912000D01*
X144526000Y-57912000D02*
X144912000Y-57526000D01*
X144912000Y-57526000D02*
X154253000Y-57526000D01*
%TO.N,GND*%
X194818000Y-81233500D02*
X194818000Y-78994000D01*
X192278000Y-74422000D02*
X192278000Y-76661500D01*
X189484000Y-70988500D02*
X189526000Y-71030500D01*
X189484000Y-69342000D02*
X189484000Y-70988500D01*
%TO.N,+3V3*%
X191648000Y-70866000D02*
X191648000Y-69474000D01*
X191648000Y-69474000D02*
X191516000Y-69342000D01*
X196982000Y-74168000D02*
X196982000Y-72776000D01*
X196982000Y-72776000D02*
X196850000Y-72644000D01*
X193162000Y-78994000D02*
X193162000Y-80386000D01*
X193162000Y-80386000D02*
X193294000Y-80518000D01*
%TO.N,Net-(J8-Pin_1)*%
X194818000Y-68624000D02*
X191980000Y-65786000D01*
X194818000Y-75423500D02*
X194818000Y-68624000D01*
X197089500Y-75423500D02*
X197104000Y-75438000D01*
X194818000Y-75423500D02*
X197089500Y-75423500D01*
%TO.N,Net-(R12-Pad1)*%
X189526000Y-72225500D02*
X191516000Y-72225500D01*
X189484000Y-72267500D02*
X189526000Y-72225500D01*
X189484000Y-75423500D02*
X189484000Y-72267500D01*
%TO.N,Net-(U16-+)*%
X194818000Y-76618500D02*
X194818000Y-77799000D01*
X194775000Y-76661500D02*
X194818000Y-76618500D01*
X193228000Y-76661500D02*
X194775000Y-76661500D01*
%TO.N,Net-(U16--)*%
X189527000Y-76661500D02*
X189484000Y-76618500D01*
X191328000Y-76661500D02*
X189527000Y-76661500D01*
X189484000Y-77963500D02*
X189484000Y-76618500D01*
%TO.N,/Strain Gauges and Pressure Sensors/G1*%
X189706000Y-78936500D02*
X189484000Y-79158500D01*
X191328000Y-78936500D02*
X189706000Y-78936500D01*
%TO.N,/Strain Gauges and Pressure Sensors/P3*%
X134620000Y-55715500D02*
X136474000Y-55715500D01*
X136474000Y-55715500D02*
X136718000Y-55471500D01*
%TO.N,Net-(U14--)*%
X134620000Y-53153500D02*
X134620000Y-54520500D01*
%TO.N,GND*%
X161036000Y-61214000D02*
X162052000Y-60198000D01*
X160871500Y-61214000D02*
X161036000Y-61214000D01*
%TO.N,Net-(U12-+)*%
X159544500Y-61082000D02*
X159676500Y-61214000D01*
X157977000Y-61082000D02*
X159544500Y-61082000D01*
%TO.N,GND*%
X181864000Y-70557000D02*
X181798000Y-70623000D01*
X181864000Y-68497750D02*
X181864000Y-70557000D01*
X185166000Y-67989750D02*
X185166000Y-69170250D01*
X184150000Y-68072000D02*
X184150000Y-69252500D01*
X178129000Y-67639000D02*
X177038000Y-66548000D01*
X178129000Y-67818000D02*
X178129000Y-67639000D01*
%TO.N,+3V3*%
X185166000Y-72733500D02*
X185166000Y-73914000D01*
X182748000Y-74290000D02*
X182880000Y-74422000D01*
X182748000Y-72898000D02*
X182748000Y-74290000D01*
%TO.N,Net-(R29-Pad1)*%
X184150000Y-72554500D02*
X185166000Y-71538500D01*
X184150000Y-72733500D02*
X184150000Y-72554500D01*
X185166000Y-71538500D02*
X185166000Y-70283000D01*
%TO.N,Net-(U10-+)*%
X183974500Y-70623000D02*
X184150000Y-70447500D01*
X182748000Y-70623000D02*
X183974500Y-70623000D01*
X184150000Y-71538500D02*
X184150000Y-70447500D01*
%TO.N,Net-(J14-Pin_2)*%
X181356000Y-67818000D02*
X183388000Y-65786000D01*
X179324000Y-67818000D02*
X181356000Y-67818000D01*
X179324000Y-69252500D02*
X179324000Y-67818000D01*
%TO.N,/Strain Gauges and Pressure Sensors/P1*%
X179413500Y-72898000D02*
X179324000Y-72987500D01*
X180848000Y-72898000D02*
X179413500Y-72898000D01*
%TO.N,Net-(U10--)*%
X180848000Y-70623000D02*
X179499500Y-70623000D01*
X179499500Y-70623000D02*
X179324000Y-70447500D01*
X179324000Y-71792500D02*
X179324000Y-70447500D01*
%TO.N,GND*%
X168728250Y-58928000D02*
X170615750Y-58928000D01*
X169418000Y-63173750D02*
X169418000Y-61286250D01*
%TO.N,+3V3*%
X166856000Y-58928000D02*
X164868000Y-58928000D01*
X172996000Y-58928000D02*
X174984000Y-58928000D01*
%TO.N,/Strain Gauges and Pressure Sensors/G2*%
X168343500Y-65442500D02*
X168444000Y-65342000D01*
X166920000Y-65442500D02*
X168343500Y-65442500D01*
%TO.N,+3V3*%
X170434000Y-65300000D02*
X170434000Y-67288000D01*
%TO.N,Net-(J9-Pin_1)*%
X171868500Y-61364000D02*
X171958000Y-61453500D01*
X171868500Y-59003000D02*
X171868500Y-61364000D01*
X171868500Y-58860500D02*
X171868500Y-59003000D01*
X168634000Y-55626000D02*
X171868500Y-58860500D01*
%TO.N,Net-(U8-+)*%
X171958000Y-62648500D02*
X171958000Y-63739500D01*
X171539500Y-63067000D02*
X171958000Y-62648500D01*
X170344000Y-63067000D02*
X171539500Y-63067000D01*
%TO.N,Net-(R19-Pad1)*%
X166920000Y-60198000D02*
X168910000Y-60198000D01*
X166920000Y-61649500D02*
X166862000Y-61707500D01*
X166920000Y-60198000D02*
X166920000Y-61649500D01*
%TO.N,Net-(U8--)*%
X168444000Y-63067000D02*
X167026500Y-63067000D01*
X167026500Y-63067000D02*
X166862000Y-62902500D01*
X166920000Y-62960500D02*
X166862000Y-62902500D01*
X166920000Y-64247500D02*
X166920000Y-62960500D01*
%TO.N,+3V3*%
X145288000Y-96520000D02*
X145034000Y-96774000D01*
X145288000Y-95847500D02*
X145288000Y-96520000D01*
%TO.N,/RUN*%
X145288000Y-94652500D02*
X147663500Y-94652500D01*
X149321500Y-92994500D02*
X151448500Y-92994500D01*
X145198500Y-94742000D02*
X145288000Y-94652500D01*
X143416000Y-94742000D02*
X145198500Y-94742000D01*
X147663500Y-94652500D02*
X149321500Y-92994500D01*
%TO.N,GND*%
X145034000Y-92146000D02*
X146360000Y-93472000D01*
X145034000Y-92032000D02*
X145034000Y-92146000D01*
%TO.N,/XOUT*%
X146634002Y-92032000D02*
X146634002Y-92786002D01*
X146634002Y-92786002D02*
X147320000Y-93472000D01*
%TO.N,GND*%
X153924000Y-64008000D02*
X152997500Y-64008000D01*
X158043000Y-60198000D02*
X159930500Y-60198000D01*
X157977000Y-60132000D02*
X158043000Y-60198000D01*
X160528000Y-57658000D02*
X160528000Y-58584500D01*
%TO.N,+3V3*%
X152654000Y-62484000D02*
X153834500Y-62484000D01*
X153834500Y-62484000D02*
X154088500Y-62738000D01*
X155658000Y-60960000D02*
X153670000Y-60960000D01*
%TO.N,Net-(U12-+)*%
X158077500Y-61182500D02*
X157977000Y-61082000D01*
X158077500Y-62738000D02*
X158077500Y-61182500D01*
%TO.N,Net-(R27-Pad1)*%
X155283500Y-62738000D02*
X156882500Y-62738000D01*
X155283500Y-64008000D02*
X155283500Y-62738000D01*
%TO.N,+3V3*%
X157436000Y-55626000D02*
X155448000Y-55626000D01*
%TO.N,Net-(J13-Pin_2)*%
X161036000Y-55626000D02*
X159333000Y-57329000D01*
X159333000Y-57329000D02*
X159333000Y-57658000D01*
X159201000Y-57526000D02*
X159333000Y-57658000D01*
X157988000Y-57526000D02*
X159201000Y-57526000D01*
%TO.N,/Strain Gauges and Pressure Sensors/P2*%
X154253000Y-57526000D02*
X154253000Y-57733000D01*
X154253000Y-57733000D02*
X155702000Y-59182000D01*
%TO.N,Net-(U12--)*%
X156793000Y-57998000D02*
X157977000Y-59182000D01*
X156793000Y-57526000D02*
X156793000Y-57998000D01*
X155448000Y-57526000D02*
X156793000Y-57526000D01*
%TO.N,GND*%
X153388000Y-84328000D02*
X152908000Y-83848000D01*
X154281500Y-84328000D02*
X153388000Y-84328000D01*
%TO.N,/Strain Gauges and Pressure Sensors/G1*%
X147435471Y-69596000D02*
X147574000Y-69596000D01*
X146073471Y-70958000D02*
X147435471Y-69596000D01*
X143828500Y-70958000D02*
X146073471Y-70958000D01*
X143792500Y-70922000D02*
X143828500Y-70958000D01*
%TO.N,/Strain Gauges and Pressure Sensors/G2*%
X145224000Y-70422000D02*
X145288000Y-70358000D01*
X143792500Y-70422000D02*
X145224000Y-70422000D01*
%TO.N,/Strain Gauges and Pressure Sensors/G3*%
X145034000Y-55880000D02*
X145034000Y-54535000D01*
X144454000Y-69922000D02*
X145034000Y-69342000D01*
X143792500Y-69922000D02*
X144454000Y-69922000D01*
%TO.N,GND*%
X145034000Y-47752000D02*
X145034000Y-46825500D01*
X147574000Y-51816000D02*
X147574000Y-50889500D01*
X150114000Y-54610000D02*
X150114000Y-55536500D01*
%TO.N,+3V3*%
X150207750Y-48006000D02*
X151544250Y-48006000D01*
X143002000Y-47658250D02*
X143002000Y-46321750D01*
X148590000Y-54449750D02*
X148590000Y-55786250D01*
%TO.N,Net-(R25-Pad1)*%
X145034000Y-48857500D02*
X145034000Y-50800000D01*
X143044000Y-48857500D02*
X145034000Y-48857500D01*
%TO.N,Net-(J10-Pin_1)*%
X147276000Y-46363000D02*
X147276000Y-45720000D01*
X150114000Y-49201000D02*
X147276000Y-46363000D01*
X150114000Y-50546000D02*
X150114000Y-49201000D01*
%TO.N,Net-(U9-+)*%
X149075000Y-51741000D02*
X148524000Y-52292000D01*
X150114000Y-51741000D02*
X149075000Y-51741000D01*
X150114000Y-53340000D02*
X150114000Y-51741000D01*
%TO.N,Net-(U9--)*%
X146327000Y-51995000D02*
X146624000Y-52292000D01*
X145034000Y-51995000D02*
X146327000Y-51995000D01*
X145034000Y-53340000D02*
X145034000Y-51995000D01*
%TO.N,/Strain Gauges and Pressure Sensors/G3*%
X145066000Y-54567000D02*
X145034000Y-54535000D01*
X146624000Y-54567000D02*
X145066000Y-54567000D01*
%TO.N,/Strain Gauges and Pressure Sensors/P1*%
X141930000Y-68128000D02*
X142240000Y-67818000D01*
X141930000Y-69059500D02*
X141930000Y-68128000D01*
%TO.N,/Strain Gauges and Pressure Sensors/P2*%
X141430000Y-67279735D02*
X141561735Y-67148000D01*
X141430000Y-69059500D02*
X141430000Y-67279735D01*
%TO.N,/Strain Gauges and Pressure Sensors/P3*%
X140930000Y-67524000D02*
X140930000Y-69059500D01*
X140716000Y-67310000D02*
X140930000Y-67524000D01*
X136718000Y-61026000D02*
X140716000Y-65024000D01*
X136718000Y-55471500D02*
X136718000Y-61026000D01*
%TO.N,+3V3*%
X138618000Y-56808000D02*
X138684000Y-56874000D01*
X138618000Y-55471500D02*
X138618000Y-56808000D01*
%TO.N,GND*%
X140208000Y-55439500D02*
X140208000Y-56366000D01*
X137668000Y-53196500D02*
X137668000Y-51794000D01*
%TO.N,+3V3*%
X138430000Y-45698000D02*
X140208000Y-45698000D01*
%TO.N,GND*%
X134620000Y-48238000D02*
X134620000Y-49418500D01*
X140208000Y-47984000D02*
X140208000Y-49164500D01*
%TO.N,+3V3*%
X138176000Y-49122500D02*
X138218000Y-49164500D01*
X138176000Y-47984000D02*
X138176000Y-49122500D01*
%TO.N,Net-(R63-Pad1)*%
X140208000Y-50359500D02*
X138218000Y-50359500D01*
X140208000Y-51958500D02*
X140208000Y-50359500D01*
%TO.N,Net-(U14-+)*%
X140208000Y-54244500D02*
X140208000Y-53153500D01*
X140165000Y-53196500D02*
X140208000Y-53153500D01*
X138618000Y-53196500D02*
X140165000Y-53196500D01*
%TO.N,Net-(U14--)*%
X136675000Y-53153500D02*
X136718000Y-53196500D01*
X134620000Y-53153500D02*
X136675000Y-53153500D01*
%TO.N,Net-(J16-Pin_2)*%
X134620000Y-50613500D02*
X134620000Y-51958500D01*
X136906000Y-48746000D02*
X135038500Y-50613500D01*
X136906000Y-47774000D02*
X136906000Y-48746000D01*
X134830000Y-45698000D02*
X136906000Y-47774000D01*
X135038500Y-50613500D02*
X134620000Y-50613500D01*
%TO.N,GND*%
X186364000Y-136724000D02*
X186436000Y-136652000D01*
X186364000Y-139788000D02*
X186364000Y-136724000D01*
%TO.N,/Strain Gauges and Pressure Sensors/G4*%
X136906000Y-66548000D02*
X141986000Y-66548000D01*
X129930001Y-67402000D02*
X136052000Y-67402000D01*
X136052000Y-67402000D02*
X136906000Y-66548000D01*
X127574000Y-65045999D02*
X129930001Y-67402000D01*
X141986000Y-66548000D02*
X142930000Y-67492000D01*
X127574000Y-64383500D02*
X127574000Y-65045999D01*
X142930000Y-67492000D02*
X142930000Y-69059500D01*
%TO.N,GND*%
X129540000Y-57404000D02*
X129794000Y-57658000D01*
X129540000Y-55880000D02*
X129540000Y-57404000D01*
%TO.N,Net-(J11-Pin_1)*%
X129839500Y-59779500D02*
X125940000Y-55880000D01*
X131064000Y-59779500D02*
X129839500Y-59779500D01*
X131064000Y-61124500D02*
X131064000Y-59779500D01*
%TO.N,+3V3*%
X132588000Y-58674000D02*
X131064000Y-58674000D01*
X129540000Y-66040000D02*
X129540000Y-64516000D01*
X124460000Y-59436000D02*
X124460000Y-60960000D01*
%TO.N,GND*%
X124460000Y-65786000D02*
X124460000Y-64262000D01*
X131064000Y-66802000D02*
X131064000Y-65278000D01*
X128524000Y-60452000D02*
X128524000Y-61976000D01*
%TO.N,Net-(U15-+)*%
X130853000Y-62108500D02*
X131064000Y-62319500D01*
X129474000Y-62108500D02*
X130853000Y-62108500D01*
X131064000Y-64008000D02*
X131064000Y-62319500D01*
%TO.N,/Strain Gauges and Pressure Sensors/G4*%
X127542000Y-64351500D02*
X127574000Y-64383500D01*
X125984000Y-64351500D02*
X127542000Y-64351500D01*
%TO.N,Net-(U15--)*%
X126526000Y-63156500D02*
X127574000Y-62108500D01*
X125984000Y-63156500D02*
X126526000Y-63156500D01*
X126336000Y-60870500D02*
X127574000Y-62108500D01*
X125984000Y-60870500D02*
X126336000Y-60870500D01*
%TO.N,Net-(R46-Pad1)*%
X124460000Y-62065500D02*
X125984000Y-62065500D01*
X124460000Y-62065500D02*
X124460000Y-63156500D01*
%TO.N,/Strain Gauges and Pressure Sensors/P4*%
X140430000Y-68557614D02*
X140430000Y-69059500D01*
X135036000Y-70704000D02*
X137668000Y-68072000D01*
X137668000Y-68072000D02*
X139944386Y-68072000D01*
X117861471Y-70704000D02*
X135036000Y-70704000D01*
X116144000Y-68986529D02*
X117861471Y-70704000D01*
X116144000Y-68283000D02*
X116144000Y-68986529D01*
X139944386Y-68072000D02*
X140430000Y-68557614D01*
%TO.N,GND*%
X117094000Y-64516000D02*
X117094000Y-66040000D01*
X120142000Y-70104000D02*
X120142000Y-68594500D01*
%TO.N,/Strain Gauges and Pressure Sensors/P4*%
X115668000Y-68759000D02*
X116144000Y-68283000D01*
X113538000Y-68759000D02*
X115668000Y-68759000D01*
%TO.N,GND*%
X113538000Y-60198000D02*
X113538000Y-61722000D01*
X120142000Y-60198000D02*
X120142000Y-61722000D01*
%TO.N,Net-(J15-Pin_2)*%
X118872000Y-57583000D02*
X118872000Y-55880000D01*
%TO.N,+3V3*%
X118044000Y-70038000D02*
X118110000Y-70104000D01*
X118044000Y-68283000D02*
X118044000Y-70038000D01*
X121666000Y-60198000D02*
X121666000Y-61722000D01*
X113792000Y-55880000D02*
X112522000Y-57150000D01*
X115272000Y-55880000D02*
X113792000Y-55880000D01*
%TO.N,Net-(J15-Pin_2)*%
X113538000Y-62917000D02*
X118872000Y-57583000D01*
%TO.N,Net-(U13-+)*%
X120052500Y-67310000D02*
X120142000Y-67399500D01*
X120052500Y-66054500D02*
X120052500Y-67310000D01*
X120052500Y-66054500D02*
X118090500Y-66054500D01*
X118090500Y-66054500D02*
X118044000Y-66008000D01*
%TO.N,Net-(R41-Pad1)*%
X120142000Y-62917000D02*
X120142000Y-64770000D01*
X120142000Y-64770000D02*
X120052500Y-64859500D01*
X121666000Y-62917000D02*
X120142000Y-62917000D01*
%TO.N,Net-(U13-+)*%
X119977500Y-67235000D02*
X120052500Y-67310000D01*
%TO.N,Net-(J15-Pin_2)*%
X113538000Y-64770000D02*
X113538000Y-62917000D01*
%TO.N,Net-(U13--)*%
X116101000Y-65965000D02*
X116144000Y-66008000D01*
X113538000Y-65965000D02*
X116101000Y-65965000D01*
X113538000Y-67564000D02*
X113538000Y-65965000D01*
%TO.N,GND*%
X137898000Y-72922000D02*
X137668000Y-73152000D01*
X139067500Y-72922000D02*
X137898000Y-72922000D01*
X139067500Y-72922000D02*
X139067500Y-72422000D01*
%TO.N,+3V3*%
X139016386Y-76200000D02*
X138430000Y-76200000D01*
X140930000Y-74286386D02*
X139016386Y-76200000D01*
X140930000Y-73784500D02*
X140930000Y-74286386D01*
X138530500Y-75184000D02*
X138430000Y-75184000D01*
X139930000Y-73784500D02*
X138530500Y-75184000D01*
X141430000Y-73784500D02*
X140930000Y-73784500D01*
%TO.N,/Strain Gauges and Pressure Sensors/G5*%
X130368000Y-78420000D02*
X138366000Y-70422000D01*
X138366000Y-70422000D02*
X139067500Y-70422000D01*
X122295500Y-78420000D02*
X130368000Y-78420000D01*
%TO.N,GND*%
X114764000Y-80816000D02*
X118110000Y-77470000D01*
X110998000Y-80816000D02*
X114764000Y-80816000D01*
%TO.N,Net-(J12-Pin_1)*%
X114554000Y-77216000D02*
X110998000Y-77216000D01*
X116840000Y-74930000D02*
X114554000Y-77216000D01*
%TO.N,+3V3*%
X114300000Y-74930000D02*
X115645000Y-74930000D01*
%TO.N,Net-(J12-Pin_1)*%
X118782500Y-74930000D02*
X116840000Y-74930000D01*
%TO.N,+3V3*%
X118872000Y-82550000D02*
X117348000Y-82550000D01*
X122428000Y-84746500D02*
X121322500Y-84746500D01*
X121322500Y-84746500D02*
X121158000Y-84582000D01*
X123886000Y-76520000D02*
X124460000Y-75946000D01*
X122295500Y-76520000D02*
X123886000Y-76520000D01*
%TO.N,GND*%
X123025500Y-82550000D02*
X124460000Y-82550000D01*
X122936000Y-74930000D02*
X124460000Y-74930000D01*
X118110000Y-77470000D02*
X120020500Y-77470000D01*
%TO.N,Net-(R53-Pad1)*%
X118857500Y-81340500D02*
X120067000Y-82550000D01*
X118857500Y-80264000D02*
X118857500Y-81340500D01*
X121830500Y-82550000D02*
X120067000Y-82550000D01*
%TO.N,Net-(U17-+)*%
X119977500Y-76477000D02*
X120020500Y-76520000D01*
X119977500Y-74930000D02*
X119977500Y-76477000D01*
X119977500Y-74930000D02*
X121741000Y-74930000D01*
%TO.N,GND*%
X116332000Y-93980000D02*
X115062000Y-93980000D01*
X118684000Y-90866000D02*
X118618000Y-90932000D01*
X120153000Y-90866000D02*
X118684000Y-90866000D01*
X118782500Y-88138000D02*
X117602000Y-88138000D01*
X123354500Y-88227500D02*
X124714000Y-86868000D01*
X122428000Y-88227500D02*
X123354500Y-88227500D01*
%TO.N,Net-(U17--)*%
X120020500Y-80232000D02*
X120052500Y-80264000D01*
X120020500Y-78420000D02*
X120020500Y-80232000D01*
%TO.N,/Strain Gauges and Pressure Sensors/G5*%
X122682000Y-78806500D02*
X122682000Y-80264000D01*
X122295500Y-78420000D02*
X122682000Y-78806500D01*
%TO.N,Net-(U17--)*%
X121487000Y-80264000D02*
X120052500Y-80264000D01*
%TO.N,/Strain Gauges and Pressure Sensors/P5*%
X138374000Y-70922000D02*
X139067500Y-70922000D01*
X136398000Y-72898000D02*
X138374000Y-70922000D01*
X123576000Y-91816000D02*
X136398000Y-78994000D01*
X136398000Y-78994000D02*
X136398000Y-72898000D01*
X122428000Y-91816000D02*
X123576000Y-91816000D01*
%TO.N,Net-(J17-Pin_2)*%
X117527000Y-93905000D02*
X117527000Y-93980000D01*
X116586000Y-92964000D02*
X117527000Y-93905000D01*
X109198000Y-93428000D02*
X109662000Y-92964000D01*
X109662000Y-92964000D02*
X116586000Y-92964000D01*
%TO.N,Net-(U11--)*%
X120142000Y-91827000D02*
X120153000Y-91816000D01*
X120142000Y-93980000D02*
X120142000Y-91827000D01*
%TO.N,/Strain Gauges and Pressure Sensors/P5*%
X122771500Y-93980000D02*
X122771500Y-92159500D01*
X122771500Y-92159500D02*
X122428000Y-91816000D01*
%TO.N,Net-(J17-Pin_2)*%
X117527000Y-93980000D02*
X118947000Y-93980000D01*
%TO.N,Net-(U11--)*%
X121576500Y-93980000D02*
X120142000Y-93980000D01*
%TO.N,Net-(U11-+)*%
X119977500Y-89740500D02*
X120153000Y-89916000D01*
X119977500Y-88138000D02*
X119977500Y-89740500D01*
X120052500Y-88063000D02*
X119977500Y-88138000D01*
X120052500Y-86868000D02*
X120052500Y-88063000D01*
%TO.N,+3V3*%
X123444000Y-89916000D02*
X124714000Y-88646000D01*
X122428000Y-89916000D02*
X123444000Y-89916000D01*
%TO.N,Net-(R75-Pad1)*%
X122263500Y-86868000D02*
X122428000Y-87032500D01*
X121247500Y-86868000D02*
X122263500Y-86868000D01*
X122428000Y-85941500D02*
X122428000Y-87032500D01*
D57*
%TO.N,Net-(D2-A)*%
X176530000Y-124714000D02*
X180340000Y-124714000D01*
X176276000Y-124968000D02*
X176530000Y-124714000D01*
X176276000Y-124968000D02*
X176276000Y-123952000D01*
X176276000Y-126012000D02*
X176276000Y-124968000D01*
D58*
%TO.N,GND*%
X181726000Y-128662000D02*
X181864000Y-128524000D01*
X180086000Y-128662000D02*
X181726000Y-128662000D01*
D59*
%TO.N,+3V3*%
X176276000Y-121752000D02*
X176276000Y-119888000D01*
D58*
%TO.N,Net-(D2-A)*%
X176276000Y-126012000D02*
X176304000Y-125984000D01*
D57*
X176276000Y-128662000D02*
X176276000Y-126012000D01*
D58*
%TO.N,GND*%
X177546000Y-134112000D02*
X177546000Y-128662000D01*
X178816000Y-134112000D02*
X178816000Y-128662000D01*
X177546000Y-134112000D02*
X178816000Y-134112000D01*
D57*
%TO.N,+12V*%
X176502000Y-135946000D02*
X179776000Y-135946000D01*
X180086000Y-135636000D02*
X180086000Y-134112000D01*
D59*
X176304000Y-136144000D02*
X176304000Y-134140000D01*
X176304000Y-136144000D02*
X176502000Y-135946000D01*
D57*
X179776000Y-135946000D02*
X180086000Y-135636000D01*
D59*
X176304000Y-136906000D02*
X176304000Y-136144000D01*
D57*
X176304000Y-134140000D02*
X176276000Y-134112000D01*
D59*
X164098500Y-149111500D02*
X176304000Y-136906000D01*
D57*
X161290000Y-149111500D02*
X164098500Y-149111500D01*
X161290000Y-149111500D02*
X149860000Y-149111500D01*
X172466000Y-149111500D02*
X161290000Y-149111500D01*
D58*
%TO.N,GND*%
X180086000Y-128662000D02*
X177546000Y-128662000D01*
X179578000Y-105100000D02*
X179578000Y-106172000D01*
D60*
%TO.N,VBUS*%
X179578000Y-104140000D02*
X177223000Y-104140000D01*
X182727600Y-104140000D02*
X179578000Y-104140000D01*
X184670700Y-102196900D02*
X182727600Y-104140000D01*
D59*
%TO.N,+3V3*%
X165948000Y-104140000D02*
X164084000Y-104140000D01*
%TO.N,Net-(D1-A)*%
X171717000Y-104084000D02*
X171773000Y-104140000D01*
X169672000Y-104084000D02*
X171717000Y-104084000D01*
D58*
X168204000Y-104084000D02*
X168148000Y-104140000D01*
D59*
X169672000Y-104084000D02*
X168204000Y-104084000D01*
D58*
%TO.N,GND*%
X161008000Y-97282000D02*
X161798000Y-97282000D01*
X161008000Y-95758000D02*
X161798000Y-95758000D01*
X161008000Y-94488000D02*
X161798000Y-94488000D01*
X159512000Y-98298000D02*
X160020000Y-98806000D01*
X158722000Y-98298000D02*
X159512000Y-98298000D01*
%TO.N,+3V3*%
X152277860Y-96774000D02*
X152146000Y-96774000D01*
X152846930Y-96204930D02*
X152277860Y-96774000D01*
%TO.N,GND*%
X158750000Y-98270000D02*
X158722000Y-98298000D01*
X158750000Y-96012000D02*
X158750000Y-98270000D01*
X175006000Y-87856000D02*
X175006000Y-88900000D01*
%TO.N,+3V3*%
X177800000Y-83566000D02*
X177292000Y-84074000D01*
X177800000Y-81534000D02*
X177800000Y-83566000D01*
%TO.N,+1V8*%
X157638000Y-80670000D02*
X159410000Y-80670000D01*
X157028000Y-81280000D02*
X157638000Y-80670000D01*
X159410000Y-80670000D02*
X159766000Y-81026000D01*
X153762000Y-80934000D02*
X156682000Y-80934000D01*
X156682000Y-80934000D02*
X157028000Y-81280000D01*
%TO.N,/IMU/SDO*%
X157086000Y-86881000D02*
X157086000Y-87757000D01*
X158369000Y-85598000D02*
X157086000Y-86881000D01*
X158369000Y-82931000D02*
X158369000Y-85598000D01*
X157480000Y-82042000D02*
X158369000Y-82931000D01*
X156210000Y-82042000D02*
X157480000Y-82042000D01*
X155944000Y-83165500D02*
X155944000Y-82308000D01*
X155944000Y-82308000D02*
X156210000Y-82042000D01*
%TO.N,+3V3*%
X176756000Y-86896000D02*
X176784000Y-86868000D01*
X175006000Y-86896000D02*
X176756000Y-86896000D01*
%TO.N,GND*%
X177998000Y-93782000D02*
X178308000Y-93472000D01*
X177292000Y-93782000D02*
X177998000Y-93782000D01*
X168402000Y-93782000D02*
X177292000Y-93782000D01*
%TO.N,+3V3*%
X178816000Y-94742000D02*
X179070000Y-94996000D01*
X177292000Y-94742000D02*
X178816000Y-94742000D01*
X168402000Y-94742000D02*
X177292000Y-94742000D01*
X166278000Y-94742000D02*
X168402000Y-94742000D01*
X165516000Y-93980000D02*
X166278000Y-94742000D01*
X153886000Y-95165860D02*
X153886000Y-94632000D01*
X152846930Y-96204930D02*
X153886000Y-95165860D01*
%TO.N,+1V1*%
X155296279Y-93445971D02*
X156744029Y-93445971D01*
X154944808Y-93094500D02*
X155296279Y-93445971D01*
X153832000Y-93445971D02*
X154183471Y-93094500D01*
X153135971Y-93445971D02*
X153832000Y-93445971D01*
X156744029Y-93445971D02*
X157429200Y-92760800D01*
X152654000Y-92466140D02*
X152654000Y-92964000D01*
X154183471Y-93094500D02*
X154944808Y-93094500D01*
X152654000Y-92964000D02*
X153135971Y-93445971D01*
X151448500Y-91794500D02*
X151982360Y-91794500D01*
X151982360Y-91794500D02*
X152654000Y-92466140D01*
%TO.N,+3V3*%
X150060000Y-91394500D02*
X149860000Y-91594500D01*
X151448500Y-91394500D02*
X150060000Y-91394500D01*
X163322000Y-91786000D02*
X165516000Y-93980000D01*
X161128000Y-91786000D02*
X163322000Y-91786000D01*
%TO.N,/USB-*%
X181835001Y-96459499D02*
X183515000Y-94779500D01*
X167008698Y-96459499D02*
X181835001Y-96459499D01*
X163259199Y-92710000D02*
X167008698Y-96459499D01*
X162052000Y-92710000D02*
X163259199Y-92710000D01*
%TO.N,/USB+*%
X181835001Y-96909501D02*
X182118000Y-97192500D01*
X163384801Y-93472000D02*
X166822302Y-96909501D01*
X162306000Y-93472000D02*
X163384801Y-93472000D01*
X166822302Y-96909501D02*
X181835001Y-96909501D01*
%TO.N,GND*%
X166370000Y-90678000D02*
X167386000Y-89662000D01*
X165183000Y-90678000D02*
X166370000Y-90678000D01*
%TO.N,+3V3*%
X158715000Y-91786000D02*
X161128000Y-91786000D01*
%TO.N,Net-(J1-Pin_3)*%
X148567441Y-91818197D02*
X148943744Y-92194500D01*
X148943744Y-92194500D02*
X151448500Y-92194500D01*
%TO.N,Net-(J1-Pin_1)*%
X147946617Y-92594500D02*
X151448500Y-92594500D01*
X147858007Y-92505890D02*
X147946617Y-92594500D01*
%TO.N,/XOUT*%
X148527500Y-90994500D02*
X147490000Y-92032000D01*
X151448500Y-90994500D02*
X148527500Y-90994500D01*
X147490000Y-92032000D02*
X146634002Y-92032000D01*
%TO.N,/IMU/INT*%
X155086000Y-95165860D02*
X155086000Y-94632000D01*
X154682360Y-95569500D02*
X155086000Y-95165860D01*
X154633833Y-95569500D02*
X154682360Y-95569500D01*
%TO.N,GND*%
X153886000Y-90194500D02*
X154886000Y-91194500D01*
X151448500Y-90194500D02*
X153886000Y-90194500D01*
X157226000Y-90654500D02*
X157226000Y-89154000D01*
X156686000Y-91194500D02*
X157226000Y-90654500D01*
X154886000Y-91194500D02*
X156686000Y-91194500D01*
%TO.N,Net-(J18-Pin_1)*%
X151991860Y-99060000D02*
X150026000Y-99060000D01*
X150026000Y-99060000D02*
X148248000Y-100838000D01*
X155886000Y-95165860D02*
X151991860Y-99060000D01*
X155886000Y-94632000D02*
X155886000Y-95165860D01*
%TO.N,Net-(J18-Pin_2)*%
X151848000Y-100165552D02*
X151848000Y-100838000D01*
X156286000Y-95727552D02*
X151848000Y-100165552D01*
X156286000Y-94632000D02*
X156286000Y-95727552D01*
%TO.N,Net-(J18-Pin_3)*%
X156686000Y-95790000D02*
X156686000Y-94632000D01*
X155448000Y-97028000D02*
X156686000Y-95790000D01*
X155448000Y-100838000D02*
X155448000Y-97028000D01*
%TO.N,Net-(J18-Pin_4)*%
X158496000Y-100838000D02*
X159048000Y-100838000D01*
X156372000Y-96866000D02*
X156372000Y-98714000D01*
X157086000Y-96152000D02*
X156372000Y-96866000D01*
X156372000Y-98714000D02*
X158496000Y-100838000D01*
X157086000Y-94632000D02*
X157086000Y-96152000D01*
%TO.N,+3V3*%
X157762000Y-98298000D02*
X156972000Y-98298000D01*
X157790000Y-98270000D02*
X157762000Y-98298000D01*
X157790000Y-96012000D02*
X157790000Y-98270000D01*
X157486000Y-95708000D02*
X157790000Y-96012000D01*
X157486000Y-94632000D02*
X157486000Y-95708000D01*
%TO.N,+1V1*%
X160048000Y-94008000D02*
X159034500Y-92994500D01*
X160048000Y-94488000D02*
X160048000Y-94008000D01*
X160048000Y-96944000D02*
X160048000Y-94488000D01*
X160076000Y-96972000D02*
X160048000Y-96944000D01*
X160076000Y-97282000D02*
X160076000Y-96972000D01*
X162108000Y-99314000D02*
X160076000Y-97282000D01*
X163322000Y-99314000D02*
X162108000Y-99314000D01*
X158323500Y-92994500D02*
X159034500Y-92994500D01*
%TO.N,GND*%
X171773000Y-100330000D02*
X169672000Y-100330000D01*
X171773000Y-101600000D02*
X171773000Y-100330000D01*
X177223000Y-101600000D02*
X171773000Y-101600000D01*
X177223000Y-101600000D02*
X177223000Y-102870000D01*
X177223000Y-102870000D02*
X171773000Y-102870000D01*
D57*
%TO.N,Net-(D1-A)*%
X171773000Y-106865000D02*
X171704000Y-106934000D01*
D59*
X171773000Y-104140000D02*
X171773000Y-106865000D01*
D58*
%TO.N,+3V3*%
X158696000Y-84800500D02*
X159512000Y-83984500D01*
X158696000Y-86166000D02*
X158696000Y-84800500D01*
X157486000Y-87376000D02*
X158696000Y-86166000D01*
X157486000Y-87757000D02*
X157486000Y-87376000D01*
%TO.N,/IMU/INT_2*%
X155486000Y-94098140D02*
X155486000Y-94632000D01*
X155082360Y-93694500D02*
X155486000Y-94098140D01*
X154432000Y-93694500D02*
X155082360Y-93694500D01*
%TO.N,+3V3*%
X157377500Y-88494500D02*
X157486000Y-88386000D01*
X153886000Y-88290860D02*
X154089640Y-88494500D01*
X154089640Y-88494500D02*
X157377500Y-88494500D01*
X157486000Y-88386000D02*
X157486000Y-87757000D01*
X153886000Y-88290860D02*
X153886000Y-87757000D01*
%TO.N,+1V1*%
X157789640Y-92994500D02*
X158323500Y-92994500D01*
%TO.N,+3V3*%
X147726530Y-82108000D02*
X147490265Y-81871735D01*
X148976500Y-82108000D02*
X147726530Y-82108000D01*
X149926000Y-84008000D02*
X148976500Y-84008000D01*
X149939000Y-83995000D02*
X149926000Y-84008000D01*
X149939000Y-82629000D02*
X149939000Y-83995000D01*
X149418000Y-82108000D02*
X149939000Y-82629000D01*
X148976500Y-82108000D02*
X149418000Y-82108000D01*
%TO.N,+1V8*%
X152654000Y-82042000D02*
X153762000Y-80934000D01*
%TO.N,GND*%
X150396000Y-80772000D02*
X149352000Y-80772000D01*
%TO.N,+1V8*%
X151251500Y-80876500D02*
X151356000Y-80772000D01*
X151251500Y-82108000D02*
X151251500Y-80876500D01*
X153590500Y-85490500D02*
X154444000Y-85490500D01*
X152908000Y-84808000D02*
X153590500Y-85490500D01*
X152108000Y-84008000D02*
X152908000Y-84808000D01*
X151251500Y-84008000D02*
X152108000Y-84008000D01*
%TO.N,GND*%
X152908000Y-83058000D02*
X152908000Y-83848000D01*
%TO.N,+1V8*%
X153416000Y-82042000D02*
X152654000Y-82042000D01*
X153578000Y-82204000D02*
X153416000Y-82042000D01*
X153578000Y-83124500D02*
X153578000Y-82204000D01*
X154281500Y-83828000D02*
X153578000Y-83124500D01*
%TO.N,GND*%
X148976500Y-83058000D02*
X147066000Y-83058000D01*
X145641000Y-87023000D02*
X145034000Y-87630000D01*
X146812000Y-87023000D02*
X145641000Y-87023000D01*
D57*
%TO.N,+5V*%
X149479000Y-77851000D02*
X150241000Y-77851000D01*
X144018000Y-83312000D02*
X149479000Y-77851000D01*
X135686800Y-83312000D02*
X144018000Y-83312000D01*
X127127000Y-100711000D02*
X127127000Y-91871800D01*
X131318000Y-104902000D02*
X127127000Y-100711000D01*
X127127000Y-91871800D02*
X135686800Y-83312000D01*
D58*
%TO.N,/EOC*%
X143764000Y-80772000D02*
X143764000Y-81788000D01*
X145288000Y-79248000D02*
X143764000Y-80772000D01*
X146050000Y-79248000D02*
X145288000Y-79248000D01*
X146558000Y-78740000D02*
X146050000Y-79248000D01*
%TO.N,GND*%
X152654000Y-80772000D02*
X151892000Y-80010000D01*
X152654000Y-81082000D02*
X152654000Y-80772000D01*
X155444000Y-81538000D02*
X155448000Y-81534000D01*
X155444000Y-83165500D02*
X155444000Y-81538000D01*
%TO.N,+1V8*%
X152588000Y-82108000D02*
X152654000Y-82042000D01*
X151251500Y-82108000D02*
X152588000Y-82108000D01*
X151251500Y-82108000D02*
X151251500Y-84008000D01*
%TO.N,GND*%
X189459000Y-95581000D02*
X188259000Y-95581000D01*
X147206500Y-140843000D02*
X149301200Y-140843000D01*
X188159000Y-102591000D02*
X188569000Y-103001000D01*
X154944000Y-83165500D02*
X155444000Y-83165500D01*
X188159000Y-101681000D02*
X188159000Y-102591000D01*
X149860000Y-146036500D02*
X149860000Y-144119600D01*
X140430000Y-72422000D02*
X141430000Y-71422000D01*
X188569000Y-94691000D02*
X189459000Y-95581000D01*
X189459000Y-101781000D02*
X188259000Y-101781000D01*
X139930000Y-72922000D02*
X141430000Y-71422000D01*
X149301200Y-140843000D02*
X149758400Y-141300200D01*
X145034000Y-91582002D02*
X145034000Y-92032000D01*
X157165525Y-85490500D02*
X157228025Y-85428000D01*
X188259000Y-101781000D02*
X188159000Y-101681000D01*
X188259000Y-95581000D02*
X188159000Y-95681000D01*
X188569000Y-94361000D02*
X188569000Y-94691000D01*
X146634002Y-89832000D02*
X146634002Y-89982000D01*
X155944000Y-85490500D02*
X157165525Y-85490500D01*
X146634002Y-89982000D02*
X145034000Y-91582002D01*
X139067500Y-72922000D02*
X139930000Y-72922000D01*
X140430000Y-73784500D02*
X140430000Y-72422000D01*
X143792500Y-72922000D02*
X142930000Y-72922000D01*
X149860000Y-144119600D02*
X149961600Y-144018000D01*
X142930000Y-72922000D02*
X141430000Y-71422000D01*
X155444000Y-85490500D02*
X155944000Y-85490500D01*
%TO.N,VBUS*%
X186686600Y-100181000D02*
X186537600Y-100330000D01*
D60*
X180340000Y-100330000D02*
X182206900Y-102196900D01*
D58*
X188909000Y-97431000D02*
X188659000Y-97181000D01*
X189459000Y-99931000D02*
X188909000Y-99931000D01*
D60*
X184670700Y-102196900D02*
X186537600Y-100330000D01*
D58*
X188659000Y-100181000D02*
X188159000Y-100181000D01*
X185649200Y-97181000D02*
X185369200Y-96901000D01*
X189459000Y-97431000D02*
X188909000Y-97431000D01*
X188909000Y-99931000D02*
X188659000Y-100181000D01*
X188659000Y-97181000D02*
X188159000Y-97181000D01*
X188159000Y-100181000D02*
X186686600Y-100181000D01*
D60*
X182206900Y-102196900D02*
X184670700Y-102196900D01*
D58*
X188159000Y-97181000D02*
X185649200Y-97181000D01*
D60*
X177223000Y-100330000D02*
X180340000Y-100330000D01*
D57*
%TO.N,+12V*%
X174498000Y-151143500D02*
X179858500Y-151143500D01*
X144564900Y-149111500D02*
X144170400Y-148717000D01*
X149860000Y-149111500D02*
X144564900Y-149111500D01*
X174498000Y-151143500D02*
X172466000Y-149111500D01*
X186364000Y-150788000D02*
X180214000Y-150788000D01*
X179858500Y-151143500D02*
X180214000Y-150788000D01*
%TO.N,+5V*%
X144131500Y-140843000D02*
X154813000Y-130161500D01*
X144170400Y-140881900D02*
X144131500Y-140843000D01*
X154813000Y-130161500D02*
X154813000Y-113030000D01*
X160274000Y-67564000D02*
X161432000Y-67564000D01*
X161432000Y-67564000D02*
X166370000Y-72502000D01*
X131318000Y-128029500D02*
X131318000Y-104902000D01*
X144131500Y-140843000D02*
X131318000Y-128029500D01*
X144170400Y-143637000D02*
X144170400Y-140881900D01*
D58*
%TO.N,+1V1*%
X157646100Y-90994500D02*
X158323500Y-90994500D01*
X157429200Y-91211400D02*
X157646100Y-90994500D01*
X157789640Y-92994500D02*
X157429200Y-92634060D01*
X157429200Y-92634060D02*
X157429200Y-91211400D01*
%TO.N,/XIN*%
X145034000Y-89832000D02*
X145034000Y-89582002D01*
X146812000Y-87983000D02*
X149423500Y-90594500D01*
X146633002Y-87983000D02*
X146812000Y-87983000D01*
X149423500Y-90594500D02*
X151448500Y-90594500D01*
X145034000Y-89582002D02*
X146633002Y-87983000D01*
%TO.N,Net-(J3-Pin_1)*%
X155156500Y-67601500D02*
X155194000Y-67564000D01*
X152273000Y-67601500D02*
X155156500Y-67601500D01*
%TO.N,Net-(J4-Pin_1)*%
X150801000Y-72211000D02*
X150241000Y-72771000D01*
X150801000Y-70231000D02*
X150801000Y-72211000D01*
%TO.N,Net-(J5-Pin_1)*%
X166407500Y-80137000D02*
X166407500Y-77619500D01*
X166407500Y-77619500D02*
X166370000Y-77582000D01*
%TO.N,Net-(J6-Pin_1)*%
X134874000Y-100076000D02*
X131572000Y-100076000D01*
X131572000Y-100076000D02*
X131318000Y-99822000D01*
%TO.N,Net-(J7-Pin_1)*%
X152273000Y-107950000D02*
X154813000Y-107950000D01*
%TO.N,+3V3*%
X158323500Y-93794500D02*
X158323500Y-93394500D01*
X158323500Y-91794500D02*
X158323500Y-91394500D01*
X157486000Y-94632000D02*
X158323500Y-93794500D01*
X172383000Y-86868000D02*
X174726600Y-86868000D01*
X159512000Y-83984500D02*
X159512000Y-82550000D01*
%TO.N,/IMU/INT_2*%
X154944000Y-85490500D02*
X154944000Y-85953000D01*
X154235000Y-86465000D02*
X154086000Y-86614000D01*
X154432000Y-86465000D02*
X154235000Y-86465000D01*
X154944000Y-85953000D02*
X154432000Y-86465000D01*
%TO.N,/IMU/CS*%
X158042000Y-85462552D02*
X156686000Y-86818552D01*
X157599000Y-84828000D02*
X158042000Y-85271000D01*
X158042000Y-85271000D02*
X158042000Y-85462552D01*
X156106500Y-84828000D02*
X157599000Y-84828000D01*
X156686000Y-86818552D02*
X156686000Y-87757000D01*
%TO.N,/IMU/INT*%
X154178000Y-82042000D02*
X154178000Y-82899500D01*
X154178000Y-82899500D02*
X154444000Y-83165500D01*
%TO.N,/IMU/SCL*%
X156286000Y-87757000D02*
X156286000Y-86690000D01*
X156286000Y-86690000D02*
X156083000Y-86487000D01*
X156106500Y-84328000D02*
X157371032Y-84328000D01*
X157371032Y-84328000D02*
X157471032Y-84228000D01*
%TO.N,/IMU/SDI*%
X156583000Y-83828000D02*
X157226000Y-83185000D01*
X155276860Y-86614000D02*
X155886000Y-87223140D01*
X155886000Y-87223140D02*
X155886000Y-87757000D01*
X155194000Y-86614000D02*
X155276860Y-86614000D01*
X156106500Y-83828000D02*
X156583000Y-83828000D01*
%TO.N,D+*%
X187633999Y-99181000D02*
X187358999Y-98906000D01*
X183715301Y-98906000D02*
X183196801Y-98387500D01*
X187358999Y-98906000D02*
X183715301Y-98906000D01*
X183196801Y-98387500D02*
X182118000Y-98387500D01*
X188159000Y-99181000D02*
X187633999Y-99181000D01*
%TO.N,Net-(P1-CC)*%
X184799000Y-99681000D02*
X184785000Y-99695000D01*
X188159000Y-99681000D02*
X184799000Y-99681000D01*
X184785000Y-99695000D02*
X183223500Y-99695000D01*
%TO.N,D-*%
X187358999Y-98456000D02*
X183901699Y-98456000D01*
X187633999Y-98181000D02*
X187358999Y-98456000D01*
X183515000Y-98069301D02*
X183515000Y-95974500D01*
X188159000Y-98181000D02*
X187633999Y-98181000D01*
X183901699Y-98456000D02*
X183515000Y-98069301D01*
%TO.N,/QSPI_CS*%
X161544000Y-86868000D02*
X161417000Y-86868000D01*
X161417000Y-86868000D02*
X160050000Y-86868000D01*
X160020000Y-86868000D02*
X161544000Y-86868000D01*
X161036000Y-86487000D02*
X161417000Y-86868000D01*
X165183000Y-86868000D02*
X161544000Y-86868000D01*
X159512000Y-85179500D02*
X159512000Y-86360000D01*
X161036000Y-85179500D02*
X161036000Y-86487000D01*
X160050000Y-86868000D02*
X158323500Y-88594500D01*
X159512000Y-86360000D02*
X160020000Y-86868000D01*
%TO.N,/M1*%
X148676529Y-88011000D02*
X148209000Y-88011000D01*
X152273000Y-68796500D02*
X146976500Y-68796500D01*
X151448500Y-88994500D02*
X149273948Y-88994500D01*
X149273948Y-88994500D02*
X149190000Y-88910552D01*
X149190000Y-88910552D02*
X149190000Y-88524471D01*
X146976500Y-68796500D02*
X146304000Y-69469000D01*
X149190000Y-88524471D02*
X148676529Y-88011000D01*
%TO.N,/M2*%
X142621000Y-81026000D02*
X145923000Y-77724000D01*
X148301000Y-70774000D02*
X148844000Y-70231000D01*
X148844000Y-70231000D02*
X149606000Y-70231000D01*
X149211500Y-89394500D02*
X148590000Y-88773000D01*
X147447000Y-77724000D02*
X148301000Y-76870000D01*
X148301000Y-76870000D02*
X148301000Y-70774000D01*
X145923000Y-77724000D02*
X147447000Y-77724000D01*
X151448500Y-89394500D02*
X149211500Y-89394500D01*
%TO.N,/M3*%
X151448500Y-89794500D02*
X150060000Y-89794500D01*
X150060000Y-89794500D02*
X149860000Y-89994500D01*
%TO.N,/M4*%
X136092000Y-97663000D02*
X145415000Y-97663000D01*
X134874000Y-98881000D02*
X136092000Y-97663000D01*
X145415000Y-97663000D02*
X149683500Y-93394500D01*
X149683500Y-93394500D02*
X151448500Y-93394500D01*
%TO.N,/M5*%
X150622000Y-103759000D02*
X152273000Y-105410000D01*
X151448500Y-93794500D02*
X150172500Y-93794500D01*
X150172500Y-93794500D02*
X149479000Y-94488000D01*
X152273000Y-105410000D02*
X152273000Y-106755000D01*
%TO.N,/QSPI_SD1*%
X158323500Y-88994500D02*
X158909500Y-88994500D01*
X158909500Y-88994500D02*
X159893000Y-88011000D01*
X159893000Y-88011000D02*
X165056000Y-88011000D01*
X165056000Y-88011000D02*
X165183000Y-88138000D01*
%TO.N,/ADC_SDI*%
X143383000Y-74237500D02*
X142930000Y-73784500D01*
X152286000Y-87757000D02*
X151778000Y-87249000D01*
X151778000Y-87249000D02*
X150495000Y-87249000D01*
X142748000Y-76327000D02*
X143383000Y-75692000D01*
X143383000Y-75692000D02*
X143383000Y-74237500D01*
%TO.N,/ADC_SCLK*%
X140335000Y-76327000D02*
X141930000Y-74732000D01*
X152686000Y-87757000D02*
X152686000Y-87223140D01*
X141930000Y-74732000D02*
X141930000Y-73784500D01*
X152686000Y-87223140D02*
X151695860Y-86233000D01*
X151695860Y-86233000D02*
X145161000Y-86233000D01*
%TO.N,/QSPI_SCLK*%
X162203500Y-90194500D02*
X158323500Y-90194500D01*
X163576000Y-91567000D02*
X162203500Y-90194500D01*
X171583001Y-89408000D02*
X169424001Y-91567000D01*
X172383000Y-89408000D02*
X171583001Y-89408000D01*
X169424001Y-91567000D02*
X163576000Y-91567000D01*
%TO.N,/EOC*%
X146558000Y-71322000D02*
X146458000Y-71422000D01*
X151448500Y-88594500D02*
X149935500Y-88594500D01*
X149935500Y-88594500D02*
X148590000Y-87249000D01*
X146458000Y-71422000D02*
X143792500Y-71422000D01*
%TO.N,/ADC_SDO*%
X146979000Y-71922000D02*
X147701000Y-72644000D01*
X143792500Y-71922000D02*
X146979000Y-71922000D01*
X153486000Y-86684000D02*
X151765000Y-84963000D01*
X153486000Y-87757000D02*
X153486000Y-86684000D01*
X151765000Y-84963000D02*
X151511000Y-84963000D01*
%TO.N,/QSPI_SD3*%
X167259000Y-87503000D02*
X167894000Y-88138000D01*
X167894000Y-88138000D02*
X172383000Y-88138000D01*
X160698500Y-90594500D02*
X161290000Y-91186000D01*
X158323500Y-90594500D02*
X160698500Y-90594500D01*
%TO.N,/QSPI_SD0*%
X172383000Y-90678000D02*
X170376400Y-92684600D01*
X163703000Y-90195400D02*
X163601400Y-90195400D01*
X163601400Y-90195400D02*
X163200500Y-89794500D01*
X163200500Y-89794500D02*
X158323500Y-89794500D01*
X170376400Y-92684600D02*
X166243000Y-92684600D01*
%TO.N,/ADC_CS*%
X142430000Y-75248000D02*
X142430000Y-73784500D01*
X149825000Y-85563000D02*
X149352000Y-85090000D01*
X153086000Y-87757000D02*
X153086000Y-86919000D01*
X141605000Y-76073000D02*
X142430000Y-75248000D01*
X141605000Y-76327000D02*
X141605000Y-76073000D01*
X149352000Y-85090000D02*
X145542000Y-85090000D01*
X153086000Y-86919000D02*
X151730000Y-85563000D01*
X151730000Y-85563000D02*
X149825000Y-85563000D01*
%TO.N,/QSPI_SD2*%
X165183000Y-89408000D02*
X164592000Y-89408000D01*
X159893000Y-88519000D02*
X159017500Y-89394500D01*
X164592000Y-89408000D02*
X163703000Y-88519000D01*
X159017500Y-89394500D02*
X158323500Y-89394500D01*
X163703000Y-88519000D02*
X159893000Y-88519000D01*
%TO.N,/USB+*%
X160520500Y-92194500D02*
X158323500Y-92194500D01*
X160909000Y-92583000D02*
X160520500Y-92194500D01*
%TO.N,/USB-*%
X159893000Y-92794500D02*
X159693000Y-92594500D01*
X159693000Y-92594500D02*
X158323500Y-92594500D01*
%TD*%
M02*
