M48
; DRILL file {KiCad 8.0.6} date 2024-11-27T03:53:47-0800
; FORMAT={-:-/ absolute / metric / decimal}
; #@! TF.CreationDate,2024-11-27T03:53:47-08:00
; #@! TF.GenerationSoftware,Kicad,Pcbnew,8.0.6
; #@! TF.FileFunction,Plated,1,2,Blind
FMAT,2
METRIC
; #@! TA.AperFunction,Plated,Buried,ViaDrill
T1C0.300
%
G90
G05
T1
X113.538Y-60.198
X115.062Y-93.98
X117.094Y-64.516
X117.602Y-88.138
X118.11Y-77.47
X118.618Y-90.932
X120.142Y-60.198
X120.142Y-70.104
X124.46Y-65.786
X124.46Y-74.93
X124.46Y-82.55
X124.714Y-86.868
X128.524Y-60.452
X129.794Y-57.658
X130.048Y-94.488
X131.064Y-66.802
X134.62Y-48.238
X137.668Y-51.794
X137.668Y-73.152
X140.208Y-47.984
X140.208Y-56.366
X142.748Y-91.186
X145.034Y-46.825
X145.034Y-87.63
X147.066Y-83.058
X147.32Y-144.272
X147.574Y-50.889
X149.352Y-80.772
X149.758Y-141.3
X149.962Y-144.018
X150.114Y-55.536
X151.892Y-80.01
X152.908Y-83.058
X152.998Y-64.008
X155.448Y-81.534
X157.226Y-89.154
X157.228Y-85.428
X159.004Y-81.534
X159.93Y-60.198
X160.02Y-98.806
X160.528Y-58.584
X161.798Y-94.488
X161.798Y-95.758
X161.798Y-97.282
X162.052Y-60.198
X167.386Y-89.662
X168.148Y-102.108
X169.418Y-61.286
X169.672Y-100.33
X170.616Y-58.928
X171.958Y-66.802
X175.006Y-88.9
X175.514Y-84.455
X177.038Y-66.548
X178.308Y-93.472
X178.446Y-125.846
X178.634Y-137.342
X179.578Y-106.172
X180.34Y-98.806
X181.864Y-68.498
X181.864Y-128.524
X184.15Y-68.072
X185.166Y-67.99
X186.436Y-136.652
X189.484Y-69.342
X189.738Y-90.678
X192.278Y-74.422
X194.818Y-81.233
M30
