M48
; DRILL file {KiCad 8.0.6} date 2024-11-27T03:53:47-0800
; FORMAT={-:-/ absolute / metric / decimal}
; #@! TF.CreationDate,2024-11-27T03:53:47-08:00
; #@! TF.GenerationSoftware,Kicad,Pcbnew,8.0.6
; #@! TF.FileFunction,Plated,1,4,PTH
FMAT,2
METRIC
; #@! TA.AperFunction,Plated,PTH,ViaDrill
T1C0.300
; #@! TA.AperFunction,Plated,PTH,ComponentDrill
T2C0.500
; #@! TA.AperFunction,Plated,PTH,ComponentDrill
T3C0.600
; #@! TA.AperFunction,Plated,PTH,ComponentDrill
T4C1.000
; #@! TA.AperFunction,Plated,PTH,ComponentDrill
T5C3.000
%
G90
G05
T1
X140.335Y-76.327
X140.716Y-65.024
X140.716Y-67.31
X141.562Y-67.148
X141.605Y-76.327
X142.24Y-67.818
X142.621Y-81.026
X142.748Y-76.327
X143.764Y-67.31
X143.764Y-81.788
X144.018Y-57.912
X145.034Y-55.88
X145.034Y-69.342
X145.161Y-86.233
X145.288Y-70.358
X145.542Y-85.09
X146.05Y-67.437
X146.304Y-69.469
X146.558Y-71.322
X146.558Y-78.74
X147.574Y-69.596
X147.701Y-72.644
X147.858Y-92.506
X148.209Y-88.011
X148.567Y-91.818
X148.59Y-87.249
X148.59Y-88.773
X149.479Y-94.488
X149.86Y-89.995
X150.495Y-87.249
X150.622Y-103.759
X151.511Y-84.963
X154.086Y-86.614
X154.178Y-82.042
X154.432Y-93.694
X154.634Y-95.569
X155.194Y-86.614
X156.083Y-86.487
X157.226Y-83.185
X157.471Y-84.228
X159.766Y-81.026
X159.893Y-92.794
X160.782Y-82.55
X160.909Y-92.583
X161.29Y-91.186
X162.052Y-92.71
X162.306Y-81.026
X162.306Y-93.472
X163.703Y-90.195
X166.243Y-92.685
X167.259Y-87.503
X176.276Y-78.994
X185.369Y-96.901
X186.538Y-100.33
T2
X117.13Y-103.378
X117.789Y-101.787
X117.789Y-104.969
X119.38Y-101.128
X119.38Y-105.628
X120.971Y-101.787
X120.971Y-104.969
X121.63Y-103.378
X147.102Y-63.754
X147.761Y-62.163
X147.761Y-65.345
X149.352Y-61.504
X149.352Y-66.004
X150.943Y-62.163
X150.943Y-65.345
X151.166Y-138.684
X151.602Y-63.754
X151.825Y-137.093
X151.825Y-140.275
X153.416Y-136.434
X153.416Y-140.934
X155.007Y-137.093
X155.007Y-140.275
X155.666Y-138.684
X182.154Y-107.442
X182.813Y-105.851
X182.813Y-109.033
X184.404Y-105.192
X184.404Y-109.692
X185.995Y-105.851
X185.995Y-109.033
X186.654Y-107.442
T3
X109.198Y-93.428
X109.198Y-97.028
X110.998Y-77.216
X110.998Y-80.816
X115.272Y-55.88
X118.872Y-55.88
X125.94Y-55.88
X129.54Y-55.88
X134.83Y-45.698
X138.43Y-45.698
X147.276Y-45.72
X148.248Y-100.838
X150.876Y-45.72
X151.848Y-100.838
X155.448Y-100.838
X157.436Y-55.626
X159.048Y-100.838
X161.036Y-55.626
X168.634Y-55.626
X172.234Y-55.626
X179.788Y-65.786
X183.388Y-65.786
X191.98Y-65.786
X195.58Y-65.786
T4
X131.318Y-99.822
X131.318Y-102.362
X131.318Y-104.902
X136.667Y-87.376
X139.207Y-87.376
X141.747Y-87.376
X150.241Y-72.771
X150.241Y-75.311
X150.241Y-77.851
X154.813Y-107.95
X154.813Y-110.49
X154.813Y-113.03
X155.194Y-67.564
X157.734Y-67.564
X160.274Y-67.564
X166.37Y-72.502
X166.37Y-75.042
X166.37Y-77.582
T5
X119.38Y-103.378
X149.352Y-63.754
X153.416Y-138.684
X184.404Y-107.442
T3
X188.069Y-94.361G85X189.069Y-94.361
G05
X188.069Y-103.001G85X189.069Y-103.001
G05
X193.179Y-94.361G85X194.679Y-94.361
G05
X193.179Y-103.001G85X194.679Y-103.001
G05
M30
