M48
; DRILL file {KiCad 8.0.6} date 2024-11-28T00:35:08-0800
; FORMAT={-:-/ absolute / inch / decimal}
; #@! TF.CreationDate,2024-11-28T00:35:08-08:00
; #@! TF.GenerationSoftware,Kicad,Pcbnew,8.0.6
; #@! TF.FileFunction,Plated,1,4,PTH
FMAT,2
INCH
; #@! TA.AperFunction,Plated,PTH,ViaDrill
T1C0.0118
; #@! TA.AperFunction,Plated,PTH,ComponentDrill
T2C0.0197
; #@! TA.AperFunction,Plated,PTH,ComponentDrill
T3C0.0236
; #@! TA.AperFunction,Plated,PTH,ComponentDrill
T4C0.0394
; #@! TA.AperFunction,Plated,PTH,ComponentDrill
T5C0.1181
%
G90
G05
T1
X4.43Y-2.25
X4.47Y-2.37
X4.5Y-2.95
X4.53Y-3.7
X4.61Y-2.54
X4.62Y-3.25
X4.63Y-3.47
X4.65Y-2.76
X4.67Y-3.58
X4.73Y-2.37
X4.73Y-2.76
X4.77Y-3.33
X4.79Y-2.37
X4.895Y-2.995
X4.9Y-2.34
X4.9Y-2.59
X4.9Y-2.95
X4.9Y-3.25
X4.91Y-3.42
X4.91Y-3.49
X5.06Y-2.38
X5.1Y-2.6
X5.11Y-2.27
X5.12Y-3.72
X5.16Y-2.63
X5.24Y-2.3
X5.3Y-1.8991
X5.42Y-2.04
X5.43Y-2.8709
X5.44Y-1.89
X5.45Y-3.0
X5.457Y-2.957
X5.4574Y-2.2365
X5.52Y-1.7991
X5.52Y-1.89
X5.52Y-2.2191
X5.525Y-3.005
X5.54Y-2.56
X5.54Y-2.65
X5.5733Y-2.6436
X5.575Y-3.005
X5.6Y-2.67
X5.615Y-3.19
X5.62Y-3.005
X5.62Y-3.59
X5.63Y-1.8237
X5.66Y-2.65
X5.66Y-3.22
X5.67Y-2.28
X5.71Y-1.8435
X5.71Y-2.2
X5.71Y-2.73
X5.71Y-2.97
X5.71Y-3.45
X5.71Y-3.81
X5.715Y-3.395
X5.72Y-2.77
X5.73Y-3.35
X5.75Y-2.655
X5.76Y-2.735
X5.77Y-2.808
X5.77Y-3.1
X5.79Y-3.27
X5.8Y-5.68
X5.8067Y-3.2233
X5.81Y-2.0035
X5.81Y-2.74
X5.815Y-2.86
X5.8212Y-3.642
X5.835Y-3.465
X5.8491Y-3.6149
X5.85Y-2.1963
X5.85Y-3.435
X5.85Y-3.495
X5.878Y-5.545
X5.88Y-3.18
X5.885Y-3.72
X5.9Y-3.5431
X5.9Y-3.6061
X5.9Y-5.674
X5.91Y-2.1865
X5.925Y-3.435
X5.93Y-4.085
X5.965Y-3.345
X5.9663Y-1.89
X5.98Y-3.15
X5.99Y-3.81
X6.02Y-3.27
X6.0235Y-2.52
X6.03Y-2.46
X6.05Y-2.4
X6.0664Y-3.41
X6.07Y-3.23
X6.08Y-3.6888
X6.0879Y-3.7626
X6.11Y-3.41
X6.12Y-3.21
X6.145Y-3.405
X6.18Y-3.87
X6.19Y-3.275
X6.19Y-3.51
X6.1901Y-3.3633
X6.1996Y-3.3161
X6.26Y-3.21
X6.27Y-3.75
X6.28Y-3.25
X6.29Y-3.19
X6.295Y-3.6533
X6.2965Y-2.37
X6.3Y-3.89
X6.32Y-2.3065
X6.33Y-3.25
X6.335Y-3.645
X6.35Y-3.59
X6.37Y-3.72
X6.37Y-3.77
X6.37Y-3.83
X6.38Y-2.37
X6.38Y-3.65
X6.39Y-3.19
X6.39Y-3.68
X6.445Y-3.551
X6.46Y-4.1
X6.4909Y-2.32
X6.545Y-3.649
X6.585Y-3.445
X6.59Y-3.53
X6.63Y-4.02
X6.67Y-2.42
X6.68Y-3.95
X6.71Y-2.6491
X6.7172Y-2.32
X6.77Y-2.63
X6.8891Y-2.32
X6.89Y-3.5
X6.91Y-3.325
X6.94Y-3.11
X6.94Y-4.72
X6.96Y-3.42
X6.97Y-2.62
X6.9757Y-3.3146
X7.02Y-3.68
X7.0254Y-4.9546
X7.0328Y-5.4072
X7.05Y-3.74
X7.07Y-4.18
X7.1Y-3.89
X7.15Y-5.0654
X7.16Y-2.7
X7.2Y-2.93
X7.25Y-2.68
X7.29Y-2.6768
X7.29Y-2.91
X7.298Y-3.815
X7.3372Y-5.3828
X7.344Y-3.95
X7.46Y-2.73
X7.475Y-3.565
X7.54Y-2.73
X7.57Y-2.93
X7.61Y-3.17
X7.67Y-3.1982
X7.75Y-2.86
T2
X4.6114Y-4.07
X4.6374Y-4.0074
X4.6374Y-4.1326
X4.7Y-3.9814
X4.7Y-4.1586
X4.7626Y-4.0074
X4.7626Y-4.1326
X4.7886Y-4.07
X5.7914Y-2.51
X5.8174Y-2.4474
X5.8174Y-2.5726
X5.88Y-2.4214
X5.88Y-2.5986
X5.9426Y-2.4474
X5.9426Y-2.5726
X5.9514Y-5.46
X5.9686Y-2.51
X5.9774Y-5.3974
X5.9774Y-5.5226
X6.04Y-5.3714
X6.04Y-5.5486
X6.1026Y-5.3974
X6.1026Y-5.5226
X6.1286Y-5.46
X7.1714Y-4.23
X7.1974Y-4.1674
X7.1974Y-4.2926
X7.26Y-4.1414
X7.26Y-4.3186
X7.3226Y-4.1674
X7.3226Y-4.2926
X7.3486Y-4.23
T3
X4.2991Y-3.6783
X4.2991Y-3.82
X4.37Y-3.04
X4.37Y-3.1817
X4.5383Y-2.2
X4.68Y-2.2
X4.9583Y-2.2
X5.1Y-2.2
X5.3083Y-1.7991
X5.45Y-1.7991
X5.7983Y-1.8
X5.8365Y-3.97
X5.94Y-1.8
X5.9783Y-3.97
X6.12Y-3.97
X6.1983Y-2.19
X6.2617Y-3.97
X6.34Y-2.19
X6.6391Y-2.19
X6.7809Y-2.19
X7.0783Y-2.59
X7.22Y-2.59
X7.5583Y-2.59
X7.7Y-2.59
T4
X5.17Y-3.93
X5.17Y-4.03
X5.17Y-4.13
X5.3806Y-3.44
X5.4806Y-3.44
X5.5806Y-3.44
X5.915Y-2.865
X5.915Y-2.965
X5.915Y-3.065
X6.095Y-4.25
X6.095Y-4.35
X6.095Y-4.45
X6.11Y-2.66
X6.21Y-2.66
X6.31Y-2.66
X6.55Y-2.8544
X6.55Y-2.9544
X6.55Y-3.0544
T5
X4.7Y-4.07
X5.88Y-2.51
X6.04Y-5.46
X7.26Y-4.23
T3
X7.4043Y-3.715G85X7.4437Y-3.715
G05
X7.4043Y-4.0552G85X7.4437Y-4.0552
G05
X7.6055Y-3.715G85X7.6645Y-3.715
G05
X7.6055Y-4.0552G85X7.6645Y-4.0552
G05
M30
