M48
; DRILL file {KiCad 8.0.6} date 2024-11-27T23:10:40-0800
; FORMAT={-:-/ absolute / inch / decimal}
; #@! TF.CreationDate,2024-11-27T23:10:40-08:00
; #@! TF.GenerationSoftware,Kicad,Pcbnew,8.0.6
; #@! TF.FileFunction,Plated,1,2,Blind
FMAT,2
INCH
; #@! TA.AperFunction,Plated,Buried,ViaDrill
T1C0.0118
%
G90
G05
T1
X4.47Y-2.37
X4.53Y-3.7
X4.61Y-2.54
X4.63Y-3.47
X4.65Y-3.05
X4.67Y-3.58
X4.73Y-2.37
X4.73Y-2.76
X4.9Y-2.59
X4.9Y-2.95
X4.9Y-3.25
X4.91Y-3.42
X5.06Y-2.38
X5.11Y-2.27
X5.12Y-3.72
X5.16Y-2.63
X5.3Y-1.8991
X5.42Y-2.0391
X5.42Y-2.88
X5.52Y-1.8891
X5.52Y-2.2191
X5.62Y-3.59
X5.71Y-1.8435
X5.71Y-3.45
X5.79Y-3.27
X5.8Y-5.68
X5.81Y-2.0035
X5.88Y-3.18
X5.896Y-5.563
X5.904Y-5.67
X5.91Y-2.1865
X5.98Y-3.15
X6.02Y-3.27
X6.0235Y-2.52
X6.12Y-3.21
X6.19Y-3.51
X6.1901Y-3.3633
X6.26Y-3.21
X6.2965Y-2.37
X6.3Y-3.89
X6.32Y-2.3065
X6.37Y-3.72
X6.37Y-3.77
X6.37Y-3.83
X6.38Y-2.37
X6.59Y-3.53
X6.62Y-4.02
X6.67Y-2.4128
X6.68Y-3.95
X6.7172Y-2.32
X6.77Y-2.63
X6.89Y-3.5
X6.91Y-3.325
X6.97Y-2.62
X7.02Y-3.68
X7.0254Y-4.9546
X7.0328Y-5.4072
X7.07Y-4.18
X7.1Y-3.89
X7.16Y-2.6968
X7.16Y-5.06
X7.25Y-2.68
X7.29Y-2.6768
X7.34Y-5.38
X7.46Y-2.73
X7.47Y-3.57
X7.57Y-2.93
X7.67Y-3.1982
M30
