%TF.GenerationSoftware,KiCad,Pcbnew,8.0.6*%
%TF.CreationDate,2024-11-27T03:53:43-08:00*%
%TF.ProjectId,eecsc206a,65656373-6332-4303-9661-2e6b69636164,rev?*%
%TF.SameCoordinates,Original*%
%TF.FileFunction,Paste,Top*%
%TF.FilePolarity,Positive*%
%FSLAX46Y46*%
G04 Gerber Fmt 4.6, Leading zero omitted, Abs format (unit mm)*
G04 Created by KiCad (PCBNEW 8.0.6) date 2024-11-27 03:53:43*
%MOMM*%
%LPD*%
G01*
G04 APERTURE LIST*
G04 Aperture macros list*
%AMRoundRect*
0 Rectangle with rounded corners*
0 $1 Rounding radius*
0 $2 $3 $4 $5 $6 $7 $8 $9 X,Y pos of 4 corners*
0 Add a 4 corners polygon primitive as box body*
4,1,4,$2,$3,$4,$5,$6,$7,$8,$9,$2,$3,0*
0 Add four circle primitives for the rounded corners*
1,1,$1+$1,$2,$3*
1,1,$1+$1,$4,$5*
1,1,$1+$1,$6,$7*
1,1,$1+$1,$8,$9*
0 Add four rect primitives between the rounded corners*
20,1,$1+$1,$2,$3,$4,$5,0*
20,1,$1+$1,$4,$5,$6,$7,0*
20,1,$1+$1,$6,$7,$8,$9,0*
20,1,$1+$1,$8,$9,$2,$3,0*%
G04 Aperture macros list end*
%ADD10C,0.010000*%
%ADD11R,2.180000X1.600000*%
%ADD12RoundRect,0.150000X-0.512500X-0.150000X0.512500X-0.150000X0.512500X0.150000X-0.512500X0.150000X0*%
%ADD13RoundRect,0.150000X-0.150000X0.512500X-0.150000X-0.512500X0.150000X-0.512500X0.150000X0.512500X0*%
%ADD14RoundRect,0.150000X0.512500X0.150000X-0.512500X0.150000X-0.512500X-0.150000X0.512500X-0.150000X0*%
%ADD15RoundRect,0.160000X-0.197500X-0.160000X0.197500X-0.160000X0.197500X0.160000X-0.197500X0.160000X0*%
%ADD16RoundRect,0.160000X0.197500X0.160000X-0.197500X0.160000X-0.197500X-0.160000X0.197500X-0.160000X0*%
%ADD17RoundRect,0.160000X-0.160000X0.197500X-0.160000X-0.197500X0.160000X-0.197500X0.160000X0.197500X0*%
%ADD18RoundRect,0.160000X0.160000X-0.197500X0.160000X0.197500X-0.160000X0.197500X-0.160000X-0.197500X0*%
%ADD19RoundRect,0.125000X-0.125000X0.125000X-0.125000X-0.125000X0.125000X-0.125000X0.125000X0.125000X0*%
%ADD20RoundRect,0.140000X0.170000X-0.140000X0.170000X0.140000X-0.170000X0.140000X-0.170000X-0.140000X0*%
%ADD21RoundRect,0.140000X0.140000X0.170000X-0.140000X0.170000X-0.140000X-0.170000X0.140000X-0.170000X0*%
%ADD22RoundRect,0.140000X-0.140000X-0.170000X0.140000X-0.170000X0.140000X0.170000X-0.140000X0.170000X0*%
%ADD23RoundRect,0.140000X-0.170000X0.140000X-0.170000X-0.140000X0.170000X-0.140000X0.170000X0.140000X0*%
%ADD24RoundRect,0.250000X-0.412500X-0.925000X0.412500X-0.925000X0.412500X0.925000X-0.412500X0.925000X0*%
%ADD25RoundRect,0.062500X-0.425000X0.062500X-0.425000X-0.062500X0.425000X-0.062500X0.425000X0.062500X0*%
%ADD26RoundRect,0.062500X-0.062500X0.425000X-0.062500X-0.425000X0.062500X-0.425000X0.062500X0.425000X0*%
%ADD27RoundRect,0.250000X-0.405000X0.405000X-0.405000X-0.405000X0.405000X-0.405000X0.405000X0.405000X0*%
%ADD28R,1.100000X1.400000*%
%ADD29RoundRect,0.150000X-0.650000X-0.150000X0.650000X-0.150000X0.650000X0.150000X-0.650000X0.150000X0*%
%ADD30RoundRect,0.250000X0.750000X-0.750000X0.750000X0.750000X-0.750000X0.750000X-0.750000X-0.750000X0*%
%ADD31R,2.000000X0.600000*%
%ADD32RoundRect,0.050000X-0.387500X0.050000X-0.387500X-0.050000X0.387500X-0.050000X0.387500X0.050000X0*%
%ADD33RoundRect,0.050000X-0.050000X0.387500X-0.050000X-0.387500X0.050000X-0.387500X0.050000X0.387500X0*%
%ADD34RoundRect,0.249999X-0.395001X0.395001X-0.395001X-0.395001X0.395001X-0.395001X0.395001X0.395001X0*%
%ADD35RoundRect,0.125000X-0.125000X-0.125000X0.125000X-0.125000X0.125000X0.125000X-0.125000X0.125000X0*%
%ADD36R,3.505200X1.397000*%
%ADD37R,8.458200X6.553200*%
%ADD38RoundRect,0.250000X0.925000X-0.412500X0.925000X0.412500X-0.925000X0.412500X-0.925000X-0.412500X0*%
%ADD39R,0.600000X2.000000*%
%ADD40R,0.700000X1.000000*%
%ADD41R,0.700000X0.300000*%
G04 APERTURE END LIST*
D10*
%TO.C,MT1*%
X154506500Y-83947000D02*
X154056500Y-83947000D01*
X154056500Y-83709000D01*
X154506500Y-83709000D01*
X154506500Y-83947000D01*
G36*
X154506500Y-83947000D02*
G01*
X154056500Y-83947000D01*
X154056500Y-83709000D01*
X154506500Y-83709000D01*
X154506500Y-83947000D01*
G37*
X154506500Y-84447000D02*
X154056500Y-84447000D01*
X154056500Y-84209000D01*
X154506500Y-84209000D01*
X154506500Y-84447000D01*
G36*
X154506500Y-84447000D02*
G01*
X154056500Y-84447000D01*
X154056500Y-84209000D01*
X154506500Y-84209000D01*
X154506500Y-84447000D01*
G37*
X154506500Y-84947000D02*
X154056500Y-84947000D01*
X154056500Y-84709000D01*
X154506500Y-84709000D01*
X154506500Y-84947000D01*
G36*
X154506500Y-84947000D02*
G01*
X154056500Y-84947000D01*
X154056500Y-84709000D01*
X154506500Y-84709000D01*
X154506500Y-84947000D01*
G37*
X154563000Y-83390500D02*
X154325000Y-83390500D01*
X154325000Y-82940500D01*
X154563000Y-82940500D01*
X154563000Y-83390500D01*
G36*
X154563000Y-83390500D02*
G01*
X154325000Y-83390500D01*
X154325000Y-82940500D01*
X154563000Y-82940500D01*
X154563000Y-83390500D01*
G37*
X154563000Y-85715500D02*
X154325000Y-85715500D01*
X154325000Y-85265500D01*
X154563000Y-85265500D01*
X154563000Y-85715500D01*
G36*
X154563000Y-85715500D02*
G01*
X154325000Y-85715500D01*
X154325000Y-85265500D01*
X154563000Y-85265500D01*
X154563000Y-85715500D01*
G37*
X155063000Y-83390500D02*
X154825000Y-83390500D01*
X154825000Y-82940500D01*
X155063000Y-82940500D01*
X155063000Y-83390500D01*
G36*
X155063000Y-83390500D02*
G01*
X154825000Y-83390500D01*
X154825000Y-82940500D01*
X155063000Y-82940500D01*
X155063000Y-83390500D01*
G37*
X155063000Y-85715500D02*
X154825000Y-85715500D01*
X154825000Y-85265500D01*
X155063000Y-85265500D01*
X155063000Y-85715500D01*
G36*
X155063000Y-85715500D02*
G01*
X154825000Y-85715500D01*
X154825000Y-85265500D01*
X155063000Y-85265500D01*
X155063000Y-85715500D01*
G37*
X155563000Y-83390500D02*
X155325000Y-83390500D01*
X155325000Y-82940500D01*
X155563000Y-82940500D01*
X155563000Y-83390500D01*
G36*
X155563000Y-83390500D02*
G01*
X155325000Y-83390500D01*
X155325000Y-82940500D01*
X155563000Y-82940500D01*
X155563000Y-83390500D01*
G37*
X155563000Y-85715500D02*
X155325000Y-85715500D01*
X155325000Y-85265500D01*
X155563000Y-85265500D01*
X155563000Y-85715500D01*
G36*
X155563000Y-85715500D02*
G01*
X155325000Y-85715500D01*
X155325000Y-85265500D01*
X155563000Y-85265500D01*
X155563000Y-85715500D01*
G37*
X156063000Y-83390500D02*
X155825000Y-83390500D01*
X155825000Y-82940500D01*
X156063000Y-82940500D01*
X156063000Y-83390500D01*
G36*
X156063000Y-83390500D02*
G01*
X155825000Y-83390500D01*
X155825000Y-82940500D01*
X156063000Y-82940500D01*
X156063000Y-83390500D01*
G37*
X156063000Y-85715500D02*
X155825000Y-85715500D01*
X155825000Y-85265500D01*
X156063000Y-85265500D01*
X156063000Y-85715500D01*
G36*
X156063000Y-85715500D02*
G01*
X155825000Y-85715500D01*
X155825000Y-85265500D01*
X156063000Y-85265500D01*
X156063000Y-85715500D01*
G37*
X156331500Y-83947000D02*
X155881500Y-83947000D01*
X155881500Y-83709000D01*
X156331500Y-83709000D01*
X156331500Y-83947000D01*
G36*
X156331500Y-83947000D02*
G01*
X155881500Y-83947000D01*
X155881500Y-83709000D01*
X156331500Y-83709000D01*
X156331500Y-83947000D01*
G37*
X156331500Y-84447000D02*
X155881500Y-84447000D01*
X155881500Y-84209000D01*
X156331500Y-84209000D01*
X156331500Y-84447000D01*
G36*
X156331500Y-84447000D02*
G01*
X155881500Y-84447000D01*
X155881500Y-84209000D01*
X156331500Y-84209000D01*
X156331500Y-84447000D01*
G37*
X156331500Y-84947000D02*
X155881500Y-84947000D01*
X155881500Y-84709000D01*
X156331500Y-84709000D01*
X156331500Y-84947000D01*
G36*
X156331500Y-84947000D02*
G01*
X155881500Y-84947000D01*
X155881500Y-84709000D01*
X156331500Y-84709000D01*
X156331500Y-84947000D01*
G37*
%TD*%
D11*
%TO.C,SW2*%
X133332000Y-95123000D03*
X142512000Y-95123000D03*
%TD*%
%TO.C,SW1*%
X163558000Y-83820000D03*
X172738000Y-83820000D03*
%TD*%
D12*
%TO.C,U17*%
X120020500Y-76520000D03*
X120020500Y-77470000D03*
X120020500Y-78420000D03*
X122295500Y-78420000D03*
X122295500Y-76520000D03*
%TD*%
D13*
%TO.C,U16*%
X193228000Y-76661500D03*
X192278000Y-76661500D03*
X191328000Y-76661500D03*
X191328000Y-78936500D03*
X193228000Y-78936500D03*
%TD*%
%TO.C,U15*%
X129474000Y-62108500D03*
X128524000Y-62108500D03*
X127574000Y-62108500D03*
X127574000Y-64383500D03*
X129474000Y-64383500D03*
%TD*%
%TO.C,U14*%
X138618000Y-53196500D03*
X137668000Y-53196500D03*
X136718000Y-53196500D03*
X136718000Y-55471500D03*
X138618000Y-55471500D03*
%TD*%
%TO.C,U13*%
X118044000Y-66008000D03*
X117094000Y-66008000D03*
X116144000Y-66008000D03*
X116144000Y-68283000D03*
X118044000Y-68283000D03*
%TD*%
D14*
%TO.C,U12*%
X157977000Y-61082000D03*
X157977000Y-60132000D03*
X157977000Y-59182000D03*
X155702000Y-59182000D03*
X155702000Y-61082000D03*
%TD*%
D12*
%TO.C,U11*%
X122428000Y-89916000D03*
X122428000Y-91816000D03*
X120153000Y-91816000D03*
X120153000Y-90866000D03*
X120153000Y-89916000D03*
%TD*%
D13*
%TO.C,U10*%
X182748000Y-70623000D03*
X181798000Y-70623000D03*
X180848000Y-70623000D03*
X180848000Y-72898000D03*
X182748000Y-72898000D03*
%TD*%
%TO.C,U9*%
X148524000Y-52292000D03*
X147574000Y-52292000D03*
X146624000Y-52292000D03*
X146624000Y-54567000D03*
X148524000Y-54567000D03*
%TD*%
%TO.C,U8*%
X170344000Y-65342000D03*
X168444000Y-65342000D03*
X168444000Y-63067000D03*
X169394000Y-63067000D03*
X170344000Y-63067000D03*
%TD*%
D15*
%TO.C,R81*%
X122771500Y-93980000D03*
X121576500Y-93980000D03*
%TD*%
D16*
%TO.C,R80*%
X118782500Y-88138000D03*
X119977500Y-88138000D03*
%TD*%
D15*
%TO.C,R79*%
X120142000Y-93980000D03*
X118947000Y-93980000D03*
%TD*%
D16*
%TO.C,R78*%
X120052500Y-86868000D03*
X121247500Y-86868000D03*
%TD*%
%TO.C,R77*%
X116332000Y-93980000D03*
X117527000Y-93980000D03*
%TD*%
D17*
%TO.C,R76*%
X122428000Y-87032500D03*
X122428000Y-88227500D03*
%TD*%
D18*
%TO.C,R75*%
X122428000Y-84746500D03*
X122428000Y-85941500D03*
%TD*%
D17*
%TO.C,R74*%
X134620000Y-54520500D03*
X134620000Y-55715500D03*
%TD*%
%TO.C,R73*%
X113538000Y-67564000D03*
X113538000Y-68759000D03*
%TD*%
%TO.C,R72*%
X140208000Y-54244500D03*
X140208000Y-55439500D03*
%TD*%
%TO.C,R71*%
X134620000Y-51958500D03*
X134620000Y-53153500D03*
%TD*%
%TO.C,R70*%
X120142000Y-67399500D03*
X120142000Y-68594500D03*
%TD*%
%TO.C,R69*%
X113538000Y-64770000D03*
X113538000Y-65965000D03*
%TD*%
%TO.C,R68*%
X140208000Y-51958500D03*
X140208000Y-53153500D03*
%TD*%
%TO.C,R67*%
X120052500Y-64859500D03*
X120052500Y-66054500D03*
%TD*%
D18*
%TO.C,R66*%
X134620000Y-50613500D03*
X134620000Y-49418500D03*
%TD*%
%TO.C,R65*%
X113538000Y-62917000D03*
X113538000Y-61722000D03*
%TD*%
%TO.C,R64*%
X140208000Y-50359500D03*
X140208000Y-49164500D03*
%TD*%
%TO.C,R63*%
X138218000Y-50359500D03*
X138218000Y-49164500D03*
%TD*%
%TO.C,R62*%
X120142000Y-62917000D03*
X120142000Y-61722000D03*
%TD*%
D17*
%TO.C,R61*%
X166920000Y-64247500D03*
X166920000Y-65442500D03*
%TD*%
%TO.C,R60*%
X145034000Y-53340000D03*
X145034000Y-54535000D03*
%TD*%
D15*
%TO.C,R59*%
X121487000Y-80264000D03*
X122682000Y-80264000D03*
%TD*%
%TO.C,R58*%
X122936000Y-74930000D03*
X121741000Y-74930000D03*
%TD*%
%TO.C,R57*%
X118857500Y-80264000D03*
X120052500Y-80264000D03*
%TD*%
%TO.C,R56*%
X118782500Y-74930000D03*
X119977500Y-74930000D03*
%TD*%
D16*
%TO.C,R55*%
X116840000Y-74930000D03*
X115645000Y-74930000D03*
%TD*%
D15*
%TO.C,R54*%
X121830500Y-82550000D03*
X123025500Y-82550000D03*
%TD*%
D16*
%TO.C,R53*%
X120067000Y-82550000D03*
X118872000Y-82550000D03*
%TD*%
D17*
%TO.C,R52*%
X125984000Y-63156500D03*
X125984000Y-64351500D03*
%TD*%
%TO.C,R51*%
X131064000Y-64008000D03*
X131064000Y-65203000D03*
%TD*%
D18*
%TO.C,R50*%
X125984000Y-62065500D03*
X125984000Y-60870500D03*
%TD*%
D17*
%TO.C,R49*%
X131064000Y-61124500D03*
X131064000Y-62319500D03*
%TD*%
D18*
%TO.C,R48*%
X131064000Y-58584500D03*
X131064000Y-59779500D03*
%TD*%
D17*
%TO.C,R47*%
X124460000Y-64351500D03*
X124460000Y-63156500D03*
%TD*%
D18*
%TO.C,R46*%
X124460000Y-62065500D03*
X124460000Y-60870500D03*
%TD*%
D17*
%TO.C,R45*%
X150114000Y-53340000D03*
X150114000Y-54535000D03*
%TD*%
%TO.C,R44*%
X145034000Y-50800000D03*
X145034000Y-51995000D03*
%TD*%
%TO.C,R43*%
X150114000Y-50546000D03*
X150114000Y-51741000D03*
%TD*%
D18*
%TO.C,R42*%
X150114000Y-49201000D03*
X150114000Y-48006000D03*
%TD*%
%TO.C,R41*%
X121666000Y-62917000D03*
X121666000Y-61722000D03*
%TD*%
D17*
%TO.C,R40*%
X179324000Y-71792500D03*
X179324000Y-72987500D03*
%TD*%
D16*
%TO.C,R39*%
X155448000Y-57526000D03*
X154253000Y-57526000D03*
%TD*%
D18*
%TO.C,R38*%
X184150000Y-70447500D03*
X184150000Y-69252500D03*
%TD*%
D17*
%TO.C,R37*%
X179324000Y-69252500D03*
X179324000Y-70447500D03*
%TD*%
D15*
%TO.C,R36*%
X159676500Y-61214000D03*
X160871500Y-61214000D03*
%TD*%
D16*
%TO.C,R35*%
X157988000Y-57526000D03*
X156793000Y-57526000D03*
%TD*%
D18*
%TO.C,R34*%
X184150000Y-72733500D03*
X184150000Y-71538500D03*
%TD*%
D15*
%TO.C,R33*%
X156882500Y-62738000D03*
X158077500Y-62738000D03*
%TD*%
D16*
%TO.C,R32*%
X179324000Y-67818000D03*
X178129000Y-67818000D03*
%TD*%
D15*
%TO.C,R31*%
X159333000Y-57658000D03*
X160528000Y-57658000D03*
%TD*%
D18*
%TO.C,R30*%
X185166000Y-70283000D03*
X185166000Y-69088000D03*
%TD*%
D17*
%TO.C,R29*%
X185166000Y-71538500D03*
X185166000Y-72733500D03*
%TD*%
D16*
%TO.C,R28*%
X155283500Y-64008000D03*
X154088500Y-64008000D03*
%TD*%
%TO.C,R27*%
X155283500Y-62738000D03*
X154088500Y-62738000D03*
%TD*%
D18*
%TO.C,R26*%
X145034000Y-48857500D03*
X145034000Y-47662500D03*
%TD*%
%TO.C,R25*%
X143044000Y-48857500D03*
X143044000Y-47662500D03*
%TD*%
D17*
%TO.C,R24*%
X171958000Y-64934500D03*
X171958000Y-63739500D03*
%TD*%
%TO.C,R23*%
X166862000Y-61707500D03*
X166862000Y-62902500D03*
%TD*%
%TO.C,R22*%
X171958000Y-61453500D03*
X171958000Y-62648500D03*
%TD*%
D15*
%TO.C,R21*%
X171868500Y-59003000D03*
X173063500Y-59003000D03*
%TD*%
D18*
%TO.C,R20*%
X168910000Y-59003000D03*
X168910000Y-60198000D03*
%TD*%
%TO.C,R19*%
X166920000Y-60198000D03*
X166920000Y-59003000D03*
%TD*%
D17*
%TO.C,R18*%
X189484000Y-79158500D03*
X189484000Y-77963500D03*
%TD*%
%TO.C,R17*%
X189484000Y-76618500D03*
X189484000Y-75423500D03*
%TD*%
%TO.C,R16*%
X194818000Y-76618500D03*
X194818000Y-75423500D03*
%TD*%
%TO.C,R15*%
X194818000Y-77799000D03*
X194818000Y-78994000D03*
%TD*%
D18*
%TO.C,R14*%
X197104000Y-74243000D03*
X197104000Y-75438000D03*
%TD*%
%TO.C,R13*%
X191516000Y-72225500D03*
X191516000Y-71030500D03*
%TD*%
%TO.C,R12*%
X189526000Y-72225500D03*
X189526000Y-71030500D03*
%TD*%
D19*
%TO.C,D2*%
X176276000Y-121752000D03*
X176276000Y-123952000D03*
%TD*%
D20*
%TO.C,C24*%
X152908000Y-84808000D03*
X152908000Y-83848000D03*
%TD*%
%TO.C,C23*%
X152654000Y-82042000D03*
X152654000Y-81082000D03*
%TD*%
D21*
%TO.C,C22*%
X151356000Y-80772000D03*
X150396000Y-80772000D03*
%TD*%
D22*
%TO.C,C21*%
X157028000Y-81280000D03*
X157988000Y-81280000D03*
%TD*%
D23*
%TO.C,C18*%
X175006000Y-86896000D03*
X175006000Y-87856000D03*
%TD*%
D22*
%TO.C,C17*%
X161008000Y-94488000D03*
X160048000Y-94488000D03*
%TD*%
%TO.C,C16*%
X160076000Y-95820000D03*
X161036000Y-95820000D03*
%TD*%
%TO.C,C15*%
X161036000Y-97282000D03*
X160076000Y-97282000D03*
%TD*%
%TO.C,C14*%
X157790000Y-96012000D03*
X158750000Y-96012000D03*
%TD*%
D20*
%TO.C,C13*%
X177292000Y-94742000D03*
X177292000Y-93782000D03*
%TD*%
%TO.C,C12*%
X175260000Y-94714000D03*
X175260000Y-93754000D03*
%TD*%
%TO.C,C11*%
X172974000Y-94742000D03*
X172974000Y-93782000D03*
%TD*%
%TO.C,C10*%
X170688000Y-94742000D03*
X170688000Y-93782000D03*
%TD*%
%TO.C,C9*%
X168402000Y-94742000D03*
X168402000Y-93782000D03*
%TD*%
D22*
%TO.C,C8*%
X157762000Y-98298000D03*
X158722000Y-98298000D03*
%TD*%
%TO.C,C7*%
X158722000Y-97028000D03*
X157762000Y-97028000D03*
%TD*%
%TO.C,C6*%
X176304000Y-125984000D03*
X177264000Y-125984000D03*
%TD*%
D20*
%TO.C,C3*%
X169672000Y-104084000D03*
X169672000Y-103124000D03*
%TD*%
D22*
%TO.C,C2*%
X176304000Y-136906000D03*
X177264000Y-136906000D03*
%TD*%
D23*
%TO.C,C1*%
X179578000Y-104140000D03*
X179578000Y-105100000D03*
%TD*%
D17*
%TO.C,R10*%
X134874000Y-98881000D03*
X134874000Y-100076000D03*
%TD*%
D18*
%TO.C,R2*%
X182118000Y-98387500D03*
X182118000Y-97192500D03*
%TD*%
D24*
%TO.C,C5*%
X144131500Y-140843000D03*
X147206500Y-140843000D03*
%TD*%
D25*
%TO.C,U6*%
X143792500Y-69922000D03*
X143792500Y-70422000D03*
X143792500Y-70922000D03*
X143792500Y-71422000D03*
X143792500Y-71922000D03*
X143792500Y-72422000D03*
X143792500Y-72922000D03*
D26*
X142930000Y-73784500D03*
X142430000Y-73784500D03*
X141930000Y-73784500D03*
X141430000Y-73784500D03*
X140930000Y-73784500D03*
X140430000Y-73784500D03*
X139930000Y-73784500D03*
D25*
X139067500Y-72922000D03*
X139067500Y-72422000D03*
X139067500Y-71922000D03*
X139067500Y-71422000D03*
X139067500Y-70922000D03*
X139067500Y-70422000D03*
X139067500Y-69922000D03*
D26*
X139930000Y-69059500D03*
X140430000Y-69059500D03*
X140930000Y-69059500D03*
X141430000Y-69059500D03*
X141930000Y-69059500D03*
X142430000Y-69059500D03*
X142930000Y-69059500D03*
D27*
X140620000Y-72232000D03*
X142240000Y-72232000D03*
X140620000Y-70612000D03*
X142240000Y-70612000D03*
%TD*%
D15*
%TO.C,R8*%
X149606000Y-70231000D03*
X150801000Y-70231000D03*
%TD*%
D12*
%TO.C,U5*%
X148976500Y-82108000D03*
X148976500Y-83058000D03*
X148976500Y-84008000D03*
X151251500Y-84008000D03*
X151251500Y-82108000D03*
%TD*%
D18*
%TO.C,R6*%
X159512000Y-85179500D03*
X159512000Y-83984500D03*
%TD*%
D16*
%TO.C,R9*%
X167602500Y-80137000D03*
X166407500Y-80137000D03*
%TD*%
D28*
%TO.C,X1*%
X145034000Y-89832000D03*
X145034000Y-92032000D03*
X146634002Y-92032000D03*
X146634002Y-89832000D03*
%TD*%
D18*
%TO.C,R7*%
X152273000Y-68796500D03*
X152273000Y-67601500D03*
%TD*%
D16*
%TO.C,R1*%
X183223500Y-99695000D03*
X182028500Y-99695000D03*
%TD*%
D17*
%TO.C,R4*%
X145288000Y-94652500D03*
X145288000Y-95847500D03*
%TD*%
D29*
%TO.C,U4*%
X165183000Y-86868000D03*
X165183000Y-88138000D03*
X165183000Y-89408000D03*
X165183000Y-90678000D03*
X172383000Y-90678000D03*
X172383000Y-89408000D03*
X172383000Y-88138000D03*
X172383000Y-86868000D03*
%TD*%
D18*
%TO.C,R3*%
X183515000Y-95974500D03*
X183515000Y-94779500D03*
%TD*%
D30*
%TO.C,J2*%
X180214000Y-139788000D03*
X186364000Y-139788000D03*
X186364000Y-150788000D03*
X180214000Y-150788000D03*
%TD*%
D31*
%TO.C,U7*%
X177223000Y-104140000D03*
X177223000Y-102870000D03*
X177223000Y-101600000D03*
X177223000Y-100330000D03*
X171773000Y-100330000D03*
X171773000Y-101600000D03*
X171773000Y-102870000D03*
X171773000Y-104140000D03*
%TD*%
D32*
%TO.C,U3*%
X158323500Y-88594500D03*
X158323500Y-88994500D03*
X158323500Y-89394500D03*
X158323500Y-89794500D03*
X158323500Y-90194500D03*
X158323500Y-90594500D03*
X158323500Y-90994500D03*
X158323500Y-91394500D03*
X158323500Y-91794500D03*
X158323500Y-92194500D03*
X158323500Y-92594500D03*
X158323500Y-92994500D03*
X158323500Y-93394500D03*
X158323500Y-93794500D03*
D33*
X157486000Y-94632000D03*
X157086000Y-94632000D03*
X156686000Y-94632000D03*
X156286000Y-94632000D03*
X155886000Y-94632000D03*
X155486000Y-94632000D03*
X155086000Y-94632000D03*
X154686000Y-94632000D03*
X154286000Y-94632000D03*
X153886000Y-94632000D03*
X153486000Y-94632000D03*
X153086000Y-94632000D03*
X152686000Y-94632000D03*
X152286000Y-94632000D03*
D32*
X151448500Y-93794500D03*
X151448500Y-93394500D03*
X151448500Y-92994500D03*
X151448500Y-92594500D03*
X151448500Y-92194500D03*
X151448500Y-91794500D03*
X151448500Y-91394500D03*
X151448500Y-90994500D03*
X151448500Y-90594500D03*
X151448500Y-90194500D03*
X151448500Y-89794500D03*
X151448500Y-89394500D03*
X151448500Y-88994500D03*
X151448500Y-88594500D03*
D33*
X152286000Y-87757000D03*
X152686000Y-87757000D03*
X153086000Y-87757000D03*
X153486000Y-87757000D03*
X153886000Y-87757000D03*
X154286000Y-87757000D03*
X154686000Y-87757000D03*
X155086000Y-87757000D03*
X155486000Y-87757000D03*
X155886000Y-87757000D03*
X156286000Y-87757000D03*
X156686000Y-87757000D03*
X157086000Y-87757000D03*
X157486000Y-87757000D03*
D34*
X154086000Y-91994500D03*
X155686000Y-91994500D03*
X154086000Y-90394500D03*
X155686000Y-90394500D03*
%TD*%
D17*
%TO.C,R11*%
X152273000Y-106755000D03*
X152273000Y-107950000D03*
%TD*%
D35*
%TO.C,D1*%
X165948000Y-104140000D03*
X168148000Y-104140000D03*
%TD*%
D36*
%TO.C,U2*%
X144170400Y-148717000D03*
X144170400Y-146177000D03*
X144170400Y-143637000D03*
D37*
X132372100Y-146177000D03*
%TD*%
D17*
%TO.C,R5*%
X161036000Y-83984500D03*
X161036000Y-85179500D03*
%TD*%
D20*
%TO.C,C19*%
X146812000Y-87983000D03*
X146812000Y-87023000D03*
%TD*%
D21*
%TO.C,C20*%
X147320000Y-93472000D03*
X146360000Y-93472000D03*
%TD*%
D38*
%TO.C,C4*%
X149860000Y-149111500D03*
X149860000Y-146036500D03*
%TD*%
D39*
%TO.C,U1*%
X176276000Y-134112000D03*
X177546000Y-134112000D03*
X178816000Y-134112000D03*
X180086000Y-134112000D03*
X180086000Y-128662000D03*
X178816000Y-128662000D03*
X177546000Y-128662000D03*
X176276000Y-128662000D03*
%TD*%
D40*
%TO.C,P1*%
X189459000Y-101781000D03*
D41*
X189459000Y-100931000D03*
X189459000Y-100431000D03*
X189459000Y-99931000D03*
X189459000Y-99431000D03*
X189459000Y-98931000D03*
X189459000Y-98431000D03*
X189459000Y-97931000D03*
X189459000Y-97431000D03*
X189459000Y-96931000D03*
X189459000Y-96431000D03*
D40*
X189459000Y-95581000D03*
D41*
X188159000Y-95681000D03*
X188159000Y-96181000D03*
X188159000Y-96681000D03*
X188159000Y-97181000D03*
X188159000Y-97681000D03*
X188159000Y-98181000D03*
X188159000Y-99181000D03*
X188159000Y-99681000D03*
X188159000Y-100181000D03*
X188159000Y-100681000D03*
X188159000Y-101181000D03*
X188159000Y-101681000D03*
%TD*%
M02*
