%TF.GenerationSoftware,KiCad,Pcbnew,8.0.6*%
%TF.CreationDate,2024-11-27T03:53:43-08:00*%
%TF.ProjectId,eecsc206a,65656373-6332-4303-9661-2e6b69636164,rev?*%
%TF.SameCoordinates,Original*%
%TF.FileFunction,Copper,L4,Bot*%
%TF.FilePolarity,Positive*%
%FSLAX46Y46*%
G04 Gerber Fmt 4.6, Leading zero omitted, Abs format (unit mm)*
G04 Created by KiCad (PCBNEW 8.0.6) date 2024-11-27 03:53:43*
%MOMM*%
%LPD*%
G01*
G04 APERTURE LIST*
G04 Aperture macros list*
%AMRoundRect*
0 Rectangle with rounded corners*
0 $1 Rounding radius*
0 $2 $3 $4 $5 $6 $7 $8 $9 X,Y pos of 4 corners*
0 Add a 4 corners polygon primitive as box body*
4,1,4,$2,$3,$4,$5,$6,$7,$8,$9,$2,$3,0*
0 Add four circle primitives for the rounded corners*
1,1,$1+$1,$2,$3*
1,1,$1+$1,$4,$5*
1,1,$1+$1,$6,$7*
1,1,$1+$1,$8,$9*
0 Add four rect primitives between the rounded corners*
20,1,$1+$1,$2,$3,$4,$5,0*
20,1,$1+$1,$4,$5,$6,$7,0*
20,1,$1+$1,$6,$7,$8,$9,0*
20,1,$1+$1,$8,$9,$2,$3,0*%
G04 Aperture macros list end*
%TA.AperFunction,ComponentPad*%
%ADD10C,0.800000*%
%TD*%
%TA.AperFunction,ComponentPad*%
%ADD11C,6.000000*%
%TD*%
%TA.AperFunction,ComponentPad*%
%ADD12C,1.600000*%
%TD*%
%TA.AperFunction,ComponentPad*%
%ADD13RoundRect,0.250000X0.550000X-0.550000X0.550000X0.550000X-0.550000X0.550000X-0.550000X-0.550000X0*%
%TD*%
%TA.AperFunction,ComponentPad*%
%ADD14RoundRect,0.250000X0.550000X0.550000X-0.550000X0.550000X-0.550000X-0.550000X0.550000X-0.550000X0*%
%TD*%
%TA.AperFunction,ComponentPad*%
%ADD15RoundRect,0.250000X-0.550000X-0.550000X0.550000X-0.550000X0.550000X0.550000X-0.550000X0.550000X0*%
%TD*%
%TA.AperFunction,ComponentPad*%
%ADD16RoundRect,0.250000X-0.550000X0.550000X-0.550000X-0.550000X0.550000X-0.550000X0.550000X0.550000X0*%
%TD*%
%TA.AperFunction,ComponentPad*%
%ADD17R,1.700000X1.700000*%
%TD*%
%TA.AperFunction,ComponentPad*%
%ADD18O,1.700000X1.700000*%
%TD*%
%TA.AperFunction,ComponentPad*%
%ADD19O,2.600000X1.100000*%
%TD*%
%TA.AperFunction,ComponentPad*%
%ADD20O,2.100000X1.100000*%
%TD*%
%TA.AperFunction,ViaPad*%
%ADD21C,0.600000*%
%TD*%
%TA.AperFunction,Conductor*%
%ADD22C,0.200000*%
%TD*%
%TA.AperFunction,Conductor*%
%ADD23C,0.500000*%
%TD*%
G04 APERTURE END LIST*
D10*
%TO.P,H4,1*%
%TO.N,N/C*%
X117130000Y-103378000D03*
X117789010Y-101787010D03*
X117789010Y-104968990D03*
X119380000Y-101128000D03*
D11*
X119380000Y-103378000D03*
D10*
X119380000Y-105628000D03*
X120970990Y-101787010D03*
X120970990Y-104968990D03*
X121630000Y-103378000D03*
%TD*%
%TO.P,H3,1*%
%TO.N,N/C*%
X147102000Y-63754000D03*
X147761010Y-62163010D03*
X147761010Y-65344990D03*
X149352000Y-61504000D03*
D11*
X149352000Y-63754000D03*
D10*
X149352000Y-66004000D03*
X150942990Y-62163010D03*
X150942990Y-65344990D03*
X151602000Y-63754000D03*
%TD*%
%TO.P,H2,1*%
%TO.N,N/C*%
X151166000Y-138684000D03*
X151825010Y-137093010D03*
X151825010Y-140274990D03*
X153416000Y-136434000D03*
D11*
X153416000Y-138684000D03*
D10*
X153416000Y-140934000D03*
X155006990Y-137093010D03*
X155006990Y-140274990D03*
X155666000Y-138684000D03*
%TD*%
%TO.P,H1,1*%
%TO.N,N/C*%
X182154000Y-107442000D03*
X182813010Y-105851010D03*
X182813010Y-109032990D03*
X184404000Y-105192000D03*
D11*
X184404000Y-107442000D03*
D10*
X184404000Y-109692000D03*
X185994990Y-105851010D03*
X185994990Y-109032990D03*
X186654000Y-107442000D03*
%TD*%
D12*
%TO.P,J17,2,Pin_2*%
%TO.N,Net-(J17-Pin_2)*%
X109198000Y-93428000D03*
D13*
%TO.P,J17,1,Pin_1*%
%TO.N,+3V3*%
X109198000Y-97028000D03*
%TD*%
D12*
%TO.P,J16,2,Pin_2*%
%TO.N,Net-(J16-Pin_2)*%
X134830000Y-45698000D03*
D14*
%TO.P,J16,1,Pin_1*%
%TO.N,+3V3*%
X138430000Y-45698000D03*
%TD*%
D12*
%TO.P,J15,2,Pin_2*%
%TO.N,Net-(J15-Pin_2)*%
X118872000Y-55880000D03*
D15*
%TO.P,J15,1,Pin_1*%
%TO.N,+3V3*%
X115272000Y-55880000D03*
%TD*%
%TO.P,J14,1,Pin_1*%
%TO.N,+3V3*%
X179788000Y-65786000D03*
D12*
%TO.P,J14,2,Pin_2*%
%TO.N,Net-(J14-Pin_2)*%
X183388000Y-65786000D03*
%TD*%
D15*
%TO.P,J13,1,Pin_1*%
%TO.N,+3V3*%
X157436000Y-55626000D03*
D12*
%TO.P,J13,2,Pin_2*%
%TO.N,Net-(J13-Pin_2)*%
X161036000Y-55626000D03*
%TD*%
D16*
%TO.P,J12,1,Pin_1*%
%TO.N,Net-(J12-Pin_1)*%
X110998000Y-77216000D03*
D12*
%TO.P,J12,2,Pin_2*%
%TO.N,GND*%
X110998000Y-80816000D03*
%TD*%
%TO.P,J11,2,Pin_2*%
%TO.N,GND*%
X129540000Y-55880000D03*
D15*
%TO.P,J11,1,Pin_1*%
%TO.N,Net-(J11-Pin_1)*%
X125940000Y-55880000D03*
%TD*%
%TO.P,J10,1,Pin_1*%
%TO.N,Net-(J10-Pin_1)*%
X147276000Y-45720000D03*
D12*
%TO.P,J10,2,Pin_2*%
%TO.N,GND*%
X150876000Y-45720000D03*
%TD*%
D15*
%TO.P,J9,1,Pin_1*%
%TO.N,Net-(J9-Pin_1)*%
X168634000Y-55626000D03*
D12*
%TO.P,J9,2,Pin_2*%
%TO.N,GND*%
X172234000Y-55626000D03*
%TD*%
D15*
%TO.P,J8,1,Pin_1*%
%TO.N,Net-(J8-Pin_1)*%
X191980000Y-65786000D03*
D12*
%TO.P,J8,2,Pin_2*%
%TO.N,GND*%
X195580000Y-65786000D03*
%TD*%
D15*
%TO.P,J18,1,Pin_1*%
%TO.N,Net-(J18-Pin_1)*%
X148248000Y-100838000D03*
D12*
%TO.P,J18,2,Pin_2*%
%TO.N,Net-(J18-Pin_2)*%
X151848000Y-100838000D03*
%TO.P,J18,3,Pin_3*%
%TO.N,Net-(J18-Pin_3)*%
X155448000Y-100838000D03*
%TO.P,J18,4,Pin_4*%
%TO.N,Net-(J18-Pin_4)*%
X159048000Y-100838000D03*
%TD*%
D17*
%TO.P,J5,1,Pin_1*%
%TO.N,Net-(J5-Pin_1)*%
X166370000Y-77582000D03*
D18*
%TO.P,J5,2,Pin_2*%
%TO.N,GND*%
X166370000Y-75042000D03*
%TO.P,J5,3,Pin_3*%
%TO.N,+5V*%
X166370000Y-72502000D03*
%TD*%
D17*
%TO.P,J7,1,Pin_1*%
%TO.N,Net-(J7-Pin_1)*%
X154813000Y-107950000D03*
D18*
%TO.P,J7,2,Pin_2*%
%TO.N,GND*%
X154813000Y-110490000D03*
%TO.P,J7,3,Pin_3*%
%TO.N,+5V*%
X154813000Y-113030000D03*
%TD*%
D17*
%TO.P,J6,1,Pin_1*%
%TO.N,Net-(J6-Pin_1)*%
X131318000Y-99822000D03*
D18*
%TO.P,J6,2,Pin_2*%
%TO.N,GND*%
X131318000Y-102362000D03*
%TO.P,J6,3,Pin_3*%
%TO.N,+5V*%
X131318000Y-104902000D03*
%TD*%
D17*
%TO.P,J1,1,Pin_1*%
%TO.N,Net-(J1-Pin_1)*%
X136667000Y-87376000D03*
D18*
%TO.P,J1,2,Pin_2*%
%TO.N,unconnected-(J1-Pin_2-Pad2)*%
X139207000Y-87376000D03*
%TO.P,J1,3,Pin_3*%
%TO.N,Net-(J1-Pin_3)*%
X141747000Y-87376000D03*
%TD*%
D17*
%TO.P,J4,1,Pin_1*%
%TO.N,Net-(J4-Pin_1)*%
X150241000Y-72771000D03*
D18*
%TO.P,J4,2,Pin_2*%
%TO.N,GND*%
X150241000Y-75311000D03*
%TO.P,J4,3,Pin_3*%
%TO.N,+5V*%
X150241000Y-77851000D03*
%TD*%
D17*
%TO.P,J3,1,Pin_1*%
%TO.N,Net-(J3-Pin_1)*%
X155194000Y-67564000D03*
D18*
%TO.P,J3,2,Pin_2*%
%TO.N,GND*%
X157734000Y-67564000D03*
%TO.P,J3,3,Pin_3*%
%TO.N,+5V*%
X160274000Y-67564000D03*
%TD*%
D19*
%TO.P,P1,S1,SHIELD*%
%TO.N,GND*%
X193929000Y-94361000D03*
D20*
X188569000Y-94361000D03*
D19*
X193929000Y-103001000D03*
D20*
X188569000Y-103001000D03*
%TD*%
D21*
%TO.N,/Strain Gauges and Pressure Sensors/G1*%
X176276000Y-78994000D03*
%TO.N,/Strain Gauges and Pressure Sensors/G2*%
X146050000Y-67437000D03*
%TO.N,/Strain Gauges and Pressure Sensors/P1*%
X143764000Y-67310000D03*
%TO.N,/Strain Gauges and Pressure Sensors/P2*%
X144018000Y-57912000D03*
%TO.N,/Strain Gauges and Pressure Sensors/G1*%
X147574000Y-69596000D03*
%TO.N,/Strain Gauges and Pressure Sensors/G2*%
X145288000Y-70358000D03*
%TO.N,/Strain Gauges and Pressure Sensors/G3*%
X145034000Y-69342000D03*
X145034000Y-55880000D03*
%TO.N,/Strain Gauges and Pressure Sensors/P1*%
X142240000Y-67818000D03*
%TO.N,/Strain Gauges and Pressure Sensors/P2*%
X141561735Y-67148000D03*
%TO.N,/Strain Gauges and Pressure Sensors/P3*%
X140716000Y-67310000D03*
X140716000Y-65024000D03*
%TO.N,+1V8*%
X159766000Y-81026000D03*
X160782000Y-82550000D03*
%TO.N,VBUS*%
X185369200Y-96901000D03*
X186537600Y-100330000D03*
%TO.N,Net-(J1-Pin_3)*%
X148567441Y-91818197D03*
%TO.N,Net-(J1-Pin_1)*%
X147858007Y-92505890D03*
%TO.N,/IMU/INT_2*%
X154432000Y-93694500D03*
X154086000Y-86614000D03*
%TO.N,/IMU/INT*%
X154633833Y-95569500D03*
X154178000Y-82042000D03*
%TO.N,/IMU/SCL*%
X156083000Y-86487000D03*
X157471032Y-84228000D03*
%TO.N,/IMU/SDI*%
X157226000Y-83185000D03*
X155194000Y-86614000D03*
%TO.N,/M1*%
X146304000Y-69469000D03*
X148209000Y-88011000D03*
%TO.N,/M2*%
X148590000Y-88773000D03*
X142621000Y-81026000D03*
%TO.N,/M3*%
X162306000Y-81026000D03*
X149860000Y-89994500D03*
%TO.N,/M5*%
X150622000Y-103759000D03*
X149479000Y-94488000D03*
%TO.N,/ADC_SDI*%
X150495000Y-87249000D03*
X142748000Y-76327000D03*
%TO.N,/ADC_SCLK*%
X145161000Y-86233000D03*
X140335000Y-76327000D03*
%TO.N,/EOC*%
X143764000Y-81788000D03*
X148590000Y-87249000D03*
X146558000Y-71322000D03*
X146558000Y-78740000D03*
%TO.N,/ADC_SDO*%
X151511000Y-84963000D03*
X147701000Y-72644000D03*
%TO.N,/QSPI_SD3*%
X167259000Y-87503000D03*
X161290000Y-91186000D03*
%TO.N,/QSPI_SD0*%
X163703000Y-90195400D03*
X166243000Y-92684600D03*
%TO.N,/ADC_CS*%
X141605000Y-76327000D03*
X145542000Y-85090000D03*
%TO.N,/USB+*%
X162306000Y-93472000D03*
X160909000Y-92583000D03*
%TO.N,/USB-*%
X159893000Y-92794500D03*
X162052000Y-92710000D03*
%TD*%
D22*
%TO.N,/Strain Gauges and Pressure Sensors/G2*%
X145288000Y-70022552D02*
X145288000Y-70358000D01*
X145704000Y-69606552D02*
X145288000Y-70022552D01*
X145704000Y-67783000D02*
X145704000Y-69606552D01*
X146050000Y-67437000D02*
X145704000Y-67783000D01*
%TO.N,/M3*%
X150460000Y-90594500D02*
X149860000Y-89994500D01*
X155356000Y-96231000D02*
X152746000Y-96231000D01*
X155702000Y-95885000D02*
X155356000Y-96231000D01*
X161798000Y-87335529D02*
X155702000Y-93431529D01*
X155702000Y-93431529D02*
X155702000Y-95885000D01*
X161798000Y-81534000D02*
X161798000Y-87335529D01*
X162306000Y-81026000D02*
X161798000Y-81534000D01*
X152746000Y-96231000D02*
X150460000Y-93945000D01*
X150460000Y-93945000D02*
X150460000Y-90594500D01*
%TO.N,/Strain Gauges and Pressure Sensors/G1*%
X173990000Y-76708000D02*
X176276000Y-78994000D01*
X163068000Y-65786000D02*
X173990000Y-76708000D01*
X152654000Y-65786000D02*
X163068000Y-65786000D01*
X148844000Y-69596000D02*
X152654000Y-65786000D01*
X147574000Y-69596000D02*
X148844000Y-69596000D01*
%TO.N,/Strain Gauges and Pressure Sensors/P1*%
X143764000Y-67310000D02*
X142748000Y-67310000D01*
X142748000Y-67310000D02*
X142240000Y-67818000D01*
%TO.N,/Strain Gauges and Pressure Sensors/P2*%
X141561735Y-60368265D02*
X144018000Y-57912000D01*
X141561735Y-67148000D02*
X141561735Y-60368265D01*
%TO.N,/Strain Gauges and Pressure Sensors/G3*%
X145034000Y-69342000D02*
X145034000Y-55880000D01*
%TO.N,/Strain Gauges and Pressure Sensors/P3*%
X140716000Y-65024000D02*
X140716000Y-67310000D01*
%TO.N,+1V8*%
X159766000Y-81026000D02*
X159766000Y-81534000D01*
X159766000Y-81534000D02*
X160782000Y-82550000D01*
%TO.N,/USB-*%
X159893000Y-92750471D02*
X159893000Y-92794500D01*
X161325000Y-91983000D02*
X160660471Y-91983000D01*
X162052000Y-92710000D02*
X161325000Y-91983000D01*
X160660471Y-91983000D02*
X159893000Y-92750471D01*
%TO.N,/USB+*%
X162306000Y-93472000D02*
X161798000Y-93472000D01*
X161798000Y-93472000D02*
X160909000Y-92583000D01*
%TO.N,Net-(J1-Pin_1)*%
X141758249Y-92467249D02*
X136667000Y-87376000D01*
X147858007Y-92505890D02*
X147819366Y-92467249D01*
X147819366Y-92467249D02*
X141758249Y-92467249D01*
%TO.N,Net-(J1-Pin_3)*%
X148567441Y-91818197D02*
X148564638Y-91821000D01*
X146192000Y-91821000D02*
X141747000Y-87376000D01*
X148564638Y-91821000D02*
X146192000Y-91821000D01*
%TO.N,/IMU/INT*%
X153797000Y-82042000D02*
X154178000Y-82042000D01*
X152181000Y-93116667D02*
X152181000Y-83658000D01*
X152181000Y-83658000D02*
X153797000Y-82042000D01*
X154633833Y-95569500D02*
X152181000Y-93116667D01*
%TO.N,/IMU/INT_2*%
X152781000Y-87919000D02*
X154086000Y-86614000D01*
X152781000Y-92710000D02*
X152781000Y-87919000D01*
X154432000Y-93694500D02*
X153765500Y-93694500D01*
X153765500Y-93694500D02*
X152781000Y-92710000D01*
%TO.N,/EOC*%
X146939000Y-71703000D02*
X146558000Y-71322000D01*
X146939000Y-78359000D02*
X146939000Y-71703000D01*
X146558000Y-78740000D02*
X146939000Y-78359000D01*
D23*
%TO.N,VBUS*%
X185369200Y-99161600D02*
X186537600Y-100330000D01*
X185369200Y-96901000D02*
X185369200Y-99161600D01*
D22*
%TO.N,/IMU/SCL*%
X157099000Y-86487000D02*
X157988000Y-85598000D01*
X157988000Y-84744968D02*
X157471032Y-84228000D01*
X156083000Y-86487000D02*
X157099000Y-86487000D01*
X157988000Y-85598000D02*
X157988000Y-84744968D01*
%TO.N,/IMU/SDI*%
X154940000Y-86360000D02*
X154940000Y-84074000D01*
X155194000Y-86614000D02*
X154940000Y-86360000D01*
X154940000Y-84074000D02*
X155829000Y-83185000D01*
X155829000Y-83185000D02*
X157226000Y-83185000D01*
%TO.N,/M1*%
X145958000Y-81188000D02*
X145958000Y-69815000D01*
X150327529Y-88265000D02*
X151384000Y-87208529D01*
X148209000Y-88011000D02*
X148676529Y-88011000D01*
X148676529Y-88011000D02*
X148930529Y-88265000D01*
X151384000Y-87208529D02*
X151384000Y-86614000D01*
X151384000Y-86614000D02*
X145958000Y-81188000D01*
X145958000Y-69815000D02*
X146304000Y-69469000D01*
X148930529Y-88265000D02*
X150327529Y-88265000D01*
%TO.N,/M2*%
X146431000Y-87081529D02*
X146431000Y-85055000D01*
X143764000Y-82388000D02*
X143515471Y-82388000D01*
X148122471Y-88773000D02*
X146431000Y-87081529D01*
X143515471Y-82388000D02*
X142621000Y-81493529D01*
X142621000Y-81493529D02*
X142621000Y-81026000D01*
X148590000Y-88773000D02*
X148122471Y-88773000D01*
X146431000Y-85055000D02*
X143764000Y-82388000D01*
%TO.N,/M5*%
X149497000Y-94506000D02*
X149497000Y-96157000D01*
X150495000Y-103632000D02*
X150622000Y-103759000D01*
X150495000Y-97155000D02*
X150495000Y-103632000D01*
X149479000Y-94488000D02*
X149497000Y-94506000D01*
X149497000Y-96157000D02*
X150495000Y-97155000D01*
%TO.N,/ADC_SDI*%
X150495000Y-87249000D02*
X142748000Y-79502000D01*
X142748000Y-79502000D02*
X142748000Y-76327000D01*
%TO.N,/ADC_SCLK*%
X144018000Y-86233000D02*
X138684000Y-80899000D01*
X138684000Y-80899000D02*
X138684000Y-77978000D01*
X138684000Y-77978000D02*
X140335000Y-76327000D01*
X145161000Y-86233000D02*
X144018000Y-86233000D01*
%TO.N,/EOC*%
X148590000Y-86741000D02*
X143764000Y-81915000D01*
X143764000Y-81915000D02*
X143764000Y-81788000D01*
X148590000Y-87249000D02*
X148590000Y-86741000D01*
%TO.N,/ADC_SDO*%
X151511000Y-84963000D02*
X147701000Y-81153000D01*
X147701000Y-81153000D02*
X147701000Y-72644000D01*
%TO.N,/QSPI_SD3*%
X161290000Y-91186000D02*
X164973000Y-87503000D01*
X164973000Y-87503000D02*
X167259000Y-87503000D01*
%TO.N,/QSPI_SD0*%
X166243000Y-92684600D02*
X163753800Y-90195400D01*
X163753800Y-90195400D02*
X163703000Y-90195400D01*
%TO.N,/ADC_CS*%
X141605000Y-81153000D02*
X141605000Y-76327000D01*
X145542000Y-85090000D02*
X141605000Y-81153000D01*
%TD*%
M02*
