%TF.GenerationSoftware,KiCad,Pcbnew,8.0.6*%
%TF.CreationDate,2024-11-27T03:53:43-08:00*%
%TF.ProjectId,eecsc206a,65656373-6332-4303-9661-2e6b69636164,rev?*%
%TF.SameCoordinates,Original*%
%TF.FileFunction,Copper,L3,Inr*%
%TF.FilePolarity,Positive*%
%FSLAX46Y46*%
G04 Gerber Fmt 4.6, Leading zero omitted, Abs format (unit mm)*
G04 Created by KiCad (PCBNEW 8.0.6) date 2024-11-27 03:53:43*
%MOMM*%
%LPD*%
G01*
G04 APERTURE LIST*
G04 Aperture macros list*
%AMRoundRect*
0 Rectangle with rounded corners*
0 $1 Rounding radius*
0 $2 $3 $4 $5 $6 $7 $8 $9 X,Y pos of 4 corners*
0 Add a 4 corners polygon primitive as box body*
4,1,4,$2,$3,$4,$5,$6,$7,$8,$9,$2,$3,0*
0 Add four circle primitives for the rounded corners*
1,1,$1+$1,$2,$3*
1,1,$1+$1,$4,$5*
1,1,$1+$1,$6,$7*
1,1,$1+$1,$8,$9*
0 Add four rect primitives between the rounded corners*
20,1,$1+$1,$2,$3,$4,$5,0*
20,1,$1+$1,$4,$5,$6,$7,0*
20,1,$1+$1,$6,$7,$8,$9,0*
20,1,$1+$1,$8,$9,$2,$3,0*%
G04 Aperture macros list end*
%TA.AperFunction,ComponentPad*%
%ADD10C,0.800000*%
%TD*%
%TA.AperFunction,ComponentPad*%
%ADD11C,6.000000*%
%TD*%
%TA.AperFunction,ComponentPad*%
%ADD12C,1.600000*%
%TD*%
%TA.AperFunction,ComponentPad*%
%ADD13RoundRect,0.250000X0.550000X-0.550000X0.550000X0.550000X-0.550000X0.550000X-0.550000X-0.550000X0*%
%TD*%
%TA.AperFunction,ComponentPad*%
%ADD14RoundRect,0.250000X0.550000X0.550000X-0.550000X0.550000X-0.550000X-0.550000X0.550000X-0.550000X0*%
%TD*%
%TA.AperFunction,ComponentPad*%
%ADD15RoundRect,0.250000X-0.550000X-0.550000X0.550000X-0.550000X0.550000X0.550000X-0.550000X0.550000X0*%
%TD*%
%TA.AperFunction,ComponentPad*%
%ADD16RoundRect,0.250000X-0.550000X0.550000X-0.550000X-0.550000X0.550000X-0.550000X0.550000X0.550000X0*%
%TD*%
%TA.AperFunction,ComponentPad*%
%ADD17R,1.700000X1.700000*%
%TD*%
%TA.AperFunction,ComponentPad*%
%ADD18O,1.700000X1.700000*%
%TD*%
%TA.AperFunction,ComponentPad*%
%ADD19O,2.600000X1.100000*%
%TD*%
%TA.AperFunction,ComponentPad*%
%ADD20O,2.100000X1.100000*%
%TD*%
%TA.AperFunction,ViaPad*%
%ADD21C,0.600000*%
%TD*%
G04 APERTURE END LIST*
D10*
%TO.N,N/C*%
%TO.C,H4*%
X117130000Y-103378000D03*
X117789010Y-101787010D03*
X117789010Y-104968990D03*
X119380000Y-101128000D03*
D11*
X119380000Y-103378000D03*
D10*
X119380000Y-105628000D03*
X120970990Y-101787010D03*
X120970990Y-104968990D03*
X121630000Y-103378000D03*
%TD*%
%TO.N,N/C*%
%TO.C,H3*%
X147102000Y-63754000D03*
X147761010Y-62163010D03*
X147761010Y-65344990D03*
X149352000Y-61504000D03*
D11*
X149352000Y-63754000D03*
D10*
X149352000Y-66004000D03*
X150942990Y-62163010D03*
X150942990Y-65344990D03*
X151602000Y-63754000D03*
%TD*%
%TO.N,N/C*%
%TO.C,H2*%
X151166000Y-138684000D03*
X151825010Y-137093010D03*
X151825010Y-140274990D03*
X153416000Y-136434000D03*
D11*
X153416000Y-138684000D03*
D10*
X153416000Y-140934000D03*
X155006990Y-137093010D03*
X155006990Y-140274990D03*
X155666000Y-138684000D03*
%TD*%
%TO.N,N/C*%
%TO.C,H1*%
X182154000Y-107442000D03*
X182813010Y-105851010D03*
X182813010Y-109032990D03*
X184404000Y-105192000D03*
D11*
X184404000Y-107442000D03*
D10*
X184404000Y-109692000D03*
X185994990Y-105851010D03*
X185994990Y-109032990D03*
X186654000Y-107442000D03*
%TD*%
D12*
%TO.N,Net-(J17-Pin_2)*%
%TO.C,J17*%
X109198000Y-93428000D03*
D13*
%TO.N,+3V3*%
X109198000Y-97028000D03*
%TD*%
D12*
%TO.N,Net-(J16-Pin_2)*%
%TO.C,J16*%
X134830000Y-45698000D03*
D14*
%TO.N,+3V3*%
X138430000Y-45698000D03*
%TD*%
D12*
%TO.N,Net-(J15-Pin_2)*%
%TO.C,J15*%
X118872000Y-55880000D03*
D15*
%TO.N,+3V3*%
X115272000Y-55880000D03*
%TD*%
%TO.N,+3V3*%
%TO.C,J14*%
X179788000Y-65786000D03*
D12*
%TO.N,Net-(J14-Pin_2)*%
X183388000Y-65786000D03*
%TD*%
D15*
%TO.N,+3V3*%
%TO.C,J13*%
X157436000Y-55626000D03*
D12*
%TO.N,Net-(J13-Pin_2)*%
X161036000Y-55626000D03*
%TD*%
D16*
%TO.N,Net-(J12-Pin_1)*%
%TO.C,J12*%
X110998000Y-77216000D03*
D12*
%TO.N,GND*%
X110998000Y-80816000D03*
%TD*%
%TO.N,GND*%
%TO.C,J11*%
X129540000Y-55880000D03*
D15*
%TO.N,Net-(J11-Pin_1)*%
X125940000Y-55880000D03*
%TD*%
%TO.N,Net-(J10-Pin_1)*%
%TO.C,J10*%
X147276000Y-45720000D03*
D12*
%TO.N,GND*%
X150876000Y-45720000D03*
%TD*%
D15*
%TO.N,Net-(J9-Pin_1)*%
%TO.C,J9*%
X168634000Y-55626000D03*
D12*
%TO.N,GND*%
X172234000Y-55626000D03*
%TD*%
D15*
%TO.N,Net-(J8-Pin_1)*%
%TO.C,J8*%
X191980000Y-65786000D03*
D12*
%TO.N,GND*%
X195580000Y-65786000D03*
%TD*%
D15*
%TO.N,Net-(J18-Pin_1)*%
%TO.C,J18*%
X148248000Y-100838000D03*
D12*
%TO.N,Net-(J18-Pin_2)*%
X151848000Y-100838000D03*
%TO.N,Net-(J18-Pin_3)*%
X155448000Y-100838000D03*
%TO.N,Net-(J18-Pin_4)*%
X159048000Y-100838000D03*
%TD*%
D17*
%TO.N,Net-(J5-Pin_1)*%
%TO.C,J5*%
X166370000Y-77582000D03*
D18*
%TO.N,GND*%
X166370000Y-75042000D03*
%TO.N,+5V*%
X166370000Y-72502000D03*
%TD*%
D17*
%TO.N,Net-(J7-Pin_1)*%
%TO.C,J7*%
X154813000Y-107950000D03*
D18*
%TO.N,GND*%
X154813000Y-110490000D03*
%TO.N,+5V*%
X154813000Y-113030000D03*
%TD*%
D17*
%TO.N,Net-(J6-Pin_1)*%
%TO.C,J6*%
X131318000Y-99822000D03*
D18*
%TO.N,GND*%
X131318000Y-102362000D03*
%TO.N,+5V*%
X131318000Y-104902000D03*
%TD*%
D17*
%TO.N,Net-(J1-Pin_1)*%
%TO.C,J1*%
X136667000Y-87376000D03*
D18*
%TO.N,unconnected-(J1-Pin_2-Pad2)*%
X139207000Y-87376000D03*
%TO.N,Net-(J1-Pin_3)*%
X141747000Y-87376000D03*
%TD*%
D17*
%TO.N,Net-(J4-Pin_1)*%
%TO.C,J4*%
X150241000Y-72771000D03*
D18*
%TO.N,GND*%
X150241000Y-75311000D03*
%TO.N,+5V*%
X150241000Y-77851000D03*
%TD*%
D17*
%TO.N,Net-(J3-Pin_1)*%
%TO.C,J3*%
X155194000Y-67564000D03*
D18*
%TO.N,GND*%
X157734000Y-67564000D03*
%TO.N,+5V*%
X160274000Y-67564000D03*
%TD*%
D19*
%TO.N,GND*%
%TO.C,P1*%
X193929000Y-94361000D03*
D20*
X188569000Y-94361000D03*
D19*
X193929000Y-103001000D03*
D20*
X188569000Y-103001000D03*
%TD*%
D21*
%TO.N,+3V3*%
X145034000Y-75438000D03*
%TO.N,/Strain Gauges and Pressure Sensors/G1*%
X176276000Y-78994000D03*
%TO.N,/Strain Gauges and Pressure Sensors/G2*%
X146050000Y-67437000D03*
%TO.N,/Strain Gauges and Pressure Sensors/P1*%
X143764000Y-67310000D03*
%TO.N,/Strain Gauges and Pressure Sensors/P2*%
X144018000Y-57912000D03*
%TO.N,+3V3*%
X191516000Y-69342000D03*
X196850000Y-72644000D03*
X193294000Y-80518000D03*
X185166000Y-73914000D03*
X182880000Y-74422000D03*
X164868000Y-58928000D03*
X174984000Y-58928000D03*
X170434000Y-67288000D03*
X145034000Y-96774000D03*
X152654000Y-62484000D03*
X153670000Y-60960000D03*
X155448000Y-55626000D03*
%TO.N,/Strain Gauges and Pressure Sensors/G1*%
X147574000Y-69596000D03*
%TO.N,/Strain Gauges and Pressure Sensors/G2*%
X145288000Y-70358000D03*
%TO.N,/Strain Gauges and Pressure Sensors/G3*%
X145034000Y-69342000D03*
X145034000Y-55880000D03*
%TO.N,+3V3*%
X151610250Y-47940000D03*
X142936000Y-46255750D03*
X148656000Y-55852250D03*
%TO.N,/Strain Gauges and Pressure Sensors/P1*%
X142240000Y-67818000D03*
%TO.N,/Strain Gauges and Pressure Sensors/P2*%
X141561735Y-67148000D03*
%TO.N,/Strain Gauges and Pressure Sensors/P3*%
X140716000Y-67310000D03*
X140716000Y-65024000D03*
%TO.N,+3V3*%
X138684000Y-56874000D03*
X140208000Y-45698000D03*
X138176000Y-47984000D03*
X132588000Y-58674000D03*
X129540000Y-66040000D03*
X124460000Y-59436000D03*
X121666000Y-60198000D03*
X118110000Y-70104000D03*
X112522000Y-57150000D03*
X138430000Y-76200000D03*
X138430000Y-75184000D03*
X114300000Y-74930000D03*
X121158000Y-84582000D03*
X117348000Y-82550000D03*
X124460000Y-75946000D03*
X124714000Y-88646000D03*
X176276000Y-119888000D03*
X164084000Y-104140000D03*
X152146000Y-96774000D03*
X177292000Y-84074000D03*
%TO.N,+1V8*%
X159766000Y-81026000D03*
X160782000Y-82550000D03*
%TO.N,+3V3*%
X176784000Y-86868000D03*
X179070000Y-94996000D03*
X149860000Y-91594500D03*
X156972000Y-98298000D03*
X147490265Y-81871735D03*
%TO.N,VBUS*%
X185369200Y-96901000D03*
X186537600Y-100330000D03*
%TO.N,Net-(J1-Pin_3)*%
X148567441Y-91818197D03*
%TO.N,Net-(J1-Pin_1)*%
X147858007Y-92505890D03*
%TO.N,+3V3*%
X159512000Y-82550000D03*
%TO.N,/IMU/INT_2*%
X154432000Y-93694500D03*
X154086000Y-86614000D03*
%TO.N,/IMU/INT*%
X154633833Y-95569500D03*
X154178000Y-82042000D03*
%TO.N,/IMU/SCL*%
X156083000Y-86487000D03*
X157471032Y-84228000D03*
%TO.N,/IMU/SDI*%
X157226000Y-83185000D03*
X155194000Y-86614000D03*
%TO.N,/M1*%
X146304000Y-69469000D03*
X148209000Y-88011000D03*
%TO.N,/M2*%
X148590000Y-88773000D03*
X142621000Y-81026000D03*
%TO.N,/M3*%
X162306000Y-81026000D03*
X149860000Y-89994500D03*
%TO.N,/M5*%
X150622000Y-103759000D03*
X149479000Y-94488000D03*
%TO.N,/ADC_SDI*%
X150495000Y-87249000D03*
X142748000Y-76327000D03*
%TO.N,/ADC_SCLK*%
X145161000Y-86233000D03*
X140335000Y-76327000D03*
%TO.N,/EOC*%
X143764000Y-81788000D03*
X148590000Y-87249000D03*
X146558000Y-71322000D03*
X146558000Y-78740000D03*
%TO.N,/ADC_SDO*%
X151511000Y-84963000D03*
X147701000Y-72644000D03*
%TO.N,/QSPI_SD3*%
X167259000Y-87503000D03*
X161290000Y-91186000D03*
%TO.N,/QSPI_SD0*%
X163703000Y-90195400D03*
X166243000Y-92684600D03*
%TO.N,/ADC_CS*%
X141605000Y-76327000D03*
X145542000Y-85090000D03*
%TO.N,/USB+*%
X162306000Y-93472000D03*
X160909000Y-92583000D03*
%TO.N,/USB-*%
X159893000Y-92794500D03*
X162052000Y-92710000D03*
%TD*%
%TA.AperFunction,Conductor*%
%TO.N,+3V3*%
G36*
X134356061Y-44274185D02*
G01*
X134401816Y-44326989D01*
X134411760Y-44396147D01*
X134382735Y-44459703D01*
X134341427Y-44490882D01*
X134177267Y-44567431D01*
X134177265Y-44567432D01*
X133990858Y-44697954D01*
X133829954Y-44858858D01*
X133699432Y-45045265D01*
X133699431Y-45045267D01*
X133603261Y-45251502D01*
X133603258Y-45251511D01*
X133544366Y-45471302D01*
X133544364Y-45471313D01*
X133524532Y-45697998D01*
X133524532Y-45698001D01*
X133544364Y-45924686D01*
X133544366Y-45924697D01*
X133603258Y-46144488D01*
X133603261Y-46144497D01*
X133699431Y-46350732D01*
X133699432Y-46350734D01*
X133829954Y-46537141D01*
X133990858Y-46698045D01*
X134037693Y-46730839D01*
X134177266Y-46828568D01*
X134383504Y-46924739D01*
X134383509Y-46924740D01*
X134383511Y-46924741D01*
X134436415Y-46938916D01*
X134603308Y-46983635D01*
X134765230Y-46997801D01*
X134829998Y-47003468D01*
X134830000Y-47003468D01*
X134830002Y-47003468D01*
X134892522Y-46997998D01*
X135056692Y-46983635D01*
X135276496Y-46924739D01*
X135482734Y-46828568D01*
X135669139Y-46698047D01*
X135830047Y-46537139D01*
X135960568Y-46350734D01*
X135985165Y-46297986D01*
X137130001Y-46297986D01*
X137140494Y-46400697D01*
X137195641Y-46567119D01*
X137195643Y-46567124D01*
X137287684Y-46716345D01*
X137411654Y-46840315D01*
X137560875Y-46932356D01*
X137560880Y-46932358D01*
X137727302Y-46987505D01*
X137727309Y-46987506D01*
X137830019Y-46997999D01*
X138179999Y-46997999D01*
X138680000Y-46997999D01*
X139029972Y-46997999D01*
X139029986Y-46997998D01*
X139132697Y-46987505D01*
X139299119Y-46932358D01*
X139299124Y-46932356D01*
X139448345Y-46840315D01*
X139572315Y-46716345D01*
X139664356Y-46567124D01*
X139664358Y-46567119D01*
X139719505Y-46400697D01*
X139719506Y-46400690D01*
X139729999Y-46297986D01*
X139730000Y-46297973D01*
X139730000Y-45948000D01*
X138680000Y-45948000D01*
X138680000Y-46997999D01*
X138179999Y-46997999D01*
X138180000Y-46997998D01*
X138180000Y-45948000D01*
X137130001Y-45948000D01*
X137130001Y-46297986D01*
X135985165Y-46297986D01*
X136056739Y-46144496D01*
X136115635Y-45924692D01*
X136135468Y-45698000D01*
X136115635Y-45471308D01*
X136056739Y-45251504D01*
X135960568Y-45045266D01*
X135830047Y-44858861D01*
X135830045Y-44858858D01*
X135669141Y-44697954D01*
X135482734Y-44567432D01*
X135482732Y-44567431D01*
X135318573Y-44490882D01*
X135266134Y-44444709D01*
X135246982Y-44377516D01*
X135267198Y-44310635D01*
X135320363Y-44265300D01*
X135370978Y-44254500D01*
X137462713Y-44254500D01*
X137529752Y-44274185D01*
X137575507Y-44326989D01*
X137585451Y-44396147D01*
X137556426Y-44459703D01*
X137527810Y-44484039D01*
X137411654Y-44555684D01*
X137287684Y-44679654D01*
X137195643Y-44828875D01*
X137195641Y-44828880D01*
X137140494Y-44995302D01*
X137140493Y-44995309D01*
X137130000Y-45098013D01*
X137130000Y-45448000D01*
X138263012Y-45448000D01*
X138245795Y-45457940D01*
X138189940Y-45513795D01*
X138150444Y-45582204D01*
X138130000Y-45658504D01*
X138130000Y-45737496D01*
X138150444Y-45813796D01*
X138189940Y-45882205D01*
X138245795Y-45938060D01*
X138314204Y-45977556D01*
X138390504Y-45998000D01*
X138469496Y-45998000D01*
X138545796Y-45977556D01*
X138614205Y-45938060D01*
X138670060Y-45882205D01*
X138709556Y-45813796D01*
X138730000Y-45737496D01*
X138730000Y-45658504D01*
X138709556Y-45582204D01*
X138670060Y-45513795D01*
X138614205Y-45457940D01*
X138596988Y-45448000D01*
X139729999Y-45448000D01*
X139729999Y-45098028D01*
X139729998Y-45098013D01*
X139719505Y-44995302D01*
X139664358Y-44828880D01*
X139664356Y-44828875D01*
X139572315Y-44679654D01*
X139448345Y-44555684D01*
X139332190Y-44484039D01*
X139285466Y-44432091D01*
X139274243Y-44363128D01*
X139302087Y-44299046D01*
X139360156Y-44260190D01*
X139397287Y-44254500D01*
X146343429Y-44254500D01*
X146410468Y-44274185D01*
X146456223Y-44326989D01*
X146466167Y-44396147D01*
X146437142Y-44459703D01*
X146408526Y-44484039D01*
X146406666Y-44485185D01*
X146406666Y-44485186D01*
X146330314Y-44532279D01*
X146257342Y-44577289D01*
X146133289Y-44701342D01*
X146041187Y-44850663D01*
X146041186Y-44850666D01*
X145986001Y-45017203D01*
X145986001Y-45017204D01*
X145986000Y-45017204D01*
X145975500Y-45119983D01*
X145975500Y-46320001D01*
X145975501Y-46320018D01*
X145986000Y-46422796D01*
X145986001Y-46422799D01*
X146023890Y-46537139D01*
X146041186Y-46589334D01*
X146133288Y-46738656D01*
X146257344Y-46862712D01*
X146406666Y-46954814D01*
X146573203Y-47009999D01*
X146675991Y-47020500D01*
X147876008Y-47020499D01*
X147978797Y-47009999D01*
X148145334Y-46954814D01*
X148294656Y-46862712D01*
X148418712Y-46738656D01*
X148510814Y-46589334D01*
X148565999Y-46422797D01*
X148576500Y-46320009D01*
X148576499Y-45119992D01*
X148565999Y-45017203D01*
X148510814Y-44850666D01*
X148418712Y-44701344D01*
X148294656Y-44577288D01*
X148145334Y-44485186D01*
X148145333Y-44485185D01*
X148143474Y-44484039D01*
X148096750Y-44432091D01*
X148085527Y-44363128D01*
X148113371Y-44299046D01*
X148171439Y-44260190D01*
X148208571Y-44254500D01*
X150382256Y-44254500D01*
X150449295Y-44274185D01*
X150495050Y-44326989D01*
X150504994Y-44396147D01*
X150475969Y-44459703D01*
X150433472Y-44488960D01*
X150434411Y-44490973D01*
X150223267Y-44589431D01*
X150223265Y-44589432D01*
X150036858Y-44719954D01*
X149875954Y-44880858D01*
X149745432Y-45067265D01*
X149745431Y-45067267D01*
X149649261Y-45273502D01*
X149649258Y-45273511D01*
X149590366Y-45493302D01*
X149590364Y-45493313D01*
X149570532Y-45719998D01*
X149570532Y-45720001D01*
X149590364Y-45946686D01*
X149590366Y-45946697D01*
X149649258Y-46166488D01*
X149649261Y-46166497D01*
X149745431Y-46372732D01*
X149745432Y-46372734D01*
X149875954Y-46559141D01*
X150036858Y-46720045D01*
X150036861Y-46720047D01*
X150223266Y-46850568D01*
X150429504Y-46946739D01*
X150649308Y-47005635D01*
X150811230Y-47019801D01*
X150875998Y-47025468D01*
X150876000Y-47025468D01*
X150876002Y-47025468D01*
X150932807Y-47020498D01*
X151102692Y-47005635D01*
X151322496Y-46946739D01*
X151528734Y-46850568D01*
X151715139Y-46720047D01*
X151876047Y-46559139D01*
X152006568Y-46372734D01*
X152102739Y-46166496D01*
X152161635Y-45946692D01*
X152181468Y-45720000D01*
X152161635Y-45493308D01*
X152102739Y-45273504D01*
X152006568Y-45067266D01*
X151876047Y-44880861D01*
X151876045Y-44880858D01*
X151715141Y-44719954D01*
X151528734Y-44589432D01*
X151528732Y-44589431D01*
X151317589Y-44490973D01*
X151318673Y-44488646D01*
X151271068Y-44453593D01*
X151246134Y-44388324D01*
X151260445Y-44319936D01*
X151309458Y-44270141D01*
X151369744Y-44254500D01*
X153765502Y-44254500D01*
X153832541Y-44274185D01*
X153878296Y-44326989D01*
X153889502Y-44378500D01*
X153889502Y-53819891D01*
X153923610Y-53947187D01*
X153956556Y-54004250D01*
X153989502Y-54061314D01*
X154082688Y-54154500D01*
X154196816Y-54220392D01*
X154324110Y-54254500D01*
X154455894Y-54254500D01*
X156351983Y-54254500D01*
X156419022Y-54274185D01*
X156464777Y-54326989D01*
X156474721Y-54396147D01*
X156445696Y-54459703D01*
X156423099Y-54478919D01*
X156423323Y-54479202D01*
X156417655Y-54483683D01*
X156293684Y-54607654D01*
X156201643Y-54756875D01*
X156201641Y-54756880D01*
X156146494Y-54923302D01*
X156146493Y-54923309D01*
X156136000Y-55026013D01*
X156136000Y-55376000D01*
X157269012Y-55376000D01*
X157251795Y-55385940D01*
X157195940Y-55441795D01*
X157156444Y-55510204D01*
X157136000Y-55586504D01*
X157136000Y-55665496D01*
X157156444Y-55741796D01*
X157195940Y-55810205D01*
X157251795Y-55866060D01*
X157320204Y-55905556D01*
X157396504Y-55926000D01*
X157475496Y-55926000D01*
X157551796Y-55905556D01*
X157620205Y-55866060D01*
X157676060Y-55810205D01*
X157715556Y-55741796D01*
X157736000Y-55665496D01*
X157736000Y-55586504D01*
X157715556Y-55510204D01*
X157676060Y-55441795D01*
X157620205Y-55385940D01*
X157602988Y-55376000D01*
X158735999Y-55376000D01*
X158735999Y-55026028D01*
X158735998Y-55026013D01*
X158725505Y-54923302D01*
X158670358Y-54756880D01*
X158670356Y-54756875D01*
X158578315Y-54607654D01*
X158454344Y-54483683D01*
X158448677Y-54479202D01*
X158449562Y-54478081D01*
X158408197Y-54432094D01*
X158396973Y-54363132D01*
X158424815Y-54299049D01*
X158482882Y-54260191D01*
X158520017Y-54254500D01*
X160340619Y-54254500D01*
X160407658Y-54274185D01*
X160453413Y-54326989D01*
X160463357Y-54396147D01*
X160434332Y-54459703D01*
X160393024Y-54490881D01*
X160389823Y-54492373D01*
X160383267Y-54495431D01*
X160383265Y-54495432D01*
X160196858Y-54625954D01*
X160035954Y-54786858D01*
X159905432Y-54973265D01*
X159905431Y-54973267D01*
X159809261Y-55179502D01*
X159809258Y-55179511D01*
X159750366Y-55399302D01*
X159750364Y-55399313D01*
X159730532Y-55625998D01*
X159730532Y-55626001D01*
X159750364Y-55852686D01*
X159750366Y-55852697D01*
X159809258Y-56072488D01*
X159809261Y-56072497D01*
X159905431Y-56278732D01*
X159905432Y-56278734D01*
X160035954Y-56465141D01*
X160196858Y-56626045D01*
X160196861Y-56626047D01*
X160383266Y-56756568D01*
X160589504Y-56852739D01*
X160589509Y-56852740D01*
X160589511Y-56852741D01*
X160619633Y-56860812D01*
X160809308Y-56911635D01*
X160971230Y-56925801D01*
X161035998Y-56931468D01*
X161036000Y-56931468D01*
X161036002Y-56931468D01*
X161098522Y-56925998D01*
X161262692Y-56911635D01*
X161482496Y-56852739D01*
X161688734Y-56756568D01*
X161875139Y-56626047D01*
X162036047Y-56465139D01*
X162166568Y-56278734D01*
X162262739Y-56072496D01*
X162321635Y-55852692D01*
X162341468Y-55626000D01*
X162321635Y-55399308D01*
X162262739Y-55179504D01*
X162166568Y-54973266D01*
X162036047Y-54786861D01*
X162036045Y-54786858D01*
X161875141Y-54625954D01*
X161688734Y-54495432D01*
X161688732Y-54495431D01*
X161686726Y-54494496D01*
X161678975Y-54490881D01*
X161626537Y-54444709D01*
X161607385Y-54377516D01*
X161627601Y-54310635D01*
X161680766Y-54265300D01*
X161731381Y-54254500D01*
X167549030Y-54254500D01*
X167616069Y-54274185D01*
X167661824Y-54326989D01*
X167671768Y-54396147D01*
X167642743Y-54459703D01*
X167620716Y-54478434D01*
X167621011Y-54478807D01*
X167615343Y-54483288D01*
X167491289Y-54607342D01*
X167399187Y-54756663D01*
X167399185Y-54756668D01*
X167399115Y-54756880D01*
X167344001Y-54923203D01*
X167344001Y-54923204D01*
X167344000Y-54923204D01*
X167333500Y-55025983D01*
X167333500Y-56226001D01*
X167333501Y-56226018D01*
X167344000Y-56328796D01*
X167344001Y-56328799D01*
X167399185Y-56495331D01*
X167399187Y-56495336D01*
X167422253Y-56532732D01*
X167491288Y-56644656D01*
X167615344Y-56768712D01*
X167764666Y-56860814D01*
X167931203Y-56915999D01*
X168033991Y-56926500D01*
X169234008Y-56926499D01*
X169336797Y-56915999D01*
X169503334Y-56860814D01*
X169652656Y-56768712D01*
X169776712Y-56644656D01*
X169868814Y-56495334D01*
X169923999Y-56328797D01*
X169934500Y-56226009D01*
X169934499Y-55025992D01*
X169932933Y-55010666D01*
X169923999Y-54923203D01*
X169923998Y-54923200D01*
X169868814Y-54756666D01*
X169776712Y-54607344D01*
X169652656Y-54483288D01*
X169646989Y-54478807D01*
X169648007Y-54477518D01*
X169607147Y-54432088D01*
X169595927Y-54363125D01*
X169623772Y-54299044D01*
X169681841Y-54260189D01*
X169718970Y-54254500D01*
X171538619Y-54254500D01*
X171605658Y-54274185D01*
X171651413Y-54326989D01*
X171661357Y-54396147D01*
X171632332Y-54459703D01*
X171591024Y-54490881D01*
X171587823Y-54492373D01*
X171581267Y-54495431D01*
X171581265Y-54495432D01*
X171394858Y-54625954D01*
X171233954Y-54786858D01*
X171103432Y-54973265D01*
X171103431Y-54973267D01*
X171007261Y-55179502D01*
X171007258Y-55179511D01*
X170948366Y-55399302D01*
X170948364Y-55399313D01*
X170928532Y-55625998D01*
X170928532Y-55626001D01*
X170948364Y-55852686D01*
X170948366Y-55852697D01*
X171007258Y-56072488D01*
X171007261Y-56072497D01*
X171103431Y-56278732D01*
X171103432Y-56278734D01*
X171233954Y-56465141D01*
X171394858Y-56626045D01*
X171394861Y-56626047D01*
X171581266Y-56756568D01*
X171787504Y-56852739D01*
X171787509Y-56852740D01*
X171787511Y-56852741D01*
X171817633Y-56860812D01*
X172007308Y-56911635D01*
X172169230Y-56925801D01*
X172233998Y-56931468D01*
X172234000Y-56931468D01*
X172234002Y-56931468D01*
X172296522Y-56925998D01*
X172460692Y-56911635D01*
X172680496Y-56852739D01*
X172886734Y-56756568D01*
X173073139Y-56626047D01*
X173234047Y-56465139D01*
X173364568Y-56278734D01*
X173460739Y-56072496D01*
X173519635Y-55852692D01*
X173539468Y-55626000D01*
X173519635Y-55399308D01*
X173460739Y-55179504D01*
X173364568Y-54973266D01*
X173234047Y-54786861D01*
X173234045Y-54786858D01*
X173073141Y-54625954D01*
X172886734Y-54495432D01*
X172886732Y-54495431D01*
X172884726Y-54494496D01*
X172876975Y-54490881D01*
X172824537Y-54444709D01*
X172805385Y-54377516D01*
X172825601Y-54310635D01*
X172878766Y-54265300D01*
X172929381Y-54254500D01*
X176265502Y-54254500D01*
X176332541Y-54274185D01*
X176378296Y-54326989D01*
X176389502Y-54378500D01*
X176389502Y-63688108D01*
X176389502Y-63819892D01*
X176397468Y-63849622D01*
X176423610Y-63947187D01*
X176456556Y-64004250D01*
X176489502Y-64061314D01*
X176582688Y-64154500D01*
X176696816Y-64220392D01*
X176824110Y-64254500D01*
X179047168Y-64254500D01*
X179114207Y-64274185D01*
X179159962Y-64326989D01*
X179169906Y-64396147D01*
X179140881Y-64459703D01*
X179086172Y-64496206D01*
X178918880Y-64551641D01*
X178918875Y-64551643D01*
X178769654Y-64643684D01*
X178645684Y-64767654D01*
X178553643Y-64916875D01*
X178553641Y-64916880D01*
X178498494Y-65083302D01*
X178498493Y-65083309D01*
X178488000Y-65186013D01*
X178488000Y-65536000D01*
X179621012Y-65536000D01*
X179603795Y-65545940D01*
X179547940Y-65601795D01*
X179508444Y-65670204D01*
X179488000Y-65746504D01*
X179488000Y-65825496D01*
X179508444Y-65901796D01*
X179547940Y-65970205D01*
X179603795Y-66026060D01*
X179672204Y-66065556D01*
X179748504Y-66086000D01*
X179827496Y-66086000D01*
X179903796Y-66065556D01*
X179972205Y-66026060D01*
X180028060Y-65970205D01*
X180067556Y-65901796D01*
X180088000Y-65825496D01*
X180088000Y-65746504D01*
X180067556Y-65670204D01*
X180028060Y-65601795D01*
X179972205Y-65545940D01*
X179954988Y-65536000D01*
X181087999Y-65536000D01*
X181087999Y-65186028D01*
X181087998Y-65186013D01*
X181077505Y-65083302D01*
X181022358Y-64916880D01*
X181022356Y-64916875D01*
X180930315Y-64767654D01*
X180806345Y-64643684D01*
X180657124Y-64551643D01*
X180657119Y-64551641D01*
X180489826Y-64496206D01*
X180432381Y-64456433D01*
X180405558Y-64391918D01*
X180417873Y-64323142D01*
X180465416Y-64271942D01*
X180528830Y-64254500D01*
X183138352Y-64254500D01*
X183205391Y-64274185D01*
X183251146Y-64326989D01*
X183261090Y-64396147D01*
X183232065Y-64459703D01*
X183173287Y-64497477D01*
X183163744Y-64499712D01*
X182941511Y-64559258D01*
X182941502Y-64559261D01*
X182735267Y-64655431D01*
X182735265Y-64655432D01*
X182548858Y-64785954D01*
X182387954Y-64946858D01*
X182257432Y-65133265D01*
X182257431Y-65133267D01*
X182161261Y-65339502D01*
X182161258Y-65339511D01*
X182102366Y-65559302D01*
X182102364Y-65559313D01*
X182082532Y-65785998D01*
X182082532Y-65786001D01*
X182102364Y-66012686D01*
X182102366Y-66012697D01*
X182161258Y-66232488D01*
X182161261Y-66232497D01*
X182257431Y-66438732D01*
X182257432Y-66438734D01*
X182387954Y-66625141D01*
X182548858Y-66786045D01*
X182548861Y-66786047D01*
X182735266Y-66916568D01*
X182941504Y-67012739D01*
X182941509Y-67012740D01*
X182941511Y-67012741D01*
X182971633Y-67020812D01*
X183161308Y-67071635D01*
X183323230Y-67085801D01*
X183387998Y-67091468D01*
X183388000Y-67091468D01*
X183388002Y-67091468D01*
X183450522Y-67085998D01*
X183614692Y-67071635D01*
X183834496Y-67012739D01*
X184040734Y-66916568D01*
X184227139Y-66786047D01*
X184388047Y-66625139D01*
X184518568Y-66438734D01*
X184614739Y-66232496D01*
X184673635Y-66012692D01*
X184693468Y-65786000D01*
X184673635Y-65559308D01*
X184614739Y-65339504D01*
X184518568Y-65133266D01*
X184388047Y-64946861D01*
X184388045Y-64946858D01*
X184227141Y-64785954D01*
X184040734Y-64655432D01*
X184040732Y-64655431D01*
X183834497Y-64559261D01*
X183834488Y-64559258D01*
X183609463Y-64498964D01*
X183609852Y-64497511D01*
X183553515Y-64469591D01*
X183517623Y-64409645D01*
X183519838Y-64339810D01*
X183559457Y-64282260D01*
X183623901Y-64255264D01*
X183637648Y-64254500D01*
X191237580Y-64254500D01*
X191304619Y-64274185D01*
X191350374Y-64326989D01*
X191360318Y-64396147D01*
X191331293Y-64459703D01*
X191276584Y-64496206D01*
X191110668Y-64551185D01*
X191110663Y-64551187D01*
X190961342Y-64643289D01*
X190837289Y-64767342D01*
X190745187Y-64916663D01*
X190745185Y-64916668D01*
X190745115Y-64916880D01*
X190690001Y-65083203D01*
X190690001Y-65083204D01*
X190690000Y-65083204D01*
X190679500Y-65185983D01*
X190679500Y-66386001D01*
X190679501Y-66386018D01*
X190690000Y-66488796D01*
X190690001Y-66488799D01*
X190745185Y-66655331D01*
X190745187Y-66655336D01*
X190760964Y-66680914D01*
X190837288Y-66804656D01*
X190961344Y-66928712D01*
X191110666Y-67020814D01*
X191277203Y-67075999D01*
X191379991Y-67086500D01*
X192580008Y-67086499D01*
X192682797Y-67075999D01*
X192849334Y-67020814D01*
X192998656Y-66928712D01*
X193122712Y-66804656D01*
X193214814Y-66655334D01*
X193269999Y-66488797D01*
X193280500Y-66386009D01*
X193280499Y-65185992D01*
X193269999Y-65083203D01*
X193214814Y-64916666D01*
X193122712Y-64767344D01*
X192998656Y-64643288D01*
X192849334Y-64551186D01*
X192683414Y-64496205D01*
X192625970Y-64456433D01*
X192599147Y-64391917D01*
X192611462Y-64323142D01*
X192659005Y-64271942D01*
X192722419Y-64254500D01*
X195330352Y-64254500D01*
X195397391Y-64274185D01*
X195443146Y-64326989D01*
X195453090Y-64396147D01*
X195424065Y-64459703D01*
X195365287Y-64497477D01*
X195355744Y-64499712D01*
X195133511Y-64559258D01*
X195133502Y-64559261D01*
X194927267Y-64655431D01*
X194927265Y-64655432D01*
X194740858Y-64785954D01*
X194579954Y-64946858D01*
X194449432Y-65133265D01*
X194449431Y-65133267D01*
X194353261Y-65339502D01*
X194353258Y-65339511D01*
X194294366Y-65559302D01*
X194294364Y-65559313D01*
X194274532Y-65785998D01*
X194274532Y-65786001D01*
X194294364Y-66012686D01*
X194294366Y-66012697D01*
X194353258Y-66232488D01*
X194353261Y-66232497D01*
X194449431Y-66438732D01*
X194449432Y-66438734D01*
X194579954Y-66625141D01*
X194740858Y-66786045D01*
X194740861Y-66786047D01*
X194927266Y-66916568D01*
X195133504Y-67012739D01*
X195133509Y-67012740D01*
X195133511Y-67012741D01*
X195163633Y-67020812D01*
X195353308Y-67071635D01*
X195515230Y-67085801D01*
X195579998Y-67091468D01*
X195580000Y-67091468D01*
X195580002Y-67091468D01*
X195642522Y-67085998D01*
X195806692Y-67071635D01*
X196026496Y-67012739D01*
X196232734Y-66916568D01*
X196419139Y-66786047D01*
X196580047Y-66625139D01*
X196710568Y-66438734D01*
X196806739Y-66232496D01*
X196865635Y-66012692D01*
X196885468Y-65786000D01*
X196865635Y-65559308D01*
X196806739Y-65339504D01*
X196710568Y-65133266D01*
X196580047Y-64946861D01*
X196580045Y-64946858D01*
X196419141Y-64785954D01*
X196232734Y-64655432D01*
X196232732Y-64655431D01*
X196026497Y-64559261D01*
X196026488Y-64559258D01*
X195801463Y-64498964D01*
X195801852Y-64497511D01*
X195745515Y-64469591D01*
X195709623Y-64409645D01*
X195711838Y-64339810D01*
X195751457Y-64282260D01*
X195815901Y-64255264D01*
X195829648Y-64254500D01*
X198811111Y-64254500D01*
X198878150Y-64274185D01*
X198923905Y-64326989D01*
X198934755Y-64369114D01*
X198964974Y-64767342D01*
X199057993Y-65993159D01*
X199058129Y-65995180D01*
X199188895Y-68193701D01*
X199188999Y-68195723D01*
X199283850Y-70396149D01*
X199283921Y-70398172D01*
X199342830Y-72599916D01*
X199342867Y-72601941D01*
X199365815Y-74804228D01*
X199365820Y-74806253D01*
X199352801Y-77008743D01*
X199352772Y-77010768D01*
X199303795Y-79212631D01*
X199303734Y-79214655D01*
X199218803Y-81415551D01*
X199218708Y-81417573D01*
X199097856Y-83616661D01*
X199097729Y-83618682D01*
X198940976Y-85815630D01*
X198940815Y-85817649D01*
X198748212Y-88011693D01*
X198748018Y-88013708D01*
X198519622Y-90204250D01*
X198519396Y-90206262D01*
X198255253Y-92392840D01*
X198254994Y-92394849D01*
X197955177Y-94576847D01*
X197954885Y-94578850D01*
X197619482Y-96755644D01*
X197619157Y-96757643D01*
X197248261Y-98928629D01*
X197247904Y-98930622D01*
X196841595Y-101095322D01*
X196841205Y-101097309D01*
X196399612Y-103255038D01*
X196399190Y-103257018D01*
X195922412Y-105407294D01*
X195921957Y-105409268D01*
X195410148Y-107551396D01*
X195409662Y-107553361D01*
X194862921Y-109686934D01*
X194862402Y-109688892D01*
X194280913Y-111813182D01*
X194280363Y-111815130D01*
X193664235Y-113929742D01*
X193663652Y-113931681D01*
X193013112Y-116035835D01*
X193012498Y-116037765D01*
X192327577Y-118131345D01*
X192327266Y-118132283D01*
X192325797Y-118136655D01*
X192325779Y-118136709D01*
X192282067Y-118266607D01*
X192282063Y-118266619D01*
X192213661Y-118542246D01*
X192167805Y-118822522D01*
X192144802Y-119105601D01*
X192144801Y-119105612D01*
X192144839Y-119247599D01*
X192144839Y-152129500D01*
X192125154Y-152196539D01*
X192072350Y-152242294D01*
X192020839Y-152253500D01*
X122250613Y-152253500D01*
X122183574Y-152233815D01*
X122149779Y-152201670D01*
X117136664Y-145197448D01*
X180713500Y-145197448D01*
X180713500Y-145378551D01*
X180741829Y-145557410D01*
X180797787Y-145729636D01*
X180797788Y-145729639D01*
X180880006Y-145890997D01*
X180986441Y-146037494D01*
X180986445Y-146037499D01*
X181114500Y-146165554D01*
X181114505Y-146165558D01*
X181242287Y-146258396D01*
X181261006Y-146271996D01*
X181312299Y-146298131D01*
X181422360Y-146354211D01*
X181422363Y-146354212D01*
X181508476Y-146382191D01*
X181594591Y-146410171D01*
X181677429Y-146423291D01*
X181773449Y-146438500D01*
X181773454Y-146438500D01*
X181954551Y-146438500D01*
X182041259Y-146424765D01*
X182133409Y-146410171D01*
X182305639Y-146354211D01*
X182466994Y-146271996D01*
X182613501Y-146165553D01*
X182741553Y-146037501D01*
X182847996Y-145890994D01*
X182930211Y-145729639D01*
X182986171Y-145557409D01*
X183000765Y-145465259D01*
X183014500Y-145378551D01*
X183014500Y-145197448D01*
X183012454Y-145184530D01*
X185313500Y-145184530D01*
X185313500Y-145391469D01*
X185353868Y-145594412D01*
X185353870Y-145594420D01*
X185433058Y-145785596D01*
X185548024Y-145957657D01*
X185694342Y-146103975D01*
X185694345Y-146103977D01*
X185866402Y-146218941D01*
X186057580Y-146298130D01*
X186260530Y-146338499D01*
X186260534Y-146338500D01*
X186260535Y-146338500D01*
X186467466Y-146338500D01*
X186467467Y-146338499D01*
X186670420Y-146298130D01*
X186861598Y-146218941D01*
X187033655Y-146103977D01*
X187179977Y-145957655D01*
X187294941Y-145785598D01*
X187374130Y-145594420D01*
X187414500Y-145391465D01*
X187414500Y-145184535D01*
X187374130Y-144981580D01*
X187294941Y-144790402D01*
X187179977Y-144618345D01*
X187179975Y-144618342D01*
X187033657Y-144472024D01*
X186941490Y-144410441D01*
X186861598Y-144357059D01*
X186670420Y-144277870D01*
X186670412Y-144277868D01*
X186467469Y-144237500D01*
X186467465Y-144237500D01*
X186260535Y-144237500D01*
X186260530Y-144237500D01*
X186057587Y-144277868D01*
X186057579Y-144277870D01*
X185866403Y-144357058D01*
X185694342Y-144472024D01*
X185548024Y-144618342D01*
X185433058Y-144790403D01*
X185353870Y-144981579D01*
X185353868Y-144981587D01*
X185313500Y-145184530D01*
X183012454Y-145184530D01*
X182998019Y-145093397D01*
X182986171Y-145018591D01*
X182930211Y-144846361D01*
X182930211Y-144846360D01*
X182901698Y-144790402D01*
X182847996Y-144685006D01*
X182799562Y-144618342D01*
X182741558Y-144538505D01*
X182741554Y-144538500D01*
X182613499Y-144410445D01*
X182613494Y-144410441D01*
X182466997Y-144304006D01*
X182466996Y-144304005D01*
X182466994Y-144304004D01*
X182415300Y-144277664D01*
X182305639Y-144221788D01*
X182305636Y-144221787D01*
X182133410Y-144165829D01*
X181954551Y-144137500D01*
X181954546Y-144137500D01*
X181773454Y-144137500D01*
X181773449Y-144137500D01*
X181594589Y-144165829D01*
X181422363Y-144221787D01*
X181422360Y-144221788D01*
X181261002Y-144304006D01*
X181114505Y-144410441D01*
X181114500Y-144410445D01*
X180986445Y-144538500D01*
X180986441Y-144538505D01*
X180880006Y-144685002D01*
X180797788Y-144846360D01*
X180797787Y-144846363D01*
X180741829Y-145018589D01*
X180713500Y-145197448D01*
X117136664Y-145197448D01*
X113196291Y-139692039D01*
X113196290Y-139692037D01*
X113159560Y-139640717D01*
X113156694Y-139636535D01*
X113065333Y-139497178D01*
X113048782Y-139471932D01*
X113043585Y-139463251D01*
X112950676Y-139292562D01*
X112946211Y-139283494D01*
X112880959Y-139136056D01*
X112873811Y-139114958D01*
X112871031Y-139103431D01*
X112857869Y-139079251D01*
X112851435Y-139065481D01*
X112845488Y-139050405D01*
X112841335Y-139039877D01*
X112828003Y-139021879D01*
X112818732Y-139007353D01*
X112642721Y-138684000D01*
X149910696Y-138684000D01*
X149929898Y-139050404D01*
X149987295Y-139412794D01*
X150002005Y-139467694D01*
X150082260Y-139767206D01*
X150213746Y-140109739D01*
X150380320Y-140436656D01*
X150580147Y-140744364D01*
X150580149Y-140744366D01*
X150811051Y-141029506D01*
X151070494Y-141288949D01*
X151070498Y-141288952D01*
X151355635Y-141519852D01*
X151663343Y-141719679D01*
X151663348Y-141719682D01*
X151990264Y-141886255D01*
X152332801Y-142017742D01*
X152687206Y-142112705D01*
X153049596Y-142170102D01*
X153395734Y-142188241D01*
X153415999Y-142189304D01*
X153416000Y-142189304D01*
X153416001Y-142189304D01*
X153435203Y-142188297D01*
X153782404Y-142170102D01*
X154144794Y-142112705D01*
X154499199Y-142017742D01*
X154841736Y-141886255D01*
X155168652Y-141719682D01*
X155476366Y-141519851D01*
X155761506Y-141288949D01*
X156020949Y-141029506D01*
X156251851Y-140744366D01*
X156451682Y-140436652D01*
X156618255Y-140109736D01*
X156749742Y-139767199D01*
X156844705Y-139412794D01*
X156902102Y-139050404D01*
X156921304Y-138684000D01*
X156902102Y-138317596D01*
X156844705Y-137955206D01*
X156749742Y-137600801D01*
X156618255Y-137258264D01*
X156451682Y-136931348D01*
X156251851Y-136623634D01*
X156020949Y-136338494D01*
X155761506Y-136079051D01*
X155476366Y-135848149D01*
X155476364Y-135848147D01*
X155168656Y-135648320D01*
X154841739Y-135481746D01*
X154499206Y-135350260D01*
X154499199Y-135350258D01*
X154144794Y-135255295D01*
X154144790Y-135255294D01*
X154144789Y-135255294D01*
X153782405Y-135197898D01*
X153416001Y-135178696D01*
X153415999Y-135178696D01*
X153049594Y-135197898D01*
X152687211Y-135255294D01*
X152687209Y-135255294D01*
X152332793Y-135350260D01*
X151990260Y-135481746D01*
X151663343Y-135648320D01*
X151355635Y-135848147D01*
X151070498Y-136079047D01*
X151070490Y-136079054D01*
X150811054Y-136338490D01*
X150811047Y-136338498D01*
X150580147Y-136623635D01*
X150380320Y-136931343D01*
X150213746Y-137258260D01*
X150082260Y-137600793D01*
X149987294Y-137955209D01*
X149987294Y-137955211D01*
X149946035Y-138215714D01*
X149929898Y-138317596D01*
X149910696Y-138684000D01*
X112642721Y-138684000D01*
X101194350Y-117651943D01*
X101190198Y-117643578D01*
X101121774Y-117491614D01*
X101115409Y-117474052D01*
X101094304Y-117398468D01*
X101071849Y-117318048D01*
X101068197Y-117299736D01*
X101048568Y-117138969D01*
X101047707Y-117120309D01*
X101052451Y-116958410D01*
X101054402Y-116939848D01*
X101084302Y-116775616D01*
X101086312Y-116766534D01*
X101101726Y-116707523D01*
X101101725Y-116707519D01*
X101104437Y-116697139D01*
X101104442Y-116697106D01*
X101484789Y-115240799D01*
X102251467Y-112171502D01*
X102985319Y-109094192D01*
X103686259Y-106009219D01*
X104254617Y-103377999D01*
X115874696Y-103377999D01*
X115874696Y-103378000D01*
X115893898Y-103744405D01*
X115939227Y-104030599D01*
X115951295Y-104106794D01*
X116035318Y-104420372D01*
X116046260Y-104461206D01*
X116177746Y-104803739D01*
X116344320Y-105130656D01*
X116544147Y-105438364D01*
X116747386Y-105689343D01*
X116775051Y-105723506D01*
X117034494Y-105982949D01*
X117075630Y-106016260D01*
X117319635Y-106213852D01*
X117542826Y-106358793D01*
X117627348Y-106413682D01*
X117954264Y-106580255D01*
X118296801Y-106711742D01*
X118651206Y-106806705D01*
X119013596Y-106864102D01*
X119359734Y-106882241D01*
X119379999Y-106883304D01*
X119380000Y-106883304D01*
X119380001Y-106883304D01*
X119399203Y-106882297D01*
X119746404Y-106864102D01*
X120108794Y-106806705D01*
X120463199Y-106711742D01*
X120805736Y-106580255D01*
X121132652Y-106413682D01*
X121440366Y-106213851D01*
X121725506Y-105982949D01*
X121984949Y-105723506D01*
X122215851Y-105438366D01*
X122415682Y-105130652D01*
X122582255Y-104803736D01*
X122713742Y-104461199D01*
X122808705Y-104106794D01*
X122866102Y-103744404D01*
X122885304Y-103378000D01*
X122866102Y-103011596D01*
X122808705Y-102649206D01*
X122731748Y-102361999D01*
X129962341Y-102361999D01*
X129962341Y-102362000D01*
X129982936Y-102597403D01*
X129982938Y-102597413D01*
X130044094Y-102825655D01*
X130044096Y-102825659D01*
X130044097Y-102825663D01*
X130113096Y-102973631D01*
X130143965Y-103039830D01*
X130143967Y-103039834D01*
X130279501Y-103233395D01*
X130279506Y-103233402D01*
X130446597Y-103400493D01*
X130446603Y-103400498D01*
X130632158Y-103530425D01*
X130675783Y-103585002D01*
X130682977Y-103654500D01*
X130651454Y-103716855D01*
X130632158Y-103733575D01*
X130446597Y-103863505D01*
X130279505Y-104030597D01*
X130143965Y-104224169D01*
X130143964Y-104224171D01*
X130044098Y-104438335D01*
X130044094Y-104438344D01*
X129982938Y-104666586D01*
X129982936Y-104666596D01*
X129962341Y-104901999D01*
X129962341Y-104902000D01*
X129982936Y-105137403D01*
X129982938Y-105137413D01*
X130044094Y-105365655D01*
X130044096Y-105365659D01*
X130044097Y-105365663D01*
X130077998Y-105438364D01*
X130143965Y-105579830D01*
X130143967Y-105579834D01*
X130220647Y-105689343D01*
X130279505Y-105773401D01*
X130446599Y-105940495D01*
X130507224Y-105982945D01*
X130640165Y-106076032D01*
X130640167Y-106076033D01*
X130640170Y-106076035D01*
X130854337Y-106175903D01*
X131082592Y-106237063D01*
X131270918Y-106253539D01*
X131317999Y-106257659D01*
X131318000Y-106257659D01*
X131318001Y-106257659D01*
X131357234Y-106254226D01*
X131553408Y-106237063D01*
X131781663Y-106175903D01*
X131995830Y-106076035D01*
X132189401Y-105940495D01*
X132356495Y-105773401D01*
X132492035Y-105579830D01*
X132591903Y-105365663D01*
X132653063Y-105137408D01*
X132673659Y-104902000D01*
X132668829Y-104846794D01*
X135073016Y-104846794D01*
X135073016Y-127978577D01*
X135107124Y-128105873D01*
X135140070Y-128162936D01*
X135173016Y-128220000D01*
X135266202Y-128313186D01*
X135380330Y-128379078D01*
X135507624Y-128413186D01*
X135507626Y-128413186D01*
X150139406Y-128413186D01*
X150139408Y-128413186D01*
X150266702Y-128379078D01*
X150380830Y-128313186D01*
X150474016Y-128220000D01*
X150539908Y-128105872D01*
X150574016Y-127978578D01*
X150574016Y-114683431D01*
X157976772Y-114683431D01*
X157976772Y-137815214D01*
X158010880Y-137942510D01*
X158043826Y-137999573D01*
X158076772Y-138056637D01*
X158169958Y-138149823D01*
X158284086Y-138215715D01*
X158411380Y-138249823D01*
X158411382Y-138249823D01*
X173043162Y-138249823D01*
X173043164Y-138249823D01*
X173170458Y-138215715D01*
X173284586Y-138149823D01*
X173377772Y-138056637D01*
X173443664Y-137942509D01*
X173477772Y-137815215D01*
X173477772Y-114683431D01*
X173443664Y-114556137D01*
X173377772Y-114442009D01*
X173284586Y-114348823D01*
X173206786Y-114303905D01*
X173170459Y-114282931D01*
X173106811Y-114265877D01*
X173043164Y-114248823D01*
X173043163Y-114248823D01*
X169851772Y-114248823D01*
X169784733Y-114229138D01*
X169738978Y-114176334D01*
X169727772Y-114124823D01*
X169727772Y-108183433D01*
X169727772Y-108183431D01*
X169693664Y-108056137D01*
X169627772Y-107942009D01*
X169534586Y-107848823D01*
X169464580Y-107808405D01*
X169420459Y-107782931D01*
X169356811Y-107765877D01*
X169293164Y-107748823D01*
X162293164Y-107748823D01*
X162161380Y-107748823D01*
X162034084Y-107782931D01*
X161919958Y-107848823D01*
X161919955Y-107848825D01*
X161826774Y-107942006D01*
X161826772Y-107942009D01*
X161760880Y-108056135D01*
X161726772Y-108183431D01*
X161726772Y-114124823D01*
X161707087Y-114191862D01*
X161654283Y-114237617D01*
X161602772Y-114248823D01*
X158411380Y-114248823D01*
X158284084Y-114282931D01*
X158169958Y-114348823D01*
X158169955Y-114348825D01*
X158076774Y-114442006D01*
X158076772Y-114442009D01*
X158010880Y-114556135D01*
X157976772Y-114683431D01*
X150574016Y-114683431D01*
X150574016Y-110489999D01*
X153457341Y-110489999D01*
X153457341Y-110490000D01*
X153477936Y-110725403D01*
X153477938Y-110725413D01*
X153539094Y-110953655D01*
X153539096Y-110953659D01*
X153539097Y-110953663D01*
X153568963Y-111017710D01*
X153638965Y-111167830D01*
X153638967Y-111167834D01*
X153774501Y-111361395D01*
X153774506Y-111361402D01*
X153941597Y-111528493D01*
X153941603Y-111528498D01*
X154127158Y-111658425D01*
X154170783Y-111713002D01*
X154177977Y-111782500D01*
X154146454Y-111844855D01*
X154127158Y-111861575D01*
X153941597Y-111991505D01*
X153774505Y-112158597D01*
X153638965Y-112352169D01*
X153638964Y-112352171D01*
X153539098Y-112566335D01*
X153539094Y-112566344D01*
X153477938Y-112794586D01*
X153477936Y-112794596D01*
X153457341Y-113029999D01*
X153457341Y-113030000D01*
X153477936Y-113265403D01*
X153477938Y-113265413D01*
X153539094Y-113493655D01*
X153539096Y-113493659D01*
X153539097Y-113493663D01*
X153638965Y-113707830D01*
X153638967Y-113707834D01*
X153747281Y-113862521D01*
X153774505Y-113901401D01*
X153941599Y-114068495D01*
X154022044Y-114124823D01*
X154135165Y-114204032D01*
X154135167Y-114204033D01*
X154135170Y-114204035D01*
X154349337Y-114303903D01*
X154577592Y-114365063D01*
X154765918Y-114381539D01*
X154812999Y-114385659D01*
X154813000Y-114385659D01*
X154813001Y-114385659D01*
X154852234Y-114382226D01*
X155048408Y-114365063D01*
X155276663Y-114303903D01*
X155490830Y-114204035D01*
X155684401Y-114068495D01*
X155851495Y-113901401D01*
X155987035Y-113707830D01*
X156086903Y-113493663D01*
X156148063Y-113265408D01*
X156168659Y-113030000D01*
X156148063Y-112794592D01*
X156086903Y-112566337D01*
X155987035Y-112352171D01*
X155851495Y-112158599D01*
X155851494Y-112158597D01*
X155684402Y-111991506D01*
X155684396Y-111991501D01*
X155498842Y-111861575D01*
X155455217Y-111806998D01*
X155448023Y-111737500D01*
X155479546Y-111675145D01*
X155498842Y-111658425D01*
X155521026Y-111642891D01*
X155684401Y-111528495D01*
X155851495Y-111361401D01*
X155987035Y-111167830D01*
X156086903Y-110953663D01*
X156148063Y-110725408D01*
X156168659Y-110490000D01*
X156148063Y-110254592D01*
X156086903Y-110026337D01*
X155987035Y-109812171D01*
X155969764Y-109787506D01*
X155851496Y-109618600D01*
X155851495Y-109618599D01*
X155729567Y-109496671D01*
X155696084Y-109435351D01*
X155701068Y-109365659D01*
X155742939Y-109309725D01*
X155773915Y-109292810D01*
X155905331Y-109243796D01*
X156020546Y-109157546D01*
X156106796Y-109042331D01*
X156157091Y-108907483D01*
X156163500Y-108847873D01*
X156163499Y-107441999D01*
X180898696Y-107441999D01*
X180898696Y-107442000D01*
X180917898Y-107808405D01*
X180975294Y-108170788D01*
X180975294Y-108170790D01*
X181070260Y-108525206D01*
X181201746Y-108867739D01*
X181368320Y-109194656D01*
X181568147Y-109502364D01*
X181717609Y-109686934D01*
X181799051Y-109787506D01*
X182058494Y-110046949D01*
X182058498Y-110046952D01*
X182343635Y-110277852D01*
X182532724Y-110400647D01*
X182651348Y-110477682D01*
X182978264Y-110644255D01*
X183320801Y-110775742D01*
X183675206Y-110870705D01*
X184037596Y-110928102D01*
X184383734Y-110946241D01*
X184403999Y-110947304D01*
X184404000Y-110947304D01*
X184404001Y-110947304D01*
X184423203Y-110946297D01*
X184770404Y-110928102D01*
X185132794Y-110870705D01*
X185487199Y-110775742D01*
X185829736Y-110644255D01*
X186156652Y-110477682D01*
X186464366Y-110277851D01*
X186749506Y-110046949D01*
X187008949Y-109787506D01*
X187239851Y-109502366D01*
X187439682Y-109194652D01*
X187606255Y-108867736D01*
X187737742Y-108525199D01*
X187832705Y-108170794D01*
X187890102Y-107808404D01*
X187909304Y-107442000D01*
X187890102Y-107075596D01*
X187832705Y-106713206D01*
X187737742Y-106358801D01*
X187606255Y-106016264D01*
X187439682Y-105689348D01*
X187368563Y-105579834D01*
X187239852Y-105381635D01*
X187108962Y-105220000D01*
X187008949Y-105096494D01*
X186749506Y-104837051D01*
X186539007Y-104666592D01*
X186464364Y-104606147D01*
X186156656Y-104406320D01*
X185829739Y-104239746D01*
X185487206Y-104108260D01*
X185481720Y-104106790D01*
X185132794Y-104013295D01*
X185132790Y-104013294D01*
X185132789Y-104013294D01*
X184770405Y-103955898D01*
X184404001Y-103936696D01*
X184403999Y-103936696D01*
X184037594Y-103955898D01*
X183675211Y-104013294D01*
X183675209Y-104013294D01*
X183320793Y-104108260D01*
X182978260Y-104239746D01*
X182651343Y-104406320D01*
X182343635Y-104606147D01*
X182058498Y-104837047D01*
X182058490Y-104837054D01*
X181799054Y-105096490D01*
X181799047Y-105096498D01*
X181568147Y-105381635D01*
X181368320Y-105689343D01*
X181201746Y-106016260D01*
X181070260Y-106358793D01*
X180975294Y-106713209D01*
X180975294Y-106713211D01*
X180917898Y-107075594D01*
X180898696Y-107441999D01*
X156163499Y-107441999D01*
X156163499Y-107052128D01*
X156157091Y-106992517D01*
X156116357Y-106883304D01*
X156106797Y-106857671D01*
X156106793Y-106857664D01*
X156020547Y-106742455D01*
X156020544Y-106742452D01*
X155905335Y-106656206D01*
X155905328Y-106656202D01*
X155770482Y-106605908D01*
X155770483Y-106605908D01*
X155710883Y-106599501D01*
X155710881Y-106599500D01*
X155710873Y-106599500D01*
X155710864Y-106599500D01*
X153915129Y-106599500D01*
X153915123Y-106599501D01*
X153855516Y-106605908D01*
X153720671Y-106656202D01*
X153720664Y-106656206D01*
X153605455Y-106742452D01*
X153605452Y-106742455D01*
X153519206Y-106857664D01*
X153519202Y-106857671D01*
X153468908Y-106992517D01*
X153462501Y-107052116D01*
X153462501Y-107052123D01*
X153462500Y-107052135D01*
X153462500Y-108847870D01*
X153462501Y-108847876D01*
X153468908Y-108907483D01*
X153519202Y-109042328D01*
X153519206Y-109042335D01*
X153605452Y-109157544D01*
X153605455Y-109157547D01*
X153720664Y-109243793D01*
X153720671Y-109243797D01*
X153852081Y-109292810D01*
X153908015Y-109334681D01*
X153932432Y-109400145D01*
X153917580Y-109468418D01*
X153896430Y-109496673D01*
X153774503Y-109618600D01*
X153638965Y-109812169D01*
X153638964Y-109812171D01*
X153539098Y-110026335D01*
X153539094Y-110026344D01*
X153477938Y-110254586D01*
X153477936Y-110254596D01*
X153457341Y-110489999D01*
X150574016Y-110489999D01*
X150574016Y-104846794D01*
X150539908Y-104719500D01*
X150539905Y-104719496D01*
X150539308Y-104717265D01*
X150540971Y-104647415D01*
X150580133Y-104589552D01*
X150644362Y-104562048D01*
X150645200Y-104561951D01*
X150801249Y-104544369D01*
X150801252Y-104544368D01*
X150801255Y-104544368D01*
X150971522Y-104484789D01*
X151124262Y-104388816D01*
X151251816Y-104261262D01*
X151347789Y-104108522D01*
X151407368Y-103938255D01*
X151407544Y-103936696D01*
X151427565Y-103759003D01*
X151427565Y-103758996D01*
X151407369Y-103579750D01*
X151407368Y-103579745D01*
X151347788Y-103409476D01*
X151308582Y-103347080D01*
X151251816Y-103256738D01*
X151124262Y-103129184D01*
X150971523Y-103033211D01*
X150801254Y-102973631D01*
X150801249Y-102973630D01*
X150622004Y-102953435D01*
X150621996Y-102953435D01*
X150442750Y-102973630D01*
X150442745Y-102973631D01*
X150272476Y-103033211D01*
X150119737Y-103129184D01*
X149992184Y-103256737D01*
X149896211Y-103409476D01*
X149836631Y-103579745D01*
X149836630Y-103579750D01*
X149816435Y-103758996D01*
X149816435Y-103759003D01*
X149836630Y-103938249D01*
X149836631Y-103938254D01*
X149896211Y-104108524D01*
X149967648Y-104222213D01*
X149986649Y-104289450D01*
X149966282Y-104356285D01*
X149913014Y-104401500D01*
X149862655Y-104412186D01*
X146948016Y-104412186D01*
X146880977Y-104392501D01*
X146835222Y-104339697D01*
X146824016Y-104288186D01*
X146824016Y-102897530D01*
X187018500Y-102897530D01*
X187018500Y-103104469D01*
X187048844Y-103257018D01*
X187058870Y-103307420D01*
X187138059Y-103498598D01*
X187170497Y-103547145D01*
X187253024Y-103670657D01*
X187399342Y-103816975D01*
X187399345Y-103816977D01*
X187571402Y-103931941D01*
X187762580Y-104011130D01*
X187965530Y-104051499D01*
X187965534Y-104051500D01*
X187965535Y-104051500D01*
X189172466Y-104051500D01*
X189172467Y-104051499D01*
X189375420Y-104011130D01*
X189566598Y-103931941D01*
X189738655Y-103816977D01*
X189884977Y-103670655D01*
X189999941Y-103498598D01*
X190079130Y-103307420D01*
X190119500Y-103104465D01*
X190119500Y-102897535D01*
X190119499Y-102897530D01*
X192128500Y-102897530D01*
X192128500Y-103104469D01*
X192158844Y-103257018D01*
X192168870Y-103307420D01*
X192248059Y-103498598D01*
X192280497Y-103547145D01*
X192363024Y-103670657D01*
X192509342Y-103816975D01*
X192509345Y-103816977D01*
X192681402Y-103931941D01*
X192872580Y-104011130D01*
X193075530Y-104051499D01*
X193075534Y-104051500D01*
X193075535Y-104051500D01*
X194782466Y-104051500D01*
X194782467Y-104051499D01*
X194985420Y-104011130D01*
X195176598Y-103931941D01*
X195348655Y-103816977D01*
X195494977Y-103670655D01*
X195609941Y-103498598D01*
X195689130Y-103307420D01*
X195729500Y-103104465D01*
X195729500Y-102897535D01*
X195689130Y-102694580D01*
X195609941Y-102503402D01*
X195494977Y-102331345D01*
X195494975Y-102331342D01*
X195348657Y-102185024D01*
X195180718Y-102072812D01*
X195176598Y-102070059D01*
X195163759Y-102064741D01*
X194985420Y-101990870D01*
X194985412Y-101990868D01*
X194782469Y-101950500D01*
X194782465Y-101950500D01*
X193075535Y-101950500D01*
X193075530Y-101950500D01*
X192872587Y-101990868D01*
X192872579Y-101990870D01*
X192681403Y-102070058D01*
X192509342Y-102185024D01*
X192363024Y-102331342D01*
X192248058Y-102503403D01*
X192168870Y-102694579D01*
X192168868Y-102694587D01*
X192128500Y-102897530D01*
X190119499Y-102897530D01*
X190079130Y-102694580D01*
X189999941Y-102503402D01*
X189884977Y-102331345D01*
X189884975Y-102331342D01*
X189738657Y-102185024D01*
X189570718Y-102072812D01*
X189566598Y-102070059D01*
X189553759Y-102064741D01*
X189375420Y-101990870D01*
X189375412Y-101990868D01*
X189172469Y-101950500D01*
X189172465Y-101950500D01*
X187965535Y-101950500D01*
X187965530Y-101950500D01*
X187762587Y-101990868D01*
X187762579Y-101990870D01*
X187571403Y-102070058D01*
X187399342Y-102185024D01*
X187253024Y-102331342D01*
X187138058Y-102503403D01*
X187058870Y-102694579D01*
X187058868Y-102694587D01*
X187018500Y-102897530D01*
X146824016Y-102897530D01*
X146824016Y-101837879D01*
X146843701Y-101770840D01*
X146896505Y-101725085D01*
X146965663Y-101715141D01*
X147029219Y-101744166D01*
X147053555Y-101772783D01*
X147093808Y-101838045D01*
X147105288Y-101856656D01*
X147229344Y-101980712D01*
X147378666Y-102072814D01*
X147545203Y-102127999D01*
X147647991Y-102138500D01*
X148848008Y-102138499D01*
X148950797Y-102127999D01*
X149117334Y-102072814D01*
X149266656Y-101980712D01*
X149390712Y-101856656D01*
X149482814Y-101707334D01*
X149537999Y-101540797D01*
X149548500Y-101438009D01*
X149548499Y-100837998D01*
X150542532Y-100837998D01*
X150542532Y-100838001D01*
X150562364Y-101064686D01*
X150562366Y-101064697D01*
X150621258Y-101284488D01*
X150621261Y-101284497D01*
X150717431Y-101490732D01*
X150717432Y-101490734D01*
X150847954Y-101677141D01*
X151008858Y-101838045D01*
X151008861Y-101838047D01*
X151195266Y-101968568D01*
X151401504Y-102064739D01*
X151401509Y-102064740D01*
X151401511Y-102064741D01*
X151431633Y-102072812D01*
X151621308Y-102123635D01*
X151783230Y-102137801D01*
X151847998Y-102143468D01*
X151848000Y-102143468D01*
X151848002Y-102143468D01*
X151904807Y-102138498D01*
X152074692Y-102123635D01*
X152294496Y-102064739D01*
X152500734Y-101968568D01*
X152687139Y-101838047D01*
X152848047Y-101677139D01*
X152978568Y-101490734D01*
X153074739Y-101284496D01*
X153133635Y-101064692D01*
X153153468Y-100838000D01*
X153153468Y-100837998D01*
X154142532Y-100837998D01*
X154142532Y-100838001D01*
X154162364Y-101064686D01*
X154162366Y-101064697D01*
X154221258Y-101284488D01*
X154221261Y-101284497D01*
X154317431Y-101490732D01*
X154317432Y-101490734D01*
X154447954Y-101677141D01*
X154608858Y-101838045D01*
X154608861Y-101838047D01*
X154795266Y-101968568D01*
X155001504Y-102064739D01*
X155001509Y-102064740D01*
X155001511Y-102064741D01*
X155031633Y-102072812D01*
X155221308Y-102123635D01*
X155383230Y-102137801D01*
X155447998Y-102143468D01*
X155448000Y-102143468D01*
X155448002Y-102143468D01*
X155504807Y-102138498D01*
X155674692Y-102123635D01*
X155894496Y-102064739D01*
X156100734Y-101968568D01*
X156287139Y-101838047D01*
X156448047Y-101677139D01*
X156578568Y-101490734D01*
X156674739Y-101284496D01*
X156733635Y-101064692D01*
X156753468Y-100838000D01*
X156753468Y-100837998D01*
X157742532Y-100837998D01*
X157742532Y-100838001D01*
X157762364Y-101064686D01*
X157762366Y-101064697D01*
X157821258Y-101284488D01*
X157821261Y-101284497D01*
X157917431Y-101490732D01*
X157917432Y-101490734D01*
X158047954Y-101677141D01*
X158208858Y-101838045D01*
X158208861Y-101838047D01*
X158395266Y-101968568D01*
X158601504Y-102064739D01*
X158601509Y-102064740D01*
X158601511Y-102064741D01*
X158631633Y-102072812D01*
X158821308Y-102123635D01*
X158983230Y-102137801D01*
X159047998Y-102143468D01*
X159048000Y-102143468D01*
X159048002Y-102143468D01*
X159104807Y-102138498D01*
X159274692Y-102123635D01*
X159494496Y-102064739D01*
X159700734Y-101968568D01*
X159887139Y-101838047D01*
X160048047Y-101677139D01*
X160178568Y-101490734D01*
X160274739Y-101284496D01*
X160333635Y-101064692D01*
X160353468Y-100838000D01*
X160333635Y-100611308D01*
X160274739Y-100391504D01*
X160246057Y-100329996D01*
X185732035Y-100329996D01*
X185732035Y-100330003D01*
X185752230Y-100509249D01*
X185752231Y-100509254D01*
X185811811Y-100679523D01*
X185870579Y-100773051D01*
X185907784Y-100832262D01*
X186035338Y-100959816D01*
X186125680Y-101016582D01*
X186151010Y-101032498D01*
X186188078Y-101055789D01*
X186358345Y-101115368D01*
X186358350Y-101115369D01*
X186537596Y-101135565D01*
X186537600Y-101135565D01*
X186537604Y-101135565D01*
X186716849Y-101115369D01*
X186716852Y-101115368D01*
X186716855Y-101115368D01*
X186887122Y-101055789D01*
X187039862Y-100959816D01*
X187167416Y-100832262D01*
X187263389Y-100679522D01*
X187322968Y-100509255D01*
X187322969Y-100509249D01*
X187343165Y-100330003D01*
X187343165Y-100329996D01*
X187322969Y-100150750D01*
X187322968Y-100150745D01*
X187285707Y-100044260D01*
X187263389Y-99980478D01*
X187243795Y-99949295D01*
X187173835Y-99837954D01*
X187167416Y-99827738D01*
X187039862Y-99700184D01*
X187032070Y-99695288D01*
X186887123Y-99604211D01*
X186716854Y-99544631D01*
X186716849Y-99544630D01*
X186537604Y-99524435D01*
X186537596Y-99524435D01*
X186358350Y-99544630D01*
X186358345Y-99544631D01*
X186188076Y-99604211D01*
X186035337Y-99700184D01*
X185907784Y-99827737D01*
X185811811Y-99980476D01*
X185752231Y-100150745D01*
X185752230Y-100150750D01*
X185732035Y-100329996D01*
X160246057Y-100329996D01*
X160178568Y-100185266D01*
X160048047Y-99998861D01*
X160048045Y-99998858D01*
X159887141Y-99837954D01*
X159700734Y-99707432D01*
X159700732Y-99707431D01*
X159494497Y-99611261D01*
X159494488Y-99611258D01*
X159274697Y-99552366D01*
X159274693Y-99552365D01*
X159274692Y-99552365D01*
X159274691Y-99552364D01*
X159274686Y-99552364D01*
X159048002Y-99532532D01*
X159047998Y-99532532D01*
X158821313Y-99552364D01*
X158821302Y-99552366D01*
X158601511Y-99611258D01*
X158601502Y-99611261D01*
X158395267Y-99707431D01*
X158395265Y-99707432D01*
X158208858Y-99837954D01*
X158047954Y-99998858D01*
X157917432Y-100185265D01*
X157917431Y-100185267D01*
X157821261Y-100391502D01*
X157821258Y-100391511D01*
X157762366Y-100611302D01*
X157762364Y-100611313D01*
X157742532Y-100837998D01*
X156753468Y-100837998D01*
X156733635Y-100611308D01*
X156674739Y-100391504D01*
X156578568Y-100185266D01*
X156448047Y-99998861D01*
X156448045Y-99998858D01*
X156287141Y-99837954D01*
X156100734Y-99707432D01*
X156100732Y-99707431D01*
X155894497Y-99611261D01*
X155894488Y-99611258D01*
X155674697Y-99552366D01*
X155674693Y-99552365D01*
X155674692Y-99552365D01*
X155674691Y-99552364D01*
X155674686Y-99552364D01*
X155448002Y-99532532D01*
X155447998Y-99532532D01*
X155221313Y-99552364D01*
X155221302Y-99552366D01*
X155001511Y-99611258D01*
X155001502Y-99611261D01*
X154795267Y-99707431D01*
X154795265Y-99707432D01*
X154608858Y-99837954D01*
X154447954Y-99998858D01*
X154317432Y-100185265D01*
X154317431Y-100185267D01*
X154221261Y-100391502D01*
X154221258Y-100391511D01*
X154162366Y-100611302D01*
X154162364Y-100611313D01*
X154142532Y-100837998D01*
X153153468Y-100837998D01*
X153133635Y-100611308D01*
X153074739Y-100391504D01*
X152978568Y-100185266D01*
X152848047Y-99998861D01*
X152848045Y-99998858D01*
X152687141Y-99837954D01*
X152500734Y-99707432D01*
X152500732Y-99707431D01*
X152294497Y-99611261D01*
X152294488Y-99611258D01*
X152074697Y-99552366D01*
X152074693Y-99552365D01*
X152074692Y-99552365D01*
X152074691Y-99552364D01*
X152074686Y-99552364D01*
X151848002Y-99532532D01*
X151847998Y-99532532D01*
X151621313Y-99552364D01*
X151621302Y-99552366D01*
X151401511Y-99611258D01*
X151401502Y-99611261D01*
X151195267Y-99707431D01*
X151195265Y-99707432D01*
X151008858Y-99837954D01*
X150847954Y-99998858D01*
X150717432Y-100185265D01*
X150717431Y-100185267D01*
X150621261Y-100391502D01*
X150621258Y-100391511D01*
X150562366Y-100611302D01*
X150562364Y-100611313D01*
X150542532Y-100837998D01*
X149548499Y-100837998D01*
X149548499Y-100237992D01*
X149537999Y-100135203D01*
X149482814Y-99968666D01*
X149390712Y-99819344D01*
X149266656Y-99695288D01*
X149117334Y-99603186D01*
X148950797Y-99548001D01*
X148950795Y-99548000D01*
X148848010Y-99537500D01*
X147647998Y-99537500D01*
X147647981Y-99537501D01*
X147545203Y-99548000D01*
X147545200Y-99548001D01*
X147378668Y-99603185D01*
X147378663Y-99603187D01*
X147229342Y-99695289D01*
X147105289Y-99819342D01*
X147053555Y-99903217D01*
X147001607Y-99949941D01*
X146932644Y-99961163D01*
X146868562Y-99933320D01*
X146829706Y-99875251D01*
X146824016Y-99838120D01*
X146824016Y-98346796D01*
X146824016Y-98346794D01*
X146789908Y-98219500D01*
X146724016Y-98105372D01*
X146630830Y-98012186D01*
X146573766Y-97979240D01*
X146516703Y-97946294D01*
X146453055Y-97929240D01*
X146389408Y-97912186D01*
X139389408Y-97912186D01*
X139257624Y-97912186D01*
X139130328Y-97946294D01*
X139016202Y-98012186D01*
X139016199Y-98012188D01*
X138923018Y-98105369D01*
X138923016Y-98105372D01*
X138857124Y-98219498D01*
X138823016Y-98346794D01*
X138823016Y-104288186D01*
X138803331Y-104355225D01*
X138750527Y-104400980D01*
X138699016Y-104412186D01*
X135507624Y-104412186D01*
X135380328Y-104446294D01*
X135266202Y-104512186D01*
X135266199Y-104512188D01*
X135173018Y-104605369D01*
X135173016Y-104605372D01*
X135107124Y-104719498D01*
X135073016Y-104846794D01*
X132668829Y-104846794D01*
X132653063Y-104666592D01*
X132591903Y-104438337D01*
X132492035Y-104224171D01*
X132411059Y-104108524D01*
X132356494Y-104030597D01*
X132189402Y-103863506D01*
X132189396Y-103863501D01*
X132003842Y-103733575D01*
X131960217Y-103678998D01*
X131953023Y-103609500D01*
X131984546Y-103547145D01*
X132003842Y-103530425D01*
X132026026Y-103514891D01*
X132189401Y-103400495D01*
X132356495Y-103233401D01*
X132492035Y-103039830D01*
X132591903Y-102825663D01*
X132653063Y-102597408D01*
X132673659Y-102362000D01*
X132653063Y-102126592D01*
X132591903Y-101898337D01*
X132492035Y-101684171D01*
X132487111Y-101677139D01*
X132356496Y-101490600D01*
X132303904Y-101438008D01*
X132234567Y-101368671D01*
X132201084Y-101307351D01*
X132206068Y-101237659D01*
X132247939Y-101181725D01*
X132278915Y-101164810D01*
X132410331Y-101115796D01*
X132525546Y-101029546D01*
X132611796Y-100914331D01*
X132662091Y-100779483D01*
X132668500Y-100719873D01*
X132668499Y-98924128D01*
X132662091Y-98864517D01*
X132611796Y-98729669D01*
X132611795Y-98729668D01*
X132611793Y-98729664D01*
X132525547Y-98614455D01*
X132525544Y-98614452D01*
X132410335Y-98528206D01*
X132410328Y-98528202D01*
X132275482Y-98477908D01*
X132275483Y-98477908D01*
X132215883Y-98471501D01*
X132215881Y-98471500D01*
X132215873Y-98471500D01*
X132215864Y-98471500D01*
X130420129Y-98471500D01*
X130420123Y-98471501D01*
X130360516Y-98477908D01*
X130225671Y-98528202D01*
X130225664Y-98528206D01*
X130110455Y-98614452D01*
X130110452Y-98614455D01*
X130024206Y-98729664D01*
X130024202Y-98729671D01*
X129973908Y-98864517D01*
X129968676Y-98913186D01*
X129967501Y-98924123D01*
X129967500Y-98924135D01*
X129967500Y-100719870D01*
X129967501Y-100719876D01*
X129973908Y-100779483D01*
X130024202Y-100914328D01*
X130024206Y-100914335D01*
X130110452Y-101029544D01*
X130110455Y-101029547D01*
X130225664Y-101115793D01*
X130225671Y-101115797D01*
X130357081Y-101164810D01*
X130413015Y-101206681D01*
X130437432Y-101272145D01*
X130422580Y-101340418D01*
X130401430Y-101368673D01*
X130279503Y-101490600D01*
X130143965Y-101684169D01*
X130143964Y-101684171D01*
X130044098Y-101898335D01*
X130044094Y-101898344D01*
X129982938Y-102126586D01*
X129982936Y-102126596D01*
X129962341Y-102361999D01*
X122731748Y-102361999D01*
X122713742Y-102294801D01*
X122582255Y-101952264D01*
X122415682Y-101625348D01*
X122328176Y-101490600D01*
X122215852Y-101317635D01*
X122098323Y-101172499D01*
X121984949Y-101032494D01*
X121725506Y-100773051D01*
X121659837Y-100719873D01*
X121440364Y-100542147D01*
X121132656Y-100342320D01*
X120805739Y-100175746D01*
X120463206Y-100044260D01*
X120463199Y-100044258D01*
X120108794Y-99949295D01*
X120108790Y-99949294D01*
X120108789Y-99949294D01*
X119746405Y-99891898D01*
X119380001Y-99872696D01*
X119379999Y-99872696D01*
X119013594Y-99891898D01*
X118651211Y-99949294D01*
X118651209Y-99949294D01*
X118296793Y-100044260D01*
X117954260Y-100175746D01*
X117627343Y-100342320D01*
X117319635Y-100542147D01*
X117034498Y-100773047D01*
X117034490Y-100773054D01*
X116775054Y-101032490D01*
X116775047Y-101032498D01*
X116544147Y-101317635D01*
X116344320Y-101625343D01*
X116177746Y-101952260D01*
X116046260Y-102294793D01*
X115951294Y-102649209D01*
X115951294Y-102649211D01*
X115893898Y-103011594D01*
X115874696Y-103377999D01*
X104254617Y-103377999D01*
X104354209Y-102916935D01*
X104989092Y-99817693D01*
X105413338Y-97627986D01*
X107898001Y-97627986D01*
X107908494Y-97730697D01*
X107963641Y-97897119D01*
X107963643Y-97897124D01*
X108055684Y-98046345D01*
X108179654Y-98170315D01*
X108328875Y-98262356D01*
X108328880Y-98262358D01*
X108495302Y-98317505D01*
X108495309Y-98317506D01*
X108598019Y-98327999D01*
X108947999Y-98327999D01*
X109448000Y-98327999D01*
X109797972Y-98327999D01*
X109797986Y-98327998D01*
X109900697Y-98317505D01*
X110067119Y-98262358D01*
X110067124Y-98262356D01*
X110216345Y-98170315D01*
X110340315Y-98046345D01*
X110432356Y-97897124D01*
X110432358Y-97897119D01*
X110487505Y-97730697D01*
X110487506Y-97730690D01*
X110497999Y-97627986D01*
X110498000Y-97627973D01*
X110498000Y-97278000D01*
X109448000Y-97278000D01*
X109448000Y-98327999D01*
X108947999Y-98327999D01*
X108948000Y-98327998D01*
X108948000Y-97278000D01*
X107898001Y-97278000D01*
X107898001Y-97627986D01*
X105413338Y-97627986D01*
X105537235Y-96988504D01*
X108898000Y-96988504D01*
X108898000Y-97067496D01*
X108918444Y-97143796D01*
X108957940Y-97212205D01*
X109013795Y-97268060D01*
X109082204Y-97307556D01*
X109158504Y-97328000D01*
X109237496Y-97328000D01*
X109313796Y-97307556D01*
X109382205Y-97268060D01*
X109438060Y-97212205D01*
X109477556Y-97143796D01*
X109498000Y-97067496D01*
X109498000Y-96988504D01*
X109477556Y-96912204D01*
X109471085Y-96900996D01*
X184563635Y-96900996D01*
X184563635Y-96901003D01*
X184583830Y-97080249D01*
X184583831Y-97080254D01*
X184643411Y-97250523D01*
X184739384Y-97403262D01*
X184866938Y-97530816D01*
X185019678Y-97626789D01*
X185189945Y-97686368D01*
X185189950Y-97686369D01*
X185369196Y-97706565D01*
X185369200Y-97706565D01*
X185369204Y-97706565D01*
X185548449Y-97686369D01*
X185548452Y-97686368D01*
X185548455Y-97686368D01*
X185718722Y-97626789D01*
X185871462Y-97530816D01*
X185999016Y-97403262D01*
X186094989Y-97250522D01*
X186154568Y-97080255D01*
X186174765Y-96901000D01*
X186162026Y-96787940D01*
X186154569Y-96721750D01*
X186154568Y-96721745D01*
X186094988Y-96551476D01*
X186017420Y-96428028D01*
X185999016Y-96398738D01*
X185871462Y-96271184D01*
X185718723Y-96175211D01*
X185548454Y-96115631D01*
X185548449Y-96115630D01*
X185369204Y-96095435D01*
X185369196Y-96095435D01*
X185189950Y-96115630D01*
X185189945Y-96115631D01*
X185019676Y-96175211D01*
X184866937Y-96271184D01*
X184739384Y-96398737D01*
X184643411Y-96551476D01*
X184583831Y-96721745D01*
X184583830Y-96721750D01*
X184563635Y-96900996D01*
X109471085Y-96900996D01*
X109438060Y-96843795D01*
X109382205Y-96787940D01*
X109364988Y-96778000D01*
X109448000Y-96778000D01*
X110497999Y-96778000D01*
X110497999Y-96428028D01*
X110497998Y-96428013D01*
X110487505Y-96325302D01*
X110432358Y-96158880D01*
X110432356Y-96158875D01*
X110340315Y-96009654D01*
X110216345Y-95885684D01*
X110067124Y-95793643D01*
X110067119Y-95793641D01*
X109900697Y-95738494D01*
X109900690Y-95738493D01*
X109797986Y-95728000D01*
X109448000Y-95728000D01*
X109448000Y-96778000D01*
X109364988Y-96778000D01*
X109313796Y-96748444D01*
X109237496Y-96728000D01*
X109158504Y-96728000D01*
X109082204Y-96748444D01*
X109013795Y-96787940D01*
X108957940Y-96843795D01*
X108918444Y-96912204D01*
X108898000Y-96988504D01*
X105537235Y-96988504D01*
X105590836Y-96711847D01*
X105642688Y-96428013D01*
X107898000Y-96428013D01*
X107898000Y-96778000D01*
X108948000Y-96778000D01*
X108948000Y-95728000D01*
X108598028Y-95728000D01*
X108598012Y-95728001D01*
X108495302Y-95738494D01*
X108328880Y-95793641D01*
X108328875Y-95793643D01*
X108179654Y-95885684D01*
X108055684Y-96009654D01*
X107963643Y-96158875D01*
X107963641Y-96158880D01*
X107908494Y-96325302D01*
X107908493Y-96325309D01*
X107898000Y-96428013D01*
X105642688Y-96428013D01*
X105799527Y-95569496D01*
X153828268Y-95569496D01*
X153828268Y-95569503D01*
X153848463Y-95748749D01*
X153848464Y-95748754D01*
X153908044Y-95919023D01*
X153964992Y-96009654D01*
X154004017Y-96071762D01*
X154131571Y-96199316D01*
X154284311Y-96295289D01*
X154454578Y-96354868D01*
X154454583Y-96354869D01*
X154633829Y-96375065D01*
X154633833Y-96375065D01*
X154633837Y-96375065D01*
X154813082Y-96354869D01*
X154813085Y-96354868D01*
X154813088Y-96354868D01*
X154983355Y-96295289D01*
X155136095Y-96199316D01*
X155263649Y-96071762D01*
X155359622Y-95919022D01*
X155419201Y-95748755D01*
X155420357Y-95738494D01*
X155439398Y-95569503D01*
X155439398Y-95569496D01*
X155419202Y-95390250D01*
X155419201Y-95390245D01*
X155359621Y-95219976D01*
X155263648Y-95067237D01*
X155136095Y-94939684D01*
X154983356Y-94843711D01*
X154813087Y-94784131D01*
X154813082Y-94784130D01*
X154633837Y-94763935D01*
X154633829Y-94763935D01*
X154454583Y-94784130D01*
X154454578Y-94784131D01*
X154284309Y-94843711D01*
X154131570Y-94939684D01*
X154004017Y-95067237D01*
X153908044Y-95219976D01*
X153848464Y-95390245D01*
X153848463Y-95390250D01*
X153828268Y-95569496D01*
X105799527Y-95569496D01*
X106159371Y-93599750D01*
X106188856Y-93427998D01*
X107892532Y-93427998D01*
X107892532Y-93428001D01*
X107912364Y-93654686D01*
X107912366Y-93654697D01*
X107971258Y-93874488D01*
X107971261Y-93874497D01*
X108067431Y-94080732D01*
X108067432Y-94080734D01*
X108197954Y-94267141D01*
X108358858Y-94428045D01*
X108358861Y-94428047D01*
X108545266Y-94558568D01*
X108751504Y-94654739D01*
X108751509Y-94654740D01*
X108751511Y-94654741D01*
X108798830Y-94667420D01*
X108971308Y-94713635D01*
X109133230Y-94727801D01*
X109197998Y-94733468D01*
X109198000Y-94733468D01*
X109198002Y-94733468D01*
X109254673Y-94728509D01*
X109424692Y-94713635D01*
X109644496Y-94654739D01*
X109850734Y-94558568D01*
X109951522Y-94487996D01*
X148673435Y-94487996D01*
X148673435Y-94488003D01*
X148693630Y-94667249D01*
X148693631Y-94667254D01*
X148753211Y-94837523D01*
X148840164Y-94975907D01*
X148849184Y-94990262D01*
X148976738Y-95117816D01*
X149129478Y-95213789D01*
X149299745Y-95273368D01*
X149299750Y-95273369D01*
X149478996Y-95293565D01*
X149479000Y-95293565D01*
X149479004Y-95293565D01*
X149658249Y-95273369D01*
X149658252Y-95273368D01*
X149658255Y-95273368D01*
X149828522Y-95213789D01*
X149981262Y-95117816D01*
X150108816Y-94990262D01*
X150204789Y-94837522D01*
X150264368Y-94667255D01*
X150265778Y-94654741D01*
X150284565Y-94488003D01*
X150284565Y-94487996D01*
X150264369Y-94308750D01*
X150264368Y-94308745D01*
X150204788Y-94138476D01*
X150108815Y-93985737D01*
X149981262Y-93858184D01*
X149828523Y-93762211D01*
X149658254Y-93702631D01*
X149658249Y-93702630D01*
X149586054Y-93694496D01*
X153626435Y-93694496D01*
X153626435Y-93694503D01*
X153646630Y-93873749D01*
X153646631Y-93873754D01*
X153706211Y-94044023D01*
X153802184Y-94196762D01*
X153929738Y-94324316D01*
X154082478Y-94420289D01*
X154208726Y-94464465D01*
X154252745Y-94479868D01*
X154252750Y-94479869D01*
X154431996Y-94500065D01*
X154432000Y-94500065D01*
X154432004Y-94500065D01*
X154611249Y-94479869D01*
X154611252Y-94479868D01*
X154611255Y-94479868D01*
X154781522Y-94420289D01*
X154934262Y-94324316D01*
X155061816Y-94196762D01*
X155157789Y-94044022D01*
X155217368Y-93873755D01*
X155217369Y-93873749D01*
X155237565Y-93694503D01*
X155237565Y-93694496D01*
X155217369Y-93515250D01*
X155217368Y-93515245D01*
X155202236Y-93472000D01*
X155157789Y-93344978D01*
X155143289Y-93321902D01*
X155074398Y-93212262D01*
X155061816Y-93192238D01*
X154934262Y-93064684D01*
X154781523Y-92968711D01*
X154611254Y-92909131D01*
X154611249Y-92909130D01*
X154432004Y-92888935D01*
X154431996Y-92888935D01*
X154252750Y-92909130D01*
X154252745Y-92909131D01*
X154082476Y-92968711D01*
X153929737Y-93064684D01*
X153802184Y-93192237D01*
X153706211Y-93344976D01*
X153646631Y-93515245D01*
X153646630Y-93515250D01*
X153626435Y-93694496D01*
X149586054Y-93694496D01*
X149479004Y-93682435D01*
X149478996Y-93682435D01*
X149299750Y-93702630D01*
X149299745Y-93702631D01*
X149129476Y-93762211D01*
X148976737Y-93858184D01*
X148849184Y-93985737D01*
X148753211Y-94138476D01*
X148693631Y-94308745D01*
X148693630Y-94308750D01*
X148673435Y-94487996D01*
X109951522Y-94487996D01*
X110037139Y-94428047D01*
X110198047Y-94267139D01*
X110328568Y-94080734D01*
X110424739Y-93874496D01*
X110483635Y-93654692D01*
X110503468Y-93428000D01*
X110483635Y-93201308D01*
X110424739Y-92981504D01*
X110328568Y-92775266D01*
X110215864Y-92614307D01*
X110198045Y-92588858D01*
X110115073Y-92505886D01*
X147052442Y-92505886D01*
X147052442Y-92505893D01*
X147072637Y-92685139D01*
X147072638Y-92685144D01*
X147132218Y-92855413D01*
X147204053Y-92969737D01*
X147228191Y-93008152D01*
X147355745Y-93135706D01*
X147508485Y-93231679D01*
X147617317Y-93269761D01*
X147678752Y-93291258D01*
X147678757Y-93291259D01*
X147858003Y-93311455D01*
X147858007Y-93311455D01*
X147858011Y-93311455D01*
X148037256Y-93291259D01*
X148037259Y-93291258D01*
X148037262Y-93291258D01*
X148207529Y-93231679D01*
X148360269Y-93135706D01*
X148487823Y-93008152D01*
X148583796Y-92855412D01*
X148605111Y-92794496D01*
X159087435Y-92794496D01*
X159087435Y-92794503D01*
X159107630Y-92973749D01*
X159107631Y-92973754D01*
X159167211Y-93144023D01*
X159234279Y-93250760D01*
X159263184Y-93296762D01*
X159390738Y-93424316D01*
X159399878Y-93430059D01*
X159535450Y-93515245D01*
X159543478Y-93520289D01*
X159614164Y-93545023D01*
X159713745Y-93579868D01*
X159713750Y-93579869D01*
X159892996Y-93600065D01*
X159893000Y-93600065D01*
X159893004Y-93600065D01*
X160072249Y-93579869D01*
X160072252Y-93579868D01*
X160072255Y-93579868D01*
X160242522Y-93520289D01*
X160395262Y-93424316D01*
X160468316Y-93351262D01*
X160529639Y-93317777D01*
X160596952Y-93321902D01*
X160729737Y-93368366D01*
X160729743Y-93368367D01*
X160729745Y-93368368D01*
X160729746Y-93368368D01*
X160729750Y-93368369D01*
X160908996Y-93388565D01*
X160909000Y-93388565D01*
X160909004Y-93388565D01*
X161088249Y-93368369D01*
X161088252Y-93368368D01*
X161088255Y-93368368D01*
X161258522Y-93308789D01*
X161320636Y-93269759D01*
X161387868Y-93250760D01*
X161454704Y-93271127D01*
X161499919Y-93324394D01*
X161509827Y-93388636D01*
X161507376Y-93410389D01*
X161500436Y-93471996D01*
X161500435Y-93472004D01*
X161520630Y-93651249D01*
X161520631Y-93651254D01*
X161580211Y-93821523D01*
X161613497Y-93874497D01*
X161676184Y-93974262D01*
X161803738Y-94101816D01*
X161862082Y-94138476D01*
X161954843Y-94196762D01*
X161956478Y-94197789D01*
X162126745Y-94257368D01*
X162126750Y-94257369D01*
X162305996Y-94277565D01*
X162306000Y-94277565D01*
X162306004Y-94277565D01*
X162483820Y-94257530D01*
X187018500Y-94257530D01*
X187018500Y-94464469D01*
X187058868Y-94667412D01*
X187058870Y-94667420D01*
X187138058Y-94858596D01*
X187253024Y-95030657D01*
X187399342Y-95176975D01*
X187399345Y-95176977D01*
X187571402Y-95291941D01*
X187762580Y-95371130D01*
X187965530Y-95411499D01*
X187965534Y-95411500D01*
X187965535Y-95411500D01*
X189172466Y-95411500D01*
X189172467Y-95411499D01*
X189375420Y-95371130D01*
X189566598Y-95291941D01*
X189738655Y-95176977D01*
X189884977Y-95030655D01*
X189999941Y-94858598D01*
X190079130Y-94667420D01*
X190119500Y-94464465D01*
X190119500Y-94257535D01*
X190119499Y-94257530D01*
X192128500Y-94257530D01*
X192128500Y-94464469D01*
X192168868Y-94667412D01*
X192168870Y-94667420D01*
X192248058Y-94858596D01*
X192363024Y-95030657D01*
X192509342Y-95176975D01*
X192509345Y-95176977D01*
X192681402Y-95291941D01*
X192872580Y-95371130D01*
X193075530Y-95411499D01*
X193075534Y-95411500D01*
X193075535Y-95411500D01*
X194782466Y-95411500D01*
X194782467Y-95411499D01*
X194985420Y-95371130D01*
X195176598Y-95291941D01*
X195348655Y-95176977D01*
X195494977Y-95030655D01*
X195609941Y-94858598D01*
X195689130Y-94667420D01*
X195729500Y-94464465D01*
X195729500Y-94257535D01*
X195689130Y-94054580D01*
X195609941Y-93863402D01*
X195494977Y-93691345D01*
X195494975Y-93691342D01*
X195348657Y-93545024D01*
X195262626Y-93487541D01*
X195176598Y-93430059D01*
X195171627Y-93428000D01*
X194985420Y-93350870D01*
X194985412Y-93350868D01*
X194782469Y-93310500D01*
X194782465Y-93310500D01*
X193075535Y-93310500D01*
X193075530Y-93310500D01*
X192872587Y-93350868D01*
X192872579Y-93350870D01*
X192681403Y-93430058D01*
X192509342Y-93545024D01*
X192363024Y-93691342D01*
X192248058Y-93863403D01*
X192168870Y-94054579D01*
X192168868Y-94054587D01*
X192128500Y-94257530D01*
X190119499Y-94257530D01*
X190079130Y-94054580D01*
X189999941Y-93863402D01*
X189884977Y-93691345D01*
X189884975Y-93691342D01*
X189738657Y-93545024D01*
X189652626Y-93487541D01*
X189566598Y-93430059D01*
X189561627Y-93428000D01*
X189375420Y-93350870D01*
X189375412Y-93350868D01*
X189172469Y-93310500D01*
X189172465Y-93310500D01*
X187965535Y-93310500D01*
X187965530Y-93310500D01*
X187762587Y-93350868D01*
X187762579Y-93350870D01*
X187571403Y-93430058D01*
X187399342Y-93545024D01*
X187253024Y-93691342D01*
X187138058Y-93863403D01*
X187058870Y-94054579D01*
X187058868Y-94054587D01*
X187018500Y-94257530D01*
X162483820Y-94257530D01*
X162485249Y-94257369D01*
X162485252Y-94257368D01*
X162485255Y-94257368D01*
X162655522Y-94197789D01*
X162808262Y-94101816D01*
X162935816Y-93974262D01*
X163031789Y-93821522D01*
X163091368Y-93651255D01*
X163097172Y-93599747D01*
X163111565Y-93472003D01*
X163111565Y-93471996D01*
X163091369Y-93292750D01*
X163091368Y-93292745D01*
X163090011Y-93288868D01*
X163031789Y-93122478D01*
X162935816Y-92969738D01*
X162881412Y-92915334D01*
X162847927Y-92854011D01*
X162845873Y-92813769D01*
X162857565Y-92710002D01*
X162857565Y-92709996D01*
X162854703Y-92684596D01*
X165437435Y-92684596D01*
X165437435Y-92684603D01*
X165457630Y-92863849D01*
X165457631Y-92863854D01*
X165517211Y-93034123D01*
X165586266Y-93144022D01*
X165613184Y-93186862D01*
X165740738Y-93314416D01*
X165893478Y-93410389D01*
X165949689Y-93430058D01*
X166063745Y-93469968D01*
X166063750Y-93469969D01*
X166242996Y-93490165D01*
X166243000Y-93490165D01*
X166243004Y-93490165D01*
X166422249Y-93469969D01*
X166422252Y-93469968D01*
X166422255Y-93469968D01*
X166592522Y-93410389D01*
X166745262Y-93314416D01*
X166872816Y-93186862D01*
X166968789Y-93034122D01*
X167028368Y-92863855D01*
X167028369Y-92863849D01*
X167048565Y-92684603D01*
X167048565Y-92684596D01*
X167028369Y-92505350D01*
X167028368Y-92505345D01*
X166968788Y-92335076D01*
X166872815Y-92182337D01*
X166745262Y-92054784D01*
X166592523Y-91958811D01*
X166422254Y-91899231D01*
X166422249Y-91899230D01*
X166243004Y-91879035D01*
X166242996Y-91879035D01*
X166063750Y-91899230D01*
X166063745Y-91899231D01*
X165893476Y-91958811D01*
X165740737Y-92054784D01*
X165613184Y-92182337D01*
X165517211Y-92335076D01*
X165457631Y-92505345D01*
X165457630Y-92505350D01*
X165437435Y-92684596D01*
X162854703Y-92684596D01*
X162837369Y-92530750D01*
X162837368Y-92530745D01*
X162801400Y-92427954D01*
X162777789Y-92360478D01*
X162681816Y-92207738D01*
X162554262Y-92080184D01*
X162513838Y-92054784D01*
X162401523Y-91984211D01*
X162231254Y-91924631D01*
X162231249Y-91924630D01*
X162052004Y-91904435D01*
X162052002Y-91904435D01*
X162052000Y-91904435D01*
X162042050Y-91905556D01*
X162011549Y-91908992D01*
X161942727Y-91896935D01*
X161891349Y-91849585D01*
X161873726Y-91781974D01*
X161895454Y-91715569D01*
X161909985Y-91698092D01*
X161919816Y-91688262D01*
X162015789Y-91535522D01*
X162075368Y-91365255D01*
X162095565Y-91186000D01*
X162076031Y-91012632D01*
X162075369Y-91006750D01*
X162075368Y-91006745D01*
X162015788Y-90836476D01*
X161976582Y-90774080D01*
X161919816Y-90683738D01*
X161792262Y-90556184D01*
X161697693Y-90496762D01*
X161639523Y-90460211D01*
X161469254Y-90400631D01*
X161469249Y-90400630D01*
X161290004Y-90380435D01*
X161289996Y-90380435D01*
X161110750Y-90400630D01*
X161110745Y-90400631D01*
X160940476Y-90460211D01*
X160787737Y-90556184D01*
X160660184Y-90683737D01*
X160564211Y-90836476D01*
X160504631Y-91006745D01*
X160504630Y-91006750D01*
X160484435Y-91185996D01*
X160484435Y-91186003D01*
X160504630Y-91365249D01*
X160504631Y-91365254D01*
X160564211Y-91535523D01*
X160646330Y-91666214D01*
X160665330Y-91733451D01*
X160644962Y-91800286D01*
X160591694Y-91845500D01*
X160582292Y-91849227D01*
X160559479Y-91857209D01*
X160406739Y-91953183D01*
X160333683Y-92026239D01*
X160272359Y-92059723D01*
X160205047Y-92055598D01*
X160072262Y-92009133D01*
X160072249Y-92009130D01*
X159893004Y-91988935D01*
X159892996Y-91988935D01*
X159713750Y-92009130D01*
X159713745Y-92009131D01*
X159543476Y-92068711D01*
X159390737Y-92164684D01*
X159263184Y-92292237D01*
X159167211Y-92444976D01*
X159107631Y-92615245D01*
X159107630Y-92615250D01*
X159087435Y-92794496D01*
X148605111Y-92794496D01*
X148643119Y-92685876D01*
X148683840Y-92629102D01*
X148740138Y-92606121D01*
X148739909Y-92605114D01*
X148746027Y-92603717D01*
X148746288Y-92603610D01*
X148746696Y-92603565D01*
X148916963Y-92543986D01*
X149069703Y-92448013D01*
X149197257Y-92320459D01*
X149293230Y-92167719D01*
X149352809Y-91997452D01*
X149362776Y-91908992D01*
X149373006Y-91818200D01*
X149373006Y-91818193D01*
X149352810Y-91638947D01*
X149352809Y-91638942D01*
X149293229Y-91468673D01*
X149197256Y-91315934D01*
X149069703Y-91188381D01*
X148916964Y-91092408D01*
X148746695Y-91032828D01*
X148746690Y-91032827D01*
X148567445Y-91012632D01*
X148567437Y-91012632D01*
X148388191Y-91032827D01*
X148388186Y-91032828D01*
X148217917Y-91092408D01*
X148065178Y-91188381D01*
X147937625Y-91315934D01*
X147841651Y-91468675D01*
X147782330Y-91638208D01*
X147741608Y-91694984D01*
X147685311Y-91717971D01*
X147685540Y-91718973D01*
X147679461Y-91720360D01*
X147679188Y-91720472D01*
X147678761Y-91720520D01*
X147678754Y-91720521D01*
X147508485Y-91780100D01*
X147355744Y-91876074D01*
X147228191Y-92003627D01*
X147132218Y-92156366D01*
X147072638Y-92326635D01*
X147072637Y-92326640D01*
X147052442Y-92505886D01*
X110115073Y-92505886D01*
X110037141Y-92427954D01*
X109850734Y-92297432D01*
X109850732Y-92297431D01*
X109644497Y-92201261D01*
X109644488Y-92201258D01*
X109424697Y-92142366D01*
X109424693Y-92142365D01*
X109424692Y-92142365D01*
X109424691Y-92142364D01*
X109424686Y-92142364D01*
X109198002Y-92122532D01*
X109197998Y-92122532D01*
X108971313Y-92142364D01*
X108971302Y-92142366D01*
X108751511Y-92201258D01*
X108751502Y-92201261D01*
X108545267Y-92297431D01*
X108545265Y-92297432D01*
X108358858Y-92427954D01*
X108197954Y-92588858D01*
X108067432Y-92775265D01*
X108067431Y-92775267D01*
X107971261Y-92981502D01*
X107971258Y-92981511D01*
X107912366Y-93201302D01*
X107912364Y-93201313D01*
X107892532Y-93427998D01*
X106188856Y-93427998D01*
X106694634Y-90481758D01*
X107196562Y-87358228D01*
X107328360Y-86478135D01*
X135316500Y-86478135D01*
X135316500Y-88273870D01*
X135316501Y-88273876D01*
X135322908Y-88333483D01*
X135373202Y-88468328D01*
X135373206Y-88468335D01*
X135459452Y-88583544D01*
X135459455Y-88583547D01*
X135574664Y-88669793D01*
X135574671Y-88669797D01*
X135709517Y-88720091D01*
X135709516Y-88720091D01*
X135716444Y-88720835D01*
X135769127Y-88726500D01*
X137564872Y-88726499D01*
X137624483Y-88720091D01*
X137759331Y-88669796D01*
X137874546Y-88583546D01*
X137960796Y-88468331D01*
X138009810Y-88336916D01*
X138051681Y-88280984D01*
X138117145Y-88256566D01*
X138185418Y-88271417D01*
X138213673Y-88292569D01*
X138335599Y-88414495D01*
X138432384Y-88482265D01*
X138529165Y-88550032D01*
X138529167Y-88550033D01*
X138529170Y-88550035D01*
X138743337Y-88649903D01*
X138971592Y-88711063D01*
X139148034Y-88726500D01*
X139206999Y-88731659D01*
X139207000Y-88731659D01*
X139207001Y-88731659D01*
X139265966Y-88726500D01*
X139442408Y-88711063D01*
X139670663Y-88649903D01*
X139884830Y-88550035D01*
X140078401Y-88414495D01*
X140245495Y-88247401D01*
X140375425Y-88061842D01*
X140430002Y-88018217D01*
X140499500Y-88011023D01*
X140561855Y-88042546D01*
X140578575Y-88061842D01*
X140708500Y-88247395D01*
X140708505Y-88247401D01*
X140875599Y-88414495D01*
X140972384Y-88482265D01*
X141069165Y-88550032D01*
X141069167Y-88550033D01*
X141069170Y-88550035D01*
X141283337Y-88649903D01*
X141511592Y-88711063D01*
X141688034Y-88726500D01*
X141746999Y-88731659D01*
X141747000Y-88731659D01*
X141747001Y-88731659D01*
X141805966Y-88726500D01*
X141982408Y-88711063D01*
X142210663Y-88649903D01*
X142424830Y-88550035D01*
X142618401Y-88414495D01*
X142785495Y-88247401D01*
X142921035Y-88053830D01*
X142941009Y-88010996D01*
X147403435Y-88010996D01*
X147403435Y-88011003D01*
X147423630Y-88190249D01*
X147423631Y-88190254D01*
X147483211Y-88360523D01*
X147579184Y-88513262D01*
X147706740Y-88640818D01*
X147727233Y-88653694D01*
X147773525Y-88706028D01*
X147783410Y-88766037D01*
X147784435Y-88766037D01*
X147784435Y-88772256D01*
X147784484Y-88772554D01*
X147784435Y-88772989D01*
X147784435Y-88773003D01*
X147804630Y-88952249D01*
X147804631Y-88952254D01*
X147864211Y-89122523D01*
X147921514Y-89213719D01*
X147960184Y-89275262D01*
X148087738Y-89402816D01*
X148178080Y-89459582D01*
X148230050Y-89492237D01*
X148240478Y-89498789D01*
X148368472Y-89543576D01*
X148410745Y-89558368D01*
X148410750Y-89558369D01*
X148589996Y-89578565D01*
X148590000Y-89578565D01*
X148590004Y-89578565D01*
X148769249Y-89558369D01*
X148769252Y-89558368D01*
X148769255Y-89558368D01*
X148939522Y-89498789D01*
X148955185Y-89488947D01*
X149022418Y-89469945D01*
X149089254Y-89490310D01*
X149134471Y-89543576D01*
X149143711Y-89612832D01*
X149135850Y-89638173D01*
X149136511Y-89638405D01*
X149074631Y-89815245D01*
X149074630Y-89815250D01*
X149054435Y-89994496D01*
X149054435Y-89994503D01*
X149074630Y-90173749D01*
X149074631Y-90173754D01*
X149134211Y-90344023D01*
X149169781Y-90400632D01*
X149230184Y-90496762D01*
X149357738Y-90624316D01*
X149510478Y-90720289D01*
X149680745Y-90779868D01*
X149680750Y-90779869D01*
X149859996Y-90800065D01*
X149860000Y-90800065D01*
X149860004Y-90800065D01*
X150039249Y-90779869D01*
X150039252Y-90779868D01*
X150039255Y-90779868D01*
X150209522Y-90720289D01*
X150362262Y-90624316D01*
X150489816Y-90496762D01*
X150585789Y-90344022D01*
X150637795Y-90195396D01*
X162897435Y-90195396D01*
X162897435Y-90195403D01*
X162917630Y-90374649D01*
X162917631Y-90374654D01*
X162977211Y-90544923D01*
X163064434Y-90683737D01*
X163073184Y-90697662D01*
X163200738Y-90825216D01*
X163353478Y-90921189D01*
X163523745Y-90980768D01*
X163523750Y-90980769D01*
X163702996Y-91000965D01*
X163703000Y-91000965D01*
X163703004Y-91000965D01*
X163882249Y-90980769D01*
X163882252Y-90980768D01*
X163882255Y-90980768D01*
X164052522Y-90921189D01*
X164205262Y-90825216D01*
X164332816Y-90697662D01*
X164428789Y-90544922D01*
X164488368Y-90374655D01*
X164488369Y-90374649D01*
X164508565Y-90195403D01*
X164508565Y-90195396D01*
X164488369Y-90016150D01*
X164488368Y-90016145D01*
X164428788Y-89845876D01*
X164332815Y-89693137D01*
X164205262Y-89565584D01*
X164052523Y-89469611D01*
X163882254Y-89410031D01*
X163882249Y-89410030D01*
X163703004Y-89389835D01*
X163702996Y-89389835D01*
X163523750Y-89410030D01*
X163523745Y-89410031D01*
X163353476Y-89469611D01*
X163200737Y-89565584D01*
X163073184Y-89693137D01*
X162977211Y-89845876D01*
X162917631Y-90016145D01*
X162917630Y-90016150D01*
X162897435Y-90195396D01*
X150637795Y-90195396D01*
X150645368Y-90173755D01*
X150663126Y-90016150D01*
X150665565Y-89994503D01*
X150665565Y-89994496D01*
X150645369Y-89815250D01*
X150645368Y-89815245D01*
X150602641Y-89693138D01*
X150585789Y-89644978D01*
X150489816Y-89492238D01*
X150362262Y-89364684D01*
X150209523Y-89268711D01*
X150039254Y-89209131D01*
X150039249Y-89209130D01*
X149860004Y-89188935D01*
X149859996Y-89188935D01*
X149680750Y-89209130D01*
X149680745Y-89209131D01*
X149510474Y-89268712D01*
X149494811Y-89278554D01*
X149427574Y-89297554D01*
X149360739Y-89277186D01*
X149315526Y-89223917D01*
X149306289Y-89154661D01*
X149314152Y-89129327D01*
X149313489Y-89129095D01*
X149375368Y-88952254D01*
X149375369Y-88952249D01*
X149395565Y-88773003D01*
X149395565Y-88772996D01*
X149375369Y-88593750D01*
X149375368Y-88593745D01*
X149371799Y-88583546D01*
X149315789Y-88423478D01*
X149310146Y-88414498D01*
X149230894Y-88288369D01*
X149219816Y-88270738D01*
X149092262Y-88143184D01*
X149092256Y-88143179D01*
X149071765Y-88130304D01*
X149025474Y-88077970D01*
X149015594Y-88017964D01*
X149014565Y-88017964D01*
X149014565Y-88011715D01*
X149014517Y-88011424D01*
X149014565Y-88011003D01*
X149014565Y-88011000D01*
X149014517Y-88010573D01*
X149014565Y-88010298D01*
X149014565Y-88004036D01*
X149015662Y-88004036D01*
X149026571Y-87941751D01*
X149071765Y-87891694D01*
X149092262Y-87878816D01*
X149219816Y-87751262D01*
X149315789Y-87598522D01*
X149375368Y-87428255D01*
X149385336Y-87339788D01*
X149395565Y-87249003D01*
X149395565Y-87248996D01*
X149689435Y-87248996D01*
X149689435Y-87249003D01*
X149709630Y-87428249D01*
X149709631Y-87428254D01*
X149769211Y-87598523D01*
X149808769Y-87661478D01*
X149865184Y-87751262D01*
X149992738Y-87878816D01*
X150145478Y-87974789D01*
X150253736Y-88012670D01*
X150315745Y-88034368D01*
X150315750Y-88034369D01*
X150494996Y-88054565D01*
X150495000Y-88054565D01*
X150495004Y-88054565D01*
X150674249Y-88034369D01*
X150674252Y-88034368D01*
X150674255Y-88034368D01*
X150844522Y-87974789D01*
X150997262Y-87878816D01*
X151124816Y-87751262D01*
X151220789Y-87598522D01*
X151254215Y-87502996D01*
X166453435Y-87502996D01*
X166453435Y-87503003D01*
X166473630Y-87682249D01*
X166473631Y-87682254D01*
X166533211Y-87852523D01*
X166628414Y-88004036D01*
X166629184Y-88005262D01*
X166756738Y-88132816D01*
X166909478Y-88228789D01*
X167031302Y-88271417D01*
X167079745Y-88288368D01*
X167079750Y-88288369D01*
X167258996Y-88308565D01*
X167259000Y-88308565D01*
X167259004Y-88308565D01*
X167438249Y-88288369D01*
X167438252Y-88288368D01*
X167438255Y-88288368D01*
X167608522Y-88228789D01*
X167761262Y-88132816D01*
X167888816Y-88005262D01*
X167984789Y-87852522D01*
X168044368Y-87682255D01*
X168046709Y-87661478D01*
X168064565Y-87503003D01*
X168064565Y-87502996D01*
X168044369Y-87323750D01*
X168044368Y-87323745D01*
X168018465Y-87249719D01*
X167984789Y-87153478D01*
X167976688Y-87140586D01*
X167899894Y-87018369D01*
X167888816Y-87000738D01*
X167761262Y-86873184D01*
X167608523Y-86777211D01*
X167438254Y-86717631D01*
X167438249Y-86717630D01*
X167259004Y-86697435D01*
X167258996Y-86697435D01*
X167079750Y-86717630D01*
X167079745Y-86717631D01*
X166909476Y-86777211D01*
X166756737Y-86873184D01*
X166629184Y-87000737D01*
X166533211Y-87153476D01*
X166473631Y-87323745D01*
X166473630Y-87323750D01*
X166453435Y-87502996D01*
X151254215Y-87502996D01*
X151280368Y-87428255D01*
X151290336Y-87339788D01*
X151300565Y-87249003D01*
X151300565Y-87248996D01*
X151280369Y-87069750D01*
X151280368Y-87069745D01*
X151225291Y-86912344D01*
X151220789Y-86899478D01*
X151204267Y-86873184D01*
X151181231Y-86836522D01*
X151124816Y-86746738D01*
X150997262Y-86619184D01*
X150989005Y-86613996D01*
X153280435Y-86613996D01*
X153280435Y-86614003D01*
X153300630Y-86793249D01*
X153300631Y-86793254D01*
X153360211Y-86963523D01*
X153456184Y-87116262D01*
X153583738Y-87243816D01*
X153736478Y-87339789D01*
X153839963Y-87376000D01*
X153906745Y-87399368D01*
X153906750Y-87399369D01*
X154085996Y-87419565D01*
X154086000Y-87419565D01*
X154086004Y-87419565D01*
X154265249Y-87399369D01*
X154265252Y-87399368D01*
X154265255Y-87399368D01*
X154435522Y-87339789D01*
X154574028Y-87252759D01*
X154641264Y-87233759D01*
X154705971Y-87252759D01*
X154711070Y-87255963D01*
X154844475Y-87339788D01*
X155014745Y-87399368D01*
X155014750Y-87399369D01*
X155193996Y-87419565D01*
X155194000Y-87419565D01*
X155194004Y-87419565D01*
X155373249Y-87399369D01*
X155373252Y-87399368D01*
X155373255Y-87399368D01*
X155543522Y-87339789D01*
X155690728Y-87247292D01*
X155757964Y-87228293D01*
X155797655Y-87235246D01*
X155903737Y-87272366D01*
X155903743Y-87272367D01*
X155903745Y-87272368D01*
X155903746Y-87272368D01*
X155903750Y-87272369D01*
X156082996Y-87292565D01*
X156083000Y-87292565D01*
X156083004Y-87292565D01*
X156262249Y-87272369D01*
X156262252Y-87272368D01*
X156262255Y-87272368D01*
X156432522Y-87212789D01*
X156585262Y-87116816D01*
X156712816Y-86989262D01*
X156808789Y-86836522D01*
X156868368Y-86666255D01*
X156873672Y-86619184D01*
X156888565Y-86487003D01*
X156888565Y-86486996D01*
X156868369Y-86307750D01*
X156868368Y-86307745D01*
X156853228Y-86264478D01*
X156808789Y-86137478D01*
X156792615Y-86111738D01*
X156748128Y-86040937D01*
X156712816Y-85984738D01*
X156585262Y-85857184D01*
X156539822Y-85828632D01*
X156432523Y-85761211D01*
X156262254Y-85701631D01*
X156262249Y-85701630D01*
X156083004Y-85681435D01*
X156082996Y-85681435D01*
X155903750Y-85701630D01*
X155903745Y-85701631D01*
X155733476Y-85761211D01*
X155586272Y-85853706D01*
X155519035Y-85872706D01*
X155479346Y-85865754D01*
X155373257Y-85828632D01*
X155373249Y-85828630D01*
X155194004Y-85808435D01*
X155193996Y-85808435D01*
X155014750Y-85828630D01*
X155014745Y-85828631D01*
X154844476Y-85888211D01*
X154705972Y-85975240D01*
X154638735Y-85994240D01*
X154574028Y-85975240D01*
X154435523Y-85888211D01*
X154265254Y-85828631D01*
X154265249Y-85828630D01*
X154086004Y-85808435D01*
X154085996Y-85808435D01*
X153906750Y-85828630D01*
X153906745Y-85828631D01*
X153736476Y-85888211D01*
X153583737Y-85984184D01*
X153456184Y-86111737D01*
X153360211Y-86264476D01*
X153300631Y-86434745D01*
X153300630Y-86434750D01*
X153280435Y-86613996D01*
X150989005Y-86613996D01*
X150844523Y-86523211D01*
X150674254Y-86463631D01*
X150674249Y-86463630D01*
X150495004Y-86443435D01*
X150494996Y-86443435D01*
X150315750Y-86463630D01*
X150315745Y-86463631D01*
X150145476Y-86523211D01*
X149992737Y-86619184D01*
X149865184Y-86746737D01*
X149769211Y-86899476D01*
X149709631Y-87069745D01*
X149709630Y-87069750D01*
X149689435Y-87248996D01*
X149395565Y-87248996D01*
X149375369Y-87069750D01*
X149375368Y-87069745D01*
X149320291Y-86912344D01*
X149315789Y-86899478D01*
X149299267Y-86873184D01*
X149276231Y-86836522D01*
X149219816Y-86746738D01*
X149092262Y-86619184D01*
X148939523Y-86523211D01*
X148769254Y-86463631D01*
X148769249Y-86463630D01*
X148590004Y-86443435D01*
X148589996Y-86443435D01*
X148410750Y-86463630D01*
X148410745Y-86463631D01*
X148240476Y-86523211D01*
X148087737Y-86619184D01*
X147960184Y-86746737D01*
X147864211Y-86899476D01*
X147804631Y-87069745D01*
X147804630Y-87069750D01*
X147784435Y-87248996D01*
X147784435Y-87249004D01*
X147784484Y-87249440D01*
X147784435Y-87249719D01*
X147784435Y-87255963D01*
X147783341Y-87255963D01*
X147772422Y-87318260D01*
X147727237Y-87368302D01*
X147706740Y-87381181D01*
X147579184Y-87508737D01*
X147483211Y-87661476D01*
X147423631Y-87831745D01*
X147423630Y-87831750D01*
X147403435Y-88010996D01*
X142941009Y-88010996D01*
X143020903Y-87839663D01*
X143082063Y-87611408D01*
X143102659Y-87376000D01*
X143101985Y-87368302D01*
X143091877Y-87252760D01*
X143082063Y-87140592D01*
X143020903Y-86912337D01*
X142921035Y-86698171D01*
X142915425Y-86690158D01*
X142785494Y-86504597D01*
X142618402Y-86337506D01*
X142618395Y-86337501D01*
X142469148Y-86232996D01*
X144355435Y-86232996D01*
X144355435Y-86233003D01*
X144375630Y-86412249D01*
X144375631Y-86412254D01*
X144435211Y-86582523D01*
X144458247Y-86619184D01*
X144531184Y-86735262D01*
X144658738Y-86862816D01*
X144811478Y-86958789D01*
X144937737Y-87002969D01*
X144981745Y-87018368D01*
X144981750Y-87018369D01*
X145160996Y-87038565D01*
X145161000Y-87038565D01*
X145161004Y-87038565D01*
X145340249Y-87018369D01*
X145340252Y-87018368D01*
X145340255Y-87018368D01*
X145510522Y-86958789D01*
X145663262Y-86862816D01*
X145790816Y-86735262D01*
X145886789Y-86582522D01*
X145946368Y-86412255D01*
X145954790Y-86337506D01*
X145966565Y-86233003D01*
X145966565Y-86232996D01*
X145946369Y-86053750D01*
X145946366Y-86053737D01*
X145900886Y-85923764D01*
X145897324Y-85853985D01*
X145932052Y-85793358D01*
X145951951Y-85777818D01*
X146044262Y-85719816D01*
X146171816Y-85592262D01*
X146267789Y-85439522D01*
X146327368Y-85269255D01*
X146327369Y-85269249D01*
X146347565Y-85090003D01*
X146347565Y-85089996D01*
X146333256Y-84962996D01*
X150705435Y-84962996D01*
X150705435Y-84963003D01*
X150725630Y-85142249D01*
X150725631Y-85142254D01*
X150785211Y-85312523D01*
X150839696Y-85399235D01*
X150881184Y-85465262D01*
X151008738Y-85592816D01*
X151161478Y-85688789D01*
X151331745Y-85748368D01*
X151331750Y-85748369D01*
X151510996Y-85768565D01*
X151511000Y-85768565D01*
X151511004Y-85768565D01*
X151690249Y-85748369D01*
X151690252Y-85748368D01*
X151690255Y-85748368D01*
X151860522Y-85688789D01*
X152013262Y-85592816D01*
X152140816Y-85465262D01*
X152236789Y-85312522D01*
X152296368Y-85142255D01*
X152296369Y-85142249D01*
X152316565Y-84963003D01*
X152316565Y-84962996D01*
X152296369Y-84783750D01*
X152296368Y-84783745D01*
X152281228Y-84740478D01*
X152236789Y-84613478D01*
X152220615Y-84587738D01*
X152140815Y-84460737D01*
X152013262Y-84333184D01*
X151860523Y-84237211D01*
X151690254Y-84177631D01*
X151690249Y-84177630D01*
X151511004Y-84157435D01*
X151510996Y-84157435D01*
X151331750Y-84177630D01*
X151331745Y-84177631D01*
X151161476Y-84237211D01*
X151008737Y-84333184D01*
X150881184Y-84460737D01*
X150785211Y-84613476D01*
X150725631Y-84783745D01*
X150725630Y-84783750D01*
X150705435Y-84962996D01*
X146333256Y-84962996D01*
X146327369Y-84910750D01*
X146327368Y-84910745D01*
X146284784Y-84789048D01*
X146267789Y-84740478D01*
X146171816Y-84587738D01*
X146044262Y-84460184D01*
X145891523Y-84364211D01*
X145721254Y-84304631D01*
X145721249Y-84304630D01*
X145542004Y-84284435D01*
X145541996Y-84284435D01*
X145362750Y-84304630D01*
X145362745Y-84304631D01*
X145192476Y-84364211D01*
X145039737Y-84460184D01*
X144912184Y-84587737D01*
X144816211Y-84740476D01*
X144756631Y-84910745D01*
X144756630Y-84910750D01*
X144736435Y-85089996D01*
X144736435Y-85090003D01*
X144756630Y-85269249D01*
X144756631Y-85269254D01*
X144802114Y-85399235D01*
X144805675Y-85469014D01*
X144770946Y-85529642D01*
X144751044Y-85545184D01*
X144658737Y-85603184D01*
X144531184Y-85730737D01*
X144435211Y-85883476D01*
X144375631Y-86053745D01*
X144375630Y-86053750D01*
X144355435Y-86232996D01*
X142469148Y-86232996D01*
X142424834Y-86201967D01*
X142424830Y-86201965D01*
X142424828Y-86201964D01*
X142210663Y-86102097D01*
X142210659Y-86102096D01*
X142210655Y-86102094D01*
X141982413Y-86040938D01*
X141982403Y-86040936D01*
X141747001Y-86020341D01*
X141746999Y-86020341D01*
X141511596Y-86040936D01*
X141511586Y-86040938D01*
X141283344Y-86102094D01*
X141283335Y-86102098D01*
X141069171Y-86201964D01*
X141069169Y-86201965D01*
X140875597Y-86337505D01*
X140708505Y-86504597D01*
X140578575Y-86690158D01*
X140523998Y-86733783D01*
X140454500Y-86740977D01*
X140392145Y-86709454D01*
X140375425Y-86690158D01*
X140245494Y-86504597D01*
X140078402Y-86337506D01*
X140078395Y-86337501D01*
X139884834Y-86201967D01*
X139884830Y-86201965D01*
X139884828Y-86201964D01*
X139670663Y-86102097D01*
X139670659Y-86102096D01*
X139670655Y-86102094D01*
X139442413Y-86040938D01*
X139442403Y-86040936D01*
X139207001Y-86020341D01*
X139206999Y-86020341D01*
X138971596Y-86040936D01*
X138971586Y-86040938D01*
X138743344Y-86102094D01*
X138743335Y-86102098D01*
X138529171Y-86201964D01*
X138529169Y-86201965D01*
X138335600Y-86337503D01*
X138213673Y-86459430D01*
X138152350Y-86492914D01*
X138082658Y-86487930D01*
X138026725Y-86446058D01*
X138009810Y-86415081D01*
X137960797Y-86283671D01*
X137960793Y-86283664D01*
X137874547Y-86168455D01*
X137874544Y-86168452D01*
X137759335Y-86082206D01*
X137759328Y-86082202D01*
X137624482Y-86031908D01*
X137624483Y-86031908D01*
X137564883Y-86025501D01*
X137564881Y-86025500D01*
X137564873Y-86025500D01*
X137564864Y-86025500D01*
X135769129Y-86025500D01*
X135769123Y-86025501D01*
X135709516Y-86031908D01*
X135574671Y-86082202D01*
X135574664Y-86082206D01*
X135459455Y-86168452D01*
X135459452Y-86168455D01*
X135373206Y-86283664D01*
X135373202Y-86283671D01*
X135322908Y-86418517D01*
X135316501Y-86478116D01*
X135316500Y-86478135D01*
X107328360Y-86478135D01*
X107665100Y-84229514D01*
X107810131Y-83184996D01*
X156420435Y-83184996D01*
X156420435Y-83185003D01*
X156440630Y-83364249D01*
X156440631Y-83364254D01*
X156500211Y-83534523D01*
X156596184Y-83687262D01*
X156701076Y-83792154D01*
X156734561Y-83853477D01*
X156730437Y-83920789D01*
X156685664Y-84048742D01*
X156685662Y-84048750D01*
X156665467Y-84227996D01*
X156665467Y-84228003D01*
X156685662Y-84407249D01*
X156685663Y-84407254D01*
X156745243Y-84577523D01*
X156841216Y-84730262D01*
X156968770Y-84857816D01*
X157121510Y-84953789D01*
X157291777Y-85013368D01*
X157291782Y-85013369D01*
X157471028Y-85033565D01*
X157471032Y-85033565D01*
X157471036Y-85033565D01*
X157650281Y-85013369D01*
X157650284Y-85013368D01*
X157650287Y-85013368D01*
X157820554Y-84953789D01*
X157973294Y-84857816D01*
X158100848Y-84730262D01*
X158196821Y-84577522D01*
X158256400Y-84407255D01*
X158267963Y-84304630D01*
X158276597Y-84228003D01*
X158276597Y-84227996D01*
X158256401Y-84048750D01*
X158256400Y-84048745D01*
X158196820Y-83878476D01*
X158100847Y-83725737D01*
X157995955Y-83620845D01*
X157962470Y-83559522D01*
X157966595Y-83492209D01*
X158011366Y-83364262D01*
X158011369Y-83364249D01*
X158031565Y-83185003D01*
X158031565Y-83184996D01*
X158011369Y-83005750D01*
X158011368Y-83005745D01*
X157951788Y-82835476D01*
X157909257Y-82767789D01*
X157855816Y-82682738D01*
X157728262Y-82555184D01*
X157575523Y-82459211D01*
X157405254Y-82399631D01*
X157405249Y-82399630D01*
X157226004Y-82379435D01*
X157225996Y-82379435D01*
X157046750Y-82399630D01*
X157046745Y-82399631D01*
X156876476Y-82459211D01*
X156723737Y-82555184D01*
X156596184Y-82682737D01*
X156500211Y-82835476D01*
X156440631Y-83005745D01*
X156440630Y-83005750D01*
X156420435Y-83184996D01*
X107810131Y-83184996D01*
X108100192Y-81095974D01*
X108136023Y-80815998D01*
X109692532Y-80815998D01*
X109692532Y-80816001D01*
X109712364Y-81042686D01*
X109712366Y-81042697D01*
X109771258Y-81262488D01*
X109771261Y-81262497D01*
X109867431Y-81468732D01*
X109867432Y-81468734D01*
X109997954Y-81655141D01*
X110158858Y-81816045D01*
X110175031Y-81827369D01*
X110345266Y-81946568D01*
X110551504Y-82042739D01*
X110551509Y-82042740D01*
X110551511Y-82042741D01*
X110570164Y-82047739D01*
X110771308Y-82101635D01*
X110933230Y-82115801D01*
X110997998Y-82121468D01*
X110998000Y-82121468D01*
X110998002Y-82121468D01*
X111054673Y-82116509D01*
X111224692Y-82101635D01*
X111444496Y-82042739D01*
X111650734Y-81946568D01*
X111837139Y-81816047D01*
X111998047Y-81655139D01*
X112128568Y-81468734D01*
X112224739Y-81262496D01*
X112283635Y-81042692D01*
X112285096Y-81025996D01*
X141815435Y-81025996D01*
X141815435Y-81026003D01*
X141835630Y-81205249D01*
X141835631Y-81205254D01*
X141895211Y-81375523D01*
X141934769Y-81438478D01*
X141991184Y-81528262D01*
X142118738Y-81655816D01*
X142271478Y-81751789D01*
X142423615Y-81805024D01*
X142441745Y-81811368D01*
X142441750Y-81811369D01*
X142620996Y-81831565D01*
X142621000Y-81831565D01*
X142621004Y-81831565D01*
X142800248Y-81811369D01*
X142800248Y-81811368D01*
X142800255Y-81811368D01*
X142808200Y-81808587D01*
X142877976Y-81805024D01*
X142938604Y-81839750D01*
X142970834Y-81901743D01*
X142972376Y-81911743D01*
X142978630Y-81967250D01*
X142978631Y-81967254D01*
X143038211Y-82137523D01*
X143077769Y-82200478D01*
X143134184Y-82290262D01*
X143261738Y-82417816D01*
X143414478Y-82513789D01*
X143446732Y-82525075D01*
X143584745Y-82573368D01*
X143584750Y-82573369D01*
X143763996Y-82593565D01*
X143764000Y-82593565D01*
X143764004Y-82593565D01*
X143943249Y-82573369D01*
X143943252Y-82573368D01*
X143943255Y-82573368D01*
X144113522Y-82513789D01*
X144266262Y-82417816D01*
X144393816Y-82290262D01*
X144489789Y-82137522D01*
X144523215Y-82041996D01*
X153372435Y-82041996D01*
X153372435Y-82042003D01*
X153392630Y-82221249D01*
X153392631Y-82221254D01*
X153452211Y-82391523D01*
X153536128Y-82525075D01*
X153548184Y-82544262D01*
X153675738Y-82671816D01*
X153828478Y-82767789D01*
X153998745Y-82827368D01*
X153998750Y-82827369D01*
X154177996Y-82847565D01*
X154178000Y-82847565D01*
X154178004Y-82847565D01*
X154357249Y-82827369D01*
X154357252Y-82827368D01*
X154357255Y-82827368D01*
X154527522Y-82767789D01*
X154680262Y-82671816D01*
X154807816Y-82544262D01*
X154903789Y-82391522D01*
X154963368Y-82221255D01*
X154965709Y-82200478D01*
X154983565Y-82042003D01*
X154983565Y-82041996D01*
X154963369Y-81862750D01*
X154963368Y-81862745D01*
X154944418Y-81808588D01*
X154903789Y-81692478D01*
X154807816Y-81539738D01*
X154680262Y-81412184D01*
X154527523Y-81316211D01*
X154357254Y-81256631D01*
X154357249Y-81256630D01*
X154178004Y-81236435D01*
X154177996Y-81236435D01*
X153998750Y-81256630D01*
X153998745Y-81256631D01*
X153828476Y-81316211D01*
X153675737Y-81412184D01*
X153548184Y-81539737D01*
X153452211Y-81692476D01*
X153392631Y-81862745D01*
X153392630Y-81862750D01*
X153372435Y-82041996D01*
X144523215Y-82041996D01*
X144549368Y-81967255D01*
X144555623Y-81911743D01*
X144569565Y-81788003D01*
X144569565Y-81787996D01*
X144549369Y-81608750D01*
X144549368Y-81608745D01*
X144489788Y-81438476D01*
X144393815Y-81285737D01*
X144266262Y-81158184D01*
X144113523Y-81062211D01*
X143943254Y-81002631D01*
X143943249Y-81002630D01*
X143764004Y-80982435D01*
X143763996Y-80982435D01*
X143584746Y-81002631D01*
X143576793Y-81005414D01*
X143507014Y-81008974D01*
X143446388Y-80974243D01*
X143414163Y-80912249D01*
X143412625Y-80902281D01*
X143406368Y-80846745D01*
X143346789Y-80676478D01*
X143250816Y-80523738D01*
X143123262Y-80396184D01*
X143026153Y-80335166D01*
X142970523Y-80300211D01*
X142800254Y-80240631D01*
X142800249Y-80240630D01*
X142621004Y-80220435D01*
X142620996Y-80220435D01*
X142441750Y-80240630D01*
X142441745Y-80240631D01*
X142271476Y-80300211D01*
X142118737Y-80396184D01*
X141991184Y-80523737D01*
X141895211Y-80676476D01*
X141835631Y-80846745D01*
X141835630Y-80846750D01*
X141815435Y-81025996D01*
X112285096Y-81025996D01*
X112303468Y-80816000D01*
X112283635Y-80589308D01*
X112224739Y-80369504D01*
X112128568Y-80163266D01*
X111998047Y-79976861D01*
X111998045Y-79976858D01*
X111837141Y-79815954D01*
X111650734Y-79685432D01*
X111650732Y-79685431D01*
X111444497Y-79589261D01*
X111444488Y-79589258D01*
X111224697Y-79530366D01*
X111224693Y-79530365D01*
X111224692Y-79530365D01*
X111224691Y-79530364D01*
X111224686Y-79530364D01*
X110998002Y-79510532D01*
X110997998Y-79510532D01*
X110771313Y-79530364D01*
X110771302Y-79530366D01*
X110551511Y-79589258D01*
X110551502Y-79589261D01*
X110345267Y-79685431D01*
X110345265Y-79685432D01*
X110158858Y-79815954D01*
X109997954Y-79976858D01*
X109867432Y-80163265D01*
X109867431Y-80163267D01*
X109771261Y-80369502D01*
X109771258Y-80369511D01*
X109712366Y-80589302D01*
X109712364Y-80589313D01*
X109692532Y-80815998D01*
X108136023Y-80815998D01*
X108401707Y-78739996D01*
X145752435Y-78739996D01*
X145752435Y-78740003D01*
X145772630Y-78919249D01*
X145772631Y-78919254D01*
X145832211Y-79089523D01*
X145910223Y-79213678D01*
X145928184Y-79242262D01*
X146055738Y-79369816D01*
X146208478Y-79465789D01*
X146295565Y-79496262D01*
X146378745Y-79525368D01*
X146378750Y-79525369D01*
X146557996Y-79545565D01*
X146558000Y-79545565D01*
X146558004Y-79545565D01*
X146737249Y-79525369D01*
X146737252Y-79525368D01*
X146737255Y-79525368D01*
X146907522Y-79465789D01*
X147060262Y-79369816D01*
X147187816Y-79242262D01*
X147283789Y-79089522D01*
X147343368Y-78919255D01*
X147346721Y-78889495D01*
X147363565Y-78740003D01*
X147363565Y-78739996D01*
X147343369Y-78560750D01*
X147343368Y-78560745D01*
X147327885Y-78516498D01*
X147283789Y-78390478D01*
X147267267Y-78364184D01*
X147187815Y-78237737D01*
X147060262Y-78110184D01*
X146907523Y-78014211D01*
X146737254Y-77954631D01*
X146737249Y-77954630D01*
X146558004Y-77934435D01*
X146557996Y-77934435D01*
X146378750Y-77954630D01*
X146378745Y-77954631D01*
X146208476Y-78014211D01*
X146055737Y-78110184D01*
X145928184Y-78237737D01*
X145832211Y-78390476D01*
X145772631Y-78560745D01*
X145772630Y-78560750D01*
X145752435Y-78739996D01*
X108401707Y-78739996D01*
X108501790Y-77957966D01*
X108658986Y-76615983D01*
X109697500Y-76615983D01*
X109697500Y-77816001D01*
X109697501Y-77816018D01*
X109708000Y-77918796D01*
X109708001Y-77918799D01*
X109763185Y-78085331D01*
X109763187Y-78085336D01*
X109793304Y-78134164D01*
X109855288Y-78234656D01*
X109979344Y-78358712D01*
X110128666Y-78450814D01*
X110295203Y-78505999D01*
X110397991Y-78516500D01*
X111598008Y-78516499D01*
X111700797Y-78505999D01*
X111867334Y-78450814D01*
X112016656Y-78358712D01*
X112140712Y-78234656D01*
X112232814Y-78085334D01*
X112287999Y-77918797D01*
X112298500Y-77816009D01*
X112298499Y-76615992D01*
X112287999Y-76513203D01*
X112232814Y-76346666D01*
X112220682Y-76326996D01*
X139529435Y-76326996D01*
X139529435Y-76327003D01*
X139549630Y-76506249D01*
X139549631Y-76506254D01*
X139609211Y-76676523D01*
X139694652Y-76812501D01*
X139705184Y-76829262D01*
X139832738Y-76956816D01*
X139985478Y-77052789D01*
X140155745Y-77112368D01*
X140155750Y-77112369D01*
X140334996Y-77132565D01*
X140335000Y-77132565D01*
X140335004Y-77132565D01*
X140514249Y-77112369D01*
X140514252Y-77112368D01*
X140514255Y-77112368D01*
X140684522Y-77052789D01*
X140837262Y-76956816D01*
X140882319Y-76911759D01*
X140943642Y-76878274D01*
X141013334Y-76883258D01*
X141057681Y-76911759D01*
X141102738Y-76956816D01*
X141255478Y-77052789D01*
X141425745Y-77112368D01*
X141425750Y-77112369D01*
X141604996Y-77132565D01*
X141605000Y-77132565D01*
X141605004Y-77132565D01*
X141784249Y-77112369D01*
X141784252Y-77112368D01*
X141784255Y-77112368D01*
X141954522Y-77052789D01*
X142107262Y-76956816D01*
X142107263Y-76956814D01*
X142110527Y-76954764D01*
X142177764Y-76935763D01*
X142242473Y-76954764D01*
X142245736Y-76956814D01*
X142245738Y-76956816D01*
X142281994Y-76979597D01*
X142398475Y-77052788D01*
X142568745Y-77112368D01*
X142568750Y-77112369D01*
X142747996Y-77132565D01*
X142748000Y-77132565D01*
X142748004Y-77132565D01*
X142927249Y-77112369D01*
X142927252Y-77112368D01*
X142927255Y-77112368D01*
X143097522Y-77052789D01*
X143250262Y-76956816D01*
X143377816Y-76829262D01*
X143473789Y-76676522D01*
X143533368Y-76506255D01*
X143535237Y-76489669D01*
X143553565Y-76327003D01*
X143553565Y-76326996D01*
X143533369Y-76147750D01*
X143533368Y-76147745D01*
X143494031Y-76035326D01*
X143473789Y-75977478D01*
X143377816Y-75824738D01*
X143250262Y-75697184D01*
X143097523Y-75601211D01*
X142927254Y-75541631D01*
X142927249Y-75541630D01*
X142748004Y-75521435D01*
X142747996Y-75521435D01*
X142568750Y-75541630D01*
X142568745Y-75541631D01*
X142398476Y-75601211D01*
X142242472Y-75699236D01*
X142175235Y-75718236D01*
X142110528Y-75699236D01*
X141954523Y-75601211D01*
X141784254Y-75541631D01*
X141784249Y-75541630D01*
X141605004Y-75521435D01*
X141604996Y-75521435D01*
X141425750Y-75541630D01*
X141425745Y-75541631D01*
X141255476Y-75601211D01*
X141102737Y-75697184D01*
X141057680Y-75742241D01*
X140996357Y-75775725D01*
X140926665Y-75770740D01*
X140882320Y-75742241D01*
X140837263Y-75697185D01*
X140837262Y-75697184D01*
X140684523Y-75601211D01*
X140514254Y-75541631D01*
X140514249Y-75541630D01*
X140335004Y-75521435D01*
X140334996Y-75521435D01*
X140155750Y-75541630D01*
X140155745Y-75541631D01*
X139985476Y-75601211D01*
X139832737Y-75697184D01*
X139705184Y-75824737D01*
X139609211Y-75977476D01*
X139549631Y-76147745D01*
X139549630Y-76147750D01*
X139529435Y-76326996D01*
X112220682Y-76326996D01*
X112140712Y-76197344D01*
X112016656Y-76073288D01*
X111923888Y-76016069D01*
X111867336Y-75981187D01*
X111867331Y-75981185D01*
X111856138Y-75977476D01*
X111700797Y-75926001D01*
X111700795Y-75926000D01*
X111598010Y-75915500D01*
X110397998Y-75915500D01*
X110397981Y-75915501D01*
X110295203Y-75926000D01*
X110295200Y-75926001D01*
X110128668Y-75981185D01*
X110128663Y-75981187D01*
X109979342Y-76073289D01*
X109855289Y-76197342D01*
X109763187Y-76346663D01*
X109763185Y-76346668D01*
X109735349Y-76430670D01*
X109708001Y-76513203D01*
X109708001Y-76513204D01*
X109708000Y-76513204D01*
X109697500Y-76615983D01*
X108658986Y-76615983D01*
X108811848Y-75310999D01*
X148885341Y-75310999D01*
X148885341Y-75311000D01*
X148905936Y-75546403D01*
X148905938Y-75546413D01*
X148967094Y-75774655D01*
X148967096Y-75774659D01*
X148967097Y-75774663D01*
X149031792Y-75913401D01*
X149066965Y-75988830D01*
X149066967Y-75988834D01*
X149202501Y-76182395D01*
X149202506Y-76182402D01*
X149369597Y-76349493D01*
X149369603Y-76349498D01*
X149555158Y-76479425D01*
X149598783Y-76534002D01*
X149605977Y-76603500D01*
X149574454Y-76665855D01*
X149555158Y-76682575D01*
X149369597Y-76812505D01*
X149202505Y-76979597D01*
X149066965Y-77173169D01*
X149066964Y-77173171D01*
X148967098Y-77387335D01*
X148967094Y-77387344D01*
X148905938Y-77615586D01*
X148905936Y-77615596D01*
X148885341Y-77850999D01*
X148885341Y-77851000D01*
X148905936Y-78086403D01*
X148905938Y-78086413D01*
X148967094Y-78314655D01*
X148967096Y-78314659D01*
X148967097Y-78314663D01*
X149061215Y-78516499D01*
X149066965Y-78528830D01*
X149066967Y-78528834D01*
X149168844Y-78674328D01*
X149202505Y-78722401D01*
X149369599Y-78889495D01*
X149466384Y-78957265D01*
X149563165Y-79025032D01*
X149563167Y-79025033D01*
X149563170Y-79025035D01*
X149777337Y-79124903D01*
X150005592Y-79186063D01*
X150193918Y-79202539D01*
X150240999Y-79206659D01*
X150241000Y-79206659D01*
X150241001Y-79206659D01*
X150280234Y-79203226D01*
X150476408Y-79186063D01*
X150704663Y-79124903D01*
X150918830Y-79025035D01*
X151112401Y-78889495D01*
X151279495Y-78722401D01*
X151415035Y-78528830D01*
X151514903Y-78314663D01*
X151576063Y-78086408D01*
X151596659Y-77851000D01*
X151576063Y-77615592D01*
X151514903Y-77387337D01*
X151415035Y-77173171D01*
X151386603Y-77132565D01*
X151279494Y-76979597D01*
X151112402Y-76812506D01*
X151112396Y-76812501D01*
X150926842Y-76682575D01*
X150883217Y-76627998D01*
X150876023Y-76558500D01*
X150907546Y-76496145D01*
X150926842Y-76479425D01*
X151076754Y-76374455D01*
X151112401Y-76349495D01*
X151279495Y-76182401D01*
X151415035Y-75988830D01*
X151514903Y-75774663D01*
X151576063Y-75546408D01*
X151596659Y-75311000D01*
X151576063Y-75075592D01*
X151514903Y-74847337D01*
X151415035Y-74633171D01*
X151279495Y-74439599D01*
X151157567Y-74317671D01*
X151124084Y-74256351D01*
X151129068Y-74186659D01*
X151170939Y-74130725D01*
X151201915Y-74113810D01*
X151333331Y-74064796D01*
X151448546Y-73978546D01*
X151534796Y-73863331D01*
X151585091Y-73728483D01*
X151591500Y-73668873D01*
X151591499Y-71873128D01*
X151585091Y-71813517D01*
X151557043Y-71738317D01*
X151534797Y-71678671D01*
X151534793Y-71678664D01*
X151448547Y-71563455D01*
X151448544Y-71563452D01*
X151333335Y-71477206D01*
X151333328Y-71477202D01*
X151198482Y-71426908D01*
X151198483Y-71426908D01*
X151138883Y-71420501D01*
X151138881Y-71420500D01*
X151138873Y-71420500D01*
X151138864Y-71420500D01*
X149343129Y-71420500D01*
X149343123Y-71420501D01*
X149283516Y-71426908D01*
X149148671Y-71477202D01*
X149148664Y-71477206D01*
X149033455Y-71563452D01*
X149033452Y-71563455D01*
X148947206Y-71678664D01*
X148947202Y-71678671D01*
X148896908Y-71813517D01*
X148892058Y-71858632D01*
X148890501Y-71873123D01*
X148890500Y-71873135D01*
X148890500Y-73668870D01*
X148890501Y-73668876D01*
X148896908Y-73728483D01*
X148947202Y-73863328D01*
X148947206Y-73863335D01*
X149033452Y-73978544D01*
X149033455Y-73978547D01*
X149148664Y-74064793D01*
X149148671Y-74064797D01*
X149280081Y-74113810D01*
X149336015Y-74155681D01*
X149360432Y-74221145D01*
X149345580Y-74289418D01*
X149324430Y-74317673D01*
X149202503Y-74439600D01*
X149066965Y-74633169D01*
X149066964Y-74633171D01*
X148967098Y-74847335D01*
X148967094Y-74847344D01*
X148905938Y-75075586D01*
X148905936Y-75075596D01*
X148885341Y-75310999D01*
X108811848Y-75310999D01*
X108869849Y-74815847D01*
X109204325Y-71669976D01*
X109426721Y-69341996D01*
X144228435Y-69341996D01*
X144228435Y-69342003D01*
X144248630Y-69521249D01*
X144248631Y-69521254D01*
X144308211Y-69691523D01*
X144404184Y-69844262D01*
X144508721Y-69948799D01*
X144542206Y-70010122D01*
X144538081Y-70077435D01*
X144502633Y-70178737D01*
X144502630Y-70178750D01*
X144482435Y-70357996D01*
X144482435Y-70358003D01*
X144502630Y-70537249D01*
X144502631Y-70537254D01*
X144562211Y-70707523D01*
X144607200Y-70779122D01*
X144658184Y-70860262D01*
X144785738Y-70987816D01*
X144938478Y-71083789D01*
X144977179Y-71097331D01*
X145108745Y-71143368D01*
X145108750Y-71143369D01*
X145287996Y-71163565D01*
X145288000Y-71163565D01*
X145288004Y-71163565D01*
X145467249Y-71143369D01*
X145467251Y-71143368D01*
X145467255Y-71143368D01*
X145467258Y-71143366D01*
X145467262Y-71143366D01*
X145598821Y-71097331D01*
X145668599Y-71093768D01*
X145729227Y-71128497D01*
X145761455Y-71190490D01*
X145762996Y-71228254D01*
X145752435Y-71321994D01*
X145752435Y-71322003D01*
X145772630Y-71501249D01*
X145772631Y-71501254D01*
X145832211Y-71671523D01*
X145861439Y-71718038D01*
X145928184Y-71824262D01*
X146055738Y-71951816D01*
X146208478Y-72047789D01*
X146257510Y-72064946D01*
X146378745Y-72107368D01*
X146378750Y-72107369D01*
X146557996Y-72127565D01*
X146558000Y-72127565D01*
X146558004Y-72127565D01*
X146737249Y-72107369D01*
X146737251Y-72107368D01*
X146737255Y-72107368D01*
X146737258Y-72107366D01*
X146737262Y-72107366D01*
X146858491Y-72064946D01*
X146928270Y-72061384D01*
X146988897Y-72096112D01*
X147021125Y-72158105D01*
X147014720Y-72227681D01*
X147004440Y-72247958D01*
X146975212Y-72294474D01*
X146915631Y-72464745D01*
X146915630Y-72464750D01*
X146895435Y-72643996D01*
X146895435Y-72644003D01*
X146915630Y-72823249D01*
X146915631Y-72823254D01*
X146975211Y-72993523D01*
X147065414Y-73137079D01*
X147071184Y-73146262D01*
X147198738Y-73273816D01*
X147351478Y-73369789D01*
X147521745Y-73429368D01*
X147521750Y-73429369D01*
X147700996Y-73449565D01*
X147701000Y-73449565D01*
X147701004Y-73449565D01*
X147880249Y-73429369D01*
X147880252Y-73429368D01*
X147880255Y-73429368D01*
X148050522Y-73369789D01*
X148203262Y-73273816D01*
X148330816Y-73146262D01*
X148426789Y-72993522D01*
X148486368Y-72823255D01*
X148506565Y-72644000D01*
X148501826Y-72601941D01*
X148486369Y-72464750D01*
X148486368Y-72464745D01*
X148426788Y-72294476D01*
X148330815Y-72141737D01*
X148203262Y-72014184D01*
X148050523Y-71918211D01*
X147880254Y-71858631D01*
X147880249Y-71858630D01*
X147701004Y-71838435D01*
X147700996Y-71838435D01*
X147521750Y-71858630D01*
X147521742Y-71858632D01*
X147400507Y-71901054D01*
X147330728Y-71904615D01*
X147270101Y-71869886D01*
X147237874Y-71807892D01*
X147244280Y-71738317D01*
X147254555Y-71718046D01*
X147283789Y-71671522D01*
X147343368Y-71501255D01*
X147346662Y-71472022D01*
X147363565Y-71322003D01*
X147363565Y-71321996D01*
X147343369Y-71142750D01*
X147343368Y-71142745D01*
X147289156Y-70987816D01*
X147283789Y-70972478D01*
X147187816Y-70819738D01*
X147060262Y-70692184D01*
X147053775Y-70688108D01*
X152824378Y-70688108D01*
X152824378Y-79819891D01*
X152858486Y-79947187D01*
X152875617Y-79976858D01*
X152924378Y-80061314D01*
X153017564Y-80154500D01*
X153131692Y-80220392D01*
X153258986Y-80254500D01*
X159106060Y-80254500D01*
X159173099Y-80274185D01*
X159218854Y-80326989D01*
X159228798Y-80396147D01*
X159199773Y-80459703D01*
X159193741Y-80466181D01*
X159136184Y-80523737D01*
X159040211Y-80676476D01*
X158980631Y-80846745D01*
X158980630Y-80846750D01*
X158960435Y-81025996D01*
X158960435Y-81026003D01*
X158980630Y-81205249D01*
X158980631Y-81205254D01*
X159040211Y-81375523D01*
X159079769Y-81438478D01*
X159136184Y-81528262D01*
X159263738Y-81655816D01*
X159416478Y-81751789D01*
X159568615Y-81805024D01*
X159586745Y-81811368D01*
X159586750Y-81811369D01*
X159765996Y-81831565D01*
X159766000Y-81831565D01*
X159766004Y-81831565D01*
X159945249Y-81811369D01*
X159945251Y-81811368D01*
X159945255Y-81811368D01*
X159945258Y-81811366D01*
X159945262Y-81811366D01*
X160114371Y-81752192D01*
X160184150Y-81748630D01*
X160244777Y-81783358D01*
X160277005Y-81845352D01*
X160270600Y-81914927D01*
X160243008Y-81956914D01*
X160152183Y-82047739D01*
X160056211Y-82200476D01*
X159996631Y-82370745D01*
X159996630Y-82370750D01*
X159976435Y-82549996D01*
X159976435Y-82550003D01*
X159996630Y-82729249D01*
X159996631Y-82729254D01*
X160056211Y-82899523D01*
X160152184Y-83052262D01*
X160279738Y-83179816D01*
X160432478Y-83275789D01*
X160602745Y-83335368D01*
X160602750Y-83335369D01*
X160781996Y-83355565D01*
X160782000Y-83355565D01*
X160782004Y-83355565D01*
X160961249Y-83335369D01*
X160961252Y-83335368D01*
X160961255Y-83335368D01*
X161131522Y-83275789D01*
X161284262Y-83179816D01*
X161411816Y-83052262D01*
X161507789Y-82899522D01*
X161567368Y-82729255D01*
X161572609Y-82682738D01*
X161587565Y-82550003D01*
X161587565Y-82549996D01*
X161567369Y-82370750D01*
X161567368Y-82370745D01*
X161507788Y-82200476D01*
X161445682Y-82101635D01*
X161411816Y-82047738D01*
X161284262Y-81920184D01*
X161270828Y-81911743D01*
X161131523Y-81824211D01*
X160961254Y-81764631D01*
X160961249Y-81764630D01*
X160782004Y-81744435D01*
X160781996Y-81744435D01*
X160602750Y-81764630D01*
X160602742Y-81764632D01*
X160433627Y-81823808D01*
X160363848Y-81827369D01*
X160303221Y-81792640D01*
X160270994Y-81730647D01*
X160277399Y-81661071D01*
X160304988Y-81619089D01*
X160395816Y-81528262D01*
X160491789Y-81375522D01*
X160551368Y-81205255D01*
X160569684Y-81042697D01*
X160571565Y-81026003D01*
X160571565Y-81025996D01*
X160551369Y-80846750D01*
X160551368Y-80846745D01*
X160491788Y-80676476D01*
X160452582Y-80614080D01*
X160395816Y-80523738D01*
X160338259Y-80466181D01*
X160304774Y-80404858D01*
X160309758Y-80335166D01*
X160351630Y-80279233D01*
X160417094Y-80254816D01*
X160425940Y-80254500D01*
X161646060Y-80254500D01*
X161713099Y-80274185D01*
X161758854Y-80326989D01*
X161768798Y-80396147D01*
X161739773Y-80459703D01*
X161733741Y-80466181D01*
X161676184Y-80523737D01*
X161580211Y-80676476D01*
X161520631Y-80846745D01*
X161520630Y-80846750D01*
X161500435Y-81025996D01*
X161500435Y-81026003D01*
X161520630Y-81205249D01*
X161520631Y-81205254D01*
X161580211Y-81375523D01*
X161619769Y-81438478D01*
X161676184Y-81528262D01*
X161803738Y-81655816D01*
X161956478Y-81751789D01*
X162108615Y-81805024D01*
X162126745Y-81811368D01*
X162126750Y-81811369D01*
X162305996Y-81831565D01*
X162306000Y-81831565D01*
X162306004Y-81831565D01*
X162485249Y-81811369D01*
X162485252Y-81811368D01*
X162485255Y-81811368D01*
X162655522Y-81751789D01*
X162808262Y-81655816D01*
X162935816Y-81528262D01*
X163031789Y-81375522D01*
X163091368Y-81205255D01*
X163109684Y-81042697D01*
X163111565Y-81026003D01*
X163111565Y-81025996D01*
X163091369Y-80846750D01*
X163091368Y-80846745D01*
X163031788Y-80676476D01*
X162992582Y-80614080D01*
X162935816Y-80523738D01*
X162878259Y-80466181D01*
X162844774Y-80404858D01*
X162849758Y-80335166D01*
X162891630Y-80279233D01*
X162957094Y-80254816D01*
X162965940Y-80254500D01*
X162976262Y-80254500D01*
X162976264Y-80254500D01*
X163103558Y-80220392D01*
X163217686Y-80154500D01*
X163310872Y-80061314D01*
X163376764Y-79947186D01*
X163410872Y-79819892D01*
X163410872Y-78993996D01*
X175470435Y-78993996D01*
X175470435Y-78994003D01*
X175490630Y-79173249D01*
X175490631Y-79173254D01*
X175550211Y-79343523D01*
X175646184Y-79496262D01*
X175773738Y-79623816D01*
X175926478Y-79719789D01*
X176096745Y-79779368D01*
X176096750Y-79779369D01*
X176275996Y-79799565D01*
X176276000Y-79799565D01*
X176276004Y-79799565D01*
X176455249Y-79779369D01*
X176455252Y-79779368D01*
X176455255Y-79779368D01*
X176625522Y-79719789D01*
X176778262Y-79623816D01*
X176905816Y-79496262D01*
X177001789Y-79343522D01*
X177061368Y-79173255D01*
X177066816Y-79124901D01*
X177081565Y-78994003D01*
X177081565Y-78993996D01*
X177061369Y-78814750D01*
X177061368Y-78814745D01*
X177035215Y-78740003D01*
X177001789Y-78644478D01*
X176905816Y-78491738D01*
X176778262Y-78364184D01*
X176769550Y-78358710D01*
X176625523Y-78268211D01*
X176455254Y-78208631D01*
X176455249Y-78208630D01*
X176276004Y-78188435D01*
X176275996Y-78188435D01*
X176096750Y-78208630D01*
X176096745Y-78208631D01*
X175926476Y-78268211D01*
X175773737Y-78364184D01*
X175646184Y-78491737D01*
X175550211Y-78644476D01*
X175490631Y-78814745D01*
X175490630Y-78814750D01*
X175470435Y-78993996D01*
X163410872Y-78993996D01*
X163410872Y-72501999D01*
X165014341Y-72501999D01*
X165014341Y-72502000D01*
X165034936Y-72737403D01*
X165034938Y-72737413D01*
X165096094Y-72965655D01*
X165096096Y-72965659D01*
X165096097Y-72965663D01*
X165176030Y-73137079D01*
X165195965Y-73179830D01*
X165195967Y-73179834D01*
X165331501Y-73373395D01*
X165331506Y-73373402D01*
X165498597Y-73540493D01*
X165498603Y-73540498D01*
X165684158Y-73670425D01*
X165727783Y-73725002D01*
X165734977Y-73794500D01*
X165703454Y-73856855D01*
X165684158Y-73873575D01*
X165498597Y-74003505D01*
X165331505Y-74170597D01*
X165195965Y-74364169D01*
X165195964Y-74364171D01*
X165096098Y-74578335D01*
X165096094Y-74578344D01*
X165034938Y-74806586D01*
X165034936Y-74806596D01*
X165014341Y-75041999D01*
X165014341Y-75042000D01*
X165034936Y-75277403D01*
X165034938Y-75277413D01*
X165096094Y-75505655D01*
X165096096Y-75505659D01*
X165096097Y-75505663D01*
X165140652Y-75601211D01*
X165195965Y-75719830D01*
X165195967Y-75719834D01*
X165269422Y-75824738D01*
X165331501Y-75913396D01*
X165331506Y-75913402D01*
X165453430Y-76035326D01*
X165486915Y-76096649D01*
X165481931Y-76166341D01*
X165440059Y-76222274D01*
X165409083Y-76239189D01*
X165277669Y-76288203D01*
X165277664Y-76288206D01*
X165162455Y-76374452D01*
X165162452Y-76374455D01*
X165076206Y-76489664D01*
X165076202Y-76489671D01*
X165025908Y-76624517D01*
X165020270Y-76676965D01*
X165019501Y-76684123D01*
X165019500Y-76684135D01*
X165019500Y-78479870D01*
X165019501Y-78479876D01*
X165025908Y-78539483D01*
X165076202Y-78674328D01*
X165076206Y-78674335D01*
X165162452Y-78789544D01*
X165162455Y-78789547D01*
X165277664Y-78875793D01*
X165277671Y-78875797D01*
X165412517Y-78926091D01*
X165412516Y-78926091D01*
X165419444Y-78926835D01*
X165472127Y-78932500D01*
X167267872Y-78932499D01*
X167327483Y-78926091D01*
X167462331Y-78875796D01*
X167577546Y-78789546D01*
X167663796Y-78674331D01*
X167714091Y-78539483D01*
X167720500Y-78479873D01*
X167720499Y-76684128D01*
X167714091Y-76624517D01*
X167710911Y-76615992D01*
X167663797Y-76489671D01*
X167663793Y-76489664D01*
X167577547Y-76374455D01*
X167577544Y-76374452D01*
X167462335Y-76288206D01*
X167462328Y-76288202D01*
X167330917Y-76239189D01*
X167274983Y-76197318D01*
X167250566Y-76131853D01*
X167265418Y-76063580D01*
X167286563Y-76035332D01*
X167408495Y-75913401D01*
X167544035Y-75719830D01*
X167643903Y-75505663D01*
X167705063Y-75277408D01*
X167725659Y-75042000D01*
X167705063Y-74806592D01*
X167643903Y-74578337D01*
X167544035Y-74364171D01*
X167419741Y-74186659D01*
X167408494Y-74170597D01*
X167241402Y-74003506D01*
X167241396Y-74003501D01*
X167055842Y-73873575D01*
X167012217Y-73818998D01*
X167005023Y-73749500D01*
X167036546Y-73687145D01*
X167055842Y-73670425D01*
X167078026Y-73654891D01*
X167241401Y-73540495D01*
X167408495Y-73373401D01*
X167544035Y-73179830D01*
X167643903Y-72965663D01*
X167705063Y-72737408D01*
X167725659Y-72502000D01*
X167705063Y-72266592D01*
X167643903Y-72038337D01*
X167544035Y-71824171D01*
X167536575Y-71813516D01*
X167408494Y-71630597D01*
X167241402Y-71463506D01*
X167241395Y-71463501D01*
X167047834Y-71327967D01*
X167047830Y-71327965D01*
X167035025Y-71321994D01*
X166833663Y-71228097D01*
X166833659Y-71228096D01*
X166833655Y-71228094D01*
X166605413Y-71166938D01*
X166605403Y-71166936D01*
X166370001Y-71146341D01*
X166369999Y-71146341D01*
X166134596Y-71166936D01*
X166134586Y-71166938D01*
X165906344Y-71228094D01*
X165906335Y-71228098D01*
X165692171Y-71327964D01*
X165692169Y-71327965D01*
X165498597Y-71463505D01*
X165331505Y-71630597D01*
X165195965Y-71824169D01*
X165195964Y-71824171D01*
X165096098Y-72038335D01*
X165096094Y-72038344D01*
X165034938Y-72266586D01*
X165034936Y-72266596D01*
X165014341Y-72501999D01*
X163410872Y-72501999D01*
X163410872Y-70688108D01*
X163376764Y-70560814D01*
X163310872Y-70446686D01*
X163217686Y-70353500D01*
X163144083Y-70311005D01*
X163103559Y-70287608D01*
X163023221Y-70266082D01*
X162976264Y-70253500D01*
X153390770Y-70253500D01*
X153258986Y-70253500D01*
X153131690Y-70287608D01*
X153017564Y-70353500D01*
X153017561Y-70353502D01*
X152924380Y-70446683D01*
X152924378Y-70446686D01*
X152858486Y-70560812D01*
X152824378Y-70688108D01*
X147053775Y-70688108D01*
X146907523Y-70596211D01*
X146737254Y-70536631D01*
X146737249Y-70536630D01*
X146558004Y-70516435D01*
X146557996Y-70516435D01*
X146378750Y-70536630D01*
X146378742Y-70536632D01*
X146247177Y-70582669D01*
X146177399Y-70586230D01*
X146116771Y-70551501D01*
X146084544Y-70489508D01*
X146083003Y-70451745D01*
X146091602Y-70375420D01*
X146118668Y-70311005D01*
X146176262Y-70271450D01*
X146228705Y-70266082D01*
X146303996Y-70274565D01*
X146304000Y-70274565D01*
X146304004Y-70274565D01*
X146483249Y-70254369D01*
X146483252Y-70254368D01*
X146483255Y-70254368D01*
X146653522Y-70194789D01*
X146806262Y-70098816D01*
X146806264Y-70098813D01*
X146807572Y-70097992D01*
X146874809Y-70078991D01*
X146941644Y-70099358D01*
X146961226Y-70115304D01*
X147071738Y-70225816D01*
X147224478Y-70321789D01*
X147315103Y-70353500D01*
X147394745Y-70381368D01*
X147394750Y-70381369D01*
X147573996Y-70401565D01*
X147574000Y-70401565D01*
X147574004Y-70401565D01*
X147753249Y-70381369D01*
X147753252Y-70381368D01*
X147753255Y-70381368D01*
X147923522Y-70321789D01*
X148076262Y-70225816D01*
X148203816Y-70098262D01*
X148299789Y-69945522D01*
X148359368Y-69775255D01*
X148359369Y-69775249D01*
X148379565Y-69596003D01*
X148379565Y-69595996D01*
X148359369Y-69416750D01*
X148359368Y-69416745D01*
X148333215Y-69342003D01*
X148299789Y-69246478D01*
X148203816Y-69093738D01*
X148076262Y-68966184D01*
X148002218Y-68919659D01*
X147923523Y-68870211D01*
X147753254Y-68810631D01*
X147753249Y-68810630D01*
X147574004Y-68790435D01*
X147573996Y-68790435D01*
X147394750Y-68810630D01*
X147394745Y-68810631D01*
X147224476Y-68870211D01*
X147070426Y-68967008D01*
X147003189Y-68986008D01*
X146936354Y-68965640D01*
X146916773Y-68949695D01*
X146806262Y-68839184D01*
X146653523Y-68743211D01*
X146483254Y-68683631D01*
X146483249Y-68683630D01*
X146304004Y-68663435D01*
X146303996Y-68663435D01*
X146124750Y-68683630D01*
X146124745Y-68683631D01*
X145954476Y-68743211D01*
X145800426Y-68840008D01*
X145733189Y-68859008D01*
X145666354Y-68838640D01*
X145646773Y-68822695D01*
X145536262Y-68712184D01*
X145383523Y-68616211D01*
X145213254Y-68556631D01*
X145213249Y-68556630D01*
X145034004Y-68536435D01*
X145033996Y-68536435D01*
X144854750Y-68556630D01*
X144854745Y-68556631D01*
X144684476Y-68616211D01*
X144531737Y-68712184D01*
X144404184Y-68839737D01*
X144308211Y-68992476D01*
X144248631Y-69162745D01*
X144248630Y-69162750D01*
X144228435Y-69341996D01*
X109426721Y-69341996D01*
X109505180Y-68520712D01*
X109607805Y-67309996D01*
X139910435Y-67309996D01*
X139910435Y-67310003D01*
X139930630Y-67489249D01*
X139930631Y-67489254D01*
X139990211Y-67659523D01*
X140070010Y-67786522D01*
X140086184Y-67812262D01*
X140213738Y-67939816D01*
X140268498Y-67974224D01*
X140353545Y-68027663D01*
X140366478Y-68035789D01*
X140455148Y-68066816D01*
X140536745Y-68095368D01*
X140536750Y-68095369D01*
X140715996Y-68115565D01*
X140716000Y-68115565D01*
X140716004Y-68115565D01*
X140895249Y-68095369D01*
X140895252Y-68095368D01*
X140895255Y-68095368D01*
X141065522Y-68035789D01*
X141218262Y-67939816D01*
X141218268Y-67939809D01*
X141220368Y-67938136D01*
X141221991Y-67937472D01*
X141224159Y-67936111D01*
X141224397Y-67936490D01*
X141285051Y-67911718D01*
X141338648Y-67918030D01*
X141357577Y-67924654D01*
X141382862Y-67933502D01*
X141439637Y-67974224D01*
X141458948Y-68009589D01*
X141514210Y-68167521D01*
X141560902Y-68241830D01*
X141610184Y-68320262D01*
X141737738Y-68447816D01*
X141771427Y-68468984D01*
X141853765Y-68520721D01*
X141890478Y-68543789D01*
X142058244Y-68602493D01*
X142060745Y-68603368D01*
X142060750Y-68603369D01*
X142239996Y-68623565D01*
X142240000Y-68623565D01*
X142240004Y-68623565D01*
X142419249Y-68603369D01*
X142419252Y-68603368D01*
X142419255Y-68603368D01*
X142589522Y-68543789D01*
X142742262Y-68447816D01*
X142869816Y-68320262D01*
X142965789Y-68167522D01*
X143025368Y-67997255D01*
X143025369Y-67997249D01*
X143026291Y-67989069D01*
X143053357Y-67924654D01*
X143110951Y-67885099D01*
X143180788Y-67882960D01*
X143237192Y-67915270D01*
X143261738Y-67939816D01*
X143316498Y-67974224D01*
X143401545Y-68027663D01*
X143414478Y-68035789D01*
X143503148Y-68066816D01*
X143584745Y-68095368D01*
X143584750Y-68095369D01*
X143763996Y-68115565D01*
X143764000Y-68115565D01*
X143764004Y-68115565D01*
X143943249Y-68095369D01*
X143943252Y-68095368D01*
X143943255Y-68095368D01*
X144113522Y-68035789D01*
X144266262Y-67939816D01*
X144393816Y-67812262D01*
X144489789Y-67659522D01*
X144549368Y-67489255D01*
X144551709Y-67468478D01*
X144555256Y-67436996D01*
X145244435Y-67436996D01*
X145244435Y-67437003D01*
X145264630Y-67616249D01*
X145264631Y-67616254D01*
X145324211Y-67786523D01*
X145384807Y-67882960D01*
X145420184Y-67939262D01*
X145547738Y-68066816D01*
X145700478Y-68162789D01*
X145794598Y-68195723D01*
X145870745Y-68222368D01*
X145870750Y-68222369D01*
X146049996Y-68242565D01*
X146050000Y-68242565D01*
X146050004Y-68242565D01*
X146229249Y-68222369D01*
X146229252Y-68222368D01*
X146229255Y-68222368D01*
X146399522Y-68162789D01*
X146552262Y-68066816D01*
X146679816Y-67939262D01*
X146775789Y-67786522D01*
X146835368Y-67616255D01*
X146841256Y-67563999D01*
X146855565Y-67437003D01*
X146855565Y-67436996D01*
X146835369Y-67257750D01*
X146835368Y-67257745D01*
X146816335Y-67203352D01*
X146775789Y-67087478D01*
X146775174Y-67086500D01*
X146701184Y-66968745D01*
X146679816Y-66934738D01*
X146552262Y-66807184D01*
X146547744Y-66804345D01*
X146399523Y-66711211D01*
X146229254Y-66651631D01*
X146229249Y-66651630D01*
X146050004Y-66631435D01*
X146049996Y-66631435D01*
X145870750Y-66651630D01*
X145870745Y-66651631D01*
X145700476Y-66711211D01*
X145547737Y-66807184D01*
X145420184Y-66934737D01*
X145324211Y-67087476D01*
X145264631Y-67257745D01*
X145264630Y-67257750D01*
X145244435Y-67436996D01*
X144555256Y-67436996D01*
X144569565Y-67310003D01*
X144569565Y-67309996D01*
X144549369Y-67130750D01*
X144549368Y-67130745D01*
X144534321Y-67087742D01*
X144489789Y-66960478D01*
X144473615Y-66934738D01*
X144443099Y-66886171D01*
X144393816Y-66807738D01*
X144266262Y-66680184D01*
X144243892Y-66666128D01*
X144113523Y-66584211D01*
X143943254Y-66524631D01*
X143943249Y-66524630D01*
X143764004Y-66504435D01*
X143763996Y-66504435D01*
X143584750Y-66524630D01*
X143584745Y-66524631D01*
X143414476Y-66584211D01*
X143261737Y-66680184D01*
X143134184Y-66807737D01*
X143038211Y-66960476D01*
X142978631Y-67130745D01*
X142978629Y-67130755D01*
X142977707Y-67138939D01*
X142950637Y-67203352D01*
X142893039Y-67242903D01*
X142823202Y-67245036D01*
X142766807Y-67212729D01*
X142742262Y-67188184D01*
X142589521Y-67092210D01*
X142418875Y-67032499D01*
X142362098Y-66991777D01*
X142342787Y-66956411D01*
X142342732Y-66956255D01*
X142287524Y-66798478D01*
X142191551Y-66645738D01*
X142063997Y-66518184D01*
X142017228Y-66488797D01*
X141911258Y-66422211D01*
X141740989Y-66362631D01*
X141740984Y-66362630D01*
X141561739Y-66342435D01*
X141561731Y-66342435D01*
X141382485Y-66362630D01*
X141382480Y-66362631D01*
X141212211Y-66422211D01*
X141059473Y-66518183D01*
X141057353Y-66519875D01*
X141055723Y-66520540D01*
X141053577Y-66521889D01*
X141053340Y-66521512D01*
X140992666Y-66546283D01*
X140939087Y-66539969D01*
X140897744Y-66525503D01*
X140895255Y-66524632D01*
X140895254Y-66524631D01*
X140895252Y-66524631D01*
X140716004Y-66504435D01*
X140715996Y-66504435D01*
X140536750Y-66524630D01*
X140536745Y-66524631D01*
X140366476Y-66584211D01*
X140213737Y-66680184D01*
X140086184Y-66807737D01*
X139990211Y-66960476D01*
X139930631Y-67130745D01*
X139930630Y-67130750D01*
X139910435Y-67309996D01*
X109607805Y-67309996D01*
X109772381Y-65368415D01*
X109797872Y-65023996D01*
X139910435Y-65023996D01*
X139910435Y-65024003D01*
X139930630Y-65203249D01*
X139930631Y-65203254D01*
X139990211Y-65373523D01*
X140073862Y-65506652D01*
X140086184Y-65526262D01*
X140213738Y-65653816D01*
X140366478Y-65749789D01*
X140469963Y-65786000D01*
X140536745Y-65809368D01*
X140536750Y-65809369D01*
X140715996Y-65829565D01*
X140716000Y-65829565D01*
X140716004Y-65829565D01*
X140895249Y-65809369D01*
X140895252Y-65809368D01*
X140895255Y-65809368D01*
X141065522Y-65749789D01*
X141218262Y-65653816D01*
X141345816Y-65526262D01*
X141441789Y-65373522D01*
X141501368Y-65203255D01*
X141503311Y-65186013D01*
X141521565Y-65024003D01*
X141521565Y-65023996D01*
X141501369Y-64844750D01*
X141501368Y-64844745D01*
X141474284Y-64767344D01*
X141441789Y-64674478D01*
X141345816Y-64521738D01*
X141218262Y-64394184D01*
X141178368Y-64369117D01*
X141065523Y-64298211D01*
X140895254Y-64238631D01*
X140895249Y-64238630D01*
X140716004Y-64218435D01*
X140715996Y-64218435D01*
X140536750Y-64238630D01*
X140536745Y-64238631D01*
X140366476Y-64298211D01*
X140213737Y-64394184D01*
X140086184Y-64521737D01*
X139990211Y-64674476D01*
X139930631Y-64844745D01*
X139930630Y-64844750D01*
X139910435Y-65023996D01*
X109797872Y-65023996D01*
X109884791Y-63849617D01*
X109888679Y-63826679D01*
X109890502Y-63819877D01*
X109890502Y-63777073D01*
X109890840Y-63767919D01*
X109891870Y-63753999D01*
X145846696Y-63753999D01*
X145846696Y-63754000D01*
X145865898Y-64120405D01*
X145909571Y-64396147D01*
X145923295Y-64482794D01*
X145969553Y-64655432D01*
X146018260Y-64837206D01*
X146149746Y-65179739D01*
X146316320Y-65506656D01*
X146516147Y-65814364D01*
X146695625Y-66036000D01*
X146747051Y-66099506D01*
X147006494Y-66358949D01*
X147145694Y-66471671D01*
X147291635Y-66589852D01*
X147599343Y-66789679D01*
X147599348Y-66789682D01*
X147926264Y-66956255D01*
X148268801Y-67087742D01*
X148623206Y-67182705D01*
X148985596Y-67240102D01*
X149331734Y-67258241D01*
X149351999Y-67259304D01*
X149352000Y-67259304D01*
X149352001Y-67259304D01*
X149371203Y-67258297D01*
X149718404Y-67240102D01*
X150080794Y-67182705D01*
X150435199Y-67087742D01*
X150777736Y-66956255D01*
X151104652Y-66789682D01*
X151294898Y-66666135D01*
X153843500Y-66666135D01*
X153843500Y-68461870D01*
X153843501Y-68461876D01*
X153849908Y-68521483D01*
X153900202Y-68656328D01*
X153900206Y-68656335D01*
X153986452Y-68771544D01*
X153986455Y-68771547D01*
X154101664Y-68857793D01*
X154101671Y-68857797D01*
X154236517Y-68908091D01*
X154236516Y-68908091D01*
X154243444Y-68908835D01*
X154296127Y-68914500D01*
X156091872Y-68914499D01*
X156151483Y-68908091D01*
X156286331Y-68857796D01*
X156401546Y-68771546D01*
X156487796Y-68656331D01*
X156536810Y-68524916D01*
X156578681Y-68468984D01*
X156644145Y-68444566D01*
X156712418Y-68459417D01*
X156740673Y-68480569D01*
X156862599Y-68602495D01*
X156949630Y-68663435D01*
X157056165Y-68738032D01*
X157056167Y-68738033D01*
X157056170Y-68738035D01*
X157270337Y-68837903D01*
X157270343Y-68837904D01*
X157270344Y-68837905D01*
X157277185Y-68839738D01*
X157498592Y-68899063D01*
X157675034Y-68914500D01*
X157733999Y-68919659D01*
X157734000Y-68919659D01*
X157734001Y-68919659D01*
X157792966Y-68914500D01*
X157969408Y-68899063D01*
X158197663Y-68837903D01*
X158411830Y-68738035D01*
X158605401Y-68602495D01*
X158772495Y-68435401D01*
X158902425Y-68249842D01*
X158957002Y-68206217D01*
X159026500Y-68199023D01*
X159088855Y-68230546D01*
X159105575Y-68249842D01*
X159235500Y-68435395D01*
X159235505Y-68435401D01*
X159402599Y-68602495D01*
X159489630Y-68663435D01*
X159596165Y-68738032D01*
X159596167Y-68738033D01*
X159596170Y-68738035D01*
X159810337Y-68837903D01*
X159810343Y-68837904D01*
X159810344Y-68837905D01*
X159817185Y-68839738D01*
X160038592Y-68899063D01*
X160215034Y-68914500D01*
X160273999Y-68919659D01*
X160274000Y-68919659D01*
X160274001Y-68919659D01*
X160332966Y-68914500D01*
X160509408Y-68899063D01*
X160737663Y-68837903D01*
X160951830Y-68738035D01*
X161145401Y-68602495D01*
X161312495Y-68435401D01*
X161448035Y-68241830D01*
X161547903Y-68027663D01*
X161609063Y-67799408D01*
X161629659Y-67564000D01*
X161609063Y-67328592D01*
X161547903Y-67100337D01*
X161448035Y-66886171D01*
X161442425Y-66878158D01*
X161312494Y-66692597D01*
X161145402Y-66525506D01*
X161145395Y-66525501D01*
X161137360Y-66519875D01*
X161106521Y-66498281D01*
X160951834Y-66389967D01*
X160951830Y-66389965D01*
X160943297Y-66385986D01*
X178488001Y-66385986D01*
X178498494Y-66488697D01*
X178553641Y-66655119D01*
X178553643Y-66655124D01*
X178645684Y-66804345D01*
X178769654Y-66928315D01*
X178918875Y-67020356D01*
X178918880Y-67020358D01*
X179085302Y-67075505D01*
X179085309Y-67075506D01*
X179188019Y-67085999D01*
X179537999Y-67085999D01*
X180038000Y-67085999D01*
X180387972Y-67085999D01*
X180387986Y-67085998D01*
X180490697Y-67075505D01*
X180657119Y-67020358D01*
X180657124Y-67020356D01*
X180806345Y-66928315D01*
X180930315Y-66804345D01*
X181022356Y-66655124D01*
X181022358Y-66655119D01*
X181077505Y-66488697D01*
X181077506Y-66488690D01*
X181087999Y-66385986D01*
X181088000Y-66385973D01*
X181088000Y-66036000D01*
X180038000Y-66036000D01*
X180038000Y-67085999D01*
X179537999Y-67085999D01*
X179538000Y-67085998D01*
X179538000Y-66036000D01*
X178488001Y-66036000D01*
X178488001Y-66385986D01*
X160943297Y-66385986D01*
X160893210Y-66362630D01*
X160737663Y-66290097D01*
X160737659Y-66290096D01*
X160737655Y-66290094D01*
X160509413Y-66228938D01*
X160509403Y-66228936D01*
X160274001Y-66208341D01*
X160273999Y-66208341D01*
X160038596Y-66228936D01*
X160038586Y-66228938D01*
X159810344Y-66290094D01*
X159810335Y-66290098D01*
X159596171Y-66389964D01*
X159596169Y-66389965D01*
X159402597Y-66525505D01*
X159235505Y-66692597D01*
X159105575Y-66878158D01*
X159050998Y-66921783D01*
X158981500Y-66928977D01*
X158919145Y-66897454D01*
X158902425Y-66878158D01*
X158772494Y-66692597D01*
X158605402Y-66525506D01*
X158605395Y-66525501D01*
X158597360Y-66519875D01*
X158566521Y-66498281D01*
X158411834Y-66389967D01*
X158411830Y-66389965D01*
X158353210Y-66362630D01*
X158197663Y-66290097D01*
X158197659Y-66290096D01*
X158197655Y-66290094D01*
X157969413Y-66228938D01*
X157969403Y-66228936D01*
X157734001Y-66208341D01*
X157733999Y-66208341D01*
X157498596Y-66228936D01*
X157498586Y-66228938D01*
X157270344Y-66290094D01*
X157270335Y-66290098D01*
X157056171Y-66389964D01*
X157056169Y-66389965D01*
X156862600Y-66525503D01*
X156740673Y-66647430D01*
X156679350Y-66680914D01*
X156609658Y-66675930D01*
X156553725Y-66634058D01*
X156536810Y-66603081D01*
X156487797Y-66471671D01*
X156487793Y-66471664D01*
X156401547Y-66356455D01*
X156401544Y-66356452D01*
X156286335Y-66270206D01*
X156286328Y-66270202D01*
X156151482Y-66219908D01*
X156151483Y-66219908D01*
X156091883Y-66213501D01*
X156091881Y-66213500D01*
X156091873Y-66213500D01*
X156091864Y-66213500D01*
X154296129Y-66213500D01*
X154296123Y-66213501D01*
X154236516Y-66219908D01*
X154101671Y-66270202D01*
X154101664Y-66270206D01*
X153986455Y-66356452D01*
X153986452Y-66356455D01*
X153900206Y-66471664D01*
X153900202Y-66471671D01*
X153849908Y-66606517D01*
X153843501Y-66666116D01*
X153843500Y-66666135D01*
X151294898Y-66666135D01*
X151412366Y-66589851D01*
X151697506Y-66358949D01*
X151956949Y-66099506D01*
X152187851Y-65814366D01*
X152387682Y-65506652D01*
X152554255Y-65179736D01*
X152685742Y-64837199D01*
X152780705Y-64482794D01*
X152838102Y-64120404D01*
X152857304Y-63754000D01*
X152838102Y-63387596D01*
X152780705Y-63025206D01*
X152685742Y-62670801D01*
X152554255Y-62328264D01*
X152387682Y-62001348D01*
X152187851Y-61693634D01*
X151956949Y-61408494D01*
X151697506Y-61149051D01*
X151412366Y-60918149D01*
X151412364Y-60918147D01*
X151104656Y-60718320D01*
X150777739Y-60551746D01*
X150435206Y-60420260D01*
X150435199Y-60420258D01*
X150080794Y-60325295D01*
X150080790Y-60325294D01*
X150080789Y-60325294D01*
X149718405Y-60267898D01*
X149352001Y-60248696D01*
X149351999Y-60248696D01*
X148985594Y-60267898D01*
X148623211Y-60325294D01*
X148623209Y-60325294D01*
X148268793Y-60420260D01*
X147926260Y-60551746D01*
X147599343Y-60718320D01*
X147291635Y-60918147D01*
X147006498Y-61149047D01*
X147006490Y-61149054D01*
X146747054Y-61408490D01*
X146747047Y-61408498D01*
X146516147Y-61693635D01*
X146316320Y-62001343D01*
X146149746Y-62328260D01*
X146018260Y-62670793D01*
X145923294Y-63025209D01*
X145923294Y-63025211D01*
X145865898Y-63387594D01*
X145846696Y-63753999D01*
X109891870Y-63753999D01*
X109893333Y-63734235D01*
X109894001Y-63725216D01*
X109892685Y-63718295D01*
X109890502Y-63695131D01*
X109890502Y-57911996D01*
X143212435Y-57911996D01*
X143212435Y-57912003D01*
X143232630Y-58091249D01*
X143232631Y-58091254D01*
X143292211Y-58261523D01*
X143388184Y-58414262D01*
X143515738Y-58541816D01*
X143668478Y-58637789D01*
X143838745Y-58697368D01*
X143838750Y-58697369D01*
X144017996Y-58717565D01*
X144018000Y-58717565D01*
X144018004Y-58717565D01*
X144197249Y-58697369D01*
X144197252Y-58697368D01*
X144197255Y-58697368D01*
X144367522Y-58637789D01*
X144520262Y-58541816D01*
X144647816Y-58414262D01*
X144743789Y-58261522D01*
X144803368Y-58091255D01*
X144823565Y-57912000D01*
X144803368Y-57732745D01*
X144743789Y-57562478D01*
X144647816Y-57409738D01*
X144520262Y-57282184D01*
X144367523Y-57186211D01*
X144197254Y-57126631D01*
X144197249Y-57126630D01*
X144018004Y-57106435D01*
X144017996Y-57106435D01*
X143838750Y-57126630D01*
X143838745Y-57126631D01*
X143668476Y-57186211D01*
X143515737Y-57282184D01*
X143388184Y-57409737D01*
X143292211Y-57562476D01*
X143232631Y-57732745D01*
X143232630Y-57732750D01*
X143212435Y-57911996D01*
X109890502Y-57911996D01*
X109890502Y-56479986D01*
X113972001Y-56479986D01*
X113982494Y-56582697D01*
X114037641Y-56749119D01*
X114037643Y-56749124D01*
X114129684Y-56898345D01*
X114253654Y-57022315D01*
X114402875Y-57114356D01*
X114402880Y-57114358D01*
X114569302Y-57169505D01*
X114569309Y-57169506D01*
X114672019Y-57179999D01*
X115021999Y-57179999D01*
X115522000Y-57179999D01*
X115871972Y-57179999D01*
X115871986Y-57179998D01*
X115974697Y-57169505D01*
X116141119Y-57114358D01*
X116141124Y-57114356D01*
X116290345Y-57022315D01*
X116414315Y-56898345D01*
X116506356Y-56749124D01*
X116506358Y-56749119D01*
X116561505Y-56582697D01*
X116561506Y-56582690D01*
X116571999Y-56479986D01*
X116572000Y-56479973D01*
X116572000Y-56130000D01*
X115522000Y-56130000D01*
X115522000Y-57179999D01*
X115021999Y-57179999D01*
X115022000Y-57179998D01*
X115022000Y-56130000D01*
X113972001Y-56130000D01*
X113972001Y-56479986D01*
X109890502Y-56479986D01*
X109890502Y-55840504D01*
X114972000Y-55840504D01*
X114972000Y-55919496D01*
X114992444Y-55995796D01*
X115031940Y-56064205D01*
X115087795Y-56120060D01*
X115156204Y-56159556D01*
X115232504Y-56180000D01*
X115311496Y-56180000D01*
X115387796Y-56159556D01*
X115456205Y-56120060D01*
X115512060Y-56064205D01*
X115551556Y-55995796D01*
X115572000Y-55919496D01*
X115572000Y-55879998D01*
X117566532Y-55879998D01*
X117566532Y-55880001D01*
X117586364Y-56106686D01*
X117586366Y-56106697D01*
X117645258Y-56326488D01*
X117645261Y-56326497D01*
X117741431Y-56532732D01*
X117741432Y-56532734D01*
X117871954Y-56719141D01*
X118032858Y-56880045D01*
X118032861Y-56880047D01*
X118219266Y-57010568D01*
X118425504Y-57106739D01*
X118425509Y-57106740D01*
X118425511Y-57106741D01*
X118455633Y-57114812D01*
X118645308Y-57165635D01*
X118807230Y-57179801D01*
X118871998Y-57185468D01*
X118872000Y-57185468D01*
X118872002Y-57185468D01*
X118934522Y-57179998D01*
X119098692Y-57165635D01*
X119318496Y-57106739D01*
X119524734Y-57010568D01*
X119711139Y-56880047D01*
X119872047Y-56719139D01*
X120002568Y-56532734D01*
X120098739Y-56326496D01*
X120157635Y-56106692D01*
X120177468Y-55880000D01*
X120176248Y-55866060D01*
X120165377Y-55741796D01*
X120157635Y-55653308D01*
X120098739Y-55433504D01*
X120027151Y-55279983D01*
X124639500Y-55279983D01*
X124639500Y-56480001D01*
X124639501Y-56480018D01*
X124650000Y-56582796D01*
X124650001Y-56582799D01*
X124705185Y-56749331D01*
X124705187Y-56749336D01*
X124717137Y-56768710D01*
X124797288Y-56898656D01*
X124921344Y-57022712D01*
X125070666Y-57114814D01*
X125237203Y-57169999D01*
X125339991Y-57180500D01*
X126540008Y-57180499D01*
X126642797Y-57169999D01*
X126809334Y-57114814D01*
X126958656Y-57022712D01*
X127082712Y-56898656D01*
X127174814Y-56749334D01*
X127229999Y-56582797D01*
X127240500Y-56480009D01*
X127240499Y-55879998D01*
X128234532Y-55879998D01*
X128234532Y-55880001D01*
X128254364Y-56106686D01*
X128254366Y-56106697D01*
X128313258Y-56326488D01*
X128313261Y-56326497D01*
X128409431Y-56532732D01*
X128409432Y-56532734D01*
X128539954Y-56719141D01*
X128700858Y-56880045D01*
X128700861Y-56880047D01*
X128887266Y-57010568D01*
X129093504Y-57106739D01*
X129093509Y-57106740D01*
X129093511Y-57106741D01*
X129123633Y-57114812D01*
X129313308Y-57165635D01*
X129475230Y-57179801D01*
X129539998Y-57185468D01*
X129540000Y-57185468D01*
X129540002Y-57185468D01*
X129602522Y-57179998D01*
X129766692Y-57165635D01*
X129986496Y-57106739D01*
X130192734Y-57010568D01*
X130379139Y-56880047D01*
X130540047Y-56719139D01*
X130670568Y-56532734D01*
X130766739Y-56326496D01*
X130825635Y-56106692D01*
X130845468Y-55880000D01*
X130845468Y-55879996D01*
X144228435Y-55879996D01*
X144228435Y-55880003D01*
X144248630Y-56059249D01*
X144248631Y-56059254D01*
X144308211Y-56229523D01*
X144370591Y-56328799D01*
X144404184Y-56382262D01*
X144531738Y-56509816D01*
X144568209Y-56532732D01*
X144647889Y-56582799D01*
X144684478Y-56605789D01*
X144854745Y-56665368D01*
X144854750Y-56665369D01*
X145033996Y-56685565D01*
X145034000Y-56685565D01*
X145034004Y-56685565D01*
X145213249Y-56665369D01*
X145213252Y-56665368D01*
X145213255Y-56665368D01*
X145383522Y-56605789D01*
X145536262Y-56509816D01*
X145663816Y-56382262D01*
X145759789Y-56229522D01*
X145761026Y-56225986D01*
X156136001Y-56225986D01*
X156146494Y-56328697D01*
X156201641Y-56495119D01*
X156201643Y-56495124D01*
X156293684Y-56644345D01*
X156417654Y-56768315D01*
X156566875Y-56860356D01*
X156566880Y-56860358D01*
X156733302Y-56915505D01*
X156733309Y-56915506D01*
X156836019Y-56925999D01*
X157185999Y-56925999D01*
X157686000Y-56925999D01*
X158035972Y-56925999D01*
X158035986Y-56925998D01*
X158138697Y-56915505D01*
X158305119Y-56860358D01*
X158305124Y-56860356D01*
X158454345Y-56768315D01*
X158578315Y-56644345D01*
X158670356Y-56495124D01*
X158670358Y-56495119D01*
X158725505Y-56328697D01*
X158725506Y-56328690D01*
X158735999Y-56225986D01*
X158736000Y-56225973D01*
X158736000Y-55876000D01*
X157686000Y-55876000D01*
X157686000Y-56925999D01*
X157185999Y-56925999D01*
X157186000Y-56925998D01*
X157186000Y-55876000D01*
X156136001Y-55876000D01*
X156136001Y-56225986D01*
X145761026Y-56225986D01*
X145819368Y-56059255D01*
X145839565Y-55880000D01*
X145839114Y-55876000D01*
X145819369Y-55700750D01*
X145819368Y-55700745D01*
X145793214Y-55626001D01*
X145759789Y-55530478D01*
X145663816Y-55377738D01*
X145536262Y-55250184D01*
X145423776Y-55179504D01*
X145383523Y-55154211D01*
X145213254Y-55094631D01*
X145213249Y-55094630D01*
X145034004Y-55074435D01*
X145033996Y-55074435D01*
X144854750Y-55094630D01*
X144854745Y-55094631D01*
X144684476Y-55154211D01*
X144531737Y-55250184D01*
X144404184Y-55377737D01*
X144308211Y-55530476D01*
X144248631Y-55700745D01*
X144248630Y-55700750D01*
X144228435Y-55879996D01*
X130845468Y-55879996D01*
X130844248Y-55866060D01*
X130833377Y-55741796D01*
X130825635Y-55653308D01*
X130766739Y-55433504D01*
X130670568Y-55227266D01*
X130540047Y-55040861D01*
X130540045Y-55040858D01*
X130379141Y-54879954D01*
X130192734Y-54749432D01*
X130192732Y-54749431D01*
X129986497Y-54653261D01*
X129986488Y-54653258D01*
X129766697Y-54594366D01*
X129766693Y-54594365D01*
X129766692Y-54594365D01*
X129766691Y-54594364D01*
X129766686Y-54594364D01*
X129540002Y-54574532D01*
X129539998Y-54574532D01*
X129313313Y-54594364D01*
X129313302Y-54594366D01*
X129093511Y-54653258D01*
X129093502Y-54653261D01*
X128887267Y-54749431D01*
X128887265Y-54749432D01*
X128700858Y-54879954D01*
X128539954Y-55040858D01*
X128409432Y-55227265D01*
X128409431Y-55227267D01*
X128313261Y-55433502D01*
X128313258Y-55433511D01*
X128254366Y-55653302D01*
X128254364Y-55653313D01*
X128234532Y-55879998D01*
X127240499Y-55879998D01*
X127240499Y-55279992D01*
X127229999Y-55177203D01*
X127174814Y-55010666D01*
X127082712Y-54861344D01*
X126958656Y-54737288D01*
X126809334Y-54645186D01*
X126642797Y-54590001D01*
X126642795Y-54590000D01*
X126540010Y-54579500D01*
X125339998Y-54579500D01*
X125339981Y-54579501D01*
X125237203Y-54590000D01*
X125237200Y-54590001D01*
X125070668Y-54645185D01*
X125070663Y-54645187D01*
X124921342Y-54737289D01*
X124797289Y-54861342D01*
X124705187Y-55010663D01*
X124705185Y-55010668D01*
X124695181Y-55040858D01*
X124650001Y-55177203D01*
X124650001Y-55177204D01*
X124650000Y-55177204D01*
X124639500Y-55279983D01*
X120027151Y-55279983D01*
X120002568Y-55227266D01*
X119872047Y-55040861D01*
X119872045Y-55040858D01*
X119711141Y-54879954D01*
X119524734Y-54749432D01*
X119524732Y-54749431D01*
X119318497Y-54653261D01*
X119318488Y-54653258D01*
X119098697Y-54594366D01*
X119098693Y-54594365D01*
X119098692Y-54594365D01*
X119098691Y-54594364D01*
X119098686Y-54594364D01*
X118872002Y-54574532D01*
X118871998Y-54574532D01*
X118645313Y-54594364D01*
X118645302Y-54594366D01*
X118425511Y-54653258D01*
X118425502Y-54653261D01*
X118219267Y-54749431D01*
X118219265Y-54749432D01*
X118032858Y-54879954D01*
X117871954Y-55040858D01*
X117741432Y-55227265D01*
X117741431Y-55227267D01*
X117645261Y-55433502D01*
X117645258Y-55433511D01*
X117586366Y-55653302D01*
X117586364Y-55653313D01*
X117566532Y-55879998D01*
X115572000Y-55879998D01*
X115572000Y-55840504D01*
X115551556Y-55764204D01*
X115512060Y-55695795D01*
X115456205Y-55639940D01*
X115438988Y-55630000D01*
X115522000Y-55630000D01*
X116571999Y-55630000D01*
X116571999Y-55280028D01*
X116571998Y-55280013D01*
X116561505Y-55177302D01*
X116506358Y-55010880D01*
X116506356Y-55010875D01*
X116414315Y-54861654D01*
X116290345Y-54737684D01*
X116141124Y-54645643D01*
X116141119Y-54645641D01*
X115974697Y-54590494D01*
X115974690Y-54590493D01*
X115871986Y-54580000D01*
X115522000Y-54580000D01*
X115522000Y-55630000D01*
X115438988Y-55630000D01*
X115387796Y-55600444D01*
X115311496Y-55580000D01*
X115232504Y-55580000D01*
X115156204Y-55600444D01*
X115087795Y-55639940D01*
X115031940Y-55695795D01*
X114992444Y-55764204D01*
X114972000Y-55840504D01*
X109890502Y-55840504D01*
X109890502Y-55280013D01*
X113972000Y-55280013D01*
X113972000Y-55630000D01*
X115022000Y-55630000D01*
X115022000Y-54580000D01*
X114672028Y-54580000D01*
X114672012Y-54580001D01*
X114569302Y-54590494D01*
X114402880Y-54645641D01*
X114402875Y-54645643D01*
X114253654Y-54737684D01*
X114129684Y-54861654D01*
X114037643Y-55010875D01*
X114037641Y-55010880D01*
X113982494Y-55177302D01*
X113982493Y-55177309D01*
X113972000Y-55280013D01*
X109890502Y-55280013D01*
X109890502Y-54378500D01*
X109910187Y-54311461D01*
X109962991Y-54265706D01*
X110014502Y-54254500D01*
X131955892Y-54254500D01*
X131955894Y-54254500D01*
X132083188Y-54220392D01*
X132197316Y-54154500D01*
X132290502Y-54061314D01*
X132356394Y-53947186D01*
X132390502Y-53819892D01*
X132390502Y-44378500D01*
X132410187Y-44311461D01*
X132462991Y-44265706D01*
X132514502Y-44254500D01*
X134289022Y-44254500D01*
X134356061Y-44274185D01*
G37*
%TD.AperFunction*%
%TD*%
M02*
