M48
; DRILL file {KiCad 8.0.6} date 2024-11-27T03:53:47-0800
; FORMAT={-:-/ absolute / metric / decimal}
; #@! TF.CreationDate,2024-11-27T03:53:47-08:00
; #@! TF.GenerationSoftware,Kicad,Pcbnew,8.0.6
; #@! TF.FileFunction,Plated,1,3,Blind
FMAT,2
METRIC
; #@! TA.AperFunction,Plated,Buried,ViaDrill
T1C0.300
%
G90
G05
T1
X112.522Y-57.15
X114.3Y-74.93
X117.348Y-82.55
X118.11Y-70.104
X121.158Y-84.582
X121.666Y-60.198
X124.46Y-59.436
X124.46Y-75.946
X124.714Y-88.646
X129.54Y-66.04
X132.588Y-58.674
X138.176Y-47.984
X138.43Y-75.184
X138.43Y-76.2
X138.684Y-56.874
X140.208Y-45.698
X142.936Y-46.256
X145.034Y-75.438
X145.034Y-96.774
X147.49Y-81.872
X148.656Y-55.852
X149.86Y-91.594
X151.61Y-47.94
X152.146Y-96.774
X152.654Y-62.484
X153.67Y-60.96
X155.448Y-55.626
X156.972Y-98.298
X159.512Y-82.55
X164.084Y-104.14
X164.868Y-58.928
X170.434Y-67.288
X174.984Y-58.928
X176.276Y-119.888
X176.784Y-86.868
X177.292Y-84.074
X179.07Y-94.996
X182.88Y-74.422
X185.166Y-73.914
X191.516Y-69.342
X193.294Y-80.518
X196.85Y-72.644
M30
